<?xml version="1.0" encoding="UTF-8"?><svg id="uuid-67a43f79-3d26-4555-b49b-a473f7104688" xmlns="http://www.w3.org/2000/svg" viewBox="0 0 1200 630"><defs><style>.uuid-9e6846fd-9c3b-477e-a9a0-9f03179e7e32{fill:#091016;}.uuid-621de3b8-25ed-47eb-a18b-ef22f688c6e4{fill:#5c9fd8;opacity:.5;}</style></defs><rect class="uuid-621de3b8-25ed-47eb-a18b-ef22f688c6e4" x="-120.927" y="-45.30785" width="1429.75251" height="719.09995"/><path class="uuid-9e6846fd-9c3b-477e-a9a0-9f03179e7e32" d="m306.78018,304.79193c-3.23145,1.54492-10.89062,3.44727-20.58447,3.44727-27.88379,0-42.24512-17.35449-42.24512-40.17676,0-27.33887,19.62695-42.43555,44.04053-42.43555,9.4541,0,16.63477,1.7832,19.86572,3.56641l-3.82959,14.26367c-3.58984-1.54492-8.73633-2.97168-15.31836-2.97168-14.36084,0-25.61035,8.67773-25.61035,26.50684,0,16.04785,9.57422,26.15137,25.72998,26.15137,5.625,0,11.60889-1.07031,15.31836-2.61523l2.6333,14.26367Z"/><path class="uuid-9e6846fd-9c3b-477e-a9a0-9f03179e7e32" d="m337.17764,226.81635v30.78613h30.03809v-30.78613h18.19043v80.11523h-18.19043v-33.52051h-30.03809v33.52051h-18.19092v-80.11523h18.19092Z"/><path class="uuid-9e6846fd-9c3b-477e-a9a0-9f03179e7e32" d="m475.16348,266.04193c0,26.3877-15.9165,42.19727-39.6123,42.19727-23.81543,0-37.93701-17.94922-37.93701-40.88965,0-24.01172,15.55762-41.95996,39.25342-41.95996,24.77246,0,38.2959,18.42383,38.2959,40.65234Zm-58.28174.9502c0,15.80957,7.41992,26.86426,19.62695,26.86426,12.32617,0,19.38721-11.64941,19.38721-27.2207,0-14.50098-6.82129-26.86328-19.38721-26.86328-12.44629,0-19.62695,11.64844-19.62695,27.21973Z"/><path class="uuid-9e6846fd-9c3b-477e-a9a0-9f03179e7e32" d="m546.25186,304.79193c-3.23096,1.54492-10.89014,3.44727-20.58398,3.44727-27.88379,0-42.24512-17.35449-42.24512-40.17676,0-27.33887,19.62695-42.43555,44.04053-42.43555,9.4541,0,16.63477,1.7832,19.86572,3.56641l-3.82959,14.26367c-3.58984-1.54492-8.73584-2.97168-15.31836-2.97168-14.36084,0-25.61035,8.67773-25.61035,26.50684,0,16.04785,9.57422,26.15137,25.72998,26.15137,5.625,0,11.60889-1.07031,15.31836-2.61523l2.63281,14.26367Z"/><path class="uuid-9e6846fd-9c3b-477e-a9a0-9f03179e7e32" d="m628.58828,266.04193c0,26.3877-15.9165,42.19727-39.6123,42.19727-23.81543,0-37.93701-17.94922-37.93701-40.88965,0-24.01172,15.55762-41.95996,39.25342-41.95996,24.77246,0,38.2959,18.42383,38.2959,40.65234Zm-58.28174.9502c0,15.80957,7.41992,26.86426,19.62695,26.86426,12.32617,0,19.38721-11.64941,19.38721-27.2207,0-14.50098-6.82129-26.86328-19.38721-26.86328-12.44629,0-19.62695,11.64844-19.62695,27.21973Z"/><path class="uuid-9e6846fd-9c3b-477e-a9a0-9f03179e7e32" d="m640.67666,226.81635h18.19092v64.90039h32.07275v15.21484h-50.26367v-80.11523Z"/><path class="uuid-9e6846fd-9c3b-477e-a9a0-9f03179e7e32" d="m721.21768,286.3681l-5.74463,20.56348h-18.78857l24.5332-80.11523h23.93506l25.13135,80.11523h-19.74609l-6.22314-20.56348h-23.09717Zm20.46436-13.55078l-5.02637-16.99805c-1.43604-4.75488-2.87207-10.69824-4.06885-15.45215h-.23926c-1.19678,4.75391-2.39355,10.81641-3.70996,15.45215l-4.78711,16.99805h17.83154Z"/><path class="uuid-9e6846fd-9c3b-477e-a9a0-9f03179e7e32" d="m786.68105,242.03119h-21.78076v-15.21484h61.9917v15.21484h-22.02002v64.90039h-18.19092v-64.90039Z"/><path class="uuid-9e6846fd-9c3b-477e-a9a0-9f03179e7e32" d="m884.5751,273.05463h-29.6792v19.01855h33.1499v14.8584h-51.34082v-80.11523h49.66504v14.85742h-31.47412v16.6416h29.6792v14.73926Z"/><path class="uuid-9e6846fd-9c3b-477e-a9a0-9f03179e7e32" d="m919.1625,306.93158v-32.80664l-25.49072-47.30859h20.94287l8.13818,19.25586c2.51318,5.82422,4.30811,10.10352,6.22266,15.33398h.23975c1.79492-4.99219,3.70996-9.62891,6.10303-15.33398l8.13818-19.25586h20.46436l-26.56787,46.71387v33.40137h-18.19043Z"/><path class="uuid-9e6846fd-9c3b-477e-a9a0-9f03179e7e32" d="m432.38223,326.3017c4.89697-.8584,14.69092-1.7168,24.11719-1.7168,11.38525,0,18.36328,1.10352,24.48438,4.66113,5.75391,3.06738,9.79346,8.71094,9.79346,16.31641,0,7.23828-4.28467,13.98633-13.58887,17.54395v.24512c9.42676,2.4541,16.40479,9.69141,16.40479,20.24219,0,7.60645-3.42773,13.49512-8.56982,17.66602-5.99854,4.78516-16.03711,7.4834-32.44141,7.4834-9.18164,0-16.03711-.61328-20.19971-1.22656v-81.21484Zm18.48584,31.65234h6.12109c9.91602,0,15.05762-4.04883,15.05762-10.18262,0-6.25684-4.77441-9.56934-13.22119-9.56934-4.1626,0-6.48828.24512-7.95752.49121v19.26074Zm0,36.68066c1.83643.24609,4.04004.24609,7.22266.24609,8.44727,0,15.91504-3.3125,15.91504-12.02344,0-8.21875-7.46777-11.53125-16.77197-11.53125h-6.36572v23.30859Z"/><path class="uuid-9e6846fd-9c3b-477e-a9a0-9f03179e7e32" d="m524.92813,325.19818v47.47754c0,14.35352,5.50879,21.5918,14.93506,21.5918,9.79395,0,15.18066-6.87012,15.18066-21.5918v-47.47754h18.60791v46.37305c0,25.51758-12.85449,37.66309-34.40039,37.66309-20.81152,0-32.93164-11.6543-32.93164-37.9082v-46.12793h18.6084Z"/><path class="uuid-9e6846fd-9c3b-477e-a9a0-9f03179e7e32" d="m590.41836,388.62396c4.89697,2.57617,12.73193,5.15234,20.68896,5.15234,8.56982,0,13.09912-3.55762,13.09912-8.95605,0-5.15234-3.91748-8.09668-13.8335-11.53125-13.71094-4.90723-22.77051-12.51367-22.77051-24.53613,0-14.1084,11.875-24.78223,31.21777-24.78223,9.42627,0,16.15967,1.84082,21.05615,4.17188l-4.16211,14.9668c-3.18311-1.59473-9.18164-3.92578-17.13916-3.92578-8.07959,0-11.99707,3.80273-11.99707,7.97461,0,5.27539,4.5293,7.60547,15.30273,11.6543,14.56787,5.39844,21.30127,13.00391,21.30127,24.65918,0,13.8623-10.52832,25.63965-33.17627,25.63965-9.42627,0-18.73047-2.57617-23.38232-5.15234l3.79492-15.33496Z"/><path class="uuid-9e6846fd-9c3b-477e-a9a0-9f03179e7e32" d="m674.64053,325.19818v82.68652h-18.60791v-82.68652h18.60791Z"/><path class="uuid-9e6846fd-9c3b-477e-a9a0-9f03179e7e32" d="m690.79678,407.88471v-82.68652h21.79102l17.13916,30.30176c4.89697,8.71094,9.67139,19.01562,13.46631,28.33984h.24512c-1.10205-10.91895-1.46924-22.08301-1.46924-34.59668v-24.04492h17.13916v82.68652h-19.58789l-17.62842-31.89648c-4.89697-8.83398-10.40576-19.50684-14.32324-29.19824h-.48975c.6123,11.04102.85693,22.69531.85693,36.19043v24.9043h-17.13916Z"/><path class="uuid-9e6846fd-9c3b-477e-a9a0-9f03179e7e32" d="m824.35342,372.92084h-30.36084v19.62891h33.91064v15.33496h-52.51855v-82.68652h50.80469v15.33496h-32.19678v17.1748h30.36084v15.21289Z"/><path class="uuid-9e6846fd-9c3b-477e-a9a0-9f03179e7e32" d="m841.24404,388.62396c4.89697,2.57617,12.73193,5.15234,20.68945,5.15234,8.56934,0,13.09863-3.55762,13.09863-8.95605,0-5.15234-3.91748-8.09668-13.8335-11.53125-13.71094-4.90723-22.77002-12.51367-22.77002-24.53613,0-14.1084,11.87451-24.78223,31.21729-24.78223,9.42627,0,16.15967,1.84082,21.05615,4.17188l-4.16211,14.9668c-3.18311-1.59473-9.18164-3.92578-17.13916-3.92578-8.07959,0-11.99707,3.80273-11.99707,7.97461,0,5.27539,4.52979,7.60547,15.30273,11.6543,14.56787,5.39844,21.30127,13.00391,21.30127,24.65918,0,13.8623-10.52832,25.63965-33.17627,25.63965-9.42627,0-18.73047-2.57617-23.38232-5.15234l3.79492-15.33496Z"/><path class="uuid-9e6846fd-9c3b-477e-a9a0-9f03179e7e32" d="m907.34756,388.62396c4.89697,2.57617,12.73193,5.15234,20.68945,5.15234,8.56934,0,13.09863-3.55762,13.09863-8.95605,0-5.15234-3.91748-8.09668-13.8335-11.53125-13.71094-4.90723-22.77002-12.51367-22.77002-24.53613,0-14.1084,11.87451-24.78223,31.21729-24.78223,9.42627,0,16.15967,1.84082,21.05615,4.17188l-4.16211,14.9668c-3.18311-1.59473-9.18164-3.92578-17.13916-3.92578-8.07959,0-11.99707,3.80273-11.99707,7.97461,0,5.27539,4.52979,7.60547,15.30273,11.6543,14.56787,5.39844,21.30127,13.00391,21.30127,24.65918,0,13.8623-10.52832,25.63965-33.17627,25.63965-9.42627,0-18.73047-2.57617-23.38232-5.15234l3.79492-15.33496Z"/><path class="uuid-9e6846fd-9c3b-477e-a9a0-9f03179e7e32" d="m261.3168,343.12299h28.67871v8.74121h-18.07275v10.76953h16.88672v8.67188h-16.88672v18.95117h-10.60596v-47.13379Z"/><path class="uuid-9e6846fd-9c3b-477e-a9a0-9f03179e7e32" d="m341.07266,366.20014c0,15.52539-9.28076,24.82617-23.09668,24.82617-13.88574,0-22.11963-10.55957-22.11963-24.05664,0-14.12598,9.07129-24.68555,22.88721-24.68555,14.44434,0,22.3291,10.83887,22.3291,23.91602Zm-33.98193.55957c0,9.30078,4.32617,15.80469,11.44336,15.80469,7.1875,0,11.3042-6.85352,11.3042-16.01465,0-8.53125-3.97754-15.80371-11.3042-15.80371-7.25684,0-11.44336,6.85254-11.44336,16.01367Z"/><path class="uuid-9e6846fd-9c3b-477e-a9a0-9f03179e7e32" d="m348.04971,343.75287c3.41895-.55957,8.44287-.97949,14.16504-.97949,6.97754,0,11.8623,1.04883,15.21143,3.70703,2.86084,2.2373,4.396,5.59375,4.396,9.92969,0,5.94434-4.25635,10.07031-8.30322,11.53906v.20898c3.2793,1.3291,5.09375,4.40625,6.27979,8.74219,1.46533,5.38477,2.86084,11.53809,3.76807,13.35645h-10.88525c-.69775-1.39844-1.88428-5.1748-3.20996-10.97949-1.32568-5.94336-3.34912-7.48242-7.74561-7.55176h-3.13965v18.53125h-10.53662v-46.50391Zm10.53662,20.2793h4.18652c5.30322,0,8.44336-2.65723,8.44336-6.7832,0-4.26562-2.93066-6.50293-7.81543-6.50293-2.58154,0-4.04688.13965-4.81445.34961v12.93652Z"/><rect class="uuid-9e6846fd-9c3b-477e-a9a0-9f03179e7e32" x="239.76189" y="324.29747" width="171.32574" height="5.21143"/><rect class="uuid-9e6846fd-9c3b-477e-a9a0-9f03179e7e32" x="235.24038" y="404.32971" width="175.4087" height="5.33563"/></svg>