<?xml version="1.0" encoding="UTF-8"?><svg id="uuid-a36f0cbe-1385-43e1-9678-a170cc5663e9" xmlns="http://www.w3.org/2000/svg" viewBox="0 0 1600 2500" fill="#5c9fd8" opacity=".2"><path d="m-243-104.5v3060h2327V-104.5H-243Zm1554.76758,1221.75v102.5l-88.76758,51.25-88.76758-51.25v-102.5l88.76758-51.25,88.76758,51.25Zm-83.53516-60.5v-102.5l88.76758-51.25,88.76758,51.25v102.5l-88.76758,51.25-88.76758-51.25Zm-10.46484,0l-88.76758,51.25-88.76758-51.25v-102.5l88.76758-51.25,88.76758,51.25v102.5Zm-94,60.5v102.5l-88.76758,51.25-88.76758-51.25v-102.5l88.76758-51.25,88.76758,51.25Zm-94-60.5l-88.76758,51.25-88.76758-51.25v-102.5l88.76758-51.25,88.76758,51.25v102.5Zm-94,60.5v102.5l-88.76758,51.25-88.76758-51.25v-102.5l88.76758-51.25,88.76758,51.25Zm-94-60.5l-88.76758,51.25-88.76758-51.25v-102.5l88.76758-51.25,88.76758,51.25v102.5Zm-94,60.5v102.5l-88.76758,51.25-88.76758-51.25v-102.5l88.76758-51.25,88.76758,51.25Zm-94-60.5l-88.76758,51.25-88.76758-51.25v-102.5l88.76758-51.25,88.76758,51.25v102.5Zm-94,60.5v102.5l-88.76758,51.25-88.76758-51.25v-102.5l88.76758-51.25,88.76758,51.25Zm-94-60.5l-88.76758,51.25-88.76758-51.25v-102.5l88.76758-51.25,88.76758,51.25v102.5Zm-94,60.5v102.5l-88.76758,51.25-88.76758-51.25v-102.5l88.76758-51.25,88.76758,51.25Zm-94-60.5l-88.76758,51.25-88.76758-51.25v-102.5l88.76758-51.25,88.76758,51.25v102.5Zm0,223.5v102.5l-88.76758,51.25-88.76758-51.25v-102.5l88.76758-51.25,88.76758,51.25Zm-83.53516,163l88.76758-51.25,88.76758,51.25v102.5l-88.76758,51.25-88.76758-51.25v-102.5Zm94-60.5v-102.5l88.76758-51.25,88.76758,51.25v102.5l-88.76758,51.25-88.76758-51.25Zm94,60.5l88.76758-51.25,88.76758,51.25v102.5l-88.76758,51.25-88.76758-51.25v-102.5Zm94-60.5v-102.5l88.76758-51.25,88.76758,51.25v102.5l-88.76758,51.25-88.76758-51.25Zm94,60.5l88.76758-51.25,88.76758,51.25v102.5l-88.76758,51.25-88.76758-51.25v-102.5Zm94-60.5v-102.5l88.76758-51.25,88.76758,51.25v102.5l-88.76758,51.25-88.76758-51.25Zm94,60.5l88.76758-51.25,88.76758,51.25v102.5l-88.76758,51.25-88.76758-51.25v-102.5Zm94-60.5v-102.5l88.76758-51.25,88.76758,51.25v102.5l-88.76758,51.25-88.76758-51.25Zm94,60.5l88.76758-51.25,88.76758,51.25v102.5l-88.76758,51.25-88.76758-51.25v-102.5Zm94-60.5v-102.5l88.76758-51.25,88.76758,51.25v102.5l-88.76758,51.25-88.76758-51.25Zm94,60.5l88.76758-51.25,88.76758,51.25v102.5l-88.76758,51.25-88.76758-51.25v-102.5Zm94-60.5v-102.5l88.76758-51.25,88.76758,51.25v102.5l-88.76758,51.25-88.76758-51.25Zm94,60.5l88.76758-51.25,88.76758,51.25v102.5l-88.76758,51.25-88.76758-51.25v-102.5Zm0-223.5v-102.5l88.76758-51.25,88.76758,51.25v102.5l-88.76758,51.25-88.76758-51.25Zm0-326v-102.5l88.76758-51.25,88.76758,51.25v102.5l-88.76758,51.25-88.76758-51.25Zm83.53516-163l-88.76758,51.25-88.76758-51.25v-102.5l88.76758-51.25,88.76758,51.25v102.5Zm-94,60.5v102.5l-88.76758,51.25-88.76758-51.25v-102.5l88.76758-51.25,88.76758,51.25Zm-94-60.5l-88.76758,51.25-88.76758-51.25v-102.5l88.76758-51.25,88.76758,51.25v102.5Zm-94,60.5v102.5l-88.76758,51.25-88.76758-51.25v-102.5l88.76758-51.25,88.76758,51.25Zm-94-60.5l-88.76758,51.25-88.76758-51.25v-102.5l88.76758-51.25,88.76758,51.25v102.5Zm-94,60.5v102.5l-88.76758,51.25-88.76758-51.25v-102.5l88.76758-51.25,88.76758,51.25Zm-94-60.5l-88.76758,51.25-88.76758-51.25v-102.5l88.76758-51.25,88.76758,51.25v102.5Zm-94,60.5v102.5l-88.76758,51.25-88.76758-51.25v-102.5l88.76758-51.25,88.76758,51.25Zm-94-60.5l-88.76758,51.25-88.76758-51.25v-102.5l88.76758-51.25,88.76758,51.25v102.5Zm-94,60.5v102.5l-88.76758,51.25-88.76758-51.25v-102.5l88.76758-51.25,88.76758,51.25Zm-94-60.5l-88.76758,51.25-88.76758-51.25v-102.5l88.76758-51.25,88.76758,51.25v102.5Zm-94,60.5v102.5l-88.76758,51.25-88.76758-51.25v-102.5l88.76758-51.25,88.76758,51.25Zm-94-60.5l-88.76758,51.25-88.76758-51.25v-102.5l88.76758-51.25,88.76758,51.25v102.5Zm-94,60.5v102.5l-88.76758,51.25-88.76758-51.25v-102.5l88.76758-51.25,88.76758,51.25Zm0,326v102.5l-88.76758,51.25-88.76758-51.25v-102.5l88.76758-51.25,88.76758,51.25Zm0,326v102.5l-88.76758,51.25-88.76758-51.25v-102.5l88.76758-51.25,88.76758,51.25Zm0,326v102.5l-88.76758,51.25-88.76758-51.25v-102.5l88.76758-51.25,88.76758,51.25Zm-83.53516-60.5v-102.5l88.76758-51.25,88.76758,51.25v102.5l-88.76758,51.25-88.76758-51.25Zm94,60.5l88.76758-51.25,88.76758,51.25v102.5l-88.76758,51.25-88.76758-51.25v-102.5Zm94-60.5v-102.5l88.76758-51.25,88.76758,51.25v102.5l-88.76758,51.25-88.76758-51.25Zm94,60.5l88.76758-51.25,88.76758,51.25v102.5l-88.76758,51.25-88.76758-51.25v-102.5Zm94-60.5v-102.5l88.76758-51.25,88.76758,51.25v102.5l-88.76758,51.25-88.76758-51.25Zm94,60.5l88.76758-51.25,88.76758,51.25v102.5l-88.76758,51.25-88.76758-51.25v-102.5Zm94-60.5v-102.5l88.76758-51.25,88.76758,51.25v102.5l-88.76758,51.25-88.76758-51.25Zm94,60.5l88.76758-51.25,88.76758,51.25v102.5l-88.76758,51.25-88.76758-51.25v-102.5Zm94-60.5v-102.5l88.76758-51.25,88.76758,51.25v102.5l-88.76758,51.25-88.76758-51.25Zm94,60.5l88.76758-51.25,88.76758,51.25v102.5l-88.76758,51.25-88.76758-51.25v-102.5Zm94-60.5v-102.5l88.76758-51.25,88.76758,51.25v102.5l-88.76758,51.25-88.76758-51.25Zm94,60.5l88.76758-51.25,88.76758,51.25v102.5l-88.76758,51.25-88.76758-51.25v-102.5Zm94-60.5v-102.5l88.76758-51.25,88.76758,51.25v102.5l-88.76758,51.25-88.76758-51.25Zm94,60.5l88.76758-51.25,88.76758,51.25v102.5l-88.76758,51.25-88.76758-51.25v-102.5Zm94-60.5v-102.5l88.76758-51.25,88.76758,51.25v102.5l-88.76758,51.25-88.76758-51.25Zm0-326v-102.5l88.76758-51.25,88.76758,51.25v102.5l-88.76758,51.25-88.76758-51.25Zm0-326v-102.5l88.76758-51.25,88.76758,51.25v102.5l-88.76758,51.25-88.76758-51.25Zm0-326v-102.5l88.76758-51.25,88.76758,51.25v102.5l-88.76758,51.25-88.76758-51.25Zm0-326v-102.5l88.76758-51.25,88.76758,51.25v102.5l-88.76758,51.25-88.76758-51.25Zm83.53516,60.5v102.5l-88.76758,51.25-88.76758-51.25v-102.5l88.76758-51.25,88.76758,51.25Zm-94-60.5l-88.76758,51.25-88.76758-51.25v-102.5l88.76758-51.25,88.76758,51.25v102.5Zm-94,60.5v102.5l-88.76758,51.25-88.76758-51.25v-102.5l88.76758-51.25,88.76758,51.25Zm-94-60.5l-88.76758,51.25-88.76758-51.25v-102.5l88.76758-51.25,88.76758,51.25v102.5Zm-94,60.5v102.5l-88.76758,51.25-88.76758-51.25v-102.5l88.76758-51.25,88.76758,51.25Zm-94-60.5l-88.76758,51.25-88.76758-51.25v-102.5l88.76758-51.25,88.76758,51.25v102.5Zm-94,60.5v102.5l-88.76758,51.25-88.76758-51.25v-102.5l88.76758-51.25,88.76758,51.25Zm-94-60.5l-88.76758,51.25-88.76758-51.25v-102.5l88.76758-51.25,88.76758,51.25v102.5Zm-94,60.5v102.5l-88.76758,51.25-88.76758-51.25v-102.5l88.76758-51.25,88.76758,51.25Zm-94-60.5l-88.76758,51.25-88.76758-51.25v-102.5l88.76758-51.25,88.76758,51.25v102.5Zm-94,60.5v102.5l-88.76758,51.25-88.76758-51.25v-102.5l88.76758-51.25,88.76758,51.25Zm-94-60.5l-88.76758,51.25-88.76758-51.25v-102.5l88.76758-51.25,88.76758,51.25v102.5Zm-94,60.5v102.5l-88.76758,51.25-88.76758-51.25v-102.5l88.76758-51.25,88.76758,51.25Zm-94-60.5l-88.76758,51.25-88.76758-51.25v-102.5l88.76758-51.25,88.76758,51.25v102.5Zm-94,60.5v102.5l-88.76758,51.25-88.76758-51.25v-102.5l88.76758-51.25,88.76758,51.25Zm-94-60.5L1,456l-88.76758-51.25v-102.5L1,251l88.76758,51.25v102.5Zm0,223.5v102.5L1,782l-88.76758-51.25v-102.5L1,577l88.76758,51.25Zm0,326v102.5L1,1108l-88.76758-51.25v-102.5L1,903l88.76758,51.25Zm0,326v102.5L1,1434l-88.76758-51.25v-102.5L1,1229l88.76758,51.25Zm0,326v102.5L1,1760l-88.76758-51.25v-102.5L1,1555l88.76758,51.25Zm0,326v102.5l-88.76758,51.25-88.76758-51.25v-102.5L1,1881l88.76758,51.25Zm-83.53516,163l88.76758-51.25,88.76758,51.25v102.5l-88.76758,51.25-88.76758-51.25v-102.5Zm94-60.5v-102.5l88.76758-51.25,88.76758,51.25v102.5l-88.76758,51.25-88.76758-51.25Zm94,60.5l88.76758-51.25,88.76758,51.25v102.5l-88.76758,51.25-88.76758-51.25v-102.5Zm94-60.5v-102.5l88.76758-51.25,88.76758,51.25v102.5l-88.76758,51.25-88.76758-51.25Zm94,60.5l88.76758-51.25,88.76758,51.25v102.5l-88.76758,51.25-88.76758-51.25v-102.5Zm94-60.5v-102.5l88.76758-51.25,88.76758,51.25v102.5l-88.76758,51.25-88.76758-51.25Zm94,60.5l88.76758-51.25,88.76758,51.25v102.5l-88.76758,51.25-88.76758-51.25v-102.5Zm94-60.5v-102.5l88.76758-51.25,88.76758,51.25v102.5l-88.76758,51.25-88.76758-51.25Zm94,60.5l88.76758-51.25,88.76758,51.25v102.5l-88.76758,51.25-88.76758-51.25v-102.5Zm94-60.5v-102.5l88.76758-51.25,88.76758,51.25v102.5l-88.76758,51.25-88.76758-51.25Zm94,60.5l88.76758-51.25,88.76758,51.25v102.5l-88.76758,51.25-88.76758-51.25v-102.5Zm94-60.5v-102.5l88.76758-51.25,88.76758,51.25v102.5l-88.76758,51.25-88.76758-51.25Zm94,60.5l88.76758-51.25,88.76758,51.25v102.5l-88.76758,51.25-88.76758-51.25v-102.5Zm94-60.5v-102.5l88.76758-51.25,88.76758,51.25v102.5l-88.76758,51.25-88.76758-51.25Zm94,60.5l88.76758-51.25,88.76758,51.25v102.5l-88.76758,51.25-88.76758-51.25v-102.5Zm94-60.5v-102.5l88.76758-51.25,88.76758,51.25v102.5l-88.76758,51.25-88.76758-51.25Zm94,60.5l88.76758-51.25,88.76758,51.25v102.5l-88.76758,51.25-88.76758-51.25v-102.5Zm0-223.5v-102.5l88.76758-51.25,88.76758,51.25v102.5l-88.76758,51.25-88.76758-51.25Zm0-326v-102.5l88.76758-51.25,88.76758,51.25v102.5l-88.76758,51.25-88.76758-51.25Zm0-326v-102.5l88.76758-51.25,88.76758,51.25v102.5l-88.76758,51.25-88.76758-51.25Zm0-326v-102.5l88.76758-51.25,88.76758,51.25v102.5l-88.76758,51.25-88.76758-51.25Zm0-326v-102.5l88.76758-51.25,88.76758,51.25v102.5l-88.76758,51.25-88.76758-51.25Zm0-326v-102.5l88.76758-51.25,88.76758,51.25v102.5l-88.76758,51.25-88.76758-51.25Zm-94-265.5l88.76758-51.25,88.76758,51.25v102.5l-88.76758,51.25-88.76758-51.25V-23.75Zm83.53516,163v102.5l-88.76758,51.25-88.76758-51.25v-102.5l88.76758-51.25,88.76758,51.25ZM1228.23242-23.75l88.76758-51.25,88.76758,51.25v102.5l-88.76758,51.25-88.76758-51.25V-23.75Zm83.53516,163v102.5l-88.76758,51.25-88.76758-51.25v-102.5l88.76758-51.25,88.76758,51.25ZM1040.23242-23.75l88.76758-51.25,88.76758,51.25v102.5l-88.76758,51.25-88.76758-51.25V-23.75Zm83.53516,163v102.5l-88.76758,51.25-88.76758-51.25v-102.5l88.76758-51.25,88.76758,51.25ZM852.23242-23.75l88.76758-51.25,88.76758,51.25v102.5l-88.76758,51.25-88.76758-51.25V-23.75Zm83.53516,163v102.5l-88.76758,51.25-88.76758-51.25v-102.5l88.76758-51.25,88.76758,51.25ZM664.23242-23.75l88.76758-51.25,88.76758,51.25v102.5l-88.76758,51.25-88.76758-51.25V-23.75Zm83.53516,163v102.5l-88.76758,51.25-88.76758-51.25v-102.5l88.76758-51.25,88.76758,51.25ZM476.23242-23.75l88.76758-51.25,88.76758,51.25v102.5l-88.76758,51.25-88.76758-51.25V-23.75Zm83.53516,163v102.5l-88.76758,51.25-88.76758-51.25v-102.5l88.76758-51.25,88.76758,51.25ZM288.23242-23.75l88.76758-51.25,88.76758,51.25v102.5l-88.76758,51.25-88.76758-51.25V-23.75Zm83.53516,163v102.5l-88.76758,51.25-88.76758-51.25v-102.5l88.76758-51.25,88.76758,51.25ZM100.23242-23.75l88.76758-51.25,88.76758,51.25v102.5l-88.76758,51.25-88.76758-51.25V-23.75Zm83.53516,163v102.5l-88.76758,51.25L6.23242,241.75v-102.5l88.76758-51.25,88.76758,51.25ZM-87.76758-23.75L1-75,89.76758-23.75v102.5L1,130l-88.76758-51.25V-23.75Zm-94,163l88.76758-51.25L-4.23242,139.25v102.5l-88.76758,51.25-88.76758-51.25v-102.5Zm0,326l88.76758-51.25L-4.23242,465.25v102.5l-88.76758,51.25-88.76758-51.25v-102.5Zm0,326l88.76758-51.25,88.76758,51.25v102.5l-88.76758,51.25-88.76758-51.25v-102.5Zm0,326l88.76758-51.25,88.76758,51.25v102.5l-88.76758,51.25-88.76758-51.25v-102.5Zm0,326l88.76758-51.25,88.76758,51.25v102.5l-88.76758,51.25-88.76758-51.25v-102.5Zm0,326l88.76758-51.25,88.76758,51.25v102.5l-88.76758,51.25-88.76758-51.25v-102.5Zm0,326l88.76758-51.25,88.76758,51.25v102.5l-88.76758,51.25-88.76758-51.25v-102.5ZM-4.23242,2523.75l-88.76758,51.25-88.76758-51.25v-102.5l88.76758-51.25,88.76758,51.25v102.5Zm-83.53516-163v-102.5l88.76758-51.25,88.76758,51.25v102.5l-88.76758,51.25-88.76758-51.25Zm271.53516,163l-88.76758,51.25-88.76758-51.25v-102.5l88.76758-51.25,88.76758,51.25v102.5Zm-83.53516-163v-102.5l88.76758-51.25,88.76758,51.25v102.5l-88.76758,51.25-88.76758-51.25Zm271.53516,163l-88.76758,51.25-88.76758-51.25v-102.5l88.76758-51.25,88.76758,51.25v102.5Zm-83.53516-163v-102.5l88.76758-51.25,88.76758,51.25v102.5l-88.76758,51.25-88.76758-51.25Zm271.53516,163l-88.76758,51.25-88.76758-51.25v-102.5l88.76758-51.25,88.76758,51.25v102.5Zm-83.53516-163v-102.5l88.76758-51.25,88.76758,51.25v102.5l-88.76758,51.25-88.76758-51.25Zm271.53516,163l-88.76758,51.25-88.76758-51.25v-102.5l88.76758-51.25,88.76758,51.25v102.5Zm-83.53516-163v-102.5l88.76758-51.25,88.76758,51.25v102.5l-88.76758,51.25-88.76758-51.25Zm271.53516,163l-88.76758,51.25-88.76758-51.25v-102.5l88.76758-51.25,88.76758,51.25v102.5Zm-83.53516-163v-102.5l88.76758-51.25,88.76758,51.25v102.5l-88.76758,51.25-88.76758-51.25Zm271.53516,163l-88.76758,51.25-88.76758-51.25v-102.5l88.76758-51.25,88.76758,51.25v102.5Zm-83.53516-163v-102.5l88.76758-51.25,88.76758,51.25v102.5l-88.76758,51.25-88.76758-51.25Zm271.53516,163l-88.76758,51.25-88.76758-51.25v-102.5l88.76758-51.25,88.76758,51.25v102.5Zm-83.53516-163v-102.5l88.76758-51.25,88.76758,51.25v102.5l-88.76758,51.25-88.76758-51.25Zm271.53516,163l-88.76758,51.25-88.76758-51.25v-102.5l88.76758-51.25,88.76758,51.25v102.5Zm-83.53516-163v-102.5l88.76758-51.25,88.76758,51.25v102.5l-88.76758,51.25-88.76758-51.25Zm271.53516,163l-88.76758,51.25-88.76758-51.25v-102.5l88.76758-51.25,88.76758,51.25v102.5Zm94-163l-88.76758,51.25-88.76758-51.25v-102.5l88.76758-51.25,88.76758,51.25v102.5Zm0-326l-88.76758,51.25-88.76758-51.25v-102.5l88.76758-51.25,88.76758,51.25v102.5Zm0-326l-88.76758,51.25-88.76758-51.25v-102.5l88.76758-51.25,88.76758,51.25v102.5Zm0-326l-88.76758,51.25-88.76758-51.25v-102.5l88.76758-51.25,88.76758,51.25v102.5Zm0-326l-88.76758,51.25-88.76758-51.25v-102.5l88.76758-51.25,88.76758,51.25v102.5Zm0-326l-88.76758,51.25-88.76758-51.25v-102.5l88.76758-51.25,88.76758,51.25v102.5Zm0-326l-88.76758,51.25-88.76758-51.25v-102.5l88.76758-51.25,88.76758,51.25v102.5Zm0-326l-88.76758,51.25-88.76758-51.25V-23.75l88.76758-51.25,88.76758,51.25v102.5Z"/></svg>