<?xml version="1.0" encoding="UTF-8"?><svg id="uuid-b0fa0e29-70e9-461a-a201-5f68a6685ed2" xmlns="http://www.w3.org/2000/svg" xmlns:xlink="http://www.w3.org/1999/xlink" viewBox="0 0 2700 1800"><defs><style>.uuid-deb8e85f-218f-4f7e-b39a-f92daa49c25e,.uuid-742c0f2a-e57b-45c2-96eb-676e3235350a,.uuid-ec9096b8-9e54-4552-9bf8-f04b46d4e725,.uuid-bc5cedd0-76bf-4678-aa71-750f4dc119bb,.uuid-412ddad7-5703-4f82-8d16-99807b64b6ad,.uuid-08514ea1-5c35-4d8b-b020-0376460345e3,.uuid-0e885b40-3dd4-4acb-964e-2ad489bab536,.uuid-3fb9f66b-393f-4473-bdcd-c4b90c47f53d,.uuid-a1b09e5f-fa6d-4a65-9553-7506320fd01f,.uuid-905a9b48-41e2-45ef-8222-07696dc23ec4,.uuid-87c0f44c-2315-4c1b-84a5-efa2003bec57,.uuid-00ba5a52-4467-444c-91ca-75c4dbe012ec,.uuid-66376461-e1f2-452c-a5fc-45c03d4b69ab,.uuid-bd3f6a6f-b1a8-4512-97ad-4257b5d8b92b,.uuid-72b409d2-6a73-4ec7-ae4d-1324fb1f7c62,.uuid-0c87fd1a-e15f-4e36-9c22-f9daa610d82e,.uuid-55fec207-136a-4d7e-8724-89cd2e222efa,.uuid-7632e14b-f732-44d9-bd19-d7f2219a43cf,.uuid-97ecdf22-76f2-4f46-bb82-bf244e829e11,.uuid-5dae960d-3a01-4ae6-ac79-533234c35ed8,.uuid-c1987dc4-177b-403f-af42-dc278ddae688,.uuid-21f3cacb-0c9d-4bfc-b906-147caacdb571,.uuid-08ff9991-d33c-4b0a-9dae-7295d1d5d182,.uuid-862a451e-99d9-44c0-9d9d-99f586a21405,.uuid-ad364079-0600-4064-8b4b-c25608f187e4,.uuid-eb1ce43d-2149-4dd9-b975-d6044bbd9cc6,.uuid-aedeb3e0-c32d-4528-b1f7-8f6778d3b5fa,.uuid-035b565b-5153-498c-973b-2759ddb4c8a9,.uuid-3dd74b52-a38d-4b76-a0fa-4f582ee3a1ea,.uuid-0ebec07f-00ac-42dd-81a5-1cc5dee5c646,.uuid-cee5e80e-b0d2-4326-b678-5df97e955773,.uuid-051bd2bd-6007-4a12-a478-344bc67d2d48,.uuid-3dd8d1d8-82ac-4b34-8f8f-54f6f48416ac,.uuid-1f95ed29-43cc-4b0c-8fb7-4e12df5d7261{fill:none;}.uuid-742c0f2a-e57b-45c2-96eb-676e3235350a{stroke-width:3.61257px;}.uuid-742c0f2a-e57b-45c2-96eb-676e3235350a,.uuid-ec9096b8-9e54-4552-9bf8-f04b46d4e725,.uuid-bc5cedd0-76bf-4678-aa71-750f4dc119bb,.uuid-412ddad7-5703-4f82-8d16-99807b64b6ad,.uuid-08514ea1-5c35-4d8b-b020-0376460345e3,.uuid-0e885b40-3dd4-4acb-964e-2ad489bab536,.uuid-3fb9f66b-393f-4473-bdcd-c4b90c47f53d,.uuid-a1b09e5f-fa6d-4a65-9553-7506320fd01f,.uuid-905a9b48-41e2-45ef-8222-07696dc23ec4,.uuid-87c0f44c-2315-4c1b-84a5-efa2003bec57,.uuid-00ba5a52-4467-444c-91ca-75c4dbe012ec,.uuid-66376461-e1f2-452c-a5fc-45c03d4b69ab,.uuid-bd3f6a6f-b1a8-4512-97ad-4257b5d8b92b,.uuid-72b409d2-6a73-4ec7-ae4d-1324fb1f7c62,.uuid-0c87fd1a-e15f-4e36-9c22-f9daa610d82e,.uuid-55fec207-136a-4d7e-8724-89cd2e222efa,.uuid-7632e14b-f732-44d9-bd19-d7f2219a43cf,.uuid-97ecdf22-76f2-4f46-bb82-bf244e829e11,.uuid-5dae960d-3a01-4ae6-ac79-533234c35ed8,.uuid-c1987dc4-177b-403f-af42-dc278ddae688,.uuid-21f3cacb-0c9d-4bfc-b906-147caacdb571,.uuid-08ff9991-d33c-4b0a-9dae-7295d1d5d182,.uuid-862a451e-99d9-44c0-9d9d-99f586a21405,.uuid-ad364079-0600-4064-8b4b-c25608f187e4,.uuid-eb1ce43d-2149-4dd9-b975-d6044bbd9cc6,.uuid-aedeb3e0-c32d-4528-b1f7-8f6778d3b5fa,.uuid-035b565b-5153-498c-973b-2759ddb4c8a9,.uuid-3dd74b52-a38d-4b76-a0fa-4f582ee3a1ea,.uuid-0ebec07f-00ac-42dd-81a5-1cc5dee5c646,.uuid-cee5e80e-b0d2-4326-b678-5df97e955773,.uuid-051bd2bd-6007-4a12-a478-344bc67d2d48,.uuid-3dd8d1d8-82ac-4b34-8f8f-54f6f48416ac,.uuid-1f95ed29-43cc-4b0c-8fb7-4e12df5d7261{stroke:#5c9fd8;stroke-miterlimit:10;}.uuid-ec9096b8-9e54-4552-9bf8-f04b46d4e725{stroke-width:4.50561px;}.uuid-bc5cedd0-76bf-4678-aa71-750f4dc119bb{stroke-width:7.18475px;}.uuid-412ddad7-5703-4f82-8d16-99807b64b6ad{stroke-width:2.273px;}.uuid-08514ea1-5c35-4d8b-b020-0376460345e3{stroke-width:.93343px;}.uuid-0e885b40-3dd4-4acb-964e-2ad489bab536{stroke-width:6.2917px;}.uuid-3fb9f66b-393f-4473-bdcd-c4b90c47f53d{stroke-width:3.16605px;}.uuid-a1b09e5f-fa6d-4a65-9553-7506320fd01f{stroke-width:4.95214px;}.uuid-905a9b48-41e2-45ef-8222-07696dc23ec4{stroke-width:2.49626px;}.uuid-87c0f44c-2315-4c1b-84a5-efa2003bec57{stroke-width:5.1754px;}.uuid-00ba5a52-4467-444c-91ca-75c4dbe012ec{stroke-width:1.82648px;}.uuid-66376461-e1f2-452c-a5fc-45c03d4b69ab{stroke-width:3.38931px;}.uuid-bd3f6a6f-b1a8-4512-97ad-4257b5d8b92b{stroke-width:6.06844px;}.uuid-72b409d2-6a73-4ec7-ae4d-1324fb1f7c62{stroke-width:1.37996px;}.uuid-0c87fd1a-e15f-4e36-9c22-f9daa610d82e{stroke-width:6.73822px;}.uuid-55fec207-136a-4d7e-8724-89cd2e222efa{stroke-width:6.96149px;}.uuid-7632e14b-f732-44d9-bd19-d7f2219a43cf{stroke-width:.71017px;}.uuid-97ecdf22-76f2-4f46-bb82-bf244e829e11{stroke-width:3.83583px;}.uuid-5dae960d-3a01-4ae6-ac79-533234c35ed8{stroke-width:.26365px;}.uuid-c1987dc4-177b-403f-af42-dc278ddae688{stroke-width:6.51496px;}.uuid-21f3cacb-0c9d-4bfc-b906-147caacdb571{stroke-width:4.05909px;}.uuid-08ff9991-d33c-4b0a-9dae-7295d1d5d182{stroke-width:1.60322px;}.uuid-862a451e-99d9-44c0-9d9d-99f586a21405{stroke-width:2.04974px;}.uuid-ad364079-0600-4064-8b4b-c25608f187e4{stroke-width:5.84518px;}.uuid-eb1ce43d-2149-4dd9-b975-d6044bbd9cc6{stroke-width:2.94278px;}.uuid-aedeb3e0-c32d-4528-b1f7-8f6778d3b5fa{stroke-width:1.15669px;}.uuid-035b565b-5153-498c-973b-2759ddb4c8a9{stroke-width:5.62192px;}.uuid-4e414849-b0b4-48f9-bf24-32276a1549fa{clip-path:url(#uuid-40913a39-ebcb-4e7a-944c-07eb923ada2c);}.uuid-3dd74b52-a38d-4b76-a0fa-4f582ee3a1ea{stroke-width:4.28235px;}.uuid-0ebec07f-00ac-42dd-81a5-1cc5dee5c646{stroke-width:4.72887px;}.uuid-cee5e80e-b0d2-4326-b678-5df97e955773{stroke-width:5.39866px;}.uuid-051bd2bd-6007-4a12-a478-344bc67d2d48{stroke-width:2.71952px;}.uuid-3dd8d1d8-82ac-4b34-8f8f-54f6f48416ac{stroke-width:.04039px;}.uuid-1f95ed29-43cc-4b0c-8fb7-4e12df5d7261{stroke-width:.48691px;}</style><clipPath id="uuid-40913a39-ebcb-4e7a-944c-07eb923ada2c"><rect class="uuid-deb8e85f-218f-4f7e-b39a-f92daa49c25e" width="2700" height="1800"/></clipPath></defs><g class="uuid-4e414849-b0b4-48f9-bf24-32276a1549fa"><g><path class="uuid-3dd8d1d8-82ac-4b34-8f8f-54f6f48416ac" d="m-548.0532,1469.0934c26.6594-23.024,590.1092-538.4831,865.3785-217.1583,498.8089,582.2648,930.6548,145.4148,1177.8599,65.4366,247.2052-79.9781,406.3416,117.531,645.8841,231.4519,247.5531,117.7306,559.8191-136.8087,683.4496-287.1942,126.3179-153.6546,423.252-349.0425,652.6613-258.5713,229.4093,90.4713,375.946,251.1248,419.5661,310.9004"/><path class="uuid-5dae960d-3a01-4ae6-ac79-533234c35ed8" d="m3898.3553,1333.4596c-46.7615-59.8654-211.3004-211.3015-442.1906-296.971-230.8903-85.6695-525.3552,99.9085-652.559,246.6793-124.8837,144.0939-437.2229,387.1353-684.1823,274.9638-239.1713-108.4677-403.4143-287.52-655.1513-212.3663-251.737,75.1537-684.1169,481.7618-1181.0579-76.1961-274.8014-308.5428-826.9099,199.7814-852.8287,222.1658"/><path class="uuid-1f95ed29-43cc-4b0c-8fb7-4e12df5d7261" d="m3899.9643,1352.9606c-49.9029-59.9551-232.444-202.1739-464.8152-283.0416-232.3711-80.8676-524.4232,94.9306-652.4566,234.7874-126.1965,137.8503-438.5494,369.3459-684.915,262.7333-238.8001-103.0145-408.1496-263.6098-664.4185-193.2806-256.2689,70.3292-689.3111,446.6179-1184.256-86.9555-274.4139-295.8308-815.1005,205.4284-840.2788,227.1733"/><path class="uuid-7632e14b-f732-44d9-bd19-d7f2219a43cf" d="m3901.5733,1372.4617c-53.0442-60.0449-253.5877-193.0463-487.4398-269.1122-233.852-76.0659-523.555,89.9793-652.3542,222.8954-127.5755,131.6534-439.8759,351.5564-685.6478,250.5029-238.4288-97.5614-412.8849-239.6998-673.6856-174.195-260.8007,65.5047-694.6507,411.4007-1187.4541-97.7149-274.1159-283.1895-803.2911,211.0754-827.7289,232.1807"/><path class="uuid-08514ea1-5c35-4d8b-b020-0376460345e3" d="m3903.1823,1391.9627c-56.1856-60.1346-274.7313-183.9187-510.0643-255.1827-235.333-71.2641-522.7584,85.05-652.2518,211.0034-129.0279,125.5006-441.2024,333.7669-686.3806,238.2724-238.0576-92.1082-417.6202-215.7896-682.9528-155.1093-265.3326,60.6803-700.1548,376.1162-1190.6521-108.4744-273.9177-270.619-791.4818,216.7225-815.1791,237.1883"/><path class="uuid-aedeb3e0-c32d-4528-b1f7-8f6778d3b5fa" d="m3904.7913,1411.4638c-59.3269-60.2244-295.875-174.7911-532.6889-241.2534-236.8139-66.4623-522.0411,80.1369-652.1494,199.1115-130.5607,119.3883-442.5289,315.9775-687.1133,226.042-237.6864-86.655-422.3556-191.8796-692.22-136.0238-269.8644,55.8559-705.8437,340.773-1193.8502-119.2337-273.8298-258.1186-779.6725,222.3695-802.6291,242.1957"/><path class="uuid-72b409d2-6a73-4ec7-ae4d-1324fb1f7c62" d="m3906.4003,1430.9648c-62.4683-60.3142-317.0186-165.6635-555.3135-227.3239-238.2948-61.6605-521.4108,75.2325-652.047,187.2195-132.1811,113.3114-443.8554,298.188-687.846,213.8115-237.3152-81.2018-427.0909-167.9695-701.4872-116.9381-274.3963,51.0314-711.7394,305.382-1197.0482-129.9931-273.8639-245.6859-767.8632,228.0165-790.0793,247.2031"/><path class="uuid-08ff9991-d33c-4b0a-9dae-7295d1d5d182" d="m3908.0093,1450.4659c-65.6097-60.404-338.1622-156.5359-577.938-213.3946s-520.8749,70.3284-651.9447,175.3276c-133.8961,107.2633-445.1819,280.3986-688.5788,201.581-236.9439-75.7486-431.8262-144.0593-710.7543-97.8524-278.9282,46.2069-717.8648,269.9579-1200.2463-140.7526-274.0324-233.3173-756.0538,233.6636-777.5294,252.2107"/><path class="uuid-00ba5a52-4467-444c-91ca-75c4dbe012ec" d="m3909.6183,1469.9669c-68.751-60.4937-359.3059-147.4082-600.5626-199.4651-241.2567-52.0569-520.4397,65.4145-651.8423,163.4356-135.712,101.2358-446.355,262.0988-689.3115,189.3506-236.4245-70.7924-436.5616-120.1493-720.0215-78.7668-283.46,41.3824-724.2439,234.5188-1203.4444-151.512-274.3481-221.0073-744.2444,239.3105-764.9795,257.2181"/><path class="uuid-862a451e-99d9-44c0-9d9d-99f586a21405" d="m3911.2273,1489.468c-71.8924-60.5835-380.4495-138.2807-623.1872-185.5358-242.7376-47.255-520.1107,60.4798-651.7398,151.5437-137.6346,95.2187-447.6788,244.2586-690.0443,177.1201-236.0507-65.3891-441.2969-96.2392-729.2887-59.6811-287.9919,36.558-730.901,199.0867-1206.6424-162.2714-274.8245-208.748-732.4351,244.9575-752.4297,262.2255"/><path class="uuid-412ddad7-5703-4f82-8d16-99807b64b6ad" d="m3912.8363,1508.969c-75.0337-60.6732-401.5932-129.153-645.8118-171.6063-244.2185-42.4533-519.892,55.5116-651.6374,139.6517-139.6683,89.2002-449.0058,226.4222-690.777,164.8897-235.6801-59.9823-446.0323-72.3291-738.556-40.5956-292.5236,31.7336-737.86,163.6886-1209.8404-173.0308-275.4748-196.5288-720.6258,250.6046-739.8798,267.2331"/><path class="uuid-905a9b48-41e2-45ef-8222-07696dc23ec4" d="m3914.4453,1528.4701c-78.1751-60.763-422.7368-120.0255-668.4363-157.6769-245.6995-37.6515-519.7859,50.497-651.5351,127.7597-141.8163,83.1665-450.336,208.5899-691.5098,152.6592-235.3125-54.5714-450.7675-48.419-747.8231-21.5099-297.0555,26.9091-745.1439,128.3557-1213.0384-183.7902-276.3126-184.336-708.8165,256.2516-727.33,272.2405"/><path class="uuid-051bd2bd-6007-4a12-a478-344bc67d2d48" d="m3916.0543,1547.9711c-81.3165-60.8527-443.8805-110.8978-691.0609-143.7475-247.1804-32.8497-519.7921,45.4223-651.4327,115.8678-144.0798,77.1022-451.6691,190.7621-692.2425,140.4288-234.9478-49.1563-455.5029-24.5089-757.0903-2.4243s-752.7735,93.1241-1216.2365-194.5497c-277.35-172.1524-697.0071,261.8987-714.78,277.2481"/><path class="uuid-eb1ce43d-2149-4dd9-b975-d6044bbd9cc6" d="m3917.6633,1567.4722c-84.4578-60.9425-465.0241-101.7702-713.6855-129.8181-248.6613-28.0479-519.9084,40.2736-651.3303,103.9758-146.4579,70.9904-453.0049,172.9389-692.9752,128.1983-234.5858-43.7367-460.2382-.5988-766.3575,16.6614-306.1192,17.2602-760.7659,58.0349-1219.4346-205.3091-278.5983-159.9569-685.1977,267.5457-702.2301,282.2555"/><path class="uuid-3fb9f66b-393f-4473-bdcd-c4b90c47f53d" d="m3919.2723,1586.9732c-87.5992-61.0322-486.1677-92.6426-736.31-115.8887-250.1423-23.2461-520.1297,35.0378-651.2279,92.0839-148.9472,64.8129-454.3432,155.1207-693.708,115.9679-234.2261-38.3124-464.9736,23.3112-775.6247,35.747-310.6511,12.4357-769.1337,23.1334-1222.6326-216.0685-280.0668-147.7237-673.3885,273.1927-689.6803,287.2629"/><path class="uuid-66376461-e1f2-452c-a5fc-45c03d4b69ab" d="m3920.8813,1606.4743c-90.7406-61.122-507.3114-83.515-758.9346-101.9593-251.6232-18.4443-520.4483,29.7023-651.1255,80.192-151.5413,58.5508-455.6836,137.3076-694.4407,103.7373-233.8685-32.8829-469.7089,47.2214-784.8919,54.8326-315.1829,7.6113-777.883-11.5314-1225.8307-226.8279-281.7615-135.4226-661.5791,278.8398-677.1304,292.2705"/><path class="uuid-742c0f2a-e57b-45c2-96eb-676e3235350a" d="m3922.4903,1625.9753c-93.8819-61.2117-528.455-74.3874-781.5592-88.0299-253.1041-13.6425-520.8536,24.2562-651.0231,68.3001-154.2312,52.1853-457.0257,119.5-695.1735,91.5069-233.5126-27.4484-474.4442,71.1314-794.159,73.9182s-787.0121-45.9083-1229.0288-237.5873c-283.6846-123.0189-649.7697,284.4868-664.5805,297.2779"/><path class="uuid-97ecdf22-76f2-4f46-bb82-bf244e829e11" d="m3924.0993,1645.4764c-97.0233-61.3015-549.5987-65.2598-804.1838-74.1005-254.585-8.8407-521.333,18.6904-650.9207,56.4081-157.0047,45.6976-458.3693,101.698-695.9062,79.2764-233.1582-22.0082-479.1796,95.0416-803.4262,93.0039-324.2467-2.0377-796.51-79.9447-1232.2268-248.3467-285.8335-110.473-637.9604,290.1338-652.0307,302.2854"/><path class="uuid-21f3cacb-0c9d-4bfc-b906-147caacdb571" d="m3925.7083,1664.9774c-100.1646-61.3912-570.7423-56.1322-826.8083-60.171-256.066-4.0389-521.8715,12.9983-650.8184,44.5161-159.8469,39.0704-459.714,83.9016-696.6389,67.0459-232.8049-16.5625-483.9149,118.9517-812.6934,112.0896s-806.3548-113.5892-1235.4249-259.1062c-288.1993-97.7413-626.151,295.7809-639.4807,307.2929"/><path class="uuid-3dd74b52-a38d-4b76-a0fa-4f582ee3a1ea" d="m3927.3173,1684.4785c-103.306-61.481-591.886-47.0046-849.4329-46.2417s-522.4522,7.1761-650.7159,32.6242c-162.7403,32.2884-461.0595,66.1112-697.3717,54.8155-232.4523-11.1112-488.6503,142.8617-821.9606,131.1752-333.3104-11.6866-816.5135-146.7932-1238.6229-269.8656-290.766-84.7772-614.3418,301.4279-626.9309,312.3003"/><path class="uuid-ec9096b8-9e54-4552-9bf8-f04b46d4e725" d="m3928.9263,1703.9795c-106.4474-61.5707-613.0296-37.8769-872.0575-32.3122-259.0278,5.5647-523.0576,1.2223-650.6135,20.7322-165.6649,25.3386-462.4052,48.3267-698.1045,42.585-232.0998-5.6539-493.3855,166.7719-831.2277,150.2608-337.8422-16.511-826.9408-179.5138-1241.821-280.6249-293.5094-71.5317-602.5324,307.0749-614.381,317.3078"/><path class="uuid-0ebec07f-00ac-42dd-81a5-1cc5dee5c646" d="m3930.5353,1723.4806c-109.5887-61.6605-634.1732-28.7494-894.682-18.3829-260.5088,10.3665-523.6694-4.8609-650.5112,8.8403-168.5996,18.2117-463.7508,30.5481-698.8372,30.3546-231.7473-.1908-498.1209,190.6819-840.4949,169.3464-342.3741-21.3355-837.5795-211.7166-1245.0191-291.3844-296.3964-57.9552-590.723,312.722-601.8311,322.3153"/><path class="uuid-a1b09e5f-fa6d-4a65-9553-7506320fd01f" d="m3932.1443,1742.9816c-112.7301-61.7502-655.3169-19.6217-917.3066-4.4534-261.9897,15.1683-524.2694-11.0692-650.4088-3.0517-171.522,10.9021-465.0958,12.7756-699.5699,18.1241-231.3943,5.2783-502.8562,214.5921-849.7621,188.4321-346.906-26.16-848.3618-243.3771-1248.2171-302.1438-299.3852-44.0006-578.9137,318.369-589.2813,327.3227"/><path class="uuid-87c0f44c-2315-4c1b-84a5-efa2003bec57" d="m3933.7533,1762.4827c-115.8715-61.84-676.4605-10.4942-939.9312,9.4759-263.4706,19.9701-524.8404-17.3953-650.3064-14.9436-174.4098,3.4081-466.4398-4.991-700.3026,5.8937-231.0403,10.7532-507.5916,238.5021-859.0294,207.5177-351.4377-30.9844-859.2102-274.484-1251.4151-312.9032-302.4242-29.6246-567.1044,324.016-576.7314,332.3302"/><path class="uuid-cee5e80e-b0d2-4326-b678-5df97e955773" d="m3935.3623,1781.9837c-119.0128-61.9297-697.6042-1.3665-962.5557,23.4054-264.9516,24.7719-525.3665-23.8299-650.204-26.8356-177.2416-4.2674-467.7825-22.7517-701.0355-6.3368-230.6848,16.2342-512.3268,262.4122-868.2965,226.6034-355.9696-35.8089-870.0409-305.0402-1254.6131-323.6627-305.4545-14.7913-555.2951,329.663-564.1815,337.3377"/><path class="uuid-035b565b-5153-498c-973b-2759ddb4c8a9" d="m3936.9713,1801.4848c-122.1542-62.0195-718.7478,7.7611-985.1803,37.3347-266.4325,29.5737-525.8332-30.3618-650.1016-38.7275-179.9969-12.1174-469.1232-40.5066-701.7682-18.5672-230.3276,21.7208-517.0622,286.3223-877.5637,245.6889-360.5014-40.6333-880.7659-335.0634-1257.8112-334.422-308.4101.5246-543.4857,335.31-551.6316,342.3452"/><path class="uuid-ad364079-0600-4064-8b4b-c25608f187e4" d="m3938.5803,1820.9858c-125.2955-62.1092-739.8914,16.8887-1007.8049,51.2642-267.9134,34.3755-526.2286-36.9785-649.9992-50.6195-182.6581-20.1311-470.4618-58.2558-702.5009-30.7977-229.9682,27.2131-521.7976,310.2324-886.8309,264.7746s-891.2974-364.5874-1261.0093-345.1814c-311.2213,16.3358-531.6763,340.957-539.0817,347.3526"/><path class="uuid-bd3f6a6f-b1a8-4512-97ad-4257b5d8b92b" d="m3940.1893,1840.4869c-128.4369-62.199-761.0351,26.0163-1030.4295,65.1936-269.3943,39.1773-526.5428-43.6669-649.8968-62.5115-185.2102-28.2943-471.7977-75.9997-703.2336-43.0281-229.6062,32.7108-526.5329,334.1425-896.0981,283.8602-369.5652-50.2823-901.5509-393.6599-1264.2073-355.9409-313.8176,32.6394-519.8671,346.6041-526.5319,352.3601"/><path class="uuid-0e885b40-3dd4-4acb-964e-2ad489bab536" d="m3941.7983,1859.9879c-131.5783-62.2888-782.1787,35.1439-1053.054,79.123-270.8753,43.9791-526.7689-50.4132-649.7945-74.4034-187.6413-36.5903-473.1305-93.7383-703.9664-55.2586-229.2411,38.2139-531.2682,358.0526-905.3652,302.9459-374.097-55.1067-911.4497-422.3412-1267.4054-366.7003-316.1309,49.4157-508.0577,352.2511-513.982,357.3676"/><path class="uuid-c1987dc4-177b-403f-af42-dc278ddae688" d="m3943.4073,1879.489c-134.7196-62.3786-803.3224,44.2715-1075.6786,93.0524-272.3562,48.7809-526.9016-57.2045-649.692-86.2954-189.9432-45.0004-474.4602-111.472-704.6992-67.4891-228.8727,43.722-536.0035,381.9627-914.6324,322.0316-378.6289-59.9312-920.9281-450.7017-1270.6035-377.4598-318.1004,66.6284-496.2483,357.8982-501.4321,362.3751"/><path class="uuid-0c87fd1a-e15f-4e36-9c22-f9daa610d82e" d="m3945.0163,1898.99c-137.861-62.4683-824.466,53.3991-1098.3032,106.9818-273.8371,53.5827-526.9386-64.0276-649.5896-98.1873-192.1109-53.505-475.6912-128.759-705.4319-79.7195-228.4056,49.6744-540.7389,405.8728-923.8996,341.1171-383.1607-64.7556-929.9338-478.8184-1273.8015-388.2191-319.6757,84.2254-484.439,363.5452-488.8822,367.3825"/><path class="uuid-55fec207-136a-4d7e-8724-89cd2e222efa" d="m3946.6253,1918.491c-141.0024-62.558-845.6097,62.5268-1120.9277,120.9113-275.3181,58.3845-526.8794-70.8709-649.4873-110.0793-194.1428-62.0843-477.0177-146.5484-706.1646-91.95-228.0344,55.1276-545.4742,429.7829-933.1668,360.2028-387.6926-69.5801-938.4307-506.7713-1276.9996-398.9785-320.8199,102.1419-472.6296,369.1922-476.3323,372.39"/><path class="uuid-bc5cedd0-76bf-4678-aa71-750f4dc119bb" d="m3948.2343,1937.9921c-144.1437-62.6478-866.7533,71.6544-1143.5523,134.8406-276.799,63.1863-526.7251-77.7234-649.3849-121.9712-196.0404-70.7188-478.3442-164.3379-706.8973-104.1804-227.6632,60.5808-550.2096,453.693-942.434,379.2884-392.2245-74.4045-946.3987-534.6395-1280.1976-409.738-321.5119,120.304-460.8204,374.8393-463.7825,377.3975"/></g><g><path class="uuid-3dd8d1d8-82ac-4b34-8f8f-54f6f48416ac" d="m3248.0532,330.9066c-26.6594,23.024-590.1092,538.4831-865.3785,217.1583-498.8089-582.2648-930.6548-145.4148-1177.8599-65.4366-247.2052,79.9781-406.3416-117.531-645.8841-231.4519C311.3776,133.4458-.8884,387.9851-124.5189,538.3706c-126.3179,153.6546-423.252,349.0425-652.6613,258.5713-229.4093-90.4713-375.946-251.1248-419.5661-310.9004"/><path class="uuid-5dae960d-3a01-4ae6-ac79-533234c35ed8" d="m-1198.3553,466.5404c46.7615,59.8654,211.3004,211.3015,442.1906,296.971,230.8903,85.6695,525.3552-99.9085,652.559-246.6793C21.278,372.7382,333.6172,129.6968,580.5766,241.8683c239.1713,108.4677,403.4143,287.52,655.1513,212.3663,251.737-75.1537,684.1169-481.7618,1181.0579,76.1961,274.8014,308.5428,826.9099-199.7814,852.8287-222.1658"/><path class="uuid-1f95ed29-43cc-4b0c-8fb7-4e12df5d7261" d="m-1199.9643,447.0394c49.9029,59.9551,232.444,202.1739,464.8152,283.0416,232.3711,80.8676,524.4232-94.9306,652.4566-234.7874C43.504,357.4433,355.8569,125.9477,602.2225,232.5603c238.8001,103.0145,408.1496,263.6098,664.4185,193.2806,256.2689-70.3292,689.3111-446.6179,1184.256,86.9555,274.4139,295.8308,815.1005-205.4284,840.2788-227.1733"/><path class="uuid-7632e14b-f732-44d9-bd19-d7f2219a43cf" d="m-1201.5733,427.5383c53.0442,60.0449,253.5877,193.0463,487.4398,269.1122,233.852,76.0659,523.555-89.9793,652.3542-222.8954C65.7962,342.1017,378.0966,122.1987,623.8685,223.2522c238.4288,97.5614,412.8849,239.6998,673.6856,174.195,260.8007-65.5047,694.6507-411.4007,1187.4541,97.7149,274.1159,283.1895,803.2911-211.0754,827.7289-232.1807"/><path class="uuid-08514ea1-5c35-4d8b-b020-0376460345e3" d="m-1203.1823,408.0373c56.1856,60.1346,274.7313,183.9187,510.0643,255.1827,235.333,71.2641,522.7584-85.05,652.2518-211.0034C88.1617,326.716,400.3362,118.4497,645.5144,213.9442c238.0576,92.1082,417.6202,215.7896,682.9528,155.1093,265.3326-60.6803,700.1548-376.1162,1190.6521,108.4744,273.9177,270.619,791.4818-216.7225,815.1791-237.1883"/><path class="uuid-aedeb3e0-c32d-4528-b1f7-8f6778d3b5fa" d="m-1204.7913,388.5362c59.3269,60.2244,295.875,174.7911,532.6889,241.2534S-150.0613,549.6527-19.953,430.6781C110.6077,311.2898,422.5759,114.7006,667.1603,204.6361c237.6864,86.655,422.3556,191.8796,692.22,136.0238C1629.2447,284.804,2065.224-.1131,2553.2305,459.8936c273.8298,258.1186,779.6725-222.3695,802.6291-242.1957"/><path class="uuid-72b409d2-6a73-4ec7-ae4d-1324fb1f7c62" d="m-1206.4003,369.0352c62.4683,60.3142,317.0186,165.6635,555.3135,227.3239C-412.792,658.0196-129.676,521.1266.9602,409.1396c132.1811-113.3114,443.8554-298.188,687.846-213.8115,237.3152,81.2018,427.0909,167.9695,701.4872,116.9381S2102.0328,6.8842,2587.3416,442.2593c273.8639,245.6859,767.8632-228.0165,790.0793-247.2031"/><path class="uuid-08ff9991-d33c-4b0a-9dae-7295d1d5d182" d="m-1208.0093,349.5341c65.6097,60.404,338.1622,156.5359,577.938,213.3946,239.7758,56.8587,520.8749-70.3284,651.9447-175.3276,133.8961-107.2633,445.1819-280.3986,688.5788-201.581,236.9439,75.7486,431.8262,144.0593,710.7543,97.8524,278.9282-46.2069,717.8648-269.9579,1200.2463,140.7526,274.0324,233.3173,756.0538-233.6636,777.5294-252.2107"/><path class="uuid-00ba5a52-4467-444c-91ca-75c4dbe012ec" d="m-1209.6183,330.0331c68.751,60.4937,359.3059,147.4082,600.5626,199.4651S-88.616,464.0837,42.7866,366.0626c135.712-101.2358,446.355-262.0988,689.3115-189.3506,236.4245,70.7924,436.5616,120.1493,720.0215,78.7668,283.46-41.3824,724.2439-234.5188,1203.4444,151.512,274.3481,221.0073,744.2444-239.3105,764.9795-257.2181"/><path class="uuid-862a451e-99d9-44c0-9d9d-99f586a21405" d="m-1211.2273,310.532c71.8924,60.5835,380.4495,138.2807,623.1872,185.5358,242.7376,47.255,520.1107-60.4798,651.7398-151.5437,137.6346-95.2187,447.6788-244.2586,690.0443-177.1201,236.0507,65.3891,441.2969,96.2392,729.2887,59.6811,287.9919-36.558,730.901-199.0867,1206.6424,162.2714,274.8245,208.748,732.4351-244.9575,752.4297-262.2255"/><path class="uuid-412ddad7-5703-4f82-8d16-99807b64b6ad" d="m-1212.8363,291.031c75.0337,60.6732,401.5932,129.153,645.8118,171.6063,244.2185,42.4533,519.892-55.5116,651.6374-139.6517,139.6683-89.2002,449.0058-226.4222,690.777-164.8897,235.6801,59.9823,446.0323,72.3291,738.556,40.5956,292.5236-31.7336,737.86-163.6886,1209.8404,173.0308,275.4748,196.5288,720.6258-250.6046,739.8798-267.2331"/><path class="uuid-905a9b48-41e2-45ef-8222-07696dc23ec4" d="m-1214.4453,271.5299c78.1751,60.763,422.7368,120.0255,668.4363,157.6769,245.6995,37.6515,519.7859-50.497,651.5351-127.7597,141.8163-83.1665,450.336-208.5899,691.5098-152.6592,235.3125,54.5714,450.7675,48.419,747.8231,21.5099,297.0555-26.9091,745.1439-128.3557,1213.0384,183.7902,276.3126,184.336,708.8165-256.2516,727.33-272.2405"/><path class="uuid-051bd2bd-6007-4a12-a478-344bc67d2d48" d="m-1216.0543,252.0289c81.3165,60.8527,443.8805,110.8978,691.0609,143.7475C-277.813,428.6261-5.2013,350.3541,126.4393,279.9086c144.0798-77.1022,451.6691-190.7621,692.2425-140.4288,234.9478,49.1563,455.5029,24.5089,757.0903,2.4243s752.7735-93.1241,1216.2365,194.5497c277.35,172.1524,697.0071-261.8987,714.78-277.2481"/><path class="uuid-eb1ce43d-2149-4dd9-b975-d6044bbd9cc6" d="m-1217.6633,232.5278c84.4578,60.9425,465.0241,101.7702,713.6855,129.8181,248.6613,28.0479,519.9084-40.2736,651.3303-103.9758,146.4579-70.9904,453.0049-172.9389,692.9752-128.1983,234.5858,43.7367,460.2382.5988,766.3575-16.6614,306.1192-17.2602,760.7659-58.0349,1219.4346,205.3091,278.5983,159.9569,685.1977-267.5457,702.2301-282.2555"/><path class="uuid-3fb9f66b-393f-4473-bdcd-c4b90c47f53d" d="m-1219.2723,213.0268c87.5992,61.0322,486.1677,92.6426,736.31,115.8887,250.1423,23.2461,520.1297-35.0378,651.2279-92.0839,148.9472-64.8129,454.3432-155.1207,693.708-115.9679,234.2261,38.3124,464.9736-23.3112,775.6247-35.747,310.6511-12.4357,769.1337-23.1334,1222.6326,216.0685C3140.2977,448.9089,3533.6194,27.9925,3549.9112,13.9223"/><path class="uuid-66376461-e1f2-452c-a5fc-45c03d4b69ab" d="m-1220.8813,193.5257c90.7406,61.122,507.3114,83.515,758.9346,101.9593,251.6232,18.4443,520.4483-29.7023,651.1255-80.192,151.5413-58.5508,455.6836-137.3076,694.4407-103.7373,233.8685,32.8829,469.7089-47.2214,784.8919-54.8326,315.1829-7.6113,777.883,11.5314,1225.8307,226.8279C3176.1036,418.9736,3555.9212,4.7112,3571.4725-8.7195"/><path class="uuid-742c0f2a-e57b-45c2-96eb-676e3235350a" d="m-1222.4903,174.0247c93.8819,61.2117,528.455,74.3874,781.5592,88.0299,253.1041,13.6425,520.8536-24.2562,651.0231-68.3001,154.2312-52.1853,457.0257-119.5,695.1735-91.5069,233.5126,27.4484,474.4442-71.1314,794.159-73.9182,319.7148-2.7868,787.0121,45.9083,1229.0288,237.5873,283.6846,123.0189,649.7697-284.4868,664.5805-297.2779"/><path class="uuid-97ecdf22-76f2-4f46-bb82-bf244e829e11" d="m-1224.0993,154.5236c97.0233,61.3015,549.5987,65.2598,804.1838,74.1005,254.585,8.8407,521.333-18.6904,650.9207-56.4081,157.0047-45.6976,458.3693-101.698,695.9062-79.2764C1160.0696,114.9478,1406.091-2.102,1730.3376-.0643c324.2467,2.0377,796.51,79.9447,1232.2268,248.3467,285.8335,110.473,637.9604-290.1338,652.0307-302.2854"/><path class="uuid-21f3cacb-0c9d-4bfc-b906-147caacdb571" d="m-1225.7083,135.0226c100.1646,61.3912,570.7423,56.1322,826.8083,60.171,256.066,4.0389,521.8715-12.9983,650.8184-44.5161,159.8469-39.0704,459.714-83.9016,696.6389-67.0459,232.8049,16.5625,483.9149-118.9517,812.6934-112.0896,328.7785,6.8621,806.3548,113.5892,1235.4249,259.1062,288.1993,97.7413,626.151-295.7809,639.4807-307.2929"/><path class="uuid-3dd74b52-a38d-4b76-a0fa-4f582ee3a1ea" d="m-1227.3173,115.5215c103.306,61.481,591.886,47.0046,849.4329,46.2417,257.5469-.7629,522.4522-7.1761,650.7159-32.6242,162.7403-32.2884,461.0595-66.1112,697.3717-54.8155,232.4523,11.1112,488.6503-142.8617,821.9606-131.1752,333.3104,11.6866,816.5135,146.7932,1238.6229,269.8656,290.766,84.7772,614.3418-301.4279,626.9309-312.3003"/><path class="uuid-ec9096b8-9e54-4552-9bf8-f04b46d4e725" d="m-1228.9263,96.0205c106.4474,61.5707,613.0296,37.8769,872.0575,32.3122,259.0278-5.5647,523.0576-1.2223,650.6135-20.7322,165.6649-25.3386,462.4052-48.3267,698.1045-42.585,232.0998,5.6539,493.3855-166.7719,831.2277-150.2608,337.8422,16.511,826.9408,179.5138,1241.821,280.6249,293.5094,71.5317,602.5324-307.0749,614.381-317.3078"/><path class="uuid-0ebec07f-00ac-42dd-81a5-1cc5dee5c646" d="m-1230.5353,76.5194c109.5887,61.6605,634.1732,28.7494,894.682,18.3829s523.6694,4.8609,650.5112-8.8403c168.5996-18.2117,463.7508-30.5481,698.8372-30.3546,231.7473.1908,498.1209-190.6819,840.4949-169.3464,342.3741,21.3355,837.5795,211.7166,1245.0191,291.3844,296.3964,57.9552,590.723-312.722,601.8311-322.3153"/><path class="uuid-a1b09e5f-fa6d-4a65-9553-7506320fd01f" d="m-1232.1443,57.0184c112.7301,61.7502,655.3169,19.6217,917.3066,4.4534s524.2694,11.0692,650.4088,3.0517c171.522-10.9021,465.0958-12.7756,699.5699-18.1241,231.3943-5.2783,502.8562-214.5921,849.7621-188.4321,346.906,26.16,848.3618,243.3771,1248.2171,302.1438,299.3852,44.0006,578.9137-318.369,589.2813-327.3227"/><path class="uuid-87c0f44c-2315-4c1b-84a5-efa2003bec57" d="m-1233.7533,37.5173c115.8715,61.84,676.4605,10.4942,939.9312-9.4759C-30.3515,8.0713,231.0183,45.4367,356.4843,42.985c174.4098-3.4081,466.4398,4.991,700.3026-5.8937,231.0403-10.7532,507.5916-238.5021,859.0294-207.5177,351.4377,30.9844,859.2102,274.484,1251.4151,312.9032,302.4242,29.6246,567.1044-324.016,576.7314-332.3302"/><path class="uuid-cee5e80e-b0d2-4326-b678-5df97e955773" d="m-1235.3623,18.0163c119.0128,61.9297,697.6042,1.3665,962.5557-23.4054C-7.855-30.161,252.5599,18.4408,377.3974,21.4465c177.2416,4.2674,467.7825,22.7517,701.0355,6.3368,230.6848-16.2342,512.3268-262.4122,868.2965-226.6034,355.9696,35.8089,870.0409,305.0402,1254.6131,323.6627,305.4545,14.7913,555.2951-329.663,564.1815-337.3377"/><path class="uuid-035b565b-5153-498c-973b-2759ddb4c8a9" d="m-1236.9713-1.4848c122.1542,62.0195,718.7478-7.7611,985.1803-37.3347C14.6415-68.3932,274.0422-8.4577,398.3106-.092c179.9969,12.1174,469.1232,40.5066,701.7682,18.5672,230.3276-21.7208,517.0622-286.3223,877.5637-245.6889,360.5014,40.6333,880.7659,335.0634,1257.8112,334.422,308.4101-.5246,543.4857-335.31,551.6316-342.3452"/><path class="uuid-ad364079-0600-4064-8b4b-c25608f187e4" d="m-1238.5803-20.9858c125.2955,62.1092,739.8914-16.8887,1007.8049-51.2642C37.138-106.6255,295.4532-35.2715,419.2238-21.6305,601.8819-1.4994,889.6856,36.6253,1121.7247,9.1672c229.9682-27.2131,521.7976-310.2324,886.8309-264.7746,365.0333,45.4578,891.2974,364.5874,1261.0093,345.1814,311.2213-16.3358,531.6763-340.957,539.0817-347.3526"/><path class="uuid-bd3f6a6f-b1a8-4512-97ad-4257b5d8b92b" d="m-1240.1893-40.4869c128.4369,62.199,761.0351-26.0163,1030.4295-65.1936C59.6345-144.8578,316.783-62.0136,440.137-43.169,625.3472-14.8747,911.9347,32.8307,1143.3706-.1409c229.6062-32.7108,526.5329-334.1425,896.0981-283.8602,369.5652,50.2823,901.5509,393.6599,1264.2073,355.9409,313.8176-32.6394,519.8671-346.6041,526.5319-352.3601"/><path class="uuid-0e885b40-3dd4-4acb-964e-2ad489bab536" d="m-1241.7983-59.9879C-1110.22,2.3009-459.6196-95.1318-188.7443-139.1109,82.131-183.09,338.0246-88.6977,461.0502-64.7075,648.6915-28.1172,934.1807,29.0308,1165.0166-9.4489c229.2411-38.2139,531.2682-358.0526,905.3652-302.9459,374.097,55.1067,911.4497,422.3412,1267.4054,366.7003,316.1309-49.4157,508.0577-352.2511,513.982-357.3676"/><path class="uuid-c1987dc4-177b-403f-af42-dc278ddae688" d="m-1243.4073-79.489c134.7196,62.3786,803.3224-44.2715,1075.6786-93.0524S359.1729-115.3369,481.9633-86.246c189.9432,45.0004,474.4602,111.472,704.6992,67.4891,228.8727-43.722,536.0035-381.9627,914.6324-322.0316,378.6289,59.9312,920.9281,450.7017,1270.6035,377.4598,318.1004-66.6284,496.2483-357.8982,501.4321-362.3751"/><path class="uuid-0c87fd1a-e15f-4e36-9c22-f9daa610d82e" d="m-1245.0163-98.99c137.861,62.4683,824.466-53.3991,1098.3032-106.9818,273.8371-53.5827,526.9386,64.0276,649.5896,98.1873C694.9874-54.2795,978.5677,20.9745,1208.3084-28.065c228.4056-49.6744,540.7389-405.8728,923.8996-341.1171,383.1607,64.7556,929.9338,478.8184,1273.8015,388.2191,319.6757-84.2254,484.439-363.5452,488.8822-367.3825"/><path class="uuid-55fec207-136a-4d7e-8724-89cd2e222efa" d="m-1246.6253-118.491c141.0024,62.558,845.6097-62.5268,1120.9277-120.9113,275.3181-58.3845,526.8794,70.8709,649.4873,110.0793,194.1428,62.0843,477.0177,146.5484,706.1646,91.95,228.0344-55.1276,545.4742-429.7829,933.1668-360.2028C2550.8137-327.9957,3101.5518,109.1955,3440.1207,1.4027c320.8199-102.1419,472.6296-369.1922,476.3323-372.39"/><path class="uuid-bc5cedd0-76bf-4678-aa71-750f4dc119bb" d="m-1248.2343-137.9921c144.1437,62.6478,866.7533-71.6544,1143.5523-134.8406,276.799-63.1863,526.7251,77.7234,649.3849,121.9712C740.7433-80.1427,1023.0471,13.4764,1251.6002-46.6811c227.6632-60.5808,550.2096-453.693,942.434-379.2884,392.2245,74.4045,946.3987,534.6395,1280.1976,409.738,321.5119-120.304,460.8204-374.8393,463.7825-377.3975"/></g></g></svg>