<?xml version="1.0" encoding="UTF-8"?>
<svg width="68px" height="57px" viewBox="0 0 68 57" xmlns="http://www.w3.org/2000/svg" xmlns:xlink="http://www.w3.org/1999/xlink" version="1.1">
 <!-- Generated by Pixelmator Pro 2.1.1 -->
 <path id="Pfad" d="M67.6 0.3 L10.3 0.3 0.3 57 57.7 57 Z" fill="#289560" fill-opacity="1" stroke="none"/>
 <path id="Pfad-1" d="M9.7 45.7 L8.5 45.7 8.8 43.9 10.1 43.9 C10.5 43.9 10.7 44.3 10.7 44.6 10.7 44.9 10.5 45.7 9.7 45.7 Z M9.2 49.3 L7.9 49.3 8.3 47.4 9.6 47.4 C10.1 47.4 10.2 47.9 10.2 48.2 10.2 48.7 9.8 49.3 9.2 49.3 Z M11.6 46.5 C12.6 46 12.9 45 12.9 44.2 12.9 42.8 11.9 42 10.4 42 L6.9 42 5.3 51.1 9.3 51.1 C11.1 51.1 12.4 50 12.4 48.2 12.4 47.4 12.1 46.8 11.6 46.5 Z" fill="#ffffff" fill-opacity="1" stroke="none"/>
 <path id="Pfad-2" d="M25.1 45.1 C25.2 44.2 25 43.7 24.3 43.7 23.9 43.7 23.6 43.9 23.4 44.1 23.2 44.4 22.9 45.2 22.7 46.5 22.6 47 22.5 47.8 22.5 48.3 22.5 48.9 22.8 49.4 23.3 49.4 23.9 49.4 24.3 48.9 24.5 48 L26.8 48 C26.4 50.4 24.9 51.3 23.2 51.3 21.1 51.3 20.3 49.9 20.3 48.5 20.3 48.1 20.3 47.3 20.5 46.5 20.8 45 21.1 43.7 21.8 42.9 22.5 42.1 23.5 41.8 24.4 41.8 26.2 41.8 27.3 42.9 27.3 44.7 L27.3 45.1 Z" fill="#ffffff" fill-opacity="1" stroke="none"/>
 <path id="Pfad-3" d="M34.6 51.1 L32.2 51.1 32.9 47.5 30.5 47.5 29.8 51.1 27.5 51.1 29.1 42.1 31.4 42.1 30.8 45.5 33.2 45.5 33.8 42.1 36.1 42.1 Z" fill="#ffffff" fill-opacity="1" stroke="none"/>
 <path id="Pfad-4" d="M43.2 44 L41.2 44 39.9 51.1 37.6 51.1 38.8 44 36.7 44 37 42.1 43.6 42.1 Z" fill="#ffffff" fill-opacity="1" stroke="none"/>
 <path id="Pfad-5" d="M48.3 51.1 L42.9 51.1 44.5 42.1 46.9 42.1 45.6 49.1 48.7 49.1 Z" fill="#ffffff" fill-opacity="1" stroke="none"/>
 <path id="Pfad-6" d="M56.3 44 L52.8 44 52.5 45.6 55.5 45.6 55.2 47.5 52.1 47.5 51.8 49.2 55.4 49.2 55.1 51.1 49.3 51.1 50.9 42.1 56.6 42.1 Z" fill="#ffffff" fill-opacity="1" stroke="none"/>
 <path id="Pfad-7" d="M20.1 44 L16.5 44 16.2 45.6 19.3 45.6 18.9 47.5 15.9 47.5 15.6 49.2 19.2 49.2 18.9 51.1 13.1 51.1 14.7 42.1 20.4 42.1 Z" fill="#ffffff" fill-opacity="1" stroke="none"/>
</svg>
