<svg id="b989b091-1a7c-4cda-8a42-f91cbfcd21d5" data-name="Netflix_Logo_RGB" xmlns="http://www.w3.org/2000/svg" viewBox="0 0 1426.99994 383.39557"><defs><style>.a1446534-3964-4883-a479-b223ce114508{fill:#e50914;}</style></defs><g id="bf68c2c5-73b9-4376-9fe8-a0d7a08a2e54" data-name="Netflix_Logo_RGB"><path class="a1446534-3964-4883-a479-b223ce114508" d="M1102.05646,347.87939q30.08844,2.30265,60.09265,4.9629V.03375h-60.09265ZM135.37482,216.97906,57.11023.03375H0V383.39557q29.98829-4.26846,60.09143-8.18488V166.73932L129.6825,366.65137q32.8318-3.808,65.78448-7.2027V.03375H135.37482ZM253.25134,353.86194q83.07688-7.54971,166.91815-12.40027V282.24536q-53.5674,3.097-106.82672,7.30036V199.90466c23.297-.23266,53.97321-.94275,81.15033-.60577v-59.2135c-21.71179-.05219-56.60742.30346-81.15033.61773V59.7785H420.16949V.03717H253.25134Zm205.44-294.0874H521.5838v276.878q29.99415-1.13142,60.09143-1.90161V59.77454h62.89V.03375H458.69135ZM683.09076,333.133l60.09277-.01337V196.41534h81.45679V137.20642H743.18353V59.7785H850.843V.03717H683.09076ZM1426.99994.03375h-66.00305l-43.51306,100.85089L1278.38873.03375h-65.0122l69.86413,180.207-76.27124,176.78888q31.65089,3.087,63.16223,6.57428l44.35694-102.79083,43.92956,113.31177q34.32276,4.41357,68.48877,9.26324l.093-.03882-78.28027-201.89166ZM949.45038,0H889.361V336.0694q81.91755,2.81918,163.1543,8.24511v-59.209q-51.38745-3.42765-103.06494-5.82532Z"/></g></svg>