<svg id="a76002dc-5317-4bbc-97cd-542e595145fa" data-name="Layer 1" xmlns="http://www.w3.org/2000/svg" viewBox="0 0 1315.91933 1315.91933"><defs><style>.aea742dc-dca8-4b3c-9b71-96aa1fd98f5f{fill:#fff;}.a4ca1f52-57ce-489a-9e4e-a8faea1550cd{fill:#282b3a;}.e435d9c6-630b-467d-b991-98483a795bfa{fill:#943b79;}.bda1cb56-e5a5-4dec-a9f3-388dd07c7804{fill:#852f65;}.b675b00c-1eaf-4021-b48f-54d0a2683cb7{fill:#9263ab;}.a893ddee-57ec-4763-9760-c493702acc4a{fill:#925091;}</style></defs><circle class="aea742dc-dca8-4b3c-9b71-96aa1fd98f5f" cx="657.95967" cy="657.95967" r="657.95967"/><path class="a4ca1f52-57ce-489a-9e4e-a8faea1550cd" d="M1063.95942,365.76067l-366.2-204.7a81.31465,81.31465,0,0,0-79.4,0l-366.2,204.7a81.407,81.407,0,0,0-41.7,71v404.9a81.20451,81.20451,0,0,0,41.7,71l366.1,204.7a81.31477,81.31477,0,0,0,79.4,0l366.1-204.7a81.407,81.407,0,0,0,41.7-71v-404.9A81.13724,81.13724,0,0,0,1063.95942,365.76067Z"/><path class="e435d9c6-630b-467d-b991-98483a795bfa" d="M332.55939,730.76067v66.6a40.81875,40.81875,0,0,0,20.8,35.5l284.8,159.2a41.32765,41.32765,0,0,0,19.9,5.2v-207.9a80.35965,80.35965,0,0,1-14.7-1.3Z"/><path class="bda1cb56-e5a5-4dec-a9f3-388dd07c7804" d="M677.95942,992.06066l284.8-159.2a40.61489,40.61489,0,0,0,20.8-35.5v-66.6l-310.7,57.2a81.13824,81.13824,0,0,1-14.7,1.3v208A40.42391,40.42391,0,0,0,677.95942,992.06066Z"/><path class="b675b00c-1eaf-4021-b48f-54d0a2683cb7" d="M638.1594,286.46067l-284.7,159.2a40.615,40.615,0,0,0-20.8,35.5v66.6l310.7-57.2a81.1407,81.1407,0,0,1,14.7-1.3v-208A40.51641,40.51641,0,0,0,638.1594,286.46067Z"/><path class="a893ddee-57ec-4763-9760-c493702acc4a" d="M983.55939,547.76067v-66.6a40.81876,40.81876,0,0,0-20.8-35.5l-284.8-159.2a41.32792,41.32792,0,0,0-19.9-5.2v207.9a80.35639,80.35639,0,0,1,14.7,1.3Z"/><path class="e435d9c6-630b-467d-b991-98483a795bfa" d="M672.85938,727.16069l310.7-57.4v-61l-310.7-57.4a81.53187,81.53187,0,0,0-14.8-1.4v178.5A74.04843,74.04843,0,0,0,672.85938,727.16069Z"/><path class="a893ddee-57ec-4763-9760-c493702acc4a" d="M332.55939,608.76067v61l310.7,57.4a81.52905,81.52905,0,0,0,14.8,1.4v-178.6a74.1805,74.1805,0,0,0-14.8,1.4Z"/></svg>