<svg id="a0e791ee-0c0c-4fba-a40d-35c9e51c48e7" data-name="Layer 1" xmlns="http://www.w3.org/2000/svg" viewBox="0 0 1315.91933 1315.91933"><defs><style>.f7a58840-24c1-4a07-93d0-85f5c37c776e{fill:#fff;}.b92ba5cb-b308-47d4-8236-1c8c25a78aaa{fill:#282b3a;}.f6f29b3b-279b-4b6e-bf02-d7eec75d4d8d{fill:#3fa9f5;}.a513dac6-48ff-4250-a640-28a50db3f988{fill:#1696f0;}.fd31210c-534b-41ce-b5e0-5b8efbed43f0{fill:#37bbf7;}.a2e956e1-3ac6-44ce-bbc2-6904e61b3b10{fill:#79bff2;}</style></defs><circle class="f7a58840-24c1-4a07-93d0-85f5c37c776e" cx="657.95967" cy="657.95967" r="657.95967"/><path class="b92ba5cb-b308-47d4-8236-1c8c25a78aaa" d="M1066.51413,383.80966l-367-204.8c-25.6-12.8-55.5-12.8-78.9,0l-369.1,204.8c-25.6,14.9-42.7,42.7-42.7,70.4v407.5c0,29.9,17.1,57.6,42.7,70.4l366.9,204.8c25.6,12.8,55.5,12.8,78.9,0l366.9-204.8c25.6-14.9,42.7-42.7,42.7-70.4v-405.4C1109.11411,426.50966,1092.11411,398.70965,1066.51413,383.80966Z"/><path class="f6f29b3b-279b-4b6e-bf02-d7eec75d4d8d" d="M791.31412,573.70967l-121.6-68.3q-9.6-6.45-19.2,0l-123.7,68.3c-6.4,4.3-10.7,10.7-10.7,17.1v136.5c0,6.4,4.3,14.9,10.7,17.1l121.6,68.3q9.6,6.45,19.2,0l121.6-68.3c6.4-4.3,10.7-10.7,10.7-17.1v-136.6C801.91416,584.30965,797.71414,575.80965,791.31412,573.70967Z"/><path class="a513dac6-48ff-4250-a640-28a50db3f988" d="M454.21414,774.20967v-192l-121.6-68.3v302.9c0,14.9,8.5,27.7,21.3,36.3l275.2,153.6V870.20967Z"/><path class="fd31210c-534b-41ce-b5e0-5b8efbed43f0" d="M678.21414,304.90965a45.11491,45.11491,0,0,0-40.5,0l-277.4,155.7,123.7,68.3,175-98.2,170.7,96,121.6-68.3Z"/><path class="a2e956e1-3ac6-44ce-bbc2-6904e61b3b10" d="M863.81412,577.90965v194.2l-172.8,98.1v136.5l275.2-153.6c12.8-6.4,21.3-21.3,21.3-36.3v-309.3Z"/></svg>