<svg id="Layer_1" data-name="Layer 1" xmlns="http://www.w3.org/2000/svg" viewBox="0 0 287.56 53.52"><defs><style>.cls-1{fill:#002324;}.cls-2{fill:#fec700;}</style></defs><path class="cls-1" d="M42.56,12.87H28.46v39H14.1v-39H0V0H42.56Z"></path><path class="cls-1" d="M72.77,11.67V24.29H67.42c-4.88,0-6.93,2.14-6.93,7.25V51.9H46.7v-40h9.24l2.15,4.45c2.83-3.27,6.27-4.64,11-4.64Z"></path><path class="cls-1" d="M76.68,11.86H90.47v40H76.68Z"></path><path class="cls-1" d="M116.34,53.21c-12.84,0-22.11-9-22.11-21.38s9.23-21.22,22.15-21.22c11.25,0,19.69,7.1,21.2,17.75H124.15A8.13,8.13,0,0,0,116.34,23c-4.85,0-8.3,3.68-8.3,8.9s3.49,9,8.3,9A8.06,8.06,0,0,0,124.18,35h13.55c-1.56,10.88-10.12,18.2-21.39,18.2Z"></path><path class="cls-1" d="M220.65,11.67V24.29H215.3c-4.88,0-6.93,2.14-6.93,7.25V51.9H194.58v-40h9.24L206,16.31c2.82-3.27,6.26-4.64,11-4.64Z"></path><path class="cls-1" d="M268.42,31.5a26.62,26.62,0,0,1-.28,3.65H238.41c.9,4.6,3.82,7,8.17,7a8.05,8.05,0,0,0,7.24-3.75h13.72c-2.82,9.13-10.92,14.84-21,14.84-12.49,0-21.75-9.13-21.75-21.36s9.18-21.3,21.75-21.3c12.9,0,21.84,9.21,21.84,21Zm-29.77-4h16.18a8,8,0,0,0-8.25-6.16C242.56,21.36,239.77,23.54,238.65,27.52Z"></path><path class="cls-1" d="M274.18,39.09h13.38V51.9H274.18Z"></path><path class="cls-1" d="M168.17,23.25V10.86c13,0,22.45,8.92,22.45,21.33s-9.44,21.33-22.45,21.33-22.45-9-22.45-21.33h13.82c0,5.29,3.6,8.94,8.63,8.94h0c5,0,8.64-3.65,8.64-8.94s-3.61-8.94-8.64-8.94"></path><path class="cls-2" d="M164,7c0,12.41-9.4,21.33-22.45,21.33V15.91c5,0,8.63-3.65,8.63-8.94Z"></path></svg>