<?xml version="1.0" encoding="utf-8"?>
<!-- Generator: Adobe Illustrator 25.3.1, SVG Export Plug-In . SVG Version: 6.00 Build 0)  -->
<svg version="1.1" id="Layer_1" xmlns="http://www.w3.org/2000/svg" xmlns:xlink="http://www.w3.org/1999/xlink" x="0px" y="0px"
	 viewBox="0 0 287.6 53.5" style="enable-background:new 0 0 287.6 53.5;" xml:space="preserve">
<style type="text/css">
	.st0{fill:#FFFFFF;}
	.st1{fill:#FEC700;}
</style>
<path class="st0" d="M42.6,12.9H28.5v39H14.1v-39H0V0h42.6V12.9z"/>
<path class="st0" d="M72.8,11.7v12.6h-5.3c-4.9,0-6.9,2.1-6.9,7.2v20.4H46.7v-40h9.2l2.2,4.5c2.8-3.3,6.3-4.6,11-4.6L72.8,11.7z"/>
<path class="st0" d="M76.7,11.9h13.8v40H76.7V11.9z"/>
<path class="st0" d="M116.3,53.2c-12.8,0-22.1-9-22.1-21.4s9.2-21.2,22.2-21.2c11.2,0,19.7,7.1,21.2,17.8h-13.4
	c-1.2-3.3-4.3-5.4-7.8-5.4c-4.8,0-8.3,3.7-8.3,8.9s3.5,9,8.3,9c3.6,0,6.9-2.4,7.8-5.9h13.5C136.2,45.9,127.6,53.2,116.3,53.2
	L116.3,53.2z"/>
<path class="st0" d="M220.6,11.7v12.6h-5.3c-4.9,0-6.9,2.1-6.9,7.2v20.4h-13.8v-40h9.2l2.2,4.4c2.8-3.3,6.3-4.6,11-4.6H220.6z"/>
<path class="st0" d="M268.4,31.5c0,1.2-0.1,2.4-0.3,3.7h-29.7c0.9,4.6,3.8,7,8.2,7c2.9,0.2,5.7-1.3,7.2-3.8h13.7
	c-2.8,9.1-10.9,14.8-21,14.8c-12.5,0-21.8-9.1-21.8-21.4s9.2-21.3,21.8-21.3C259.4,10.6,268.4,19.8,268.4,31.5L268.4,31.5z
	 M238.7,27.5h16.2c-0.9-3.8-4.4-6.4-8.2-6.2C242.6,21.4,239.8,23.5,238.7,27.5L238.7,27.5z"/>
<path class="st0" d="M274.2,39.1h13.4v12.8h-13.4V39.1z"/>
<path class="st0" d="M168.2,23.2V10.9c13,0,22.4,8.9,22.4,21.3s-9.4,21.3-22.4,21.3s-22.4-9-22.4-21.3h13.8c0,5.3,3.6,8.9,8.6,8.9
	l0,0c5,0,8.6-3.7,8.6-8.9S173.2,23.2,168.2,23.2"/>
<path class="st1" d="M164,7c0,12.4-9.4,21.3-22.4,21.3V15.9c5,0,8.6-3.6,8.6-8.9L164,7z"/>
</svg>
