<?xml version="1.0" encoding="UTF-8"?>
<svg id="Layer_1" xmlns="http://www.w3.org/2000/svg" viewBox="0 0 300 300">
  <path d="M119.76,30.01c0-16.57,13.43-30.01,30.01-30.01s30.01,13.43,30.01,30.01-13.43,30.01-30.01,30.01-30.01-13.43-30.01-30.01ZM90.67,125.3c-3.45-13.38,6.51-25.35,19.32-25.35h40.42c10.82,0,19.59,8.77,19.59,19.59v140.45h20.03c8.37,0,17.21,6.55,19.29,14.66,3.45,13.38-6.51,25.35-19.32,25.35h-80.04c-8.37,0-17.21-6.55-19.29-14.66-3.45-13.38,6.51-25.35,19.32-25.35h20.01v-120.03h-20.03c-8.37,0-17.21-6.55-19.29-14.66Z"/>
</svg>