<?xml version="1.0" encoding="UTF-8"?><svg id="uuid-3b897331-1ecc-49ab-8855-7ba0bd1e7423" xmlns="http://www.w3.org/2000/svg" viewBox="0 0 448 448"><path d="m255.42778,0C131.92778,0,31.92778,100.3,31.92778,224s100,224,223.5,224c60.60001,0,115.5-24.20001,155.79999-63.39999,5-4.89999,6.29999-12.5,3.10001-18.70001s-10.10001-9.70001-17-8.5c-9.79999,1.70001-19.79999,2.60001-30.10001,2.60001-96.89999,0-175.5-78.79999-175.5-176,0-65.8,36-123.1,89.3-153.3,6.10001-3.5,9.2-10.5,7.7-17.3s-7.3-11.9-14.3-12.5c-6.3-.5-12.60001-.8-19-.8l.00002-.1Z"/></svg>