<?xml version="1.0" encoding="UTF-8"?><svg id="uuid-3b4a6095-5f6f-45fd-9efc-bf37adfbba34" xmlns="http://www.w3.org/2000/svg" viewBox="0 0 512.07405 512.07405"><path d="m361.53702,1.23702c5,2.1,8.60001,6.6,9.60001,11.9l19.89999,107.9,107.89999,19.8c5.29999,1,9.79999,4.60001,11.89999,9.60001,2.10004,5,1.5,10.7-1.60001,15.2l-62.29999,90.39999,62.29999,90.29999c3.10001,4.5,3.69998,10.20001,1.60001,15.20001s-6.60001,8.60001-11.89999,9.60001l-107.89999,19.89999-19.89999,107.89999c-1,5.29999-4.60001,9.79999-9.60001,11.89999-5,2.10004-10.70001,1.5-15.20001-1.60001l-90.29999-62.29999-90.3,62.29999c-4.5,3.10001-10.2,3.69998-15.2,1.60001s-8.60001-6.60001-9.60001-11.89999l-19.89999-107.89999-107.9-19.89999c-5.3-1-9.8-4.60001-11.9-9.60001s-1.5-10.70001,1.6-15.20001l62.3-90.29999L2.83702,165.73702c-3.1-4.5-3.7-10.2-1.6-15.2s6.6-8.60001,11.9-9.60001l107.9-19.89999,19.89999-107.9c1-5.3,4.60001-9.8,9.60001-11.9s10.7-1.5,15.2,1.6l90.3,62.3L346.33701,2.83702c4.5-3.1,10.20001-3.7,15.20001-1.6Zm-201.5,254.8c0-53.01933,42.98067-96,96-96s96,42.98067,96,96-42.98065,96-96,96-96-42.98065-96-96Zm224,0c0-70.69244-57.30756-128-128-128s-128,57.30756-128,128,57.30756,128,128,128,128-57.30756,128-128Z"/></svg>