<?xml version="1.0" encoding="UTF-8"?>
<svg id="Layer_1" xmlns="http://www.w3.org/2000/svg" viewBox="0 0 300 300">
  <path d="M149.99,18.74c8.32,0,16,4.39,20.22,11.6l126.57,215.64c4.28,7.27,4.28,16.23.12,23.5s-11.95,11.78-20.33,11.78H23.42c-8.38,0-16.17-4.51-20.33-11.78s-4.1-16.29.12-23.5L129.77,30.34c4.22-7.21,11.9-11.6,20.22-11.6ZM136.14,108v65.1c0,7.44,5.67,13.8,13.09,14.3,8.24.55,15.04-5.91,15.04-14.03v-65.63c0-8.12-6.8-14.58-15.04-14.03-7.42.5-13.09,6.86-13.09,14.3ZM168.74,224.93c0-10.36-8.4-18.75-18.75-18.75s-18.75,8.4-18.75,18.75,8.4,18.75,18.75,18.75,18.75-8.4,18.75-18.75Z"/>
</svg>