<?xml version="1.0" encoding="UTF-8"?>
<svg id="Layer_1" xmlns="http://www.w3.org/2000/svg" viewBox="0 0 300 300">
  <path d="M291.12,51.23c11.71-11.71,11.71-30.74,0-42.45-11.71-11.71-30.74-11.71-42.45,0l-98.67,98.77L51.23,8.88c-11.71-11.71-30.74-11.71-42.45,0-11.71,11.71-11.71,30.74,0,42.45l98.77,98.67L8.88,248.77c-11.71,11.71-11.71,30.74,0,42.45,11.71,11.71,30.74,11.71,42.45,0l98.67-98.77,98.77,98.67c11.71,11.71,30.74,11.71,42.45,0,11.71-11.71,11.71-30.74,0-42.45l-98.77-98.67,98.67-98.77Z"/>
</svg>