<svg xmlns="http://www.w3.org/2000/svg" xmlns:xlink="http://www.w3.org/1999/xlink" viewBox="0 0 250.85 251.06"><defs><style>.cls-1{fill:none;}.cls-2{clip-path:url(#clip-path);}.cls-3{fill:#fff;}.cls-4{fill:#ee9721;}</style><clipPath id="clip-path" transform="translate(0 0)"><rect class="cls-1" width="250.85" height="251.06"/></clipPath></defs><title>Chef Inverse</title><g id="Layer_2" data-name="Layer 2"><g id="Layer_1-2" data-name="Layer 1"><g id="Chef_Inverse" data-name="Chef Inverse"><g class="cls-2"><g class="cls-2"><path class="cls-3" d="M0,221.6v-.17c0-16.28,12.28-29.62,29.87-29.62,10.81,0,17.27,3.6,22.59,8.84l-8,9.24c-4.42-4-8.92-6.46-14.65-6.46-9.66,0-16.61,8-16.61,17.84v.16c0,9.82,6.79,18,16.61,18,6.55,0,10.56-2.62,15.06-6.71l8,8.1c-5.89,6.3-12.44,10.23-23.49,10.23C12.52,251.06,0,238.05,0,221.6" transform="translate(0 0)"/><polygon class="cls-3" points="103.31 192.79 103.31 215.46 80.07 215.46 80.07 192.79 67.47 192.79 67.47 250.08 80.07 250.08 80.07 227.08 103.31 227.08 103.31 250.08 115.92 250.08 115.92 192.79 103.31 192.79"/><polygon class="cls-3" points="131.31 192.79 131.31 250.08 174.93 250.08 174.93 238.87 143.83 238.87 143.83 226.84 170.84 226.84 170.84 215.62 143.83 215.62 143.83 204 174.52 204 174.52 192.79 131.31 192.79"/><polygon class="cls-3" points="191.4 192.79 191.4 250.08 204 250.08 204 227.9 231.34 227.9 231.34 216.44 204 216.44 204 204.25 235.02 204.25 235.02 192.79 191.4 192.79"/><path class="cls-3" d="M243.79,200.56V195h2.36a4.05,4.05,0,0,1,1.3.15,1.25,1.25,0,0,1,.65.53,1.74,1.74,0,0,1,0,1.69s-.08.12-.17.22a1.62,1.62,0,0,1-.93.49c.1.11.26.28.43.49a7.42,7.42,0,0,1,.64.9l.68,1.09h-1.34l-.81-1.21a7.31,7.31,0,0,0-.6-.82.79.79,0,0,0-.33-.23,2,2,0,0,0-.57-.06h-.23v2.32Zm1.12-3.21h.83a4,4,0,0,0,1-.07.6.6,0,0,0,.32-.24.76.76,0,0,0,.11-.41.69.69,0,0,0-.15-.46.7.7,0,0,0-.42-.21,6.85,6.85,0,0,0-.82,0h-.88Z" transform="translate(0 0)"/><path class="cls-3" d="M245.88,202.75a5,5,0,0,1-1.94-.39,5.26,5.26,0,0,1-.84-.46,4.8,4.8,0,0,1-.74-.61,5.36,5.36,0,0,1-.61-.73,5.31,5.31,0,0,1-.45-.85,5,5,0,0,1,0-3.87,5.21,5.21,0,0,1,.45-.84,5,5,0,0,1,1.35-1.35,4.53,4.53,0,0,1,.84-.45,5,5,0,0,1,1.94-.4,4.9,4.9,0,0,1,1.93.4,4.61,4.61,0,0,1,.85.45,5.36,5.36,0,0,1,.73.61,4.8,4.8,0,0,1,.61.74,4.57,4.57,0,0,1,.46.84,5,5,0,0,1,0,3.87,4.66,4.66,0,0,1-.46.85,5.33,5.33,0,0,1-1.34,1.34,5.36,5.36,0,0,1-.85.46,4.9,4.9,0,0,1-1.93.39m0-9.53a4.56,4.56,0,1,0,4.55,4.56,4.56,4.56,0,0,0-4.55-4.56" transform="translate(0 0)"/><path class="cls-3" d="M118.92,128.41a49.18,49.18,0,0,0,47.87-38.52H153.86a36.49,36.49,0,1,1,0-21h12.93a49,49,0,1,0-47.87,59.49" transform="translate(0 0)"/><path class="cls-4" d="M118.42,45.58a33.81,33.81,0,0,0-30.66,47L100,87.19a20.47,20.47,0,0,1,18.44-28.25Z" transform="translate(0 0)"/><path class="cls-4" d="M126.8,98.29l4.85,12.45a34.19,34.19,0,0,0,19.42-20.85H136.5a20.51,20.51,0,0,1-9.7,8.4" transform="translate(0 0)"/><path class="cls-3" d="M182.24,89.89H169.52a51.8,51.8,0,0,1-50.1,41.18v12.52a64.28,64.28,0,0,0,62.82-53.7" transform="translate(0 0)"/><path class="cls-3" d="M118.42,27.73V15.22A64.68,64.68,0,0,0,59.28,55.66L71,60.2a52.08,52.08,0,0,1,47.47-32.47" transform="translate(0 0)"/><path class="cls-3" d="M131.65,48.07,126.8,60.51a20.64,20.64,0,0,1,9.7,8.41h14.57a34.19,34.19,0,0,0-19.42-20.85" transform="translate(0 0)"/><path class="cls-3" d="M118.42,113.23V99.88a20.36,20.36,0,0,1-13.62-5.65l-9.43,9.43a33.58,33.58,0,0,0,23,9.57" transform="translate(0 0)"/><path class="cls-3" d="M197.63,68.92a78.26,78.26,0,0,0-11.08-31.13l-10.68,6.65A66,66,0,0,1,185,68.92Z" transform="translate(0 0)"/><path class="cls-4" d="M197.63,89.89H185a67.29,67.29,0,0,1-66,56.37A66.38,66.38,0,0,1,72,127l-8.9,8.9a79.4,79.4,0,0,0,134.5-46" transform="translate(0 0)"/><path class="cls-4" d="M142.66,19.77l-4.55,11.68a52.19,52.19,0,0,1,31.41,37.47h12.73a64.47,64.47,0,0,0-39.59-49.15" transform="translate(0 0)"/><path class="cls-3" d="M57.53,105.85A66.45,66.45,0,0,1,52.09,79.9H39.51a78.66,78.66,0,0,0,6.51,31Z" transform="translate(0 0)"/><path class="cls-4" d="M94.62,138.8l4.64-11.62a51.45,51.45,0,0,1-32-47.28H54.73a63.93,63.93,0,0,0,39.89,58.9" transform="translate(0 0)"/><path class="cls-4" d="M73.6,14.2A79.22,79.22,0,0,0,45.09,50.14L56.8,54.7a67.37,67.37,0,0,1,62.12-42.15,66.2,66.2,0,0,1,39.56,13L166,15.47A79.4,79.4,0,0,0,73.6,14.2" transform="translate(0 0)"/></g></g></g></g></g></svg>