<svg xmlns="http://www.w3.org/2000/svg" xmlns:xlink="http://www.w3.org/1999/xlink" viewBox="0 0 250.85 251.06"><defs><style>.cls-1{fill:none;}.cls-2{clip-path:url(#clip-path);}.cls-3{fill:#405464;}.cls-4{fill:#ee9721;}</style><clipPath id="clip-path" transform="translate(0 -0.5)"><rect class="cls-1" width="250.85" height="251.57"/></clipPath></defs><title>Chef (2)</title><g id="Layer_2" data-name="Layer 2"><g id="Layer_1-2" data-name="Layer 1"><g id="Chef"><g class="cls-2"><g class="cls-2"><path class="cls-3" d="M0,222.1v-.16c0-16.29,12.27-29.63,29.87-29.63,10.81,0,17.27,3.6,22.59,8.84l-8,9.25c-4.42-4-8.92-6.47-14.65-6.47-9.66,0-16.61,8-16.61,17.84v.17c0,9.82,6.79,18,16.61,18,6.55,0,10.56-2.61,15.06-6.71l8,8.1c-5.89,6.31-12.44,10.24-23.49,10.24C12.52,251.57,0,238.55,0,222.1" transform="translate(0 -0.5)"/><polygon class="cls-3" points="103.31 192.79 103.31 215.46 80.07 215.46 80.07 192.79 67.47 192.79 67.47 250.08 80.07 250.08 80.07 227.08 103.31 227.08 103.31 250.08 115.92 250.08 115.92 192.79 103.31 192.79"/><polygon class="cls-3" points="131.31 192.79 131.31 250.08 174.93 250.08 174.93 238.87 143.83 238.87 143.83 226.84 170.84 226.84 170.84 215.62 143.83 215.62 143.83 204 174.52 204 174.52 192.79 131.31 192.79"/><polygon class="cls-3" points="191.4 192.79 191.4 250.08 204 250.08 204 227.9 231.34 227.9 231.34 216.44 204 216.44 204 204.25 235.02 204.25 235.02 192.79 191.4 192.79"/><path class="cls-3" d="M243.79,201.06V195.5h2.36a4.05,4.05,0,0,1,1.3.15,1.3,1.3,0,0,1,.65.53,1.64,1.64,0,0,1,.24.88,1.62,1.62,0,0,1-.2.81,1.46,1.46,0,0,1-.17.22,1.65,1.65,0,0,1-.93.5c.1.11.26.27.43.48a7,7,0,0,1,.64.91l.68,1.08h-1.34l-.81-1.21a8.48,8.48,0,0,0-.6-.82.79.79,0,0,0-.33-.23,2,2,0,0,0-.57-.06h-.23v2.32Zm1.12-3.21h.83a4,4,0,0,0,1-.07.58.58,0,0,0,.32-.23.77.77,0,0,0,.11-.42.64.64,0,0,0-.15-.45.66.66,0,0,0-.42-.22c-.09,0-.36,0-.82,0h-.88Z" transform="translate(0 -0.5)"/><path class="cls-3" d="M245.88,203.25a5,5,0,0,1-1.94-.39,4.57,4.57,0,0,1-.84-.46,4.74,4.74,0,0,1-.74-.6,5.45,5.45,0,0,1-.61-.74,5.21,5.21,0,0,1-.45-.84,5,5,0,0,1-.39-1.94,4.9,4.9,0,0,1,.39-1.93,5.31,5.31,0,0,1,.45-.85,6.15,6.15,0,0,1,.61-.74,5.39,5.39,0,0,1,.74-.6,4.57,4.57,0,0,1,.84-.46,5,5,0,0,1,1.94-.39,4.9,4.9,0,0,1,1.93.39,4.66,4.66,0,0,1,.85.46A4.93,4.93,0,0,1,250,195.5a4.66,4.66,0,0,1,.46.85,4.9,4.9,0,0,1,.39,1.93,5,5,0,0,1-.39,1.94,4.57,4.57,0,0,1-.46.84,4.8,4.8,0,0,1-.61.74,5,5,0,0,1-1.58,1.06,4.9,4.9,0,0,1-1.93.39m0-9.52a4.55,4.55,0,1,0,4.55,4.55,4.55,4.55,0,0,0-4.55-4.55" transform="translate(0 -0.5)"/><path class="cls-3" d="M118.92,128.92A49.19,49.19,0,0,0,166.79,90.4H153.86a36.49,36.49,0,1,1,0-21h12.93a49,49,0,1,0-47.87,59.5" transform="translate(0 -0.5)"/><path class="cls-4" d="M118.42,46.09a33.81,33.81,0,0,0-30.66,47L100,87.69a20.47,20.47,0,0,1,18.44-28.25Z" transform="translate(0 -0.5)"/><path class="cls-4" d="M126.8,98.8l4.85,12.44A34.14,34.14,0,0,0,151.07,90.4H136.5a20.62,20.62,0,0,1-9.7,8.4" transform="translate(0 -0.5)"/><path class="cls-3" d="M182.24,90.4H169.52a51.82,51.82,0,0,1-50.1,41.18V144.1a64.31,64.31,0,0,0,62.82-53.7" transform="translate(0 -0.5)"/><path class="cls-3" d="M118.42,28.24V15.72A64.71,64.71,0,0,0,59.28,56.17L71,60.7a52.08,52.08,0,0,1,47.47-32.46" transform="translate(0 -0.5)"/><path class="cls-3" d="M131.65,48.57,126.8,61a20.67,20.67,0,0,1,9.7,8.4h14.57a34.19,34.19,0,0,0-19.42-20.85" transform="translate(0 -0.5)"/><path class="cls-3" d="M118.42,113.73V100.38a20.27,20.27,0,0,1-13.62-5.65l-9.43,9.43a33.54,33.54,0,0,0,23,9.57" transform="translate(0 -0.5)"/><path class="cls-3" d="M197.63,69.42a78.37,78.37,0,0,0-11.08-31.13L175.87,45A66,66,0,0,1,185,69.42Z" transform="translate(0 -0.5)"/><path class="cls-4" d="M197.63,90.4H185a67.29,67.29,0,0,1-66,56.36A66.34,66.34,0,0,1,72,127.5l-8.9,8.9a79.4,79.4,0,0,0,134.5-46" transform="translate(0 -0.5)"/><path class="cls-4" d="M142.66,20.28,138.11,32a52.19,52.19,0,0,1,31.41,37.47h12.73a64.46,64.46,0,0,0-39.59-49.14" transform="translate(0 -0.5)"/><path class="cls-3" d="M57.53,106.36a66.52,66.52,0,0,1-5.44-25.95H39.51a78.7,78.7,0,0,0,6.51,31Z" transform="translate(0 -0.5)"/><path class="cls-4" d="M94.62,139.31l4.64-11.63a51.44,51.44,0,0,1-32-47.27H54.73a64,64,0,0,0,39.89,58.9" transform="translate(0 -0.5)"/><path class="cls-4" d="M73.6,14.7A79.22,79.22,0,0,0,45.09,50.64L56.8,55.2a67.37,67.37,0,0,1,62.12-42.15,66.26,66.26,0,0,1,39.56,13L166,16A79.4,79.4,0,0,0,73.6,14.7" transform="translate(0 -0.5)"/></g></g></g></g></g></svg>