<?xml version="1.0" encoding="UTF-8"?><svg xmlns="http://www.w3.org/2000/svg" viewBox="0 0 560.76127 198.20811"><defs><style>.e{fill:#fff;}.f{fill:#ffae1a;}</style></defs><g id="a"><g><path class="f" d="M99.12408,99.10185V53.52789h-34.85394l.01087-.01075-18.70723-18.70729V0H0V45.57371H34.85364l18.68549,18.68531,.01118-.01124v24.13393l-.02192-.02199-18.69654,18.6963H0v45.57396H45.57377v-34.83208l18.69642-18.69606h34.85388ZM15.19201,15.19189h15.18975v15.18993H15.19201V15.19189Zm15.19042,122.24669H15.1914v-15.19116h15.19103v15.19116Z"/><g><path class="e" d="M149.5557,198.20811h-20.08252V99.09056h20.08252v5.99231c3.23926-3.88696,10.36523-7.61194,18.13916-7.61194,21.05469,0,33.03955,17.49133,33.03955,37.89795s-11.98486,37.73596-33.03955,37.73596c-7.77393,0-14.8999-3.7251-18.13916-7.61206v32.71533Zm0-51.01636c2.42969,5.02063,7.77393,8.42163,13.60449,8.42163,10.85107,0,17.32959-8.74561,17.32959-20.24451,0-11.66089-6.47852-20.40662-17.32959-20.40662-5.99219,0-11.1748,3.56311-13.60449,8.42175v23.80774Z"/><path class="e" d="M273.6143,171.48521h-20.08252v-6.64026c-4.04883,4.53479-11.01318,8.25989-19.43457,8.25989-16.1958,0-25.42725-10.68921-25.42725-26.7229v-47.29138h20.08252v43.24243c0,7.61194,3.7251,12.79456,11.66064,12.79456,6.15479,0,11.49902-3.72498,12.95654-10.04126v-45.99573h20.24463v72.39465Z"/><path class="e" d="M306.97611,198.20811h-20.08203V99.09056h20.08203v5.99231c3.23926-3.88696,10.36523-7.61194,18.13965-7.61194,21.05371,0,33.03906,17.49133,33.03906,37.89795s-11.98535,37.73596-33.03906,37.73596c-7.77441,0-14.90039-3.7251-18.13965-7.61206v32.71533Zm0-51.01636c2.42969,5.02063,7.77441,8.42163,13.60449,8.42163,10.85156,0,17.3291-8.74561,17.3291-20.24451,0-11.66089-6.47754-20.40662-17.3291-20.40662-5.99219,0-11.1748,3.56311-13.60449,8.42175v23.80774Z"/><path class="e" d="M386.98295,198.20811h-20.08203V99.09056h20.08203v5.99231c3.23926-3.88696,10.36523-7.61194,18.13965-7.61194,21.05371,0,33.03906,17.49133,33.03906,37.89795s-11.98535,37.73596-33.03906,37.73596c-7.77441,0-14.90039-3.7251-18.13965-7.61206v32.71533Zm0-51.01636c2.42969,5.02063,7.77441,8.42163,13.60449,8.42163,10.85156,0,17.3291-8.74561,17.3291-20.24451,0-11.66089-6.47754-20.40662-17.3291-20.40662-5.99219,0-11.1748,3.56311-13.60449,8.42175v23.80774Z"/><path class="e" d="M510.231,147.83946c-2.59082,15.38599-13.92773,25.26538-32.06738,25.26538-21.05469,0-35.14453-15.38599-35.14453-37.73596,0-21.86414,14.57617-37.89795,34.82031-37.89795,21.2168,0,32.87793,14.73816,32.87793,35.95447v6.1543h-48.26367c.64844,10.85107,6.80273,17.32935,15.70996,17.32935,6.80176,0,11.82324-2.91516,13.44238-9.06958h18.625Zm-47.29102-20.40649h28.01855c-.16211-7.61194-4.69727-13.60437-12.95703-13.60437-7.77344,0-13.28027,4.69678-15.06152,13.60437Z"/><path class="e" d="M523.83451,115.28623h-11.0127v-16.19568h11.0127v-19.5968h19.9209v19.5968h15.87207v16.19568h-15.87207v31.74353c0,5.66846,3.07715,8.25977,8.25977,8.25977,3.07715,0,6.47852-.9718,8.74609-2.42932v17.81519c-2.75391,1.45764-7.6123,2.26746-12.95703,2.26746-14.73828,0-23.96973-7.28809-23.96973-23.32178v-34.33484Z"/></g></g></g><g id="b"/><g id="c"/><g id="d"/></svg>