<svg version="1.1" xmlns="http://www.w3.org/2000/svg" viewBox="0 0 1223.5396825396826 980.6071428571425" width="1223.5396825396826" height="980.6071428571425">
  <!-- svg-source:excalidraw -->
  
  <defs>
    <style class="style-fonts">
      @font-face {
        font-family: "Virgil";
        src: url("https://excalidraw.com/Virgil.woff2");
      }
      @font-face {
        font-family: "Cascadia";
        src: url("https://excalidraw.com/Cascadia.woff2");
      }
      @font-face {
        font-family: "Assistant";
        src: url("https://excalidraw.com/Assistant-Regular.woff2");
      }
    </style>
    
  </defs>
  <g stroke-linecap="round" transform="translate(10 415.17857142857144) rotate(0 148.5 68.92857142857147)"><path d="M32 0 C125.18 -3.25, 212.59 -0.54, 265 0 M32 0 C122.39 3.32, 214.8 3.61, 265 0 M265 0 C282.61 3.66, 296.18 7.31, 297 32 M265 0 C288.35 -4.5, 299.33 12.39, 297 32 M297 32 C299.54 49.46, 295.34 67.19, 297 105.86 M297 32 C298.5 55.26, 296.73 79.46, 297 105.86 M297 105.86 C297.92 127.01, 286.1 136.15, 265 137.86 M297 105.86 C295.97 126.91, 286.71 134.67, 265 137.86 M265 137.86 C197.16 138.2, 123.14 139.19, 32 137.86 M265 137.86 C207.2 141.13, 147.22 142.06, 32 137.86 M32 137.86 C14.63 137.71, -1.81 126.52, 0 105.86 M32 137.86 C11.25 139.2, -1.8 123.91, 0 105.86 M0 105.86 C-3.84 77.66, -0.39 48.72, 0 32 M0 105.86 C-1.56 78.34, -2.04 47.19, 0 32 M0 32 C-1.72 11.38, 11.91 -3.34, 32 0 M0 32 C-3.53 9.44, 8.07 3.79, 32 0" stroke="#1e1e1e" stroke-width="2" fill="none"></path></g><g transform="translate(103 460.17857142857144) rotate(0 55.509979248046875 17.5)"><text x="0" y="24.528" font-family="Virgil, Segoe UI Emoji" font-size="28px" fill="#1e1e1e" text-anchor="start" style="white-space: pre;" direction="ltr" dominant-baseline="alphabetic">Worker 1</text></g><g stroke-linecap="round" transform="translate(364.5 418.67857142857144) rotate(0 148.5 64.64285714285714)"><path d="M32 0 C81.89 -3.99, 122.89 -3.03, 265 0 M32 0 C84.37 1.99, 137.74 4.13, 265 0 M265 0 C287.61 1.13, 296.61 10.5, 297 32 M265 0 C289.05 4.29, 300.35 12.25, 297 32 M297 32 C300.81 52.85, 301.89 66.61, 297 97.29 M297 32 C296.84 50.42, 298.74 70.58, 297 97.29 M297 97.29 C293.07 120.13, 282.72 127.95, 265 129.29 M297 97.29 C296.28 118.88, 290.41 127.56, 265 129.29 M265 129.29 C194.93 128.4, 123.96 132.73, 32 129.29 M265 129.29 C198.42 131.78, 128.46 133.05, 32 129.29 M32 129.29 C14.54 128.27, 1.74 117.95, 0 97.29 M32 129.29 C13.65 128.01, 0.9 117.43, 0 97.29 M0 97.29 C2.44 72.27, 1.86 50.4, 0 32 M0 97.29 C-1.91 74.48, 0.01 56.92, 0 32 M0 32 C1.93 7.92, 13.28 -2.25, 32 0 M0 32 C3.29 7.89, 10.28 -4.23, 32 0" stroke="#1e1e1e" stroke-width="2" fill="none"></path></g><g transform="translate(457.5 463.67857142857144) rotate(0 61.68397521972656 17.5)"><text x="0" y="24.528" font-family="Virgil, Segoe UI Emoji" font-size="28px" fill="#1e1e1e" text-anchor="start" style="white-space: pre;" direction="ltr" dominant-baseline="alphabetic">Worker 2</text></g><g stroke-linecap="round" transform="translate(712.5 421.67857142857144) rotate(0 148.5 62.49999999999997)"><path d="M31.25 0 C95.45 -0.96, 154.07 -0.57, 265.75 0 M31.25 0 C99.06 3.61, 166.52 1.68, 265.75 0 M265.75 0 C289.62 2.66, 297.36 13.44, 297 31.25 M265.75 0 C288.56 0.26, 299.82 7.05, 297 31.25 M297 31.25 C297.91 55.52, 298.76 76.98, 297 93.75 M297 31.25 C296.15 49.41, 295.88 68.31, 297 93.75 M297 93.75 C294.4 113.28, 288.44 125.41, 265.75 125 M297 93.75 C292.59 112.7, 286.78 129.58, 265.75 125 M265.75 125 C207.26 126.69, 148.55 122.93, 31.25 125 M265.75 125 C173.15 124.22, 82.53 123.38, 31.25 125 M31.25 125 C13.65 126.05, -2.56 111.32, 0 93.75 M31.25 125 C9.43 121.09, 2.24 118.54, 0 93.75 M0 93.75 C1.63 70.49, -0.63 42.81, 0 31.25 M0 93.75 C0.12 72.82, 1.65 50.88, 0 31.25 M0 31.25 C-1.5 10.4, 6.44 -0.56, 31.25 0 M0 31.25 C-4.29 7.91, 14.86 -4.58, 31.25 0" stroke="#1e1e1e" stroke-width="2" fill="none"></path></g><g transform="translate(805.5 466.67857142857144) rotate(0 61.249977111816406 17.5)"><text x="0" y="24.528" font-family="Virgil, Segoe UI Emoji" font-size="28px" fill="#1e1e1e" text-anchor="start" style="white-space: pre;" direction="ltr" dominant-baseline="alphabetic">Worker 3</text></g><g stroke-linecap="round" transform="translate(243 179.17857142857142) rotate(0 275.5 52)"><path d="M26 0 C211.39 -1.15, 400.75 -1.95, 525 0 M26 0 C220.65 -3.44, 414.61 -3.87, 525 0 M525 0 C544.21 -3.11, 547.09 6.89, 551 26 M525 0 C541.87 2.32, 547.13 10.61, 551 26 M551 26 C553.64 37.44, 547.53 46.1, 551 78 M551 26 C552.91 45.52, 551.17 64.57, 551 78 M551 78 C547.47 92.48, 540.43 101.21, 525 104 M551 78 C553.57 92.15, 542.04 105.04, 525 104 M525 104 C343.47 103.77, 161.7 105.71, 26 104 M525 104 C332.68 108.4, 141.03 107.98, 26 104 M26 104 C10.48 104.33, 1.42 93.96, 0 78 M26 104 C7.86 101.1, -0.39 95.42, 0 78 M0 78 C2.18 64.98, -3.81 48.1, 0 26 M0 78 C0.87 68.33, 0.9 54.38, 0 26 M0 26 C-0.5 5.71, 11.49 3.79, 26 0 M0 26 C-3.49 9.25, 6.65 3.65, 26 0" stroke="#1e1e1e" stroke-width="2" fill="none"></path></g><g transform="translate(448 211.17857142857142) rotate(0 92.62396240234375 17.5)"><text x="0" y="24.528" font-family="Virgil, Segoe UI Emoji" font-size="28px" fill="#1e1e1e" text-anchor="start" style="white-space: pre;" direction="ltr" dominant-baseline="alphabetic">Elasticsearch</text></g><g stroke-linecap="round" transform="translate(370.1428571428571 821.6071428571425) rotate(0 138.5 74.5)"><path d="M220.39 14.73 C234.72 18.53, 247.83 25.62, 256.63 33.29 C265.42 40.97, 269.92 51.97, 273.14 60.8 C276.36 69.62, 278.32 77.6, 275.96 86.25 C273.59 94.89, 267.7 105.04, 258.96 112.68 C250.22 120.31, 237.05 126.81, 223.54 132.04 C210.03 137.26, 193.81 141.56, 177.88 144.04 C161.95 146.51, 144.88 147.57, 127.97 146.88 C111.05 146.19, 91.55 143.38, 76.4 139.87 C61.26 136.37, 48.16 132.26, 37.08 125.86 C26.01 119.45, 16.16 109.91, 9.95 101.45 C3.74 92.99, 0.23 83.83, -0.16 75.1 C-0.54 66.38, 2.01 57.38, 7.66 49.1 C13.32 40.82, 22.74 32.32, 33.77 25.4 C44.8 18.47, 58.98 12, 73.83 7.52 C88.68 3.05, 105.89 -0.72, 122.85 -1.46 C139.82 -2.2, 156.93 -0.65, 175.6 3.09 C194.28 6.83, 222.58 16.56, 234.91 20.99 C247.25 25.41, 250.89 28.54, 249.61 29.64 M121.26 -0.37 C137.11 -2.45, 160.34 -0.2, 176.63 2.13 C192.92 4.47, 206.21 8.46, 219.02 13.64 C231.83 18.83, 244.19 25.41, 253.5 33.24 C262.82 41.06, 271.82 51.17, 274.9 60.6 C277.99 70.04, 275.24 80.72, 272 89.84 C268.76 98.97, 263.23 108.37, 255.45 115.37 C247.68 122.37, 237.85 126.73, 225.35 131.86 C212.84 136.98, 196.81 143.6, 180.45 146.12 C164.08 148.64, 144.52 147.84, 127.14 146.95 C109.77 146.06, 90.82 144.08, 76.19 140.78 C61.55 137.47, 50.69 133.27, 39.32 127.14 C27.95 121.01, 14.85 113.05, 7.96 104.01 C1.08 94.98, -2.49 81.93, -2 72.94 C-1.52 63.95, 4.38 58.38, 10.86 50.06 C17.35 41.73, 25.86 29.7, 36.91 23.02 C47.96 16.34, 62.76 14.05, 77.16 9.97 C91.56 5.89, 115.57 -0.51, 123.3 -1.45 C131.04 -2.4, 123.07 2.9, 123.57 4.28" stroke="#1e1e1e" stroke-width="2" fill="none"></path></g><g transform="translate(462.1428571428571 873.6071428571425) rotate(0 38.87798309326172 17.5)"><text x="0" y="24.528" font-family="Virgil, Segoe UI Emoji" font-size="28px" fill="#1e1e1e" text-anchor="start" style="white-space: pre;" direction="ltr" dominant-baseline="alphabetic">Users</text></g><g stroke-linecap="round" transform="translate(357.1428571428571 657.6071428571425) rotate(0 145.5 47.5)"><path d="M182.5 12 C207.51 17.83, 235.62 28.54, 254.5 36 M182.5 12 C197.63 18.64, 213.5 23.29, 254.5 36 M254.5 36 C290.38 49.66, 292.18 51.6, 254.5 60 M254.5 36 C294.15 49.24, 295.44 51.25, 254.5 60 M254.5 60 C232.19 64.87, 201.38 78.61, 182.5 83 M254.5 60 C234.93 65.2, 215.43 71.6, 182.5 83 M182.5 83 C142.2 98.16, 147.65 98.23, 109.5 83 M182.5 83 C144.28 93.35, 146.92 91.24, 109.5 83 M109.5 83 C96.19 82.01, 79.78 77.27, 36.5 60 M109.5 83 C82.66 74.97, 58.98 67.13, 36.5 60 M36.5 60 C3.08 47.65, -0.92 49.58, 36.5 36 M36.5 60 C1.37 52.34, 3.43 51.92, 36.5 36 M36.5 36 C63.53 28.45, 95.39 17.69, 109.5 12 M36.5 36 C55.07 29.8, 72.88 23.14, 109.5 12 M109.5 12 C149.76 -3.25, 145.9 1.71, 182.5 12 M109.5 12 C147.94 3.96, 150 4.07, 182.5 12" stroke="#1e1e1e" stroke-width="2" fill="none"></path></g><g transform="translate(400.1428571428571 688.6071428571425) rotate(0 100.22595977783203 17.5)"><text x="0" y="24.528" font-family="Virgil, Segoe UI Emoji" font-size="28px" fill="#1e1e1e" text-anchor="start" style="white-space: pre;" direction="ltr" dominant-baseline="alphabetic">Load Balancer</text></g><g stroke-linecap="round"><g transform="translate(505.1428571428571 820.607211357565) rotate(0 0 -33.88214016478821)"><path d="M-0.19 -2.44 C-0.27 -14.06, -1.87 -58, -2 -69.08 M-3.73 2.41 C-2.79 -8.91, 3.25 -54.69, 3.31 -66.16" stroke="#1e1e1e" stroke-width="2" fill="none"></path></g><g transform="translate(505.1428571428571 820.607211357565) rotate(0 0 -33.88214016478821)"><path d="M8.29 -43.51 C7.38 -48.72, 5.86 -52.38, 4.69 -66.4 M10.97 -41.15 C8.61 -51.02, 5.6 -59.33, 4.04 -66.72" stroke="#1e1e1e" stroke-width="2" fill="none"></path></g><g transform="translate(505.1428571428571 820.607211357565) rotate(0 0 -33.88214016478821)"><path d="M-8.76 -44.83 C-5.48 -49.7, -2.81 -53.04, 4.69 -66.4 M-6.08 -42.46 C-2.35 -51.97, 0.74 -59.81, 4.04 -66.72" stroke="#1e1e1e" stroke-width="2" fill="none"></path></g></g><mask></mask><g stroke-linecap="round"><g transform="translate(498.6965036883712 657.4263991395349) rotate(0 -181.56175834565133 -48.69534242691026)"><path d="M-1.86 -2.52 C-47.37 -7.13, -210.79 -10.84, -271.01 -27.02 C-331.23 -43.2, -348.15 -87.98, -363.17 -99.61 M2.33 2.29 C-43.59 -2.13, -211.11 -8.07, -272.34 -24.74 C-333.56 -41.41, -350.48 -86.18, -365 -97.71" stroke="#1e1e1e" stroke-width="2" fill="none"></path></g><g transform="translate(498.6965036883712 657.4263991395349) rotate(0 -181.56175834565133 -48.69534242691026)"><path d="M-345.15 -84.01 C-353.25 -90.06, -361.15 -93.29, -364.6 -95.8 M-342.64 -86.15 C-350.96 -88.72, -359.74 -94.75, -364.35 -97.02" stroke="#1e1e1e" stroke-width="2" fill="none"></path></g><g transform="translate(498.6965036883712 657.4263991395349) rotate(0 -181.56175834565133 -48.69534242691026)"><path d="M-358.25 -73.01 C-361.48 -83.09, -364.49 -90.42, -364.6 -95.8 M-355.74 -75.15 C-359.22 -81.76, -363.27 -91.77, -364.35 -97.02" stroke="#1e1e1e" stroke-width="2" fill="none"></path></g></g><mask></mask><g stroke-linecap="round"><g transform="translate(505.22456536191055 657.3980291907985) rotate(0 198.02711810432191 -52.6097288811136)"><path d="M-1 -2.41 C55.61 -5.16, 272.35 2.76, 338.97 -14.37 C405.58 -31.5, 389.05 -89.71, 398.7 -105.19 M3.66 2.45 C61.23 -1.26, 278.6 -0.8, 344.38 -18.22 C410.16 -35.64, 389.41 -87.48, 398.33 -102.06" stroke="#1e1e1e" stroke-width="2" fill="none"></path></g><g transform="translate(505.22456536191055 657.3980291907985) rotate(0 198.02711810432191 -52.6097288811136)"><path d="M401.62 -78.86 C403.3 -82.43, 400.42 -90.46, 396.91 -100.18 M402.47 -76.91 C401.96 -85.24, 399.29 -93.62, 399.15 -101.43" stroke="#1e1e1e" stroke-width="2" fill="none"></path></g><g transform="translate(505.22456536191055 657.3980291907985) rotate(0 198.02711810432191 -52.6097288811136)"><path d="M384.7 -81.37 C391.06 -84.19, 392.83 -91.53, 396.91 -100.18 M385.56 -79.42 C390.48 -87.08, 393.25 -94.66, 399.15 -101.43" stroke="#1e1e1e" stroke-width="2" fill="none"></path></g></g><mask></mask><g stroke-linecap="round"><g transform="translate(502.0549441617002 656.635842971266) rotate(0 3.5679770330717133 -51.585778628490175)"><path d="M0.75 1 C1.82 -16.09, 6.76 -87.02, 7.93 -104.54 M-2.29 -0.93 C-1.66 -17.48, 4.69 -84.88, 6.13 -101.65" stroke="#1e1e1e" stroke-width="2" fill="none"></path></g><g transform="translate(502.0549441617002 656.635842971266) rotate(0 3.5679770330717133 -51.585778628490175)"><path d="M13.26 -76.92 C9.47 -85.58, 7.5 -95.22, 6.94 -102.88 M11.97 -76.73 C10.28 -85.13, 9.19 -91.09, 6.08 -102.18" stroke="#1e1e1e" stroke-width="2" fill="none"></path></g><g transform="translate(502.0549441617002 656.635842971266) rotate(0 3.5679770330717133 -51.585778628490175)"><path d="M-3.77 -78.44 C-1.54 -86.61, 2.51 -95.71, 6.94 -102.88 M-5.06 -78.25 C-1.86 -86.29, 1.92 -91.82, 6.08 -102.18" stroke="#1e1e1e" stroke-width="2" fill="none"></path></g></g><mask></mask><g stroke-linecap="round"><g transform="translate(116.98634845167021 414.17857142857144) rotate(0 148.50682577416495 -61.50000000000003)"><path d="M0.55 2.29 C40.91 -6.97, 192.92 -36.11, 242.58 -56.72 C292.25 -77.33, 289.7 -110.68, 298.52 -121.39 M-2.6 1.06 C38.57 -7.68, 197.64 -32.3, 247.67 -53.48 C297.69 -74.67, 289.6 -113.97, 297.53 -126.05" stroke="#1e1e1e" stroke-width="2" fill="none"></path></g><g transform="translate(116.98634845167021 414.17857142857144) rotate(0 148.50682577416495 -61.50000000000003)"><path d="M300.99 -102.85 C298.37 -107.87, 299.46 -117.87, 298.96 -126.86 M300.01 -100.16 C299.51 -110.37, 297.37 -118.91, 298.49 -125.41" stroke="#1e1e1e" stroke-width="2" fill="none"></path></g><g transform="translate(116.98634845167021 414.17857142857144) rotate(0 148.50682577416495 -61.50000000000003)"><path d="M284.54 -107.51 C287.07 -111.1, 293.33 -119.63, 298.96 -126.86 M283.56 -104.82 C288.95 -113.26, 292.68 -120.14, 298.49 -125.41" stroke="#1e1e1e" stroke-width="2" fill="none"></path></g></g><mask></mask><g stroke-linecap="round"><g transform="translate(909.4347460449626 420.67857142857133) rotate(0 -130.71737302248118 -64.74999999999997)"><path d="M-0.97 -1.73 C-39.99 -12.26, -190.01 -39.53, -233.65 -60.54 C-277.28 -81.54, -257.92 -115.96, -262.79 -127.75 M3.7 3.5 C-35.75 -6.69, -191.16 -42.39, -236 -65.03 C-280.84 -87.67, -260.82 -121.57, -265.34 -132.34" stroke="#1e1e1e" stroke-width="2" fill="none"></path></g><g transform="translate(909.4347460449626 420.67857142857133) rotate(0 -130.71737302248118 -64.74999999999997)"><path d="M-258.25 -108.92 C-259.18 -117.21, -261.25 -124.74, -266.61 -134.01 M-257.33 -108.96 C-259.74 -113.92, -261.5 -120.04, -265.19 -132.96" stroke="#1e1e1e" stroke-width="2" fill="none"></path></g><g transform="translate(909.4347460449626 420.67857142857133) rotate(0 -130.71737302248118 -64.74999999999997)"><path d="M-275.35 -109.08 C-270.88 -117.26, -267.55 -124.74, -266.61 -134.01 M-274.43 -109.13 C-273.02 -113.99, -270.95 -120.06, -265.19 -132.96" stroke="#1e1e1e" stroke-width="2" fill="none"></path></g></g><mask></mask><g stroke-linecap="round"><g transform="translate(514.5512448447485 417.67857142857144) rotate(0 6.208483401474496 -64.74999999999997)"><path d="M-2.6 1.66 C-0.26 -20, 9.39 -105.6, 11.76 -127.73 M1.18 0.1 C3.3 -22.57, 7.8 -110.28, 9.16 -131.78" stroke="#1e1e1e" stroke-width="2" fill="none"></path></g><g transform="translate(514.5512448447485 417.67857142857144) rotate(0 6.208483401474496 -64.74999999999997)"><path d="M17.55 -108.31 C15.87 -113.7, 11.86 -120.31, 8.04 -130.56 M16.13 -107.7 C15.12 -112.96, 14.17 -116.96, 9.4 -132.48" stroke="#1e1e1e" stroke-width="2" fill="none"></path></g><g transform="translate(514.5512448447485 417.67857142857144) rotate(0 6.208483401474496 -64.74999999999997)"><path d="M0.47 -109.28 C2.52 -114.3, 2.23 -120.7, 8.04 -130.56 M-0.94 -108.67 C1.5 -113.76, 4.01 -117.56, 9.4 -132.48" stroke="#1e1e1e" stroke-width="2" fill="none"></path></g></g><mask></mask><g stroke-linecap="round" transform="translate(662.5396825396826 10) rotate(0 275.5 52)"><path d="M26 0 C186.6 3.06, 349.43 4.19, 525 0 M26 0 C131.17 3.4, 236.03 2.4, 525 0 M525 0 C543.58 0.03, 552.86 5.45, 551 26 M525 0 C542.65 3.28, 547.79 8.44, 551 26 M551 26 C547.59 44.19, 549.16 61.06, 551 78 M551 26 C553.65 42.22, 551.45 58.36, 551 78 M551 78 C550.98 99.24, 541.81 103.2, 525 104 M551 78 C546.96 97.28, 540.7 102.82, 525 104 M525 104 C335.14 107.78, 145.2 107.2, 26 104 M525 104 C387.66 100.16, 251.46 100.09, 26 104 M26 104 C10.61 104.48, -3.94 91.62, 0 78 M26 104 C9.44 105.75, -3.46 94.22, 0 78 M0 78 C-3.96 62.17, -3.1 46.57, 0 26 M0 78 C1.24 63.66, -1.33 47.36, 0 26 M0 26 C-3.23 4.86, 11.32 2.94, 26 0 M0 26 C-0.49 12.59, 5.33 -3.47, 26 0" stroke="#1e1e1e" stroke-width="2" fill="none"></path></g><g transform="translate(867.5396825396826 42) rotate(0 69.21598052978516 17.5)"><text x="0" y="24.528" font-family="Virgil, Segoe UI Emoji" font-size="28px" fill="#1e1e1e" text-anchor="start" style="white-space: pre;" direction="ltr" dominant-baseline="alphabetic">Database</text></g><g stroke-linecap="round"><g transform="translate(1016.6111111111113 476.2857142857141) rotate(0 30.714285714285666 -174.28571428571425)"><path d="M-1.13 1.34 C8.82 -13.22, 52.52 -27.45, 62.14 -85.72 C71.76 -143.98, 56.8 -304.84, 56.59 -348.25" stroke="#1e1e1e" stroke-width="2.5" fill="none" stroke-dasharray="1.5 8"></path></g><g transform="translate(1016.6111111111113 476.2857142857141) rotate(0 30.714285714285666 -174.28571428571425)"><path d="M67.21 -324.68 C61.36 -335.55, 58.88 -341.42, 58.31 -348.76" stroke="#1e1e1e" stroke-width="2.5" fill="none" stroke-dasharray="1.5 6"></path></g><g transform="translate(1016.6111111111113 476.2857142857141) rotate(0 30.714285714285666 -174.28571428571425)"><path d="M50.13 -323.86 C50.87 -334.98, 54.99 -341.17, 58.31 -348.76" stroke="#1e1e1e" stroke-width="2.5" fill="none" stroke-dasharray="1.5 6"></path></g></g><mask></mask><g stroke-linecap="round"><g transform="translate(660.8968253968258 480.5714285714283) rotate(0 166.42857142857133 -177.8571428571428)"><path d="M-2.16 -2.55 C2.53 -8.63, 10.66 -16.47, 25.83 -35.89 C41 -55.31, 46.07 -97.44, 88.85 -119.06 C131.63 -140.68, 242.13 -126.64, 282.5 -165.63 C322.88 -204.63, 322.76 -321.76, 331.08 -353.04" stroke="#1e1e1e" stroke-width="2.5" fill="none" stroke-dasharray="1.5 8"></path></g><g transform="translate(660.8968253968258 480.5714285714283) rotate(0 166.42857142857133 -177.8571428571428)"><path d="M334.49 -329.53 C335 -332.74, 332.61 -338.5, 331.14 -354.31" stroke="#1e1e1e" stroke-width="2.5" fill="none" stroke-dasharray="1.5 6"></path></g><g transform="translate(660.8968253968258 480.5714285714283) rotate(0 166.42857142857133 -177.8571428571428)"><path d="M317.55 -331.89 C321.75 -334.45, 323.05 -339.7, 331.14 -354.31" stroke="#1e1e1e" stroke-width="2.5" fill="none" stroke-dasharray="1.5 6"></path></g></g><mask></mask><g stroke-linecap="round"><g transform="translate(309.4682539682542 479.142857142857) rotate(0 300 -177.85714285714286)"><path d="M0.75 0.51 C16.03 -17.15, 2.19 -75.55, 90.67 -107.02 C179.16 -138.49, 446.91 -146.76, 531.64 -188.32 C616.38 -229.87, 587.73 -328.18, 599.08 -356.36" stroke="#1e1e1e" stroke-width="2.5" fill="none" stroke-dasharray="1.5 8"></path></g><g transform="translate(309.4682539682542 479.142857142857) rotate(0 300 -177.85714285714286)"><path d="M605.93 -333.78 C603.02 -338.42, 600.38 -345.6, 598.62 -356.53" stroke="#1e1e1e" stroke-width="2.5" fill="none" stroke-dasharray="1.5 6"></path></g><g transform="translate(309.4682539682542 479.142857142857) rotate(0 300 -177.85714285714286)"><path d="M588.89 -335.26 C590.47 -339.56, 592.33 -346.35, 598.62 -356.53" stroke="#1e1e1e" stroke-width="2.5" fill="none" stroke-dasharray="1.5 6"></path></g></g><mask></mask></svg>