<svg version="1.1" xmlns="http://www.w3.org/2000/svg" viewBox="0 0 1019.5 900" width="1019.5" height="900" filter="invert(93%) hue-rotate(180deg)">
  <!-- svg-source:excalidraw -->
  
  <defs>
    <style class="style-fonts">
      @font-face {
        font-family: "Virgil";
        src: url("https://excalidraw.com/Virgil.woff2");
      }
      @font-face {
        font-family: "Cascadia";
        src: url("https://excalidraw.com/Cascadia.woff2");
      }
      @font-face {
        font-family: "Assistant";
        src: url("https://excalidraw.com/Assistant-Regular.woff2");
      }
    </style>
    
  </defs>
  <g stroke-linecap="round" transform="translate(10 246) rotate(0 148.5 127.5)"><path d="M32 0 C125.18 -3.25, 212.59 -0.54, 265 0 M32 0 C122.39 3.32, 214.8 3.61, 265 0 M265 0 C282.61 3.66, 296.18 7.31, 297 32 M265 0 C288.35 -4.5, 299.33 12.39, 297 32 M297 32 C301.83 76.28, 297.63 120.83, 297 223 M297 32 C298.29 91.56, 296.52 152.07, 297 223 M297 223 C297.92 244.16, 286.1 253.29, 265 255 M297 223 C295.97 244.05, 286.71 251.81, 265 255 M265 255 C197.16 255.34, 123.14 256.33, 32 255 M265 255 C207.2 258.28, 147.22 259.2, 32 255 M32 255 C14.63 254.85, -1.81 243.66, 0 223 M32 255 C11.25 256.35, -1.8 241.05, 0 223 M0 223 C-5.03 150.58, -1.59 77.42, 0 32 M0 223 C-3.81 149.42, -4.29 72.22, 0 32 M0 32 C-1.72 11.38, 11.91 -3.34, 32 0 M0 32 C-3.53 9.44, 8.07 3.79, 32 0" stroke="#1e1e1e" stroke-width="2" fill="none"></path></g><g stroke-linecap="round" transform="translate(154 382) rotate(0 64.5 49.5)"><path d="M24.75 0 C50.71 -0.11, 78.3 2.71, 104.25 0 M24.75 0 C48.56 0.85, 71.09 -1.16, 104.25 0 M104.25 0 C123.85 2.04, 126.99 5.16, 129 24.75 M104.25 0 C120.39 0.41, 127.42 12.54, 129 24.75 M129 24.75 C132.64 43.11, 128.43 62.24, 129 74.25 M129 24.75 C127.77 39.94, 128.18 57.85, 129 74.25 M129 74.25 C132.93 87.04, 121.09 101.51, 104.25 99 M129 74.25 C130.34 95.08, 119.27 101.81, 104.25 99 M104.25 99 C83.78 101.04, 58.79 96.77, 24.75 99 M104.25 99 C83.31 97.13, 59.99 99.79, 24.75 99 M24.75 99 C9 100.64, 0.37 93.44, 0 74.25 M24.75 99 C8.6 95.1, 1.7 93.08, 0 74.25 M0 74.25 C2.45 60.17, 1.58 42.03, 0 24.75 M0 74.25 C2.36 54.22, 1.67 36.44, 0 24.75 M0 24.75 C-0.16 6.61, 5.04 -0.8, 24.75 0 M0 24.75 C-1.72 12.64, 5.1 -4.2, 24.75 0" stroke="#1e1e1e" stroke-width="2" fill="none"></path></g><g transform="translate(103 291) rotate(0 55.509979248046875 17.5)"><text x="0" y="24.528" font-family="Virgil, Segoe UI Emoji" font-size="28px" fill="#1e1e1e" text-anchor="start" style="white-space: pre;" direction="ltr" dominant-baseline="alphabetic">Worker 1</text></g><g transform="translate(177 397) rotate(0 45.47197723388672 35)"><text x="0" y="24.528" font-family="Virgil, Segoe UI Emoji" font-size="28px" fill="#1e1e1e" text-anchor="start" style="white-space: pre;" direction="ltr" dominant-baseline="alphabetic">Search</text><text x="0" y="59.528" font-family="Virgil, Segoe UI Emoji" font-size="28px" fill="#1e1e1e" text-anchor="start" style="white-space: pre;" direction="ltr" dominant-baseline="alphabetic">Cache</text></g><g stroke-linecap="round" transform="translate(364.5 249.5) rotate(0 148.5 127.5)"><path d="M32 0 C81.89 -3.99, 122.89 -3.03, 265 0 M32 0 C84.37 1.99, 137.74 4.13, 265 0 M265 0 C287.61 1.13, 296.61 10.5, 297 32 M265 0 C289.05 4.29, 300.35 12.25, 297 32 M297 32 C303.06 87.4, 304.14 135.69, 297 223 M297 32 C296.53 87.93, 298.43 145.6, 297 223 M297 223 C293.07 245.84, 282.72 253.66, 265 255 M297 223 C296.28 244.59, 290.41 253.27, 265 255 M265 255 C194.93 254.11, 123.96 258.44, 32 255 M265 255 C198.42 257.49, 128.46 258.76, 32 255 M32 255 C14.54 253.99, 1.74 243.67, 0 223 M32 255 C13.65 253.73, 0.9 243.15, 0 223 M0 223 C3.29 149.15, 2.72 78.45, 0 32 M0 223 C-2.08 159.98, -0.16 102.19, 0 32 M0 32 C1.93 7.92, 13.28 -2.25, 32 0 M0 32 C3.29 7.89, 10.28 -4.23, 32 0" stroke="#1e1e1e" stroke-width="2" fill="none"></path></g><g stroke-linecap="round" transform="translate(508.5 385.5) rotate(0 64.5 49.5)"><path d="M24.75 0 C49.19 -0.26, 77.84 1.42, 104.25 0 M24.75 0 C40.87 2.23, 60.04 1.74, 104.25 0 M104.25 0 C120.36 -0.17, 131.36 11.98, 129 24.75 M104.25 0 C124.1 1.58, 127.84 12.35, 129 24.75 M129 24.75 C133.38 35.15, 129.59 47.6, 129 74.25 M129 24.75 C130.9 43.77, 127.04 64.3, 129 74.25 M129 74.25 C125.38 89.41, 120.13 99.22, 104.25 99 M129 74.25 C133.08 89.02, 120.74 98.77, 104.25 99 M104.25 99 C76.48 100.77, 51.62 99.58, 24.75 99 M104.25 99 C74.78 100.56, 48.53 98.52, 24.75 99 M24.75 99 C9.99 98.33, 2.59 89.64, 0 74.25 M24.75 99 C9.15 97.81, 4.07 89.18, 0 74.25 M0 74.25 C0.92 58.7, 0.31 35.74, 0 24.75 M0 74.25 C0.99 62.27, 1.86 46.1, 0 24.75 M0 24.75 C2.61 6, 11.11 -2.42, 24.75 0 M0 24.75 C-0.39 4.02, 7.22 -1.1, 24.75 0" stroke="#1e1e1e" stroke-width="2" fill="none"></path></g><g transform="translate(457.5 294.5) rotate(0 61.68397521972656 17.5)"><text x="0" y="24.528" font-family="Virgil, Segoe UI Emoji" font-size="28px" fill="#1e1e1e" text-anchor="start" style="white-space: pre;" direction="ltr" dominant-baseline="alphabetic">Worker 2</text></g><g transform="translate(531.5 400.5) rotate(0 45.47197723388672 35)"><text x="0" y="24.528" font-family="Virgil, Segoe UI Emoji" font-size="28px" fill="#1e1e1e" text-anchor="start" style="white-space: pre;" direction="ltr" dominant-baseline="alphabetic">Search</text><text x="0" y="59.528" font-family="Virgil, Segoe UI Emoji" font-size="28px" fill="#1e1e1e" text-anchor="start" style="white-space: pre;" direction="ltr" dominant-baseline="alphabetic">Cache</text></g><g stroke-linecap="round" transform="translate(712.5 252.5) rotate(0 148.5 127.5)"><path d="M32 0 C95.82 -0.94, 154.04 -0.55, 265 0 M32 0 C99.39 3.6, 166.42 1.67, 265 0 M265 0 C289.37 2.66, 297.36 13.69, 297 32 M265 0 C288.31 0.26, 299.82 7.3, 297 32 M297 32 C299.98 102.64, 300.83 170.47, 297 223 M297 32 C293.88 90.23, 293.62 149.21, 297 223 M297 223 C294.4 243.03, 288.19 255.41, 265 255 M297 223 C292.59 242.45, 286.53 259.58, 265 255 M265 255 C206.88 256.69, 148.55 252.92, 32 255 M265 255 C172.99 254.23, 82.96 253.39, 32 255 M32 255 C13.9 256.05, -2.56 241.07, 0 223 M32 255 C9.68 251.09, 2.24 248.29, 0 223 M0 223 C-0.55 149.96, -2.81 72.5, 0 32 M0 223 C-0.22 159.34, 1.31 94.67, 0 32 M0 32 C-1.5 10.65, 6.69 -0.56, 32 0 M0 32 C-4.29 8.16, 15.11 -4.58, 32 0" stroke="#1e1e1e" stroke-width="2" fill="none"></path></g><g stroke-linecap="round" transform="translate(856.5 388.5) rotate(0 64.5 49.5)"><path d="M24.75 0 C56.36 2.35, 86.31 -3.77, 104.25 0 M24.75 0 C45.74 -1.98, 64.56 0.13, 104.25 0 M104.25 0 C121.11 3.02, 130.72 8.48, 129 24.75 M104.25 0 C123.57 -3.37, 131.8 11.95, 129 24.75 M129 24.75 C129.74 36.88, 129.45 44.24, 129 74.25 M129 24.75 C129.11 42.15, 127.83 62.74, 129 74.25 M129 74.25 C130.86 91.16, 116.91 97.36, 104.25 99 M129 74.25 C129.19 95.33, 118.45 98.75, 104.25 99 M104.25 99 C77.84 95.22, 55.15 96.8, 24.75 99 M104.25 99 C86.66 101.02, 67 100.86, 24.75 99 M24.75 99 C5.69 95.73, -0.86 87.35, 0 74.25 M24.75 99 C10.49 102.96, 4.02 94.65, 0 74.25 M0 74.25 C-0.23 60.99, 0.63 53.28, 0 24.75 M0 74.25 C1.67 62.62, -0.89 53.59, 0 24.75 M0 24.75 C-3.98 7.69, 4.52 -2.18, 24.75 0 M0 24.75 C4.44 3.67, 11.93 -1.68, 24.75 0" stroke="#1e1e1e" stroke-width="2" fill="none"></path></g><g transform="translate(805.5 297.5) rotate(0 61.249977111816406 17.5)"><text x="0" y="24.528" font-family="Virgil, Segoe UI Emoji" font-size="28px" fill="#1e1e1e" text-anchor="start" style="white-space: pre;" direction="ltr" dominant-baseline="alphabetic">Worker 3</text></g><g transform="translate(879.5 403.5) rotate(0 45.47197723388672 35)"><text x="0" y="24.528" font-family="Virgil, Segoe UI Emoji" font-size="28px" fill="#1e1e1e" text-anchor="start" style="white-space: pre;" direction="ltr" dominant-baseline="alphabetic">Search</text><text x="0" y="59.528" font-family="Virgil, Segoe UI Emoji" font-size="28px" fill="#1e1e1e" text-anchor="start" style="white-space: pre;" direction="ltr" dominant-baseline="alphabetic">Cache</text></g><g stroke-linecap="round" transform="translate(243 10) rotate(0 275.5 52)"><path d="M26 0 C211.39 -1.15, 400.75 -1.95, 525 0 M26 0 C220.65 -3.44, 414.61 -3.87, 525 0 M525 0 C544.21 -3.11, 547.09 6.89, 551 26 M525 0 C541.87 2.32, 547.13 10.61, 551 26 M551 26 C553.64 37.44, 547.53 46.1, 551 78 M551 26 C552.91 45.52, 551.17 64.57, 551 78 M551 78 C547.47 92.48, 540.43 101.21, 525 104 M551 78 C553.57 92.15, 542.04 105.04, 525 104 M525 104 C343.47 103.77, 161.7 105.71, 26 104 M525 104 C332.68 108.4, 141.03 107.98, 26 104 M26 104 C10.48 104.33, 1.42 93.96, 0 78 M26 104 C7.86 101.1, -0.39 95.42, 0 78 M0 78 C2.18 64.98, -3.81 48.1, 0 26 M0 78 C0.87 68.33, 0.9 54.38, 0 26 M0 26 C-0.5 5.71, 11.49 3.79, 26 0 M0 26 C-3.49 9.25, 6.65 3.65, 26 0" stroke="#1e1e1e" stroke-width="2" fill="none"></path></g><g transform="translate(448 42) rotate(0 69.21598052978516 17.5)"><text x="0" y="24.528" font-family="Virgil, Segoe UI Emoji" font-size="28px" fill="#1e1e1e" text-anchor="start" style="white-space: pre;" direction="ltr" dominant-baseline="alphabetic">Database</text></g><g stroke-linecap="round" transform="translate(363 741) rotate(0 138.5 74.5)"><path d="M220.39 14.73 C234.72 18.53, 247.83 25.62, 256.63 33.29 C265.42 40.97, 269.92 51.97, 273.14 60.8 C276.36 69.62, 278.32 77.6, 275.96 86.25 C273.59 94.89, 267.7 105.04, 258.96 112.68 C250.22 120.31, 237.05 126.81, 223.54 132.04 C210.03 137.26, 193.81 141.56, 177.88 144.04 C161.95 146.51, 144.88 147.57, 127.97 146.88 C111.05 146.19, 91.55 143.38, 76.4 139.87 C61.26 136.37, 48.16 132.26, 37.08 125.86 C26.01 119.45, 16.16 109.91, 9.95 101.45 C3.74 92.99, 0.23 83.83, -0.16 75.1 C-0.54 66.38, 2.01 57.38, 7.66 49.1 C13.32 40.82, 22.74 32.32, 33.77 25.4 C44.8 18.47, 58.98 12, 73.83 7.52 C88.68 3.05, 105.89 -0.72, 122.85 -1.46 C139.82 -2.2, 156.93 -0.65, 175.6 3.09 C194.28 6.83, 222.58 16.56, 234.91 20.99 C247.25 25.41, 250.89 28.54, 249.61 29.64 M121.26 -0.37 C137.11 -2.45, 160.34 -0.2, 176.63 2.13 C192.92 4.47, 206.21 8.46, 219.02 13.64 C231.83 18.83, 244.19 25.41, 253.5 33.24 C262.82 41.06, 271.82 51.17, 274.9 60.6 C277.99 70.04, 275.24 80.72, 272 89.84 C268.76 98.97, 263.23 108.37, 255.45 115.37 C247.68 122.37, 237.85 126.73, 225.35 131.86 C212.84 136.98, 196.81 143.6, 180.45 146.12 C164.08 148.64, 144.52 147.84, 127.14 146.95 C109.77 146.06, 90.82 144.08, 76.19 140.78 C61.55 137.47, 50.69 133.27, 39.32 127.14 C27.95 121.01, 14.85 113.05, 7.96 104.01 C1.08 94.98, -2.49 81.93, -2 72.94 C-1.52 63.95, 4.38 58.38, 10.86 50.06 C17.35 41.73, 25.86 29.7, 36.91 23.02 C47.96 16.34, 62.76 14.05, 77.16 9.97 C91.56 5.89, 115.57 -0.51, 123.3 -1.45 C131.04 -2.4, 123.07 2.9, 123.57 4.28" stroke="#1e1e1e" stroke-width="2" fill="none"></path></g><g transform="translate(455 793) rotate(0 38.87798309326172 17.5)"><text x="0" y="24.528" font-family="Virgil, Segoe UI Emoji" font-size="28px" fill="#1e1e1e" text-anchor="start" style="white-space: pre;" direction="ltr" dominant-baseline="alphabetic">Users</text></g><g stroke-linecap="round" transform="translate(350 577) rotate(0 145.5 47.5)"><path d="M182.5 12 C207.51 17.83, 235.62 28.54, 254.5 36 M182.5 12 C197.63 18.64, 213.5 23.29, 254.5 36 M254.5 36 C290.38 49.66, 292.18 51.6, 254.5 60 M254.5 36 C294.15 49.24, 295.44 51.25, 254.5 60 M254.5 60 C232.19 64.87, 201.38 78.61, 182.5 83 M254.5 60 C234.93 65.2, 215.43 71.6, 182.5 83 M182.5 83 C142.2 98.16, 147.65 98.23, 109.5 83 M182.5 83 C144.28 93.35, 146.92 91.24, 109.5 83 M109.5 83 C96.19 82.01, 79.78 77.27, 36.5 60 M109.5 83 C82.66 74.97, 58.98 67.13, 36.5 60 M36.5 60 C3.08 47.65, -0.92 49.58, 36.5 36 M36.5 60 C1.37 52.34, 3.43 51.92, 36.5 36 M36.5 36 C63.53 28.45, 95.39 17.69, 109.5 12 M36.5 36 C55.07 29.8, 72.88 23.14, 109.5 12 M109.5 12 C149.76 -3.25, 145.9 1.71, 182.5 12 M109.5 12 C147.94 3.96, 150 4.07, 182.5 12" stroke="#1e1e1e" stroke-width="2" fill="none"></path></g><g transform="translate(393 608) rotate(0 100.22595977783203 17.5)"><text x="0" y="24.528" font-family="Virgil, Segoe UI Emoji" font-size="28px" fill="#1e1e1e" text-anchor="start" style="white-space: pre;" direction="ltr" dominant-baseline="alphabetic">Load Balancer</text></g><g stroke-linecap="round"><g transform="translate(498 740.0000685004225) rotate(0 0 -33.88214016478821)"><path d="M-0.19 -2.44 C-0.27 -14.06, -1.87 -58, -2 -69.08 M-3.73 2.41 C-2.79 -8.91, 3.25 -54.69, 3.31 -66.16" stroke="#1e1e1e" stroke-width="2" fill="none"></path></g><g transform="translate(498 740.0000685004225) rotate(0 0 -33.88214016478821)"><path d="M8.29 -43.51 C7.38 -48.72, 5.86 -52.38, 4.69 -66.4 M10.97 -41.15 C8.61 -51.02, 5.6 -59.33, 4.04 -66.72" stroke="#1e1e1e" stroke-width="2" fill="none"></path></g><g transform="translate(498 740.0000685004225) rotate(0 0 -33.88214016478821)"><path d="M-8.76 -44.83 C-5.48 -49.7, -2.81 -53.04, 4.69 -66.4 M-6.08 -42.46 C-2.35 -51.97, 0.74 -59.81, 4.04 -66.72" stroke="#1e1e1e" stroke-width="2" fill="none"></path></g></g><mask></mask><g stroke-linecap="round"><g transform="translate(489.7884688170236 577.3955170528617) rotate(0 -171.8942344085118 -29.395517052861692)"><path d="M-1.86 -2.52 C-47.55 -1.27, -215.11 19.64, -272.1 8.12 C-329.1 -3.4, -332.22 -58.79, -343.84 -71.62 M2.33 2.29 C-43.78 3.73, -215.43 22.4, -273.43 10.4 C-331.43 -1.6, -334.55 -56.99, -345.67 -69.71" stroke="#1e1e1e" stroke-width="2" fill="none"></path></g><g transform="translate(489.7884688170236 577.3955170528617) rotate(0 -171.8942344085118 -29.395517052861692)"><path d="M-329.84 -50.77 C-336.45 -58.76, -342.85 -63.94, -345.26 -67.81 M-327.33 -52.91 C-334.15 -57.4, -341.47 -65.33, -345.02 -69.03" stroke="#1e1e1e" stroke-width="2" fill="none"></path></g><g transform="translate(489.7884688170236 577.3955170528617) rotate(0 -171.8942344085118 -29.395517052861692)"><path d="M-345.37 -43.6 C-346.19 -54.16, -346.78 -62.03, -345.26 -67.81 M-342.85 -45.74 C-343.99 -52.89, -345.71 -63.41, -345.02 -69.03" stroke="#1e1e1e" stroke-width="2" fill="none"></path></g></g><mask></mask><g stroke-linecap="round"><g transform="translate(497 577) rotate(0 193 -22.5)"><path d="M-1 -2.41 C55.32 0.76, 272.25 31.39, 337.19 21.14 C402.13 10.88, 380.37 -49.45, 388.65 -63.97 M3.66 2.45 C60.94 4.66, 278.5 27.83, 342.61 17.28 C406.71 6.73, 380.73 -47.22, 388.28 -60.84" stroke="#1e1e1e" stroke-width="2" fill="none"></path></g><g transform="translate(497 577) rotate(0 193 -22.5)"><path d="M393.89 -38.23 C394.93 -41.65, 391.41 -49.51, 386.86 -58.96 M394.74 -36.28 C393.48 -44.4, 390.07 -52.6, 389.09 -60.21" stroke="#1e1e1e" stroke-width="2" fill="none"></path></g><g transform="translate(497 577) rotate(0 193 -22.5)"><path d="M376.81 -39.11 C382.56 -42.23, 383.74 -49.85, 386.86 -58.96 M377.66 -37.16 C381.89 -45.14, 383.97 -53.05, 389.09 -60.21" stroke="#1e1e1e" stroke-width="2" fill="none"></path></g></g><mask></mask><g stroke-linecap="round"><g transform="translate(496 576) rotate(0 3 -33)"><path d="M0.75 1 C1.63 -9.89, 5.82 -56.04, 6.8 -67.36 M-2.29 -0.93 C-1.85 -11.28, 3.75 -53.91, 4.99 -64.48" stroke="#1e1e1e" stroke-width="2" fill="none"></path></g><g transform="translate(496 576) rotate(0 3 -33)"><path d="M11.3 -39.54 C7.8 -48.27, 6.12 -57.99, 5.81 -65.71 M10.01 -39.35 C8.56 -47.81, 7.7 -53.84, 4.95 -65.01" stroke="#1e1e1e" stroke-width="2" fill="none"></path></g><g transform="translate(496 576) rotate(0 3 -33)"><path d="M-5.67 -41.65 C-3.17 -49.68, 1.15 -58.65, 5.81 -65.71 M-6.96 -41.46 C-3.54 -49.39, 0.46 -54.81, 4.95 -65.01" stroke="#1e1e1e" stroke-width="2" fill="none"></path></g></g><mask></mask><g stroke-linecap="round"><g transform="translate(155 245) rotate(0 129.5 -61.5)"><path d="M0.55 2.29 C34.57 -6.97, 161.24 -36.11, 204.57 -56.72 C247.9 -77.33, 251.69 -110.68, 260.51 -121.39 M-2.6 1.06 C32.24 -7.68, 165.96 -32.3, 209.65 -53.48 C253.34 -74.67, 251.58 -113.97, 259.52 -126.05" stroke="#1e1e1e" stroke-width="2" fill="none"></path></g><g transform="translate(155 245) rotate(0 129.5 -61.5)"><path d="M261.38 -102.79 C259.26 -107.83, 260.85 -117.85, 260.94 -126.86 M260.4 -100.09 C260.47 -110.32, 258.9 -118.88, 260.48 -125.41" stroke="#1e1e1e" stroke-width="2" fill="none"></path></g><g transform="translate(155 245) rotate(0 129.5 -61.5)"><path d="M245.26 -108.49 C248.18 -111.77, 254.84 -120, 260.94 -126.86 M244.28 -105.79 C250.12 -113.88, 254.31 -120.41, 260.48 -125.41" stroke="#1e1e1e" stroke-width="2" fill="none"></path></g></g><mask></mask><g stroke-linecap="round"><g transform="translate(874 253) rotate(0 -113 -65.5)"><path d="M-0.97 -1.73 C-34.08 -12.51, -160.48 -40.78, -198.21 -62.04 C-235.94 -83.29, -222.48 -117.46, -227.36 -129.25 M3.7 3.5 C-29.85 -6.94, -161.63 -43.64, -200.57 -66.53 C-239.5 -89.42, -225.38 -123.07, -229.91 -133.84" stroke="#1e1e1e" stroke-width="2" fill="none"></path></g><g transform="translate(874 253) rotate(0 -113 -65.5)"><path d="M-221.09 -111.1 C-222.55 -119.18, -225.17 -126.49, -231.18 -135.51 M-220.16 -111.15 C-222.96 -115.96, -225.11 -121.92, -229.76 -134.46" stroke="#1e1e1e" stroke-width="2" fill="none"></path></g><g transform="translate(874 253) rotate(0 -113 -65.5)"><path d="M-238.15 -109.99 C-234.24 -118.36, -231.47 -126.03, -231.18 -135.51 M-237.23 -110.04 C-236.21 -115.04, -234.54 -121.25, -229.76 -134.46" stroke="#1e1e1e" stroke-width="2" fill="none"></path></g></g><mask></mask><g stroke-linecap="round"><g transform="translate(518 249) rotate(0 5 -65)"><path d="M-2.6 1.66 C-0.66 -20.08, 7.38 -106.01, 9.34 -128.23 M1.18 0.1 C2.9 -22.65, 5.79 -110.69, 6.75 -132.28" stroke="#1e1e1e" stroke-width="2" fill="none"></path></g><g transform="translate(518 249) rotate(0 5 -65)"><path d="M15.58 -108.95 C13.8 -114.31, 9.69 -120.89, 5.62 -131.06 M14.16 -108.33 C13.06 -113.57, 12.02 -117.54, 6.98 -132.98" stroke="#1e1e1e" stroke-width="2" fill="none"></path></g><g transform="translate(518 249) rotate(0 5 -65)"><path d="M-1.51 -109.6 C0.44 -114.66, 0.05 -121.1, 5.62 -131.06 M-2.93 -108.99 C-0.57 -114.12, 1.85 -117.96, 6.98 -132.98" stroke="#1e1e1e" stroke-width="2" fill="none"></path></g></g><mask></mask></svg>