<?xml version="1.0" encoding="UTF-8"?><svg id="a" xmlns="http://www.w3.org/2000/svg" viewBox="0 0 941.61754 197.15328"><defs><style>.b{fill:#fff;}.c{fill:#080f14;}.d{fill:#5c9fd8;}.e{stroke-width:1.21914px;}.e,.f,.g,.h,.i{fill:none;stroke:#fff;}.e,.g,.h{stroke-linecap:round;stroke-linejoin:round;}.f{stroke-width:4px;}.f,.i{stroke-miterlimit:10;}.j{opacity:.2;}.g{stroke-width:1.69005px;}.h{stroke-width:3.65743px;}.i{stroke-width:2.43829px;}</style></defs><circle class="d" cx="99.66966" cy="74.86184" r="30.17891"/><g><rect class="h" x="852.07316" y="23.95191" width="56.5382" height="82.33714" rx="21.37391" ry="21.37391"/><line class="i" x1="880.3422" y1="23.95191" x2="880.3422" y2="37.12589"/><path class="d" d="M880.3422,61.6898h0c-2.57683,0-4.66573-2.08904-4.66573-4.66585v-16.46738c0-2.57681,2.08891-4.66572,4.66573-4.66572h0c2.5768,0,4.66584,2.08891,4.66584,4.66572v16.46738c0,2.57681-2.08904,4.66585-4.66584,4.66585Z"/><line class="e" x1="878.00939" y1="39.73312" x2="878.00939" y2="56.61235"/></g><g><line class="h" x1="882.47302" y1="10.00527" x2="882.47302" y2="1.82871"/><line class="h" x1="849.94656" y1="23.47828" x2="844.16483" y2="17.69656"/><line class="h" x1="913.16333" y1="22.71766" x2="918.94505" y2="16.93593"/><line class="h" x1="925.87572" y1="53.40797" x2="934.05227" y2="53.40797"/></g><g><polygon class="d" points="64.26029 98.3119 35.02191 43.95728 18.2199 54.7571 64.26029 98.3119"/><polygon class="d" points="55.27409 101.64061 5.06926 82.01713 0 98.70861 55.27409 101.64061"/></g><g><path class="c" d="M112.92027,97.17334c-1.91406,.9209-6.4502,2.05469-12.19141,2.05469-16.51367,0-25.01953-10.34766-25.01953-23.95605,0-16.30176,11.62402-25.30273,26.08301-25.30273,5.59961,0,9.85156,1.0625,11.76562,2.12598l-2.26855,8.50488c-2.12598-.9209-5.17383-1.77148-9.07227-1.77148-8.50488,0-15.16699,5.17383-15.16699,15.80566,0,9.56836,5.66992,15.59277,15.23828,15.59277,3.33105,0,6.875-.6377,9.07227-1.55957l1.55957,8.50586Z"/><path class="b" d="M119.51109,48.12647h10.77344v19.84473h.1416c1.13477-1.55859,2.55176-2.76367,4.25293-3.61426,1.62988-.85059,3.61426-1.34668,5.59961-1.34668,6.875,0,12.12012,4.74902,12.12012,15.23828v20.2002h-10.77344v-19.06641c0-4.53613-1.55957-7.6543-5.59961-7.6543-2.83496,0-4.60742,1.84277-5.38672,3.82715-.2832,.6377-.35449,1.55957-.35449,2.33887v20.55469h-10.77344V48.12647Z"/><path class="b" d="M195.27867,80.72901c0,12.6875-9.00195,18.49902-18.28711,18.49902-10.13477,0-17.93164-6.66211-17.93164-17.86035,0-11.26953,7.37109-18.42871,18.57031-18.42871,10.56055,0,17.64844,7.30078,17.64844,17.79004Zm-25.09082,.35449c0,5.9541,2.48047,10.41895,7.08789,10.41895,4.25195,0,6.875-4.18164,6.875-10.48926,0-5.10352-1.98438-10.34863-6.875-10.34863-5.10352,0-7.08789,5.31641-7.08789,10.41895Z"/><path class="b" d="M228.16344,97.52686c-1.91309,.92188-5.52832,1.63086-9.63867,1.63086-11.19922,0-18.35742-6.875-18.35742-17.71973,0-10.13477,6.94629-18.42773,19.8457-18.42773,2.83496,0,5.9541,.49609,8.22168,1.34668l-1.70117,8.00879c-1.27539-.56641-3.18945-1.0625-6.02441-1.0625-5.66992,0-9.35547,4.04004-9.28516,9.70996,0,6.30762,4.25293,9.70996,9.49805,9.70996,2.55176,0,4.53613-.4248,6.16602-1.13379l1.27539,7.9375Z"/><path class="b" d="M267.57164,80.72901c0,12.6875-9.00195,18.49902-18.28711,18.49902-10.13477,0-17.93164-6.66211-17.93164-17.86035,0-11.26953,7.37109-18.42871,18.57031-18.42871,10.56055,0,17.64844,7.30078,17.64844,17.79004Zm-25.09082,.35449c0,5.9541,2.48047,10.41895,7.08789,10.41895,4.25195,0,6.875-4.18164,6.875-10.48926,0-5.10352-1.98438-10.34863-6.875-10.34863-5.10352,0-7.08789,5.31641-7.08789,10.41895Z"/><path class="b" d="M274.23277,48.12647h10.77344v50.32227h-10.77344V48.12647Z"/><path class="b" d="M322.57066,90.08545c0,3.25977,.1416,6.44922,.56641,8.36328h-9.70996l-.6377-3.47266h-.21289c-2.26758,2.76367-5.81152,4.25195-9.92285,4.25195-7.0166,0-11.19824-5.10254-11.19824-10.63086,0-9.00195,8.08008-13.25391,20.3418-13.25391v-.42578c0-1.91406-.99219-4.53613-6.30859-4.53613-3.54395,0-7.2998,1.20508-9.56836,2.62207l-1.98438-6.94531c2.41016-1.34668,7.1582-3.11914,13.4668-3.11914,11.55273,0,15.16797,6.80469,15.16797,15.02637v12.12012Zm-10.41895-8.00977c-5.6709,0-10.06543,1.34668-10.06543,5.45801,0,2.76465,1.84375,4.11133,4.25293,4.11133,2.62305,0,4.89062-1.77246,5.59961-3.96973,.1416-.56738,.21289-1.20508,.21289-1.84277v-3.75684Z"/><path class="b" d="M342.62926,54.43409v9.35547h7.72559v7.93848h-7.72559v12.54492c0,4.18164,1.0625,6.0957,4.25195,6.0957,1.48828,0,2.19727-.07031,3.18945-.2832l.07129,8.15039c-1.34668,.49609-3.96973,.92188-6.94629,.92188-3.47266,0-6.37891-1.20508-8.15039-2.97754-1.98535-2.05469-2.97754-5.38574-2.97754-10.27637v-14.17578h-4.60645v-7.93848h4.60645v-6.44922l10.56152-2.90625Z"/><path class="b" d="M364.52965,84.55713c.2832,4.46484,4.74902,6.59082,9.78125,6.59082,3.68555,0,6.66211-.49609,9.56836-1.48828l1.41699,7.30078c-3.54395,1.48828-7.86719,2.19727-12.54492,2.19727-11.76562,0-18.49902-6.80469-18.49902-17.64844,0-8.78906,5.45801-18.49902,17.50684-18.49902,11.19824,0,15.45117,8.71777,15.45117,17.29395,0,1.84277-.21289,3.47266-.35449,4.25293h-22.32617Zm12.68652-7.37109c0-2.62305-1.13379-7.01758-6.09473-7.01758-4.53613,0-6.37891,4.18164-6.66309,7.01758h12.75781Z"/><path class="b" d="M401.3148,63.78955l5.17383,17.08203c.56738,1.98438,1.27637,4.60645,1.70117,6.44922h.28418c.4248-1.91309,.99219-4.46484,1.48828-6.52051l4.32324-17.01074h11.48242l-8.08008,22.82227c-4.96191,13.82129-8.29297,19.2793-12.19141,22.75195-3.68555,3.26074-7.6543,4.46484-10.34766,4.74902l-2.33887-9.07227c1.34668-.28418,3.04785-.92188,4.67773-1.84277,1.62988-.85059,3.47266-2.62305,4.46484-4.32422,.35449-.56641,.56738-1.13379,.56738-1.55859,0-.42578-.07129-.92188-.4248-1.77246l-12.75879-31.75293h11.97852Z"/><path class="b" d="M445.89586,98.44873v-26.7207h-4.60742v-7.93848h4.60742v-1.34668c0-4.18164,1.27539-8.78809,4.32324-11.62402,2.76367-2.55078,6.4502-3.47266,9.63965-3.47266,2.33887,0,4.18164,.35449,5.66992,.70898l-.42578,8.29297c-.9209-.28418-2.05469-.49609-3.47266-.49609-3.54395,0-5.03223,2.76367-5.03223,6.16602v1.77148h6.94629v7.93848h-6.875v26.7207h-10.77344Z"/><path class="b" d="M502.31187,80.72901c0,12.6875-9.00098,18.49902-18.28613,18.49902-10.13477,0-17.93164-6.66211-17.93164-17.86035,0-11.26953,7.37109-18.42871,18.57031-18.42871,10.56055,0,17.64746,7.30078,17.64746,17.79004Zm-25.08984,.35449c0,5.9541,2.48047,10.41895,7.08789,10.41895,4.25195,0,6.875-4.18164,6.875-10.48926,0-5.10352-1.98438-10.34863-6.875-10.34863-5.10352,0-7.08789,5.31641-7.08789,10.41895Z"/><path class="b" d="M508.97398,75.20069c0-5.10254-.07031-8.43359-.2832-11.41113h9.21387l.42578,6.37891h.2832c1.77148-5.10254,5.95312-7.22949,9.35547-7.22949,.99219,0,1.48828,.07129,2.26855,.21289v10.13574c-.85059-.1416-1.70117-.28418-2.90625-.28418-3.96875,0-6.66211,2.12695-7.37109,5.45801-.1416,.70898-.21289,1.55957-.21289,2.41016v17.57715h-10.77344v-23.24805Z"/><path class="b" d="M550.5775,51.31592c2.83496-.49707,8.50586-.99316,13.96289-.99316,6.5918,0,10.63184,.63867,14.17578,2.69336,3.33105,1.77246,5.66992,5.03223,5.66992,9.42676,0,4.18164-2.48047,8.08008-7.86719,10.13574v.1416c5.45703,1.41797,9.49707,5.59961,9.49707,11.69531,0,4.39355-1.98438,7.7959-4.96094,10.20605-3.47363,2.76367-9.28516,4.32324-18.78223,4.32324-5.31641,0-9.28516-.35449-11.69531-.70898V51.31592Zm10.70215,18.28613h3.54395c5.74121,0,8.71777-2.33887,8.71777-5.88281,0-3.61523-2.76367-5.52832-7.6543-5.52832-2.41016,0-3.75684,.1416-4.60742,.2832v11.12793Zm0,21.19238c1.06348,.1416,2.33984,.1416,4.18262,.1416,4.88965,0,9.21387-1.91406,9.21387-6.94629,0-4.74902-4.32422-6.66211-9.70996-6.66211h-3.68652v13.4668Z"/><path class="b" d="M625.70641,87.3208c0,4.53613,.1416,8.22168,.2832,11.12793h-9.35547l-.49609-4.89062h-.21289c-1.34668,2.12598-4.60742,5.66992-10.84375,5.66992-7.08789,0-12.19141-4.39355-12.19141-15.09668v-20.3418h10.77344v18.64062c0,5.03223,1.62988,8.08008,5.45703,8.08008,2.97754,0,4.74902-2.05566,5.38672-3.75586,.28418-.63867,.42578-1.41797,.42578-2.33887v-20.62598h10.77344v23.53125Z"/><path class="b" d="M634.2816,89.09326c1.98438,1.20508,6.09473,2.55176,9.28418,2.55176,3.26074,0,4.60742-1.06348,4.60742-2.83594,0-1.84277-1.06348-2.69336-5.03223-4.04004-7.22949-2.40918-9.99414-6.30762-9.92285-10.41895,0-6.52051,5.52832-11.41113,14.10449-11.41113,4.04004,0,7.58398,.99219,9.70996,2.05566l-1.84277,7.44238c-1.55859-.85059-4.60645-1.98438-7.5127-1.98438-2.62207,0-4.11133,1.0625-4.11133,2.76367s1.34668,2.55176,5.59961,4.04004c6.5918,2.26855,9.28516,5.66992,9.35547,10.70215,0,6.52148-5.03223,11.26953-14.95508,11.26953-4.53613,0-8.57617-1.0625-11.19824-2.48047l1.91406-7.6543Z"/><path class="b" d="M676.23961,54.15088c0,2.97656-2.19727,5.38672-5.81152,5.38672-3.40234,0-5.59961-2.41016-5.59961-5.38672,0-3.04785,2.26758-5.38672,5.74121-5.38672,3.47266,0,5.59863,2.33887,5.66992,5.38672Zm-11.12793,44.29785V63.78955h10.77344v34.65918h-10.77344Z"/><path class="b" d="M684.5316,74.84619c0-4.32324-.1416-7.9375-.2832-11.05664h9.35547l.49609,4.82031h.21289c1.41797-2.26855,4.89062-5.59961,10.70215-5.59961,7.08789,0,12.4043,4.74902,12.4043,14.95508v20.4834h-10.77344v-19.20801c0-4.46484-1.55957-7.5127-5.45801-7.5127-2.97656,0-4.74902,2.05566-5.52832,4.04004-.2832,.70898-.35449,1.70117-.35449,2.69336v19.9873h-10.77344v-23.60254Z"/><path class="b" d="M734.35777,84.55713c.2832,4.46484,4.74902,6.59082,9.78125,6.59082,3.68555,0,6.66211-.49609,9.56836-1.48828l1.41699,7.30078c-3.54395,1.48828-7.86719,2.19727-12.54492,2.19727-11.76562,0-18.49902-6.80469-18.49902-17.64844,0-8.78906,5.45801-18.49902,17.50684-18.49902,11.19824,0,15.45117,8.71777,15.45117,17.29395,0,1.84277-.21289,3.47266-.35449,4.25293h-22.32617Zm12.68652-7.37109c0-2.62305-1.13379-7.01758-6.09473-7.01758-4.53613,0-6.37891,4.18164-6.66309,7.01758h12.75781Z"/><path class="b" d="M763.41734,89.09326c1.98438,1.20508,6.09473,2.55176,9.28418,2.55176,3.26074,0,4.60742-1.06348,4.60742-2.83594,0-1.84277-1.06348-2.69336-5.03223-4.04004-7.22949-2.40918-9.99414-6.30762-9.92285-10.41895,0-6.52051,5.52832-11.41113,14.10449-11.41113,4.04004,0,7.58398,.99219,9.70996,2.05566l-1.84277,7.44238c-1.55859-.85059-4.60645-1.98438-7.5127-1.98438-2.62207,0-4.11133,1.0625-4.11133,2.76367s1.34668,2.55176,5.59961,4.04004c6.5918,2.26855,9.28516,5.66992,9.35547,10.70215,0,6.52148-5.03223,11.26953-14.95508,11.26953-4.53613,0-8.57617-1.0625-11.19824-2.48047l1.91406-7.6543Z"/><path class="b" d="M794.17711,89.09326c1.98438,1.20508,6.09473,2.55176,9.28418,2.55176,3.26074,0,4.60742-1.06348,4.60742-2.83594,0-1.84277-1.06348-2.69336-5.03223-4.04004-7.22949-2.40918-9.99414-6.30762-9.92285-10.41895,0-6.52051,5.52832-11.41113,14.10449-11.41113,4.04004,0,7.58398,.99219,9.70996,2.05566l-1.84277,7.44238c-1.55859-.85059-4.60645-1.98438-7.5127-1.98438-2.62207,0-4.11133,1.0625-4.11133,2.76367s1.34668,2.55176,5.59961,4.04004c6.5918,2.26855,9.28516,5.66992,9.35547,10.70215,0,6.52148-5.03223,11.26953-14.95508,11.26953-4.53613,0-8.57617-1.0625-11.19824-2.48047l1.91406-7.6543Z"/><path class="b" d="M823.51891,92.70752c0-3.89844,2.62207-6.5918,6.37891-6.5918,3.68555,0,6.2373,2.62305,6.30762,6.5918,0,3.75684-2.55078,6.52051-6.44922,6.52051-3.61523,0-6.2373-2.76367-6.2373-6.52051Z"/></g><g><g><path class="b" d="M74.34215,115.76514v47.77148h-10.77344v-47.77148h10.77344Z"/><path class="b" d="M83.55406,139.93409c0-4.32324-.1416-7.9375-.2832-11.05664h9.35547l.49609,4.82031h.21289c1.41797-2.26855,4.89062-5.59961,10.70215-5.59961,7.08789,0,12.4043,4.74902,12.4043,14.95508v20.4834h-10.77344v-19.20801c0-4.46484-1.55957-7.5127-5.45801-7.5127-2.97656,0-4.74902,2.05566-5.52832,4.04004-.2832,.70898-.35449,1.70117-.35449,2.69336v19.9873h-10.77344v-23.60254Z"/><path class="d" d="M150.88609,151.27491l-3.40234,12.26172h-11.12793l14.53027-47.77148h14.17578l14.88379,47.77148h-11.69434l-3.68555-12.26172h-13.67969Zm12.12012-8.08008l-2.97754-10.13574c-.84961-2.83496-1.7002-6.37891-2.40918-9.21387h-.1416c-.70898,2.83496-1.41797,6.4502-2.19727,9.21387l-2.83496,10.13574h10.56055Z"/><path class="d" d="M183.13512,157.37061l10.91504-13.67969c1.98438-2.26758,3.54395-4.04004,5.45703-6.0957v-.1416h-15.16699v-8.57617h28.35059v6.52051l-10.41895,13.1123c-1.91406,2.19727-3.68555,4.39453-5.66992,6.30859v.1416h16.65527v8.57617h-30.12207v-6.16602Z"/><path class="d" d="M251.81383,152.40869c0,4.53613,.1416,8.22168,.2832,11.12793h-9.35547l-.49609-4.89062h-.21289c-1.34668,2.12598-4.60742,5.66992-10.84375,5.66992-7.08789,0-12.19141-4.39355-12.19141-15.09668v-20.3418h10.77344v18.64062c0,5.03223,1.62988,8.08008,5.45703,8.08008,2.97754,0,4.74902-2.05566,5.38672-3.75586,.28418-.63867,.42578-1.41797,.42578-2.33887v-20.62598h10.77344v23.53125Z"/><path class="d" d="M260.45934,140.28858c0-5.10254-.07031-8.43359-.2832-11.41113h9.21387l.42578,6.37891h.2832c1.77148-5.10254,5.95312-7.22949,9.35547-7.22949,.99219,0,1.48828,.07129,2.26855,.21289v10.13574c-.85059-.1416-1.70117-.28418-2.90625-.28418-3.96875,0-6.66211,2.12695-7.37109,5.45801-.1416,.70898-.21289,1.55957-.21289,2.41016v17.57715h-10.77344v-23.24805Z"/><path class="d" d="M295.11851,149.64502c.2832,4.46484,4.74902,6.59082,9.78125,6.59082,3.68555,0,6.66211-.49609,9.56836-1.48828l1.41699,7.30078c-3.54395,1.48828-7.86719,2.19727-12.54492,2.19727-11.76562,0-18.49902-6.80469-18.49902-17.64844,0-8.78906,5.45801-18.49902,17.50684-18.49902,11.19824,0,15.45117,8.71777,15.45117,17.29395,0,1.84277-.21289,3.47266-.35449,4.25293h-22.32617Zm12.68652-7.37109c0-2.62305-1.13379-7.01758-6.09473-7.01758-4.53613,0-6.37891,4.18164-6.66309,7.01758h12.75781Z"/><path class="d" d="M322.33531,157.79541c0-3.89844,2.62207-6.5918,6.37891-6.5918,3.68555,0,6.2373,2.62305,6.30762,6.5918,0,3.75684-2.55078,6.52051-6.44922,6.52051-3.61523,0-6.2373-2.76367-6.2373-6.52051Z"/></g><g><path class="b" d="M380.57555,115.76612v47.77148h-10.77344v-47.77148h10.77344Z"/><path class="b" d="M389.78746,139.93506c0-4.32324-.1416-7.9375-.2832-11.05664h9.35547l.49609,4.82031h.21289c1.41797-2.26855,4.89062-5.59961,10.70215-5.59961,7.08789,0,12.4043,4.74902,12.4043,14.95508v20.4834h-10.77344v-19.20801c0-4.46484-1.55957-7.5127-5.45801-7.5127-2.97656,0-4.74902,2.05566-5.52832,4.04004-.2832,.70898-.35449,1.70117-.35449,2.69336v19.9873h-10.77344v-23.60254Z"/><path class="d" d="M489.72301,139.15576c0,15.73438-9.42676,25.16113-23.45996,25.16113-14.10547,0-22.46875-10.70215-22.46875-24.38184,0-14.31641,9.21387-25.01953,23.24805-25.01953,14.67188,0,22.68066,10.98633,22.68066,24.24023Zm-34.51758,.56738c0,9.42676,4.39453,16.01758,11.62402,16.01758,7.30078,0,11.48242-6.94531,11.48242-16.23047,0-8.64746-4.04004-16.01855-11.48242-16.01855-7.37109,0-11.62402,6.94629-11.62402,16.23145Z"/><path class="d" d="M496.73863,139.93506c0-4.32324-.1416-7.9375-.2832-11.05664h9.35547l.49609,4.82031h.21289c1.41797-2.26855,4.89062-5.59961,10.70215-5.59961,7.08789,0,12.4043,4.74902,12.4043,14.95508v20.4834h-10.77344v-19.20801c0-4.46484-1.55957-7.5127-5.45801-7.5127-2.97656,0-4.74902,2.05566-5.52832,4.04004-.2832,.70898-.35449,1.70117-.35449,2.69336v19.9873h-10.77344v-23.60254Z"/><path class="d" d="M546.56578,149.646c.2832,4.46484,4.74902,6.59082,9.78125,6.59082,3.68555,0,6.66211-.49609,9.56836-1.48828l1.41699,7.30078c-3.54395,1.48828-7.86719,2.19727-12.54492,2.19727-11.76562,0-18.49902-6.80469-18.49902-17.64844,0-8.78906,5.45801-18.49902,17.50684-18.49902,11.19824,0,15.45117,8.71777,15.45117,17.29395,0,1.84277-.21289,3.47266-.35449,4.25293h-22.32617Zm12.68652-7.37109c0-2.62305-1.13379-7.01758-6.09473-7.01758-4.53613,0-6.37891,4.18164-6.66309,7.01758h12.75781Z"/><path class="d" d="M625.38023,162.26221c-1.91406,.9209-6.4502,2.05469-12.19141,2.05469-16.51367,0-25.01953-10.34766-25.01953-23.95605,0-16.30176,11.62402-25.30273,26.08301-25.30273,5.59961,0,9.85156,1.0625,11.76562,2.12598l-2.26855,8.50488c-2.12598-.9209-5.17383-1.77148-9.07227-1.77148-8.50488,0-15.16699,5.17383-15.16699,15.80566,0,9.56836,5.66992,15.59277,15.23828,15.59277,3.33105,0,6.875-.6377,9.07227-1.55957l1.55957,8.50586Z"/><path class="d" d="M631.97008,113.21534h10.77344v50.32227h-10.77344v-50.32227Z"/><path class="d" d="M662.58922,119.23975c0,2.97656-2.19727,5.38672-5.81152,5.38672-3.40234,0-5.59961-2.41016-5.59961-5.38672,0-3.04785,2.26758-5.38672,5.74121-5.38672,3.47266,0,5.59863,2.33887,5.66992,5.38672Zm-11.12793,44.29785v-34.65918h10.77344v34.65918h-10.77344Z"/><path class="d" d="M696.89195,162.61573c-1.91309,.92188-5.52832,1.63086-9.63867,1.63086-11.19922,0-18.35742-6.875-18.35742-17.71973,0-10.13477,6.94629-18.42773,19.8457-18.42773,2.83496,0,5.9541,.49609,8.22168,1.34668l-1.70117,8.00879c-1.27539-.56641-3.18945-1.0625-6.02441-1.0625-5.66992,0-9.35547,4.04004-9.28516,9.70996,0,6.30762,4.25293,9.70996,9.49805,9.70996,2.55176,0,4.53613-.4248,6.16602-1.13379l1.27539,7.9375Z"/><path class="d" d="M713.61851,143.47901h.1416c.78027-1.48828,1.63086-2.90527,2.48145-4.18164l7.0166-10.41895h12.9707l-12.4043,14.03418,14.17578,20.625h-13.25391l-8.43457-14.24609-2.69336,3.40234v10.84375h-10.77344v-50.32227h10.77344v30.26367Z"/><path class="d" d="M740.76305,157.79639c0-3.89844,2.62207-6.5918,6.37891-6.5918,3.68555,0,6.2373,2.62305,6.30762,6.5918,0,3.75684-2.55078,6.52051-6.44922,6.52051-3.61523,0-6.2373-2.76367-6.2373-6.52051Z"/></g></g><g><polygon class="d" points="804.60932 144.27081 840.47079 197.15328 856.63134 184.25358 804.60932 144.27081"/><polygon class="d" points="813.51138 139.89203 867.29004 154.78901 870.74449 137.06329 813.51138 139.89203"/></g><path class="f" d="M67.43838,181.3495H775.44812c6.524,0,11.81274-5.28875,11.81274-11.81274v-34.8838c0-6.524,5.28875-11.81274,11.81274-11.81274h69.77029c6.524,0,11.81274-5.28875,11.81274-11.81274v-3.97503"/><g class="j"><g><line class="g" x1="16.38053" y1="112.47383" x2="16.38053" y2="128.49078"/><line class="g" x1="24.389" y1="120.48231" x2="8.37205" y2="120.48231"/></g><g><line class="g" x1="250.54104" y1="29.05542" x2="250.54104" y2="45.07237"/><line class="g" x1="258.54952" y1="37.0639" x2="242.53257" y2="37.0639"/></g><g><line class="g" x1="605.63747" y1="26.4397" x2="605.63747" y2="42.45665"/><line class="g" x1="613.64594" y1="34.44818" x2="597.629" y2="34.44818"/></g><g><line class="g" x1="63.69349" y1="20.07237" x2="63.69349" y2="36.08931"/><line class="g" x1="71.70197" y1="28.08084" x2="55.68502" y2="28.08084"/></g><path class="g" d="M307.05802,15.50456c0,2.99534-2.42812,5.42346-5.42346,5.42346s-5.42332-2.42812-5.42332-5.42346,2.42812-5.42346,5.42332-5.42346,5.42346,2.42812,5.42346,5.42346Z"/><circle class="g" cx="125.56667" cy="17.30117" r="5.42346"/><path class="g" d="M23.19347,29.87745c0,2.99534-2.42812,5.42346-5.42346,5.42346s-5.42332-2.42812-5.42332-5.42346,2.42812-5.42332,5.42332-5.42332,5.42346,2.42812,5.42346,5.42332Z"/><circle class="g" cx="192.07491" cy="31.67406" r="12.57239"/><path class="g" d="M42.30163,153.31345c1.52362,6.77438-2.73287,13.50114-9.50725,15.02476-6.77438,1.52347-13.50114-2.73303-15.02476-9.5074-1.52362-6.77423,2.73303-13.50099,9.50725-15.02461,6.77438-1.52362,13.50114,2.73288,15.02476,9.50725Z"/><circle class="g" cx="364.99138" cy="32.5069" r="12.57239"/><g><line class="g" x1="932.76404" y1="106.59697" x2="932.76404" y2="122.61392"/><line class="g" x1="940.77252" y1="114.60544" x2="924.75557" y2="114.60544"/></g><g><line class="g" x1="760.60564" y1="30.67998" x2="760.60564" y2="46.69693"/><line class="g" x1="768.61411" y1="38.68846" x2="752.59716" y2="38.68846"/></g><g><line class="g" x1="431.02418" y1="23.66559" x2="431.02418" y2="39.68254"/><line class="g" x1="439.03265" y1="31.67406" x2="423.01571" y2="31.67406"/></g><path class="g" d="M492.2067,41.98457c0,2.99534-2.42812,5.42346-5.42346,5.42346s-5.42332-2.42812-5.42332-5.42346,2.42812-5.42346,5.42332-5.42346,5.42346,2.42812,5.42346,5.42346Z"/><circle class="g" cx="543.30626" cy="20.64319" r="12.57239"/><path class="g" d="M658.00737,16.86326c0,2.99534-2.42812,5.42346-5.42346,5.42346s-5.42332-2.42812-5.42332-5.42346,2.42812-5.42346,5.42332-5.42346,5.42346,2.42812,5.42346,5.42346Z"/><circle class="g" cx="706.28861" cy="34.01564" r="12.57239"/><path class="g" d="M811.24739,30.67998c0,2.99534-2.42812,5.42346-5.42346,5.42346s-5.42332-2.42812-5.42332-5.42346,2.42812-5.42346,5.42332-5.42346,5.42346,2.42812,5.42346,5.42346Z"/><path class="g" d="M900.88688,164.2383c0,2.99534-2.42812,5.42346-5.42346,5.42346s-5.42332-2.42812-5.42332-5.42346,2.42812-5.42346,5.42332-5.42346,5.42346,2.42812,5.42346,5.42346Z"/></g><circle class="d" cx="60.94726" cy="180.46853" r="8.81793"/></svg>