<?xml version="1.0" encoding="UTF-8"?><svg id="a" xmlns="http://www.w3.org/2000/svg" xmlns:xlink="http://www.w3.org/1999/xlink" viewBox="0 0 500.00011 198.94506"><defs><style>.c{fill:url(#b);}.d{fill:#170f1e;}</style><linearGradient id="b" x1="90.20306" y1="297.78434" x2="408.66367" y2="-20.67628" gradientTransform="matrix(1, 0, 0, 1, 0, 0)" gradientUnits="userSpaceOnUse"><stop offset="0" stop-color="#ffc700"/><stop offset=".50521" stop-color="#32daff"/><stop offset="1" stop-color="#5759ff"/></linearGradient></defs><g><path class="d" d="M5.70531,55.44922V8.65332h6.34631V28.33301h14.35913V8.65332h6.34631V55.44922h-6.34631v-21.34668H12.05163v21.34668H5.70531Z"/><path class="d" d="M54.42345,56.08984c-3.71802,0-6.63477-.9502-8.75012-2.85254-2.11548-1.90039-3.1731-4.47559-3.1731-7.72461,0-3.33301,1.09973-5.9502,3.30127-7.85254,2.20056-1.90039,5.20239-2.85254,9.00659-2.85254h10.25659v-3.33301c0-2.05176-.6311-3.64258-1.89111-4.77539-1.26099-1.13184-3.00281-1.69922-5.22449-1.69922-2.00916,0-3.68591,.43848-5.0321,1.31445s-2.16943,2.01855-2.46802,3.42969h-6.21802c.17029-2.05176,.86548-3.83594,2.08337-5.35352,1.21802-1.51562,2.84155-2.70215,4.87195-3.55762,2.02917-.85449,4.30493-1.28223,6.82703-1.28223,4.14465,0,7.41394,1.04785,9.80774,3.1416,2.39294,2.09473,3.58984,4.95801,3.58984,8.58984v24.16699h-6.21802v-6.53809h-1.02563l1.08972-1.21875c0,2.56445-.99365,4.60547-2.98083,6.12207-1.98718,1.51758-4.60547,2.27539-7.85266,2.27539Zm1.73083-4.93555c2.6062,0,4.74365-.65137,6.41028-1.95508,1.66675-1.30273,2.50012-2.98047,2.50012-5.03223v-4.80762h-10.12842c-1.88098,0-3.36548,.5127-4.4552,1.53809-1.08972,1.02637-1.63464,2.43652-1.63464,4.23145,0,1.88086,.64099,3.35547,1.9231,4.42285,1.2821,1.06836,3.07703,1.60254,5.38477,1.60254Z"/><path class="d" d="M96.41064,56.08984c-2.86353,0-5.37463-.54492-7.5321-1.63379-2.15845-1.08984-3.8252-2.64941-5.00012-4.67969-1.1759-2.0293-1.76282-4.45508-1.76282-7.27637v-9.3584c0-2.86328,.58691-5.29883,1.76282-7.30859,1.17493-2.00781,2.84167-3.55762,5.00012-4.64746,2.15747-1.08984,4.66858-1.63477,7.5321-1.63477,4.14478,0,7.47815,1.10156,10.00024,3.30176,2.521,2.20117,3.84619,5.20312,3.97437,9.00684h-6.2821c-.1283-2.13672-.86548-3.78223-2.21155-4.93652-1.34619-1.15332-3.17322-1.73047-5.48096-1.73047-2.43591,0-4.37,.67285-5.80127,2.01953-1.43237,1.3457-2.14746,3.30078-2.14746,5.86523v9.42285c0,2.56445,.71509,4.53027,2.14746,5.89746,1.43127,1.36816,3.36536,2.05176,5.80127,2.05176,2.30774,0,4.13477-.58691,5.48096-1.7627,1.34607-1.1748,2.08325-2.80957,2.21155-4.9043h6.2821c-.12817,3.80469-1.45337,6.80566-3.97437,9.00684-2.52209,2.20117-5.85547,3.30078-10.00024,3.30078Z"/><path class="d" d="M121.21813,55.44922V8.65332h6.34631v25.89844h6.53857l9.80786-14.35938h7.17957l-11.5387,16.85938,11.73096,18.39746h-7.30774l-9.87195-15.44922h-6.53857v15.44922h-6.34631Z"/><path class="d" d="M176.92357,55.44922c-2.99182,0-5.39575-.875-7.21167-2.62793-1.81689-1.75195-2.72437-4.08105-2.72437-6.9873V25.96191h-9.80786v-5.76953h9.80786V10.25586h6.4104v9.93652h13.9104v5.76953h-13.9104v19.80762c0,1.1543,.33044,2.09473,.99353,2.82031,.66211,.72754,1.54846,1.08984,2.66028,1.08984h9.6156v5.76953h-9.74377Z"/><path class="d" d="M211.53881,55.96191c-2.86365,0-5.35266-.54492-7.46814-1.63477-2.11536-1.08984-3.73999-2.64941-4.87183-4.67969-1.13281-2.0293-1.69873-4.43262-1.69873-7.21094v-9.23145c0-2.77734,.56592-5.18164,1.69873-7.21191,1.13184-2.02832,2.75647-3.58887,4.87183-4.67871,2.11548-1.08984,4.60449-1.63477,7.46814-1.63477,2.90564,0,5.40576,.54492,7.50012,1.63477,2.09338,1.08984,3.70691,2.63867,4.83984,4.64746,1.13184,2.00879,1.69873,4.40137,1.69873,7.17969v9.29492c0,2.77832-.56689,5.18164-1.69873,7.21094-1.13293,2.03027-2.74646,3.58984-4.83984,4.67969-2.09436,1.08984-4.59448,1.63477-7.50012,1.63477Zm0-5.57715c2.43591,0,4.32703-.67285,5.6731-2.01855,1.34619-1.34668,2.01929-3.32324,2.01929-5.92969v-9.23145c0-2.60645-.6731-4.58301-2.01929-5.92969-1.34607-1.3457-3.23718-2.01855-5.6731-2.01855-2.39392,0-4.27393,.67285-5.64111,2.01855-1.36816,1.34668-2.05127,3.32324-2.05127,5.92969v9.23145c0,2.60645,.68311,4.58301,2.05127,5.92969,1.36719,1.3457,3.24719,2.01855,5.64111,2.01855Z"/><path class="d" d="M252.30822,56.08984c-2.90674,0-5.2356-.79004-6.9873-2.37109-1.75293-1.58105-2.62817-3.73926-2.62817-6.47461l1.34619,1.47461h-1.34619v6.73047h-6.28223V8.65332h6.34619v10.12891l-.12817,8.14062h1.4104l-1.34619,1.47461c0-2.69238,.88623-4.83984,2.66016-6.44238,1.77295-1.60254,4.09155-2.4043,6.95532-2.4043,3.54663,0,6.38818,1.18652,8.52563,3.55859,2.13647,2.37109,3.20532,5.6084,3.20532,9.71094v10.06445c0,4.06055-1.06885,7.27637-3.20532,9.64746-2.13745,2.37207-4.979,3.55762-8.52563,3.55762Zm-2.17944-5.5127c2.34961,0,4.19873-.69434,5.54492-2.08301s2.01929-3.38672,2.01929-5.99414v-9.3584c0-2.60645-.6731-4.60449-2.01929-5.99414-1.34619-1.38867-3.19531-2.08301-5.54492-2.08301-2.26587,0-4.06055,.70508-5.38477,2.11523-1.3252,1.41016-1.9873,3.39746-1.9873,5.96191v9.3584c0,2.56445,.66211,4.55176,1.9873,5.96191,1.32422,1.41016,3.1189,2.11523,5.38477,2.11523Z"/><path class="d" d="M288.46178,56.08984c-2.82056,0-5.28833-.55566-7.40381-1.66602-2.11548-1.11133-3.75-2.69238-4.90405-4.74414-1.15381-2.05078-1.73071-4.44434-1.73071-7.17969v-9.3584c0-2.77832,.5769-5.18164,1.73071-7.21191,1.15405-2.0293,2.78857-3.59961,4.90405-4.71191,2.11548-1.11035,4.58325-1.66699,7.40381-1.66699s5.28857,.55664,7.40405,1.66699c2.11548,1.1123,3.75,2.68262,4.90405,4.71191,1.15381,2.03027,1.73071,4.43359,1.73071,7.21191v6.21777h-21.85938v3.14062c0,2.73535,.6731,4.80762,2.01929,6.21875,1.34619,1.41016,3.2793,2.11523,5.80127,2.11523,2.13647,0,3.85645-.37402,5.1604-1.12207,1.30322-.74707,2.10449-1.86914,2.40381-3.36523h6.28223c-.42773,2.99121-1.91309,5.36328-4.45508,7.11523-2.54321,1.75293-5.67334,2.62793-9.39136,2.62793Zm7.8208-20.76953v-2.24316c0-2.69238-.66309-4.75391-1.9873-6.18652-1.3252-1.43066-3.26929-2.14746-5.8335-2.14746-2.52197,0-4.45508,.72754-5.80127,2.17969-1.34619,1.4541-2.01929,3.52637-2.01929,6.21875v1.66602h16.15405l-.5127,.5127Z"/><path class="d" d="M314.42345,55.44922V20.19238h6.28198v6.73047h1.47437l-1.47437,1.47461c0-2.77734,.84351-4.94629,2.53223-6.50684,1.68774-1.55957,4.02734-2.33984,7.01929-2.33984,3.63184,0,6.53857,1.17676,8.71802,3.52637,2.17969,2.35059,3.26929,5.5127,3.26929,9.4873v2.56348h-6.4104v-1.98633c0-2.56445-.65186-4.55176-1.95508-5.96191-1.3042-1.41016-3.21606-2.11523-5.7373-2.11523-2.3938,0-4.2207,.68359-5.48071,2.05078-1.26123,1.36816-1.89111,3.39746-1.89111,6.08984v22.24414h-6.34619Z"/><path class="d" d="M360.00036,55.44922V29.55176h-10.12842v-5.70605h10.12842v-5.89746c0-2.8623,.91846-5.12793,2.75635-6.79492,1.83691-1.66602,4.33716-2.5,7.50024-2.5h10.32056v5.70508h-10.32056c-1.23999,0-2.20166,.31055-2.88477,.92969-.68408,.62012-1.02563,1.50684-1.02563,2.66016v5.89746h14.23096v5.70605h-14.23096v25.89746h-6.34619Z"/><path class="d" d="M403.8463,56.08984c-2.82056,0-5.28833-.55566-7.40381-1.66602-2.11548-1.11133-3.75-2.69238-4.90405-4.74414-1.15381-2.05078-1.73071-4.44434-1.73071-7.17969v-9.3584c0-2.77832,.5769-5.18164,1.73071-7.21191,1.15405-2.0293,2.78857-3.59961,4.90405-4.71191,2.11548-1.11035,4.58325-1.66699,7.40381-1.66699s5.28857,.55664,7.40405,1.66699c2.11548,1.1123,3.75,2.68262,4.90405,4.71191,1.15381,2.03027,1.73071,4.43359,1.73071,7.21191v6.21777h-21.85938v3.14062c0,2.73535,.6731,4.80762,2.01929,6.21875,1.34619,1.41016,3.2793,2.11523,5.80127,2.11523,2.13647,0,3.85645-.37402,5.1604-1.12207,1.30322-.74707,2.10449-1.86914,2.40381-3.36523h6.28223c-.42773,2.99121-1.91309,5.36328-4.45508,7.11523-2.54321,1.75293-5.67334,2.62793-9.39136,2.62793Zm7.8208-20.76953v-2.24316c0-2.69238-.66309-4.75391-1.9873-6.18652-1.3252-1.43066-3.26929-2.14746-5.8335-2.14746-2.52197,0-4.45508,.72754-5.80127,2.17969-1.34619,1.4541-2.01929,3.52637-2.01929,6.21875v1.66602h16.15405l-.5127,.5127Z"/><path class="d" d="M441.15417,55.96191c-2.479,0-4.67944-.38477-6.60254-1.15332-1.9231-.76953-3.41968-1.86914-4.4873-3.30176-1.06885-1.43164-1.60254-3.12988-1.60254-5.09668h6.47437c0,1.28223,.5979,2.28711,1.79492,3.01367,1.19604,.72656,2.71338,1.08984,4.55127,1.08984h2.69238c2.17969,0,3.81421-.43848,4.90405-1.31445,1.0896-.87598,1.63452-2.04004,1.63452-3.49414,0-1.45215-.5127-2.5957-1.53833-3.42871-1.02588-.83398-2.50024-1.39941-4.42334-1.69922l-4.74365-.70508c-3.54761-.59766-6.18604-1.71973-7.91675-3.36523-1.73071-1.64453-2.59619-3.9209-2.59619-6.82715,0-3.24707,1.05762-5.72656,3.1731-7.43652,2.11548-1.70801,5.1814-2.56348,9.19897-2.56348h2.43579c3.67505,0,6.62378,.82324,8.84644,2.46777,2.22144,1.64551,3.33325,3.81445,3.33325,6.50684h-6.47437c0-1.06836-.51294-1.92383-1.53857-2.56445s-2.45801-.96191-4.29492-.96191h-2.43579c-1.9231,0-3.40869,.39551-4.45532,1.18652-1.04761,.79102-1.57056,1.91309-1.57056,3.36523,0,2.43555,1.75195,3.95312,5.25659,4.55078l4.80762,.76953c3.84619,.55566,6.66675,1.66699,8.46167,3.33398,1.79492,1.66602,2.69238,4.03809,2.69238,7.11523,0,3.29102-1.0686,5.86523-3.20508,7.72461-2.13745,1.8584-5.36377,2.78809-9.67969,2.78809h-2.69238Z"/><path class="d" d="M484.61608,55.44922c-2.99194,0-5.39575-.875-7.21167-2.62793-1.81714-1.75195-2.72461-4.08105-2.72461-6.9873V25.96191h-9.80762v-5.76953h9.80762V10.25586h6.4104v9.93652h13.91064v5.76953h-13.91064v19.80762c0,1.1543,.33057,2.09473,.99365,2.82031,.66211,.72754,1.54858,1.08984,2.6604,1.08984h9.61548v5.76953h-9.74365Z"/></g><g><rect class="c" x="0" y="77.02974" width="500" height="121.91532"/><g><path class="d" d="M41.72503,119.10059H23.96447v-12.49023h50.65051v12.49023h-18.0108v53.31836h-14.87915v-53.31836Z"/><path class="d" d="M97.30974,106.61035v37.84766c0,11.36914,4.37067,17.16992,11.92468,17.16992,7.81586,0,12.11047-5.50977,12.11047-17.16992v-37.84766h14.87915v36.93164c0,20.30273-10.26581,29.95117-27.48914,29.95117-16.61267,0-26.30432-9.21484-26.30432-30.12891v-36.75391h14.87915Z"/><path class="d" d="M188.21264,144.5791h-24.21594v15.65234h27.07092v12.1875h-41.95007V106.61035h40.54187v12.1875h-25.66272v13.70898h24.21594v12.07227Z"/><path class="d" d="M201.74322,157.05957c3.94135,2.11523,10.13147,4.13281,16.49518,4.13281,6.83429,0,10.45734-2.83594,10.45734-7.16797,0-4.04102-3.1394-6.42188-11.01801-9.19922-10.97906-3.89258-18.15344-9.875-18.15344-19.48828,0-11.2207,9.42078-19.75195,24.89349-19.75195,7.50409,0,12.92236,1.49023,16.80438,3.31055l-3.28864,11.93359c-2.60968-1.24414-7.34729-3.125-13.73682-3.125-6.47968,0-9.57257,3-9.57257,6.36523,0,4.17969,3.64545,6.02734,12.18225,9.25195,11.65186,4.35547,17.04694,10.40234,17.04694,19.70703,0,10.98633-8.41339,20.41602-26.5304,20.41602-7.45862,0-14.92084-2.02734-18.5885-4.08984l3.00879-12.29492Z"/><path class="d" d="M253.98351,107.5127c5.47644-.88867,12.60645-1.41602,20.06305-1.41602,12.48596,0,20.64258,2.30273,26.9472,7.0625,6.83704,5.10352,11.12787,13.12891,11.12787,24.76367,0,12.61133-4.56134,21.33203-10.88324,26.66016-6.92102,5.76953-17.52454,8.52148-30.35266,8.52148-7.73389,0-13.24463-.46289-16.90222-.9707V107.5127Zm14.85992,53.70508c1.29907,.24219,3.37457,.25781,5.18988,.25781,13.4776,.11523,22.3363-7.33008,22.3363-23.06445,.03101-13.67383-7.97437-20.86328-20.76794-20.86328-3.25366,0-5.44226,.27734-6.75824,.56836v43.10156Z"/><path class="d" d="M335.6328,155.52246l-4.64429,16.89648h-15.38623l20.08466-65.80859h19.47345l20.48755,65.80859h-16.0318l-5.06024-16.89648h-18.9231Zm16.71802-11.08594l-4.09875-13.98633c-1.12976-3.89062-2.2973-8.82227-3.30707-12.67188h-.20563c-.96606,3.87109-1.95795,8.86719-3.01318,12.68945l-3.93579,13.96875h14.56042Z"/><path class="d" d="M390.32104,172.41895v-26.98047l-20.78479-38.82812h17.04352l6.69415,15.83203c2.01794,4.72852,3.46167,8.24805,5.07733,12.60352h.19525c1.46783-4.09961,3.05054-7.95898,4.95947-12.61914l6.63306-15.81641h16.77405l-21.71289,38.33008v27.47852h-14.87915Z"/><path class="d" d="M431.69005,157.05957c3.94128,2.11523,10.13135,4.13281,16.49512,4.13281,6.83423,0,10.45728-2.83594,10.45728-7.16797,0-4.04102-3.1394-6.42188-11.01794-9.19922-10.97913-3.89258-18.15344-9.875-18.15344-19.48828,0-11.2207,9.42078-19.75195,24.89355-19.75195,7.50403,0,12.92224,1.49023,16.80432,3.31055l-3.2887,11.93359c-2.60962-1.24414-7.34717-3.125-13.73682-3.125-6.47961,0-9.57251,3-9.57251,6.36523,0,4.17969,3.64539,6.02734,12.18225,9.25195,11.65186,4.35547,17.04688,10.40234,17.04688,19.70703,0,10.98633-8.41333,20.41602-26.5304,20.41602-7.45862,0-14.92078-2.02734-18.5885-4.08984l3.00891-12.29492Z"/></g></g></svg>