<?xml version="1.0" encoding="UTF-8"?><svg id="a" xmlns="http://www.w3.org/2000/svg" viewBox="0 0 1135.45425 273.35437"><defs><style>.b{fill:#12202b;}.c{fill:#5c9fd8;}</style></defs><g><path class="b" d="M.26179,.41389H32.69734V6.93733H8.03523V26.95295H30.82136v6.43359H8.03523v27.25293H.26179V.41389Z"/><path class="b" d="M51.5489,.41389V60.63948h-7.77441V.41389h7.77441Z"/><path class="b" d="M65.12898,60.63948V.41389h8.48828l19.30078,30.4707c4.46875,7.05859,7.95312,13.40234,10.8125,19.56836l.17871-.08984c-.71484-8.04102-.89355-15.36914-.89355-24.75098V.41389h7.32715V60.63948h-7.86328l-19.12207-30.55957c-4.19922-6.70117-8.2207-13.58203-11.25879-20.10547l-.26855,.08984c.44727,7.5957,.62598,14.83301,.62598,24.84082v25.73438h-7.32715Z"/><path class="b" d="M123.91999,1.21858c4.73633-.71484,10.36523-1.25195,16.53125-1.25195,11.16895,0,19.12109,2.5918,24.39355,7.50586,5.36133,4.91504,8.48926,11.88477,8.48926,21.625,0,9.82812-3.03906,17.87109-8.66797,23.41016-5.62891,5.62988-14.92188,8.66797-26.62793,8.66797-5.54004,0-10.18652-.26758-14.11816-.71484V1.21858Zm7.77344,53.25586c1.9668,.35742,4.82617,.44629,7.86328,.44629,16.62109,0,25.64551-9.29297,25.64551-25.55566,.08887-14.20703-7.95215-23.23242-24.39355-23.23242-4.02148,0-7.05957,.35742-9.11523,.80469V54.47444Z"/><path class="b" d="M210.1407,.41389V60.63948h-7.77441V.41389h7.77441Z"/><path class="b" d="M235.15827,7.02619h-18.31836V.41389h44.58887V7.02619h-18.40723V60.63948h-7.86328V7.02619Z"/><path class="b" d="M257.40437,71.63069c1.96582-5.27246,4.37891-14.83398,5.36133-21.35645l8.75684-.89355c-2.05566,7.5957-5.9873,17.51367-8.48926,21.71289l-5.62891,.53711Z"/><path class="b" d="M311.81648,43.57209l-5.18262,17.06738h-11.34863L314.58601,.41389h14.0293l19.56836,60.22559h-11.88379l-5.4502-17.06738h-19.0332Zm17.24609-8.30957l-4.73633-14.83301c-1.16211-3.66406-2.14453-7.77344-3.03809-11.25879h-.17871c-.89355,3.48535-1.87695,7.68457-2.85938,11.25879l-4.64648,14.83301h15.45898Z"/><path class="b" d="M356.5782,1.21858c4.91504-.71484,10.99121-1.25195,17.51367-1.25195,11.25977,0,18.94336,2.32422,24.48438,6.9707,5.89648,4.73535,9.4707,11.97266,9.4707,22.16016,0,10.81152-3.66309,18.76367-9.38184,23.94727-5.9873,5.4502-15.54785,8.2207-27.25293,8.2207-6.34473,0-11.16992-.35742-14.83398-.80469V1.21858Zm10.99121,51.11133c1.51855,.26758,3.84277,.26758,6.07617,.26758,14.29688,.08984,22.78613-7.86328,22.78613-23.14258,.08887-13.22461-7.5957-20.91016-21.35645-20.91016-3.48535,0-5.89746,.26855-7.50586,.62598V52.32991Z"/><path class="b" d="M417.60359,1.21858c4.91504-.71484,10.99121-1.25195,17.51367-1.25195,11.25977,0,18.94336,2.32422,24.48438,6.9707,5.89648,4.73535,9.4707,11.97266,9.4707,22.16016,0,10.81152-3.66309,18.76367-9.38184,23.94727-5.9873,5.4502-15.54785,8.2207-27.25293,8.2207-6.34473,0-11.16992-.35742-14.83398-.80469V1.21858Zm10.99121,51.11133c1.51855,.26758,3.84277,.26758,6.07617,.26758,14.29688,.08984,22.78613-7.86328,22.78613-23.14258,.08887-13.22461-7.5957-20.91016-21.35645-20.91016-3.48535,0-5.89746,.26855-7.50586,.62598V52.32991Z"/><path class="b" d="M508.11433,.41389V60.63948h-10.99121V.41389h10.99121Z"/><path class="b" d="M532.23738,9.61701h-17.15625V.41389h45.48145V9.61701h-17.33398V60.63948h-10.99121V9.61701Z"/><path class="b" d="M555.46687,71.451c2.41211-6.79102,4.8252-16.17285,5.98633-23.58984l11.52734-.89258c-2.5918,8.39844-6.52344,18.04883-10.00781,23.76758l-7.50586,.71484Z"/><path class="c" d="M613.90046,.41389V60.63948h-13.58203V.41389h13.58203Z"/><path class="c" d="M625.69245,60.63948V.41389h15.90527l12.50977,22.07031c3.57422,6.34473,7.05859,13.85059,9.8291,20.6416h.17871c-.80469-7.95215-1.07227-16.08398-1.07227-25.19824V.41389h12.50977V60.63948h-14.29688l-12.86719-23.23242c-3.57422-6.43359-7.5957-14.20801-10.45508-21.2666h-.35742c.44727,8.04199,.62598,16.53125,.62598,26.35938v18.13965h-12.50977Z"/><path class="c" d="M687.78913,46.61116c3.57422,1.87598,9.29297,3.75195,15.10059,3.75195,6.25488,0,9.56152-2.59082,9.56152-6.52246,0-3.75293-2.85938-5.89746-10.09766-8.39941-10.00781-3.57422-16.62012-9.11426-16.62012-17.87109,0-10.27539,8.66699-18.0498,22.78613-18.0498,6.87988,0,11.79492,1.34082,15.36914,3.03809l-3.03906,10.90137c-2.32227-1.16113-6.70117-2.85938-12.50977-2.85938-5.89648,0-8.75586,2.77051-8.75586,5.80762,0,3.84277,3.30566,5.54102,11.16895,8.48926,10.63379,3.93164,15.54785,9.47168,15.54785,17.95996,0,10.09766-7.68457,18.67578-24.21484,18.67578-6.88086,0-13.67188-1.87695-17.06738-3.75293l2.77051-11.16895Z"/><path class="c" d="M747.29499,11.85139h-16.26172V.41389h46.28516V11.85139h-16.44141V60.63948h-13.58203V11.85139Z"/><path class="c" d="M792.14851,45.18147l-4.28906,15.45801h-14.02832L792.14851,.41389h17.87109l18.76562,60.22559h-14.74414l-4.64648-15.45801h-17.24609Zm15.28027-10.1875l-3.75293-12.77734c-1.07227-3.57422-2.14453-8.04199-3.03809-11.61621h-.17871c-.89355,3.57422-1.78711,8.13184-2.76953,11.61621l-3.57422,12.77734h13.31348Z"/><path class="c" d="M836.82038,.41389h13.58203V49.20198h23.94727v11.4375h-37.5293V.41389Z"/><path class="c" d="M882.47663,.41389h13.58203V49.20198h23.94727v11.4375h-37.5293V.41389Z"/><path class="c" d="M959.76374,.41389V60.63948h-13.58203V.41389h13.58203Z"/><path class="c" d="M983.26179,11.85139h-16.26367V.41389h46.28711V11.85139h-16.44141V60.63948h-13.58203V11.85139Z"/></g><g><g><path class="b" d="M1042.64363,47.92951l-8.33008-31.54199h2.29297l4.58594,17.7832c1.0293,4.07129,2.01172,7.8623,2.62109,10.81055h.09375c.51367-2.94824,1.63672-6.69238,2.90039-10.81055l5.14844-17.7832h2.15234l4.67969,17.64258c1.0293,3.83789,2.06055,7.76855,2.57422,10.95117h.09375c.70117-3.41602,1.73242-6.83301,2.85547-10.85742l5.19336-17.73633h2.29297l-9.45312,31.54199h-2.15234l-4.72656-18.1582c-1.26367-4.63281-2.01172-7.72168-2.43359-10.66992h-.09375c-.51367,2.90137-1.4043,6.03711-2.80859,10.66992l-5.38086,18.1582h-2.10547Z"/><path class="b" d="M1078.02839,16.38752v31.54199h-2.24609V16.38752h2.24609Z"/><path class="b" d="M1091.64948,18.25959h-10.29688v-1.87207h22.83789v1.87207h-10.29492v29.66992h-2.24609V18.25959Z"/><path class="b" d="M1109.66902,16.38752v13.89844h17.41016v-13.89844h2.24609v31.54199h-2.24609v-15.77148h-17.41016v15.77148h-2.24609V16.38752h2.24609Z"/></g><rect class="c" x="1031.27556" y="1.03299" width="104.17869" height="1.33562"/><rect class="c" x="1031.27556" y="60.45974" width="104.17869" height="1.33562"/></g><g><rect class="c" x=".36268" y="82.69806" width="1134.62693" height="190.65631"/><g><path d="M48.73054,206.08479c5.8418,3.06738,15.18848,6.13379,24.68066,6.13379,10.22363,0,15.62695-4.23535,15.62695-10.66113,0-6.13379-4.67383-9.63867-16.50293-13.72754-16.35645-5.8418-27.16406-14.89648-27.16406-29.20898,0-16.79395,14.16602-29.5,37.24121-29.5,11.24512,0,19.27734,2.19043,25.11914,4.96582l-4.96582,17.81641c-3.79688-1.89844-10.95312-4.67285-20.44531-4.67285-9.63867,0-14.3125,4.52734-14.3125,9.49219,0,6.28027,5.40332,9.05469,18.25488,13.87402,17.37891,6.42578,25.41211,15.48047,25.41211,29.35449,0,16.50293-12.56055,30.52246-39.57812,30.52246-11.24512,0-22.34375-3.06641-27.89355-6.13379l4.52734-18.25488Z"/><path d="M199.00593,226.38459c-3.94336,1.89844-13.29004,4.23535-25.11914,4.23535-34.02734,0-51.55273-21.32227-51.55273-49.3623,0-33.58984,23.95117-52.13672,53.74316-52.13672,11.53809,0,20.2998,2.19043,24.24316,4.38086l-4.67285,17.52539c-4.38184-1.89844-10.66113-3.65137-18.69336-3.65137-17.52539,0-31.25293,10.66113-31.25293,32.56738,0,19.71582,11.68262,32.12988,31.39844,32.12988,6.86426,0,14.16602-1.31445,18.69336-3.21289l3.21289,17.52441Z"/><path d="M213.75398,131.89533c7.15625-1.16797,17.6709-2.04395,29.64648-2.04395,14.60449,0,24.82715,2.19043,31.83691,7.74023,5.98828,4.67285,9.20117,11.68262,9.20117,20.7373,0,12.41406-8.90918,21.03027-17.37891,24.09766v.4375c6.86328,2.77539,10.66113,9.20117,13.14355,18.25586,3.06641,11.24512,5.9873,24.09668,7.88574,27.89355h-22.78223c-1.45996-2.9209-3.94336-10.80664-6.71777-22.92871-2.77441-12.41309-7.00977-15.62598-16.21094-15.77246h-6.57129v38.70117h-22.05273v-97.11816Zm22.05273,42.35254h8.76172c11.09961,0,17.67188-5.5498,17.67188-14.16602,0-8.9082-6.13379-13.58203-16.35742-13.58203-5.40332,0-8.46973,.29199-10.07617,.73047v27.01758Z"/><path d="M322.70027,130.58088v98.43262h-22.19824v-98.43262h22.19824Z"/><path d="M341.97566,131.89533c6.86426-1.16797,16.50293-2.04395,30.08496-2.04395,13.72754,0,23.5127,2.62891,30.08398,7.88574,6.42578,4.96582,10.51562,13.14355,10.51562,22.7832,0,9.63867-3.06738,17.96289-9.05469,23.36621-7.59473,7.00977-18.83984,10.36914-31.9834,10.36914-2.9209,0-5.5498-.14648-7.59375-.58398v35.3418h-22.05273v-97.11816Zm22.05273,44.68945c1.89844,.4375,4.08887,.58398,7.44824,.58398,11.8291,0,19.13086-5.98828,19.13086-15.91895,0-9.05469-6.2793-14.45801-17.52441-14.45801-4.38184,0-7.44824,.29199-9.05469,.73047v29.0625Z"/><path d="M445.95613,149.27424h-26.58008v-18.69336h75.64941v18.69336h-26.87109v79.73926h-22.19824v-79.73926Z"/><path d="M536.35359,131.89533c5.8418-1.02246,17.52539-2.04395,28.77051-2.04395,13.58203,0,21.90625,1.31445,29.20801,5.54883,6.86426,3.65137,11.68359,10.36914,11.68359,19.42383,0,8.61621-5.11133,16.64941-16.21094,20.88379v.29199c11.24512,2.9209,19.57031,11.53809,19.57031,24.09766,0,9.05469-4.08984,16.06445-10.22363,21.0293-7.15625,5.69629-19.13086,8.90918-38.70117,8.90918-10.95312,0-19.13086-.73047-24.09668-1.46094v-96.67969Zm22.05273,37.67871h7.30176c11.8291,0,17.96289-4.81934,17.96289-12.12109,0-7.44824-5.69531-11.3916-15.77246-11.3916-4.96484,0-7.74023,.29199-9.49219,.58496v22.92773Zm0,43.66699c2.19043,.29199,4.81934,.29199,8.61621,.29199,10.07715,0,18.98535-3.94336,18.98535-14.3125,0-9.78418-8.9082-13.72754-20.00781-13.72754h-7.59375v27.74805Z"/><path d="M646.75984,130.58088v56.51855c0,17.08691,6.57227,25.70312,17.81738,25.70312,11.68359,0,18.10938-8.17773,18.10938-25.70312v-56.51855h22.19824v55.2041c0,30.37695-15.33496,44.83496-41.03809,44.83496-24.82715,0-39.28516-13.87402-39.28516-45.12695v-54.91211h22.19824Z"/><path d="M746.50495,130.58088v98.43262h-22.19824v-98.43262h22.19824Z"/><path d="M765.92683,130.58088h22.19824v79.73926h39.13867v18.69336h-61.33691v-98.43262Z"/><path d="M840.40632,132.04182c8.17871-1.31445,18.83984-2.19043,29.93848-2.19043,18.83984,0,31.10742,3.50488,40.4541,10.51465,10.22266,7.59375,16.64844,19.71582,16.64844,37.09473,0,18.83984-6.86426,31.83691-16.21094,39.86914-10.36816,8.61719-26.28711,12.70605-45.56445,12.70605-11.53809,0-19.8623-.73047-25.26562-1.46094v-96.5332Zm22.19824,80.17676c1.89844,.43848,5.11133,.43848,7.74023,.43848,20.2998,.14551,33.58984-10.95312,33.58984-34.46582,0-20.44629-11.97559-31.25293-31.25293-31.25293-4.81934,0-8.17871,.4375-10.07715,.87598v64.4043Z"/><path d="M1000.61335,187.39143h-36.21777v23.36719h40.45312v18.25488h-62.65137v-98.43262h60.60742v18.25586h-38.40918v20.44531h36.21777v18.10938Z"/><path d="M1020.0362,131.89533c7.15625-1.16797,17.6709-2.04395,29.64648-2.04395,14.60449,0,24.82715,2.19043,31.83691,7.74023,5.98828,4.67285,9.20117,11.68262,9.20117,20.7373,0,12.41406-8.90918,21.03027-17.37891,24.09766v.4375c6.86328,2.77539,10.66113,9.20117,13.14355,18.25586,3.06641,11.24512,5.9873,24.09668,7.88574,27.89355h-22.78223c-1.45996-2.9209-3.94336-10.80664-6.71777-22.92871-2.77441-12.41309-7.00977-15.62598-16.21094-15.77246h-6.57129v38.70117h-22.05273v-97.11816Zm22.05273,42.35254h8.76172c11.09961,0,17.67188-5.5498,17.67188-14.16602,0-8.9082-6.13379-13.58203-16.35742-13.58203-5.40332,0-8.46973,.29199-10.07617,.73047v27.01758Z"/></g></g></svg>