<?xml version="1.0" encoding="UTF-8"?><svg id="a" xmlns="http://www.w3.org/2000/svg" viewBox="0 0 656.587 202.1482"><defs><style>.b{fill:#091017;}.c{fill:#4b83ad;}.d{fill:#5c9fd8;}</style></defs><g><path class="b" d="M22.30859,51.80505l-4.41357,15.90723H3.45898L22.30859,5.73864h18.38965l19.30957,61.97363h-15.17188l-4.78125-15.90723H22.30859Zm15.72314-10.48242l-3.86182-13.14844c-1.10352-3.67773-2.20703-8.27539-3.12646-11.95312h-.18359c-.91943,3.67773-1.83936,8.36719-2.85059,11.95312l-3.67773,13.14844h13.7002Z"/><path class="b" d="M68.18848,67.71227V5.73864h16.3667l12.87305,22.71094c3.67822,6.52832,7.26416,14.25195,10.11426,21.24023h.18408c-.82764-8.18359-1.10352-16.55078-1.10352-25.92969V5.73864h12.87305v61.97363h-14.71191l-13.24072-23.90723c-3.67822-6.62012-7.81592-14.61914-10.7583-21.88379h-.36768c.45996,8.27539,.64355,17.01074,.64355,27.125v18.66602h-12.87256Z"/><path class="b" d="M131.63037,67.71227V5.73864h16.3667l12.87305,22.71094c3.67773,6.52832,7.26416,14.25195,10.11426,21.24023h.18408c-.82764-8.18359-1.10352-16.55078-1.10352-25.92969V5.73864h12.87305v61.97363h-14.71191l-13.24072-23.90723c-3.67773-6.62012-7.81592-14.61914-10.7583-21.88379h-.36768c.45996,8.27539,.64355,17.01074,.64355,27.125v18.66602h-12.87256Z"/><path class="b" d="M251.80469,36.08141c0,20.41309-12.229,32.64258-30.43506,32.64258-18.29785,0-29.14795-13.88477-29.14795-31.63086,0-18.57422,11.95361-32.45801,30.15918-32.45801,19.03369,0,29.42383,14.25195,29.42383,31.44629Zm-44.7793,.73535c0,12.22949,5.70117,20.78125,15.08008,20.78125,9.4707,0,14.89551-9.01172,14.89551-21.05664,0-11.21777-5.24121-20.78027-14.89551-20.78027-9.56299,0-15.08008,9.01074-15.08008,21.05566Z"/><path class="b" d="M274.97314,5.73864V41.32262c0,10.75781,4.1377,16.18359,11.21777,16.18359,7.35596,0,11.40186-5.14941,11.40186-16.18359V5.73864h13.97656V40.49548c0,19.125-9.65479,28.22852-25.83789,28.22852-15.63135,0-24.73438-8.73535-24.73438-28.41309V5.73864h13.97607Z"/><path class="b" d="M323.70361,67.71227V5.73864h16.3667l12.87305,22.71094c3.67773,6.52832,7.26416,14.25195,10.11426,21.24023h.18408c-.82764-8.18359-1.10352-16.55078-1.10352-25.92969V5.73864h12.87305v61.97363h-14.71191l-13.24072-23.90723c-3.67773-6.62012-7.81592-14.61914-10.7583-21.88379h-.36768c.45996,8.27539,.64355,17.01074,.64355,27.125v18.66602h-12.87256Z"/><path class="b" d="M432.56836,66.057c-2.48242,1.19531-8.36719,2.66699-15.81543,2.66699-21.42432,0-32.45801-13.4248-32.45801-31.0791,0-21.14844,15.07959-32.82617,33.8374-32.82617,7.26416,0,12.78076,1.37891,15.26367,2.75879l-2.94238,11.03418c-2.75879-1.19531-6.7124-2.29883-11.76953-2.29883-11.03418,0-19.67725,6.71191-19.67725,20.50391,0,12.41406,7.35596,20.22949,19.76904,20.22949,4.32178,0,8.91895-.82812,11.76953-2.02344l2.02295,11.03418Z"/><path class="b" d="M455.92041,5.73864v61.97363h-13.97607V5.73864h13.97607Z"/><path class="b" d="M468.05615,67.71227V5.73864h16.3667l12.87305,22.71094c3.67773,6.52832,7.26416,14.25195,10.11426,21.24023h.18408c-.82764-8.18359-1.10352-16.55078-1.10352-25.92969V5.73864h12.87305v61.97363h-14.71191l-13.24072-23.90723c-3.67773-6.62012-7.81592-14.61914-10.7583-21.88379h-.36768c.45996,8.27539,.64355,17.01074,.64355,27.125v18.66602h-12.87256Z"/><path class="b" d="M583.26514,64.86169c-4.32178,1.47168-12.50537,3.49414-20.68896,3.49414-11.30957,0-19.49316-2.85059-25.19385-8.27539-5.60889-5.4248-8.73535-13.5166-8.73535-22.61914,.0918-20.59668,15.07959-32.36621,35.40039-32.36621,7.99951,0,14.16016,1.5625,17.19482,2.94238l-2.94238,11.30957c-3.40234-1.56348-7.54004-2.66699-14.34424-2.66699-11.67773,0-20.59668,6.52832-20.59668,20.04492,0,12.87305,8.09131,20.32129,19.58545,20.32129,3.12598,0,5.70068-.36816,6.8042-.82812v-13.05664h-9.56299v-10.94141h23.07959v32.6416Z"/></g><g><g><path class="b" d="M31.58203,126.75036c-1.52246,.73242-5.13184,1.63477-9.7002,1.63477-13.14062,0-19.9082-8.2334-19.9082-19.06152,0-12.97168,9.24902-20.13379,20.75391-20.13379,4.45557,0,7.83936,.8457,9.3623,1.69141l-1.80469,6.76758c-1.69238-.73242-4.11719-1.40918-7.21875-1.40918-6.76758,0-12.06934,4.11621-12.06934,12.57617,0,7.61328,4.51172,12.40723,12.12549,12.40723,2.65088,0,5.47021-.50781,7.21875-1.24023l1.24072,6.76758Z"/><path class="b" d="M45.9082,89.75427v14.60645h14.15576v-14.60645h8.57227v38.01074h-8.57227v-15.90332h-14.15576v15.90332h-8.57227v-38.01074h8.57227Z"/><path class="b" d="M110.93652,108.36462c0,12.52051-7.50098,20.02051-18.66748,20.02051-11.22314,0-17.87744-8.51562-17.87744-19.40039,0-11.3916,7.33105-19.9082,18.49805-19.9082,11.67383,0,18.04688,8.74219,18.04688,19.28809Zm-27.46533,.45117c0,7.50098,3.49658,12.74512,9.24902,12.74512,5.80908,0,9.13623-5.52637,9.13623-12.91406,0-6.88086-3.21484-12.74609-9.13623-12.74609-5.86523,0-9.24902,5.52734-9.24902,12.91504Z"/><path class="b" d="M144.43848,126.75036c-1.52246,.73242-5.13184,1.63477-9.7002,1.63477-13.14062,0-19.9082-8.2334-19.9082-19.06152,0-12.97168,9.24902-20.13379,20.75391-20.13379,4.45557,0,7.83936,.8457,9.3623,1.69141l-1.80469,6.76758c-1.69238-.73242-4.11719-1.40918-7.21875-1.40918-6.76758,0-12.06934,4.11621-12.06934,12.57617,0,7.61328,4.51172,12.40723,12.12549,12.40723,2.65088,0,5.47021-.50781,7.21875-1.24023l1.24072,6.76758Z"/><path class="b" d="M183.24121,108.36462c0,12.52051-7.50098,20.02051-18.66748,20.02051-11.22314,0-17.87744-8.51562-17.87744-19.40039,0-11.3916,7.33105-19.9082,18.49805-19.9082,11.67383,0,18.04688,8.74219,18.04688,19.28809Zm-27.46533,.45117c0,7.50098,3.49658,12.74512,9.24902,12.74512,5.80908,0,9.13623-5.52637,9.13623-12.91406,0-6.88086-3.21484-12.74609-9.13623-12.74609-5.86523,0-9.24902,5.52734-9.24902,12.91504Z"/><path class="b" d="M188.93945,89.75427h8.57227v30.79199h15.11426v7.21875h-23.68652v-38.01074Z"/><path class="b" d="M226.89551,118.00817l-2.70703,9.75684h-8.854l11.56104-38.01074h11.2793l11.84375,38.01074h-9.30566l-2.93262-9.75684h-10.88477Zm9.64404-6.42871l-2.36865-8.06543c-.67676-2.25586-1.35352-5.0752-1.91748-7.33105h-.11279c-.56396,2.25586-1.12793,5.13184-1.74805,7.33105l-2.25586,8.06543h8.40283Z"/><path class="b" d="M257.74707,96.97302h-10.26465v-7.21875h29.21387v7.21875h-10.37695v30.79199h-8.57227v-30.79199Z"/><path class="b" d="M303.88086,111.69177h-13.98633v9.02344h15.62207v7.0498h-24.19434v-38.01074h23.40479v7.04883h-14.83252v7.89551h13.98633v6.99316Z"/><path class="b" d="M320.18164,127.76501v-15.56543l-12.0127-22.44531h9.86963l3.83496,9.13574c1.18408,2.76367,2.03027,4.79395,2.93262,7.27539h.11279c.8457-2.36914,1.74805-4.56836,2.87598-7.27539l3.83496-9.13574h9.64404l-12.52002,22.16309v15.84766h-8.57227Z"/><path class="b" d="M384.64551,126.75036c-1.52246,.73242-5.13184,1.63477-9.7002,1.63477-13.14062,0-19.9082-8.2334-19.9082-19.06152,0-12.97168,9.24902-20.13379,20.75391-20.13379,4.45557,0,7.83936,.8457,9.3623,1.69141l-1.80469,6.76758c-1.69238-.73242-4.11719-1.40918-7.21875-1.40918-6.76758,0-12.06934,4.11621-12.06934,12.57617,0,7.61328,4.51172,12.40723,12.12549,12.40723,2.65088,0,5.47021-.50781,7.21875-1.24023l1.24072,6.76758Z"/><path class="b" d="M412.95801,111.69177h-13.98633v9.02344h15.62207v7.0498h-24.19434v-38.01074h23.40479v7.04883h-14.83252v7.89551h13.98633v6.99316Z"/><path class="b" d="M420.46094,127.76501v-38.01074h10.03857l7.89551,13.92969c2.25586,4.00391,4.45557,8.74121,6.20361,13.02734h.11279c-.50732-5.01953-.67676-10.15137-.67676-15.9043v-11.05273h7.89551v38.01074h-9.02344l-8.12109-14.66309c-2.25586-4.06055-4.79346-8.9668-6.59814-13.42188h-.22559c.28174,5.0752,.39453,10.43262,.39453,16.63672v11.44824h-7.89551Z"/><path class="b" d="M466.76465,96.97302h-10.26367v-7.21875h29.21289v7.21875h-10.37695v30.79199h-8.57227v-30.79199Z"/><path class="b" d="M490.28369,90.2611c2.76318-.45117,6.82373-.78906,11.44873-.78906,5.63965,0,9.58691,.8457,12.29395,2.98926,2.3125,1.80469,3.55322,4.51172,3.55322,8.00781,0,4.79395-3.43994,8.12109-6.71143,9.30566v.16895c2.65088,1.07129,4.11719,3.55273,5.07617,7.0498,1.18408,4.34277,2.31201,9.30566,3.04492,10.77148h-8.79785c-.56348-1.12793-1.52246-4.17285-2.59375-8.85449-1.07178-4.79297-2.70703-6.03418-6.26025-6.09082h-2.5376v14.94531h-8.51611v-37.50391Zm8.51611,16.35547h3.38379c4.28613,0,6.82373-2.14355,6.82373-5.4707,0-3.44043-2.36865-5.24512-6.31641-5.24512-2.08643,0-3.271,.11328-3.89111,.28223v10.43359Z"/><path class="b" d="M533.08984,118.00817l-2.70703,9.75684h-8.854l11.56104-38.01074h11.2793l11.84375,38.01074h-9.30566l-2.93262-9.75684h-10.88477Zm9.64404-6.42871l-2.36865-8.06543c-.67676-2.25586-1.35352-5.0752-1.91748-7.33105h-.11279c-.56396,2.25586-1.12793,5.13184-1.74805,7.33105l-2.25586,8.06543h8.40283Z"/><path class="b" d="M561.29004,89.75427h8.57227v30.79199h15.11426v7.21875h-23.68652v-38.01074Z"/></g><g><path class="b" d="M36.04297,175.99938c-.16992-4.59082-.34033-10.14453-.34033-15.69824h-.11328c-1.24658,4.87402-2.8335,10.31445-4.30713,14.79102l-4.64697,14.90527h-6.74365l-4.08057-14.73438c-1.24658-4.53418-2.49316-9.97461-3.45654-14.96191h-.11328c-.17041,5.15723-.39697,11.05078-.62354,15.81152l-.73682,14.50781H2.89014l2.43701-38.19629h11.50439l3.74023,12.75098c1.24658,4.41992,2.37988,9.18066,3.22998,13.65723h.22656c1.02051-4.41992,2.32373-9.46387,3.62695-13.71387l4.02393-12.69434h11.33398l2.04053,38.19629h-8.3877l-.62305-14.62109Z"/><path class="b" d="M60.41699,180.81677l-2.72021,9.80371h-8.89746l11.61768-38.19629h11.33398l11.90137,38.19629h-9.35107l-2.94678-9.80371h-10.9375Zm9.69092-6.46094l-2.38037-8.10352c-.68018-2.26758-1.36035-5.10059-1.92676-7.36719h-.11328c-.56689,2.2666-1.13379,5.15625-1.75684,7.36719l-2.26709,8.10352h8.44434Z"/><path class="b" d="M88.69971,190.62048v-38.19629h10.0874l7.93408,13.99805c2.26709,4.02344,4.47705,8.7832,6.23389,13.09082h.11328c-.51025-5.04395-.68018-10.20117-.68018-15.98145v-11.10742h7.93408v38.19629h-9.06738l-8.16064-14.73438c-2.26709-4.08008-4.81689-9.01074-6.63037-13.48828h-.22705c.28369,5.10059,.39697,10.48438,.39697,16.71875v11.50391h-7.93408Z"/><path class="b" d="M136.7041,180.81677l-2.72021,9.80371h-8.89746l11.61768-38.19629h11.33398l11.90137,38.19629h-9.35107l-2.94678-9.80371h-10.9375Zm9.69092-6.46094l-2.38037-8.10352c-.68018-2.26758-1.36035-5.10059-1.92676-7.36719h-.11328c-.56689,2.2666-1.13379,5.15625-1.75684,7.36719l-2.26709,8.10352h8.44434Z"/><path class="b" d="M195.47607,188.86364c-2.66357,.90723-7.70703,2.15332-12.75098,2.15332-6.97021,0-12.01416-1.75684-15.52783-5.10059-3.45703-3.34277-5.38379-8.33008-5.38379-13.94043,.05664-12.69434,9.29395-19.94824,21.81836-19.94824,4.93066,0,8.72754,.96289,10.59766,1.81348l-1.81348,6.9707c-2.09668-.96387-4.64697-1.64355-8.84082-1.64355-7.19727,0-12.69434,4.02344-12.69434,12.35352,0,7.93457,4.9873,12.52441,12.07129,12.52441,1.92676,0,3.51318-.22656,4.19336-.50977v-8.04688h-5.89355v-6.74414h14.22412v20.11816Z"/><path class="b" d="M224.94922,174.46911h-14.0542v9.06738h15.69775v7.08398h-24.31201v-38.19629h23.51855v7.08398h-14.9043v7.93359h14.0542v7.02734Z"/><path class="b" d="M264.79248,175.99938c-.16992-4.59082-.34033-10.14453-.34033-15.69824h-.11328c-1.24658,4.87402-2.8335,10.31445-4.30664,14.79102l-4.64746,14.90527h-6.74365l-4.08057-14.73438c-1.24658-4.53418-2.49316-9.97461-3.45654-14.96191h-.11377c-.16992,5.15723-.39648,11.05078-.62305,15.81152l-.73682,14.50781h-7.99072l2.43701-38.19629h11.50439l3.74023,12.75098c1.24658,4.41992,2.37988,9.18066,3.22998,13.65723h.22705c1.02002-4.41992,2.32324-9.46387,3.62695-13.71387l4.02344-12.69434h11.33398l2.04053,38.19629h-8.3877l-.62305-14.62109Z"/><path class="b" d="M303.16406,174.46911h-14.0542v9.06738h15.69775v7.08398h-24.31201v-38.19629h23.51855v7.08398h-14.9043v7.93359h14.0542v7.02734Z"/><path class="b" d="M310.70459,190.62048v-38.19629h10.0874l7.93408,13.99805c2.26709,4.02344,4.47705,8.7832,6.23389,13.09082h.11328c-.51025-5.04395-.68018-10.20117-.68018-15.98145v-11.10742h7.93408v38.19629h-9.06738l-8.16064-14.73438c-2.26709-4.08008-4.81689-9.01074-6.63037-13.48828h-.22705c.28369,5.10059,.39697,10.48438,.39697,16.71875v11.50391h-7.93408Z"/><path class="b" d="M357.23535,159.67809h-10.31396v-7.25391h29.35547v7.25391h-10.42725v30.94238h-8.61426v-30.94238Z"/></g></g><g><g><g><polygon class="d" points="601.99651 171.50364 601.99651 113.2818 656.587 113.2818 636.14636 142.39281 656.587 171.50364 601.99651 171.50364"/><polygon class="c" points="601.99651 114.18385 625.91637 140.30339 601.99651 140.30339 601.99651 114.18385"/></g><rect class="d" x="391.68186" y="139.40134" width="234.23451" height="58.22167"/></g><g><path d="M455.25244,170.00915c0,11.33398-4.59033,19.21094-13.94141,19.21094-9.52051,0-13.71436-8.55664-13.771-18.98438,0-10.71094,4.47705-19.09863,13.99805-19.09863,9.80371,0,13.71436,8.78418,13.71436,18.87207Zm-19.09814,.22656c0,8.44434,2.04004,12.46777,5.32666,12.46777,3.34375,0,5.15723-4.19434,5.15723-12.58105,0-8.16113-1.75684-12.46777-5.21387-12.46777-3.1167,0-5.27002,3.9668-5.27002,12.58105Z"/><path d="M459.95898,184.00622c0-3.11621,2.09668-5.26953,5.10059-5.26953,2.94678,0,4.98682,2.09668,5.04346,5.26953,0,3.00391-2.04004,5.21387-5.15674,5.21387-2.89062,0-4.9873-2.20996-4.9873-5.21387Z"/><path d="M485.23633,159.41149h-.11328l-7.02734,3.34375-1.41699-6.46094,9.8042-4.5332h7.08398v36.83594h-8.33057v-29.18555Z"/><path d="M532.8999,170.00915c0,11.33398-4.59033,19.21094-13.94141,19.21094-9.52051,0-13.71436-8.55664-13.771-18.98438,0-10.71094,4.47705-19.09863,13.99805-19.09863,9.80371,0,13.71436,8.78418,13.71436,18.87207Zm-19.09814,.22656c0,8.44434,2.04004,12.46777,5.32666,12.46777,3.34375,0,5.15723-4.19434,5.15723-12.58105,0-8.16113-1.75684-12.46777-5.21387-12.46777-3.1167,0-5.27002,3.9668-5.27002,12.58105Z"/><path d="M537.60645,184.00622c0-3.11621,2.09668-5.26953,5.10059-5.26953,2.94678,0,4.98682,2.09668,5.04346,5.26953,0,3.00391-2.04004,5.21387-5.15674,5.21387-2.89062,0-4.9873-2.20996-4.9873-5.21387Z"/><path d="M579.0918,170.00915c0,11.33398-4.59033,19.21094-13.94141,19.21094-9.52051,0-13.71436-8.55664-13.771-18.98438,0-10.71094,4.47705-19.09863,13.99756-19.09863,9.8042,0,13.71484,8.78418,13.71484,18.87207Zm-19.09814,.22656c0,8.44434,2.04004,12.46777,5.32666,12.46777,3.34375,0,5.15723-4.19434,5.15723-12.58105,0-8.16113-1.75684-12.46777-5.21387-12.46777-3.1167,0-5.27002,3.9668-5.27002,12.58105Z"/></g></g></svg>