<?xml version="1.0" encoding="UTF-8"?><svg id="a" xmlns="http://www.w3.org/2000/svg" viewBox="0 0 510.02152 150.60059"><defs><style>.b{fill:#12202b;}.c{fill:#5c9fd8;}</style></defs><g><rect class="c" y="75.57091" width="509.99765" height="72.39727"/><g><path class="b" d="M49.84867,133.76172c-1.69678,.81641-5.71826,1.82227-10.80762,1.82227-14.64062,0-22.18115-9.17383-22.18115-21.23828,0-14.45215,10.30518-22.43262,23.12354-22.43262,4.96387,0,8.73438,.94238,10.43066,1.88477l-2.01074,7.54004c-1.88477-.81641-4.58691-1.57031-8.04297-1.57031-7.54004,0-13.44678,4.58691-13.44678,14.0127,0,8.48242,5.02686,13.82324,13.50977,13.82324,2.95312,0,6.09521-.56543,8.04297-1.38184l1.38232,7.54004Z"/><path class="b" d="M65.80619,92.54102v16.27441h15.77148v-16.27441h9.55127v42.35156h-9.55127v-17.71973h-15.77148v17.71973h-9.55127v-42.35156h9.55127Z"/><path class="b" d="M138.25296,113.27734c0,13.94922-8.35742,22.30664-20.79883,22.30664-12.50439,0-19.91895-9.48828-19.91895-21.61523,0-12.69336,8.16846-22.18164,20.61035-22.18164,13.00684,0,20.10742,9.73926,20.10742,21.49023Zm-30.60107,.50293c0,8.35645,3.89551,14.2002,10.30469,14.2002,6.47217,0,10.17969-6.15723,10.17969-14.38965,0-7.66504-3.58154-14.2002-10.17969-14.2002-6.53467,0-10.30469,6.15723-10.30469,14.38965Z"/><path class="b" d="M175.57474,133.76172c-1.69678,.81641-5.71826,1.82227-10.80762,1.82227-14.64062,0-22.18115-9.17383-22.18115-21.23828,0-14.45215,10.30518-22.43262,23.12354-22.43262,4.96387,0,8.73438,.94238,10.43066,1.88477l-2.01074,7.54004c-1.88477-.81641-4.58691-1.57031-8.04297-1.57031-7.54004,0-13.44678,4.58691-13.44678,14.0127,0,8.48242,5.02686,13.82324,13.50977,13.82324,2.95312,0,6.09521-.56543,8.04297-1.38184l1.38232,7.54004Z"/><path class="b" d="M218.80326,113.27734c0,13.94922-8.35742,22.30664-20.79883,22.30664-12.50439,0-19.91895-9.48828-19.91895-21.61523,0-12.69336,8.16846-22.18164,20.61035-22.18164,13.00684,0,20.10742,9.73926,20.10742,21.49023Zm-30.60107,.50293c0,8.35645,3.89551,14.2002,10.30518,14.2002,6.47168,0,10.1792-6.15723,10.1792-14.38965,0-7.66504-3.58154-14.2002-10.1792-14.2002-6.53516,0-10.30518,6.15723-10.30518,14.38965Z"/><path class="b" d="M225.14652,92.54102h9.55127v34.30859h16.83984v8.04297h-26.39111v-42.35156Z"/><path class="b" d="M267.43216,124.02246l-3.01611,10.87012h-9.86523l12.88135-42.35156h12.56738l13.19531,42.35156h-10.36768l-3.26758-10.87012h-12.12744Zm10.74512-7.16406l-2.63916-8.98535c-.75391-2.51367-1.5083-5.65527-2.13623-8.16895h-.12598c-.62842,2.51367-1.25684,5.71875-1.94775,8.16895l-2.51367,8.98535h9.36279Z"/><path class="b" d="M301.80082,100.58398h-11.43604v-8.04297h32.54883v8.04297h-11.56152v34.30859h-9.55127v-34.30859Z"/><path class="b" d="M353.19828,116.98438h-15.58301v10.05371h17.40527v7.85449h-26.95654v-42.35156h26.07666v7.85449h-16.52539v8.79688h15.58301v7.79199Z"/><path class="b" d="M371.35599,134.89258v-17.34277l-13.38428-25.00879h10.99658l4.27246,10.17969c1.31982,3.0791,2.26221,5.34082,3.26758,8.10547h.12549c.94287-2.63867,1.94824-5.08887,3.20459-8.10547l4.27295-10.17969h10.74512l-13.94971,24.69434v17.65723h-9.55078Z"/><path class="b" d="M443.17386,133.76172c-1.69678,.81641-5.71826,1.82227-10.80762,1.82227-14.64062,0-22.18115-9.17383-22.18115-21.23828,0-14.45215,10.30518-22.43262,23.12354-22.43262,4.96387,0,8.73438,.94238,10.43066,1.88477l-2.01074,7.54004c-1.88477-.81641-4.58691-1.57031-8.04297-1.57031-7.54004,0-13.44678,4.58691-13.44678,14.0127,0,8.48242,5.02686,13.82324,13.50977,13.82324,2.95312,0,6.09521-.56543,8.04297-1.38184l1.38232,7.54004Z"/><path class="b" d="M449.58011,92.54102h9.55127v34.30859h16.83984v8.04297h-26.39111v-42.35156Z"/><path class="b" d="M491.23783,92.54102v42.35156h-9.55127v-42.35156h9.55127Z"/></g></g><g><path class="b" d="M14.40531,21.24805H1.11673V11.90234H38.93754v9.3457h-13.43457V61.11328H14.40531V21.24805Z"/><path class="b" d="M56.0225,11.90234V30.8125h18.32666V11.90234h11.09766V61.11328h-11.09766v-20.58984h-18.32666v20.58984h-11.09766V11.90234h11.09766Z"/><path class="b" d="M124.43656,40.30469h-18.10742v11.68164h20.22461v9.12695h-31.32227V11.90234h30.30029v9.12695h-19.20264v10.22168h18.10742v9.05371Z"/><path class="b" d="M148.96976,11.90234h30.0083v9.12695h-18.91064v11.24414h17.66943v9.05371h-17.66943v19.78613h-11.09766V11.90234Z"/><path class="b" d="M198.47269,11.90234v28.25586c0,8.54297,3.28564,12.85059,8.90771,12.85059,5.84082,0,9.05322-4.08887,9.05322-12.85059V11.90234h11.09814v27.59863c0,15.1875-7.6665,22.41504-20.5166,22.41504-12.41211,0-19.64062-6.93555-19.64062-22.56055V11.90234h11.09814Z"/><path class="b" d="M246.7349,21.24805h-13.28857V11.90234h37.8208v9.3457h-13.43457V61.11328h-11.09766V21.24805Z"/><path class="b" d="M288.27933,11.90234v28.25586c0,8.54297,3.28564,12.85059,8.90771,12.85059,5.84082,0,9.05322-4.08887,9.05322-12.85059V11.90234h11.09814v27.59863c0,15.1875-7.6665,22.41504-20.5166,22.41504-12.41211,0-19.64062-6.93555-19.64062-22.56055V11.90234h11.09814Z"/><path class="b" d="M326.97611,12.55957c3.57764-.58398,8.83447-1.02246,14.82178-1.02246,7.30127,0,12.41211,1.0957,15.91699,3.87012,2.99316,2.33594,4.59961,5.84082,4.59961,10.36719,0,6.20703-4.45361,10.51465-8.68848,12.04785v.21875c3.43164,1.3877,5.33008,4.59961,6.57129,9.12695,1.5332,5.62207,2.99365,12.04688,3.94238,13.94531h-11.38965c-.73047-1.45996-1.97168-5.40332-3.35889-11.46289-1.38721-6.20605-3.50439-7.8125-8.10449-7.88574h-3.28564v19.34863h-11.0249V12.55957Zm11.0249,21.17383h4.38086c5.54932,0,8.83447-2.77441,8.83447-7.08203,0-4.4541-3.06641-6.79102-8.17725-6.79102-2.70166,0-4.23486,.14648-5.03809,.36523v13.50781Z"/><path class="b" d="M399.5513,40.30469h-18.10742v11.68164h20.2251v9.12695h-31.32275V11.90234h30.30029v9.12695h-19.20264v10.22168h18.10742v9.05371Z"/><path class="b" d="M469.06058,35.99707c0,16.20898-9.71094,25.91895-24.16748,25.91895-14.52979,0-23.14502-11.02441-23.14502-25.11621,0-14.74902,9.4917-25.77344,23.94824-25.77344,15.11377,0,23.36426,11.31641,23.36426,24.9707Zm-35.55762,.58398c0,9.71094,4.52686,16.50098,11.97412,16.50098,7.52051,0,11.82812-7.15527,11.82812-16.7207,0-8.90723-4.16162-16.50098-11.82812-16.50098-7.59326,0-11.97412,7.15527-11.97412,16.7207Z"/><path class="b" d="M476.43558,11.90234h30.0083v9.12695h-18.91064v11.24414h17.66943v9.05371h-17.66943v19.78613h-11.09766V11.90234Z"/></g></svg>