<?xml version="1.0" encoding="UTF-8"?><svg id="a" xmlns="http://www.w3.org/2000/svg" viewBox="0 0 600.00098 307"><defs><style>.b{fill:none;}.c{fill:#12202b;}.d{fill:#1d1d1d;}.e{fill:#5c9fd8;}</style></defs><g><path class="c" d="M60.0459,169.82566c-3.5127,1.75684-10.53809,3.5127-19.53906,3.5127-20.85645,0-36.55371-13.17285-36.55371-37.43164,0-23.16211,15.69727-38.85938,38.63965-38.85938,9.2207,0,15.03809,1.97559,17.56348,3.29297l-2.30566,7.79395c-3.62207-1.75684-8.78125-3.07422-14.92871-3.07422-17.34375,0-28.87012,11.08691-28.87012,30.5166,0,18.1123,10.42871,29.74805,28.43066,29.74805,5.81836,0,11.74609-1.20703,15.58789-3.07324l1.97559,7.57422Z"/><path class="c" d="M132.93359,134.47898c0,25.4668-15.47754,38.96875-34.3584,38.96875-19.54004,0-33.26074-15.14844-33.26074-37.54102,0-23.49121,14.59961-38.85938,34.3584-38.85938,20.19824,0,33.26074,15.47754,33.26074,37.43164Zm-57.41113,1.20801c0,15.80664,8.5625,29.96777,23.60156,29.96777,15.14844,0,23.70996-13.94141,23.70996-30.73633,0-14.70996-7.68359-30.07715-23.60059-30.07715-15.80664,0-23.71094,14.59961-23.71094,30.8457Z"/><path class="c" d="M207.6875,139.74851c-.54883-10.31836-1.20801-22.72266-1.09766-31.94336h-.33008c-2.52441,8.67188-5.59766,17.89258-9.33008,28.10156l-13.06348,35.89453h-7.24414l-11.96582-35.23633c-3.5127-10.42871-6.47656-19.97852-8.56152-28.75977h-.21973c-.21973,9.2207-.76855,21.625-1.42676,32.71191l-1.97656,31.72363h-9.11035l5.15918-73.98633h12.18457l12.62305,35.78613c3.07422,9.11035,5.59863,17.2334,7.46484,24.91797h.3291c1.86621-7.46484,4.50098-15.58789,7.79395-24.91797l13.17285-35.78613h12.18457l4.61035,73.98633h-9.33008l-1.86621-32.49219Z"/><path class="c" d="M295.94141,139.74851c-.54883-10.31836-1.20801-22.72266-1.09766-31.94336h-.33008c-2.52441,8.67188-5.59766,17.89258-9.33008,28.10156l-13.06348,35.89453h-7.24414l-11.96582-35.23633c-3.5127-10.42871-6.47656-19.97852-8.56152-28.75977h-.21973c-.21973,9.2207-.76855,21.625-1.42676,32.71191l-1.97656,31.72363h-9.11035l5.15918-73.98633h12.18457l12.62305,35.78613c3.07422,9.11035,5.59863,17.2334,7.46484,24.91797h.3291c1.86621-7.46484,4.50098-15.58789,7.79395-24.91797l13.17285-35.78613h12.18457l4.61035,73.98633h-9.33008l-1.86621-32.49219Z"/><path class="c" d="M331.39551,98.25437v43.79883c0,16.57617,7.35449,23.60156,17.23438,23.60156,10.97754,0,18.00293-7.24512,18.00293-23.60156v-43.79883h9.65918v43.14062c0,22.72266-11.96484,32.05273-27.99121,32.05273-15.14844,0-26.56543-8.67188-26.56543-31.61426v-43.5791h9.66016Z"/><path class="c" d="M392.86621,172.2407V98.25437h10.42773l23.71094,37.43262c5.48926,8.67188,9.76953,16.46582,13.28223,24.04004l.21973-.11035c-.87793-9.87891-1.09766-18.88086-1.09766-30.40625v-30.95605h9.00098v73.98633h-9.65918l-23.49121-37.54199c-5.15918-8.23242-10.09961-16.68555-13.83105-24.69824l-.33008,.10938c.54883,9.33105,.76855,18.22266,.76855,30.5166v31.61426h-9.00098Z"/><path class="c" d="M474.64453,98.25437v73.98633h-9.5498V98.25437h9.5498Z"/><path class="c" d="M505.38086,106.37742h-22.50293v-8.12305h54.77539v8.12305h-22.6123v65.86328h-9.66016V106.37742Z"/><path class="c" d="M565.4248,172.2407v-31.39453l-23.38184-42.5918h10.86719l10.42871,20.41797c2.85449,5.59766,5.0498,10.09863,7.35449,15.25781h.21973c2.08594-4.83008,4.61035-9.66016,7.46484-15.25781l10.64746-20.41797h10.86719l-24.80762,42.48145v31.50488h-9.66016Z"/></g><g><rect class="e" x="88.71007" y=".70077" width="422.61374" height="77.84408"/><g><path class="c" d="M133.2207,62.92527c-1.82422,.87793-6.14844,1.95898-11.62109,1.95898-15.74316,0-23.85059-9.86426-23.85059-22.83691,0-15.54004,11.08008-24.12109,24.86426-24.12109,5.33691,0,9.3916,1.01367,11.21582,2.02637l-2.16211,8.1084c-2.02734-.87891-4.93262-1.68945-8.64844-1.68945-8.1084,0-14.45898,4.93262-14.45898,15.06738,0,9.12109,5.40527,14.86426,14.52637,14.86426,3.17578,0,6.55371-.60742,8.64844-1.48633l1.48633,8.1084Z"/><path class="c" d="M150.37793,18.60203v17.49902h16.95898V18.60203h10.27051v45.53906h-10.27051v-19.05371h-16.95898v19.05371h-10.26953V18.60203h10.26953Z"/><path class="c" d="M228.27637,40.8989c0,14.99902-8.98633,23.98535-22.36426,23.98535-13.44531,0-21.41797-10.20215-21.41797-23.24219,0-13.64844,8.7832-23.85156,22.16113-23.85156,13.98633,0,21.62109,10.47266,21.62109,23.1084Zm-32.9043,.54004c0,8.98633,4.18848,15.26953,11.08008,15.26953,6.95996,0,10.94629-6.62109,10.94629-15.47266,0-8.24219-3.85156-15.26953-10.94629-15.26953-7.02637,0-11.08008,6.62109-11.08008,15.47266Z"/><path class="c" d="M268.40527,62.92527c-1.82422,.87793-6.14844,1.95898-11.62109,1.95898-15.74316,0-23.85059-9.86426-23.85059-22.83691,0-15.54004,11.08008-24.12109,24.86426-24.12109,5.33691,0,9.3916,1.01367,11.21582,2.02637l-2.16211,8.1084c-2.02734-.87891-4.93262-1.68945-8.64844-1.68945-8.1084,0-14.45898,4.93262-14.45898,15.06738,0,9.12109,5.40527,14.86426,14.52637,14.86426,3.17578,0,6.55371-.60742,8.64844-1.48633l1.48633,8.1084Z"/><path class="c" d="M314.88574,40.8989c0,14.99902-8.98633,23.98535-22.36426,23.98535-13.44531,0-21.41797-10.20215-21.41797-23.24219,0-13.64844,8.7832-23.85156,22.16113-23.85156,13.98633,0,21.62109,10.47266,21.62109,23.1084Zm-32.9043,.54004c0,8.98633,4.18848,15.26953,11.08008,15.26953,6.95996,0,10.94629-6.62109,10.94629-15.47266,0-8.24219-3.85156-15.26953-10.94629-15.26953-7.02637,0-11.08008,6.62109-11.08008,15.47266Z"/><path class="c" d="M321.70508,18.60203h10.26953V55.49265h18.10742v8.64844h-28.37695V18.60203Z"/><path class="c" d="M367.17188,52.45261l-3.24316,11.68848h-10.6084l13.85156-45.53906h13.5127l14.18945,45.53906h-11.14844l-3.51367-11.68848h-13.04004Zm11.55371-7.70312l-2.83789-9.66211c-.81055-2.70215-1.62109-6.08105-2.29688-8.7832h-.13574c-.67578,2.70215-1.35059,6.14844-2.09473,8.7832l-2.70215,9.66211h10.06738Z"/><path class="c" d="M404.12695,27.25046h-12.29688v-8.64844h34.99902v8.64844h-12.43262v36.89062h-10.26953V27.25046Z"/><path class="c" d="M459.3916,44.88523h-16.75684v10.81055h18.71582v8.44531h-28.98535V18.60203h28.03906v8.44531h-17.76953v9.45898h16.75684v8.37891Z"/><path class="c" d="M478.91406,64.14109v-18.64844l-14.3916-26.89062h11.82422l4.59375,10.94531c1.41895,3.31055,2.43262,5.74316,3.51367,8.71582h.13477c1.01367-2.83789,2.09473-5.47266,3.44629-8.71582l4.59473-10.94531h11.55371l-15,26.55273v18.98633h-10.26953Z"/></g></g><g><g><path class="c" d="M271.05203,240.60443s.54458-.42484,1.38758-1.25348c.41883-.41676,.90427-.93943,1.42619-1.55692,.50332-.63261,1.05904-1.3498,1.55758-2.18877,.49234-.83822,.96872-1.7707,1.32643-2.79659,.33424-1.03707,.61543-2.14136,.6911-3.31109l.01643-.21932,.00554-.08741,.00404-.11895c.00282-.15604,.01596-.33686,.0076-.4592-.00141-.26213-.01718-.5606-.04535-.84376-.05577-.57083-.16289-1.13612-.3501-1.68348-.35207-1.10016-.98806-2.13441-1.77257-3.13768-.78808-.99782-1.70954-1.97002-2.6138-2.98643-.89259-1.0274-1.77136-2.11451-2.46932-3.30011-.70894-1.1778-1.16621-2.47616-1.39661-3.72015-.24476-1.24803-.19744-2.44443-.07563-3.50281,.12309-1.0658,.38503-2.00297,.64148-2.81039,.25589-.81062,.5474-1.48801,.7971-2.03733,.24617-.54952,.47093-.96628,.62359-1.25019,.15548-.28063,.23872-.43263,.23872-.43263,0,0-.04,.16862-.11633,.48136-.08379,.30673-.1835,.76808-.31489,1.34577-.13407,.57627-.25166,1.28521-.37207,2.09047-.11337,.80508-.18153,1.71483-.17463,2.68731,.0131,.97229,.14928,2.00513,.4415,3.03657,.28884,1.03425,.80104,2.04034,1.45716,3.01666,.65317,.97651,1.4935,1.90355,2.40945,2.84551,.90146,.95454,1.88961,1.92542,2.79252,3.06004,.9076,1.11809,1.70948,2.44809,2.15366,3.90793,.22354,.72753,.34522,1.47918,.39263,2.21553,.0276,.37132,.02075,.72555,.00141,1.10983-.00545,.20157-.02338,.34325-.0384,.50764l-.01042,.11886-.0199,.15116-.03643,.25866c-.19256,1.36642-.579,2.65717-1.1257,3.7855-.54332,1.12908-1.17658,2.12136-1.87651,2.93479-1.37393,1.65043-2.81801,2.68111-3.86057,3.2987-1.0458,.62444-1.70248,.84441-1.70248,.84441Z"/><path class="c" d="M307.18636,240.7723s.53834-.38446,1.38276-1.13124c.41883-.37817,.91192-.8507,1.43862-1.41384,.51638-.57684,1.08439-1.2301,1.59532-2.00438,.50952-.77503,1.01153-1.63325,1.37112-2.59859,.1781-.48211,.32175-.98684,.45319-1.50181,.12036-.51929,.18984-1.05697,.2304-1.60302,.05981-1.07547-.0799-2.153-.50548-3.18172-.40362-1.03622-1.07688-2.021-1.84571-2.99122-.77287-.96553-1.63926-1.91847-2.48433-2.91076-.83005-1.00186-1.63944-2.04372-2.29684-3.16726-.66284-1.11894-1.12701-2.33045-1.37872-3.5091-.25922-1.18137-.2564-2.32979-.14909-3.34893,.10093-1.02308,.35405-1.92336,.60782-2.69426,.24955-.7755,.54811-1.41637,.79766-1.93697,.24824-.51778,.47722-.90844,.63261-1.17442,.1581-.26288,.24138-.40503,.24138-.40503l-.12928,.45244c-.09069,.29086-.20355,.72828-.34381,1.27479-.14167,.54604-.27499,1.22052-.39545,1.98391-.12233,.76189-.18561,1.62977-.16505,2.5539,.01239,.92553,.18505,1.90345,.48351,2.884,.30391,.98261,.81343,1.94457,1.44745,2.88738,1.26249,1.90073,3.17289,3.59294,4.88988,5.69843,.85822,1.04533,1.65991,2.23985,2.17638,3.59444,.51713,1.3498,.68218,2.84138,.50257,4.18912-.18148,1.32361-.54867,2.57662-1.11396,3.64655-.55834,1.06993-1.21029,1.99828-1.91847,2.74092-1.40069,1.50678-2.83171,2.40959-3.85835,2.94512-1.0273,.54125-1.66611,.72152-1.66611,.72152Z"/><path class="c" d="M287.0528,225.08839s.51159-.42005,1.32361-1.20888c.80188-.79418,1.90758-1.96457,2.98024-3.49933,.51713-.78048,1.05218-1.62846,1.48125-2.58066,.43113-.9491,.77982-1.98194,.98806-3.06633l.07229-.40981,.04741-.40362,.05089-.46014,.00545-.38015c.02479-.50342-.03699-1.08101-.12027-1.61729-.20148-1.09274-.63186-2.173-1.19377-3.25335-1.13593-2.14615-2.73341-4.32863-3.65819-6.78573-.47112-1.21987-.72687-2.49334-.80461-3.69537-.08318-1.20268,.0537-2.34068,.29011-3.33644,.09492-.50539,.26213-.96694,.39282-1.40698,.17388-.42897,.32175-.83953,.48614-1.2102,.17247-.37057,.33208-.71448,.49159-1.02533,.17322-.30316,.33283-.58163,.47732-.83127,.27631-.50746,.56585-.86375,.72809-1.12354,.17669-.2518,.26964-.38446,.26964-.38446,0,0-.05098,.15548-.14928,.4484-.09351,.29152-.25575,.70818-.4146,1.25207-.08178,.27021-.17266,.56933-.27021,.89474-.08112,.32588-.16918,.67936-.26335,1.05819-.0875,.37677-.15266,.78461-.23453,1.20475-.03446,.4284-.13416,.86648-.14712,1.33197-.08731,.92431-.02338,1.91585,.1367,2.92728,.16721,1.01501,.52548,2.03611,.99651,3.06154,.48614,1.02242,1.10777,2.04287,1.79192,3.09778,.67532,1.05416,1.41862,2.15638,2.06644,3.36939,.65401,1.20888,1.18475,2.57728,1.41656,4.00829,.08929,.72677,.14581,1.41862,.08525,2.16746l-.04535,.55365-.07633,.46136-.08947,.50943-.12027,.48689c-.33977,1.28521-.863,2.46377-1.49364,3.47333-.61881,1.02111-1.31685,1.89444-2.02917,2.62403-.7111,.72959-1.40905,1.33675-2.07048,1.81548-.6512,.49084-1.25085,.86498-1.76037,1.14757-1.00749,.57289-1.63728,.78527-1.63728,.78527Z"/><g><path class="b" d="M339.64796,267.29811c-.40165-4.43529-1.83332-7.419-4.25249-8.8686-1.74441-1.04927-3.84249-1.25282-5.75148-1.11471,.00141,.07023,.00216,.14177,.00216,.21181,0,8.61624-1.95359,16.67892-5.35462,23.58492,11.92498-1.5142,16.38984-2.41438,15.35643-13.81341Z"/><path class="d" d="M320.98118,286.80723c.98731-.12928,1.94598-.25096,2.87696-.36926,12.58331-1.58574,22.52316-2.84072,21.00013-19.61437-.56125-6.20467-2.84898-10.54429-6.79747-12.89886-2.78429-1.65991-5.9247-2.00363-8.67876-1.82158-.15529-1.60555-.37545-3.18378-.66565-4.73366h-74.75515c-.60641,3.27044-.93032,6.66528-.93032,10.1571,0,19.81735,10.33801,36.71821,24.85895,43.29148h-24.38042c-1.62283,0-2.93686,1.31413-2.93686,2.93686,0,1.62217,1.31403,2.93564,2.93686,2.93564h78.40658c1.62358,0,2.93893-1.31347,2.93893-2.93564,0-1.62273-1.31535-2.93686-2.93893-2.93686h-27.11927c6.37451-2.88738,11.94432-7.76562,16.18442-14.01085Zm8.66496-29.28063c0-.07004-.00075-.14158-.00216-.21181,1.90899-.13811,4.00707,.06544,5.75148,1.11471,2.41917,1.44961,3.85084,4.43331,4.25249,8.8686,1.03341,11.39903-3.43145,12.29921-15.35643,13.81341,3.40103-6.906,5.35462-14.96868,5.35462-23.58492Z"/></g></g><g><path class="e" d="M38.62012,284.08347c-2.7959,0-5.56055-.43262-8.29492-1.29395-2.73535-.8623-5.18848-2.16992-7.3584-3.92383-2.1709-1.75391-3.93945-3.9834-5.30664-6.68945-1.36914-2.70508-2.05176-5.93164-2.05176-9.67773,0-1.66406,.11914-3.3291,.35742-4.99414,.23633-1.66406,.59277-3.33008,1.07031-4.99512-2.67578-.65332-5.05469-1.50098-7.13574-2.54199-2.08203-1.04004-3.86621-2.19922-5.35156-3.47852-1.4873-1.27832-2.61719-2.63086-3.38965-4.05859-.77344-1.42676-1.15918-2.85352-1.15918-4.28125,0-2.49707,.75781-4.81641,2.27441-6.95703s3.2998-3.98242,5.35156-5.5293c2.05176-1.5459,4.14746-2.76562,6.28809-3.65723s3.83496-1.33789,5.08398-1.33789c1.00977,0,1.5166,.32715,1.5166,.98145,0,.41602-.14941,.74414-.44629,.98047-.29883,.23828-.71387,.56641-1.24902,.98145-.65527,.47656-1.38184,1.05664-2.18457,1.73926-.80273,.68457-1.56152,1.5166-2.27441,2.49707-.71387,.98145-1.30859,2.14062-1.78418,3.47852-.47656,1.33789-.71387,2.92969-.71387,4.77246,0,1.96191,.49121,3.91016,1.47168,5.8418,.98145,1.93262,2.86816,3.49414,5.66406,4.68262,1.66406-4.04297,3.81934-7.86328,6.46582-11.46094,2.64551-3.59766,5.5-6.74805,8.5625-9.45508,3.0625-2.70508,6.21289-4.8457,9.45508-6.42188,3.24023-1.57422,6.28809-2.36328,9.1416-2.36328,1.78418,0,3.46387,.41699,5.04004,1.24902,1.57422,.83301,2.92773,1.87305,4.05762,3.12109,1.12891,1.24902,2.02051,2.60254,2.67578,4.05859,.65332,1.45801,.98145,2.80957,.98145,4.05859,0,2.31836-.84766,4.87598-2.54199,7.66992-1.69434,2.7959-4.10254,5.41211-7.22461,7.84961-3.12207,2.43848-6.89844,4.49023-11.32715,6.1543-4.43066,1.66504-9.41016,2.55664-14.94043,2.67578-.71289,3.03223-1.07031,6.03516-1.07031,9.00781,0,5.70801,1.14453,9.79688,3.43457,12.26367,2.28809,2.46875,5.57422,3.70215,9.85547,3.70215,1.60547,0,3.21094-.26758,4.81641-.80273s3.16602-1.24902,4.68262-2.14062c1.5166-.89258,2.92773-1.94727,4.23633-3.16699,1.30762-1.21777,2.4668-2.51074,3.47852-3.87988,.05859-.17773,.20801-.38574,.44629-.62402,.11816-.11816,.29688-.25195,.53516-.40137,.23633-.14746,.50391-.22266,.80273-.22266,.53516,0,.98145,.17773,1.33789,.53516,.35645,.35645,.53516,.77344,.53516,1.24805,0,.23828-.04492,.46191-.13379,.66895-.08887,.20898-.19336,.43262-.3125,.66895-.12012,.23828-.23828,.50586-.35645,.80273-1.01172,1.54688-2.26074,3.06348-3.74609,4.54883-1.4873,1.4873-3.21094,2.84082-5.17285,4.05859-1.96289,1.21973-4.11816,2.19922-6.4668,2.94336-2.34961,.74316-4.8916,1.11523-7.62598,1.11523Zm14.98438-61.09668c-1.96191,0-4.01367,.68359-6.1543,2.05078-2.14062,1.36914-4.23633,3.22656-6.28809,5.5752-2.05176,2.34961-3.96875,5.05469-5.75293,8.11621-1.78418,3.06348-3.27051,6.28809-4.45996,9.67773,4.04297-.11914,7.68457-.93652,10.92676-2.45312,3.24023-1.5166,5.98926-3.37402,8.25-5.57422,2.25879-2.19922,3.9834-4.54883,5.17285-7.04688,1.18945-2.49707,1.78418-4.81641,1.78418-6.95703,0-1.00977-.29785-1.82812-.8916-2.45215-.5957-.625-1.45801-.93652-2.58691-.93652Z"/><path class="e" d="M101.32227,271.41746c-1.01172,1.4873-2.29004,2.76562-3.83594,3.83594-1.30859,1.01172-2.92871,1.90332-4.86035,2.67578-1.93359,.77344-4.20801,1.15918-6.82324,1.15918-1.07031,0-2.23047-.08887-3.47852-.26758-1.42676,1.12988-3.00391,2.00684-4.72754,2.63086-1.72559,.625-3.53809,.93652-5.44043,.93652-1.84375,0-3.6123-.32715-5.30664-.98047-1.69531-.6543-3.18164-1.5459-4.45996-2.67578-1.2793-1.12891-2.29004-2.4668-3.03223-4.01367-.74316-1.5459-1.11523-3.18066-1.11523-4.90625,0-3.74609,.63867-7.05957,1.91797-9.94434,1.27734-2.88379,2.92773-5.30664,4.9502-7.26953,2.02051-1.96191,4.25-3.44727,6.68945-4.45898,2.4375-1.01074,4.81641-1.5166,7.13477-1.5166,1.84277,0,3.56738,.29785,5.17285,.8916,1.60547,.5957,2.98828,1.47168,4.14746,2.63184,1.16016,1.15918,2.08105,2.55664,2.76562,4.19141,.68262,1.63672,1.02539,3.46484,1.02539,5.48535,0,2.37891-.49023,4.87598-1.47168,7.49219-.98145,2.61719-2.33398,5.05469-4.05859,7.31348,.2373,.06055,.45996,.10449,.66895,.13379,.20801,.03125,.45996,.04492,.75879,.04492,1.54492,0,2.94336-.3125,4.19141-.93652,1.24902-.62402,2.34863-1.32227,3.30078-2.0957,1.07031-.89258,2.08008-1.90234,3.03223-3.0332,.05859-.17773,.20801-.38574,.44629-.62402,.11816-.11816,.29688-.25195,.53516-.40137,.23633-.14746,.50391-.22266,.80273-.22266,.47461,0,.90527,.17773,1.29297,.53516,.38574,.35645,.58008,.77344,.58008,1.24805,0,.23828-.04492,.46191-.13379,.66895-.08984,.20898-.19434,.43262-.3125,.66895-.12012,.23828-.23828,.50586-.35645,.80273Zm-32.55566,.625c0,1.7832,.37109,3.24121,1.11523,4.37012,.74316,1.12988,1.79785,1.69434,3.16602,1.69434,.9502,0,1.87305-.35645,2.76562-1.07031-1.0127-.65332-1.5166-1.36719-1.5166-2.14062,0-.47461,.16309-.98047,.49023-1.51562,.32617-.53516,.72754-1.01074,1.2041-1.42773,.47559-.41504,.96582-.75781,1.47168-1.02539,.50488-.26758,.93652-.40137,1.29395-.40137,.2959,0,.62402,.05957,.98047,.17871,.89258-2.25977,1.5752-4.65234,2.05176-7.18066,.47461-2.52637,.71289-4.77148,.71289-6.7334,0-2.02051-.32715-3.46289-.98047-4.32617-.65527-.86133-1.4873-1.29297-2.49707-1.29297-1.0127,0-2.1123,.52148-3.30078,1.56055-1.19043,1.04102-2.30469,2.49805-3.34473,4.37109-1.04102,1.87207-1.90332,4.07324-2.58594,6.59961-.68457,2.52832-1.02637,5.30664-1.02637,8.33984Z"/><path class="e" d="M128.70312,271.41746c-.5957,.83398-1.32422,1.77051-2.18555,2.80957-.8623,1.04102-1.90332,2.00684-3.12207,2.89941-1.21875,.8916-2.6748,1.64941-4.37012,2.27441-1.69434,.62402-3.67188,.93652-5.93066,.93652,.9502,.83301,1.7832,1.8418,2.49707,3.03223,.65332,1.01074,1.24902,2.27441,1.78418,3.79102,.53516,1.51562,.80273,3.22461,.80273,5.12793,0,1.12891-.20996,2.30371-.625,3.52344-.41699,1.21777-1.01172,2.34863-1.7832,3.38965-.77344,1.03906-1.72559,1.88672-2.85449,2.54199-1.12988,.65332-2.4082,.98047-3.83496,.98047-1.30859,0-2.73633-.25391-4.28125-.75781-1.54688-.50586-2.97461-1.35352-4.28125-2.54199-1.30859-1.19043-2.4082-2.75098-3.30078-4.68262-.8916-1.93262-1.33789-4.32617-1.33789-7.17969,0-4.81641,.40137-9.85645,1.2041-15.11816,.80273-5.2627,1.8877-10.41992,3.25586-15.47461,1.36719-5.05371,2.98828-9.85645,4.86133-14.40527s3.87988-8.53125,6.02051-11.95117c2.14062-3.41895,4.37012-6.13965,6.68945-8.16113,2.31836-2.02051,4.60645-3.0332,6.86719-3.0332,1.01074,0,2.00684,.25391,2.98828,.75879,.98047,.50586,1.85742,1.15918,2.63086,1.96191,.77246,.80273,1.39648,1.66504,1.87305,2.58691,.47559,.92188,.71387,1.76953,.71387,2.54199,0,1.24805-.35742,2.85352-1.07031,4.81641-.71387,1.96191-1.68066,4.11816-2.89941,6.46582-1.21875,2.34961-2.61719,4.80273-4.19141,7.3584-1.57617,2.55762-3.24219,5.01074-4.99512,7.3584-1.75488,2.34961-3.53809,4.53516-5.35156,6.55566-1.81445,2.02246-3.52246,3.6875-5.12793,4.99512-.47656,1.36816-.86328,2.82422-1.16016,4.37012-.29785,1.54688-.50586,3.09277-.62402,4.6377,.41504,.53516,.9209,.98145,1.5166,1.33789,.47461,.29883,1.07031,.58008,1.7832,.84766,.71387,.26758,1.5459,.40137,2.49805,.40137,1.54492,0,2.94336-.2373,4.19141-.71387,1.24902-.47461,2.37793-1.08398,3.38965-1.82812,1.00977-.74316,1.91699-1.5752,2.71973-2.49707s1.53027-1.79785,2.18555-2.63184c.05859-.17773,.20801-.38574,.44629-.62402,.11816-.11816,.29688-.25195,.53516-.40137,.23633-.14746,.50391-.22266,.80273-.22266,.47461,0,.90527,.17773,1.29297,.53516,.38574,.35645,.58008,.77344,.58008,1.24805,0,.23828-.04492,.46191-.13379,.66895-.08984,.20898-.19434,.43262-.3125,.66895-.12012,.23828-.23828,.50586-.35645,.80273Zm-22.12012,7.13574c-.11914,1.19043-.23828,2.4082-.35645,3.65723-.12012,1.07031-.20898,2.24316-.26758,3.52246-.05957,1.27832-.08887,2.51172-.08887,3.70215,0,3.50781,.40137,5.94531,1.2041,7.31348,.80273,1.36719,1.58984,2.05176,2.36328,2.05176,.53516,0,.99512-.19434,1.38281-.58008,.38574-.3877,.69824-.87793,.93652-1.47168,.23633-.59473,.41504-1.26367,.53516-2.00684,.11816-.74414,.17773-1.47168,.17773-2.18555,0-1.90332-.31152-3.7168-.93652-5.44043-.62402-1.72559-1.29297-3.21094-2.00684-4.45996-.8916-1.48535-1.87305-2.85352-2.94336-4.10254Zm21.85254-51.375c0-1.18848-.625-1.7832-1.87305-1.7832-.83398,0-1.85938,.93652-3.07715,2.80957-1.21973,1.87305-2.52832,4.3252-3.9248,7.3584-1.39746,3.03223-2.78027,6.46582-4.14746,10.30176-1.36816,3.83496-2.61719,7.71484-3.74609,11.63965,.9502-.71387,2.03613-1.84277,3.25586-3.38965,1.21777-1.5459,2.45312-3.28516,3.70117-5.21777,1.24902-1.93164,2.45312-3.9834,3.6123-6.1543,1.15918-2.16992,2.19922-4.25098,3.12207-6.24316,.9209-1.99219,1.66406-3.82031,2.22949-5.48535,.56445-1.66406,.84766-2.94336,.84766-3.83594Z"/><path class="e" d="M156.08496,271.41746c-.5957,.83398-1.32422,1.77051-2.18555,2.80957-.8623,1.04102-1.90332,2.00684-3.12207,2.89941-1.21875,.8916-2.6748,1.64941-4.37012,2.27441-1.69434,.62402-3.67188,.93652-5.93066,.93652,.9502,.83301,1.7832,1.8418,2.49707,3.03223,.65332,1.01074,1.24902,2.27441,1.78418,3.79102,.53516,1.51562,.80273,3.22461,.80273,5.12793,0,1.12891-.20996,2.30371-.625,3.52344-.41699,1.21777-1.01172,2.34863-1.7832,3.38965-.77344,1.03906-1.72559,1.88672-2.85449,2.54199-1.12988,.65332-2.4082,.98047-3.83496,.98047-1.30859,0-2.73633-.25391-4.28125-.75781-1.54688-.50586-2.97461-1.35352-4.28125-2.54199-1.30859-1.19043-2.4082-2.75098-3.30078-4.68262-.8916-1.93262-1.33789-4.32617-1.33789-7.17969,0-4.81641,.40137-9.85645,1.2041-15.11816,.80273-5.2627,1.8877-10.41992,3.25586-15.47461,1.36719-5.05371,2.98828-9.85645,4.86133-14.40527s3.87988-8.53125,6.02051-11.95117c2.14062-3.41895,4.37012-6.13965,6.68945-8.16113,2.31836-2.02051,4.60645-3.0332,6.86719-3.0332,1.01074,0,2.00684,.25391,2.98828,.75879,.98047,.50586,1.85742,1.15918,2.63086,1.96191,.77246,.80273,1.39648,1.66504,1.87305,2.58691,.47559,.92188,.71387,1.76953,.71387,2.54199,0,1.24805-.35742,2.85352-1.07031,4.81641-.71387,1.96191-1.68066,4.11816-2.89941,6.46582-1.21875,2.34961-2.61719,4.80273-4.19141,7.3584-1.57617,2.55762-3.24219,5.01074-4.99512,7.3584-1.75488,2.34961-3.53809,4.53516-5.35156,6.55566-1.81445,2.02246-3.52246,3.6875-5.12793,4.99512-.47656,1.36816-.86328,2.82422-1.16016,4.37012-.29785,1.54688-.50586,3.09277-.62402,4.6377,.41504,.53516,.9209,.98145,1.5166,1.33789,.47461,.29883,1.07031,.58008,1.7832,.84766,.71387,.26758,1.5459,.40137,2.49805,.40137,1.54492,0,2.94336-.2373,4.19141-.71387,1.24902-.47461,2.37793-1.08398,3.38965-1.82812,1.00977-.74316,1.91699-1.5752,2.71973-2.49707s1.53027-1.79785,2.18555-2.63184c.05859-.17773,.20801-.38574,.44629-.62402,.11816-.11816,.29688-.25195,.53516-.40137,.23633-.14746,.50391-.22266,.80273-.22266,.47461,0,.90527,.17773,1.29297,.53516,.38574,.35645,.58008,.77344,.58008,1.24805,0,.23828-.04492,.46191-.13379,.66895-.08984,.20898-.19434,.43262-.3125,.66895-.12012,.23828-.23828,.50586-.35645,.80273Zm-22.12012,7.13574c-.11914,1.19043-.23828,2.4082-.35645,3.65723-.12012,1.07031-.20898,2.24316-.26758,3.52246-.05957,1.27832-.08887,2.51172-.08887,3.70215,0,3.50781,.40137,5.94531,1.2041,7.31348,.80273,1.36719,1.58984,2.05176,2.36328,2.05176,.53516,0,.99512-.19434,1.38281-.58008,.38574-.3877,.69824-.87793,.93652-1.47168,.23633-.59473,.41504-1.26367,.53516-2.00684,.11816-.74414,.17773-1.47168,.17773-2.18555,0-1.90332-.31152-3.7168-.93652-5.44043-.62402-1.72559-1.29297-3.21094-2.00684-4.45996-.8916-1.48535-1.87305-2.85352-2.94336-4.10254Zm21.85254-51.375c0-1.18848-.625-1.7832-1.87305-1.7832-.83398,0-1.85938,.93652-3.07715,2.80957-1.21973,1.87305-2.52832,4.3252-3.9248,7.3584-1.39746,3.03223-2.78027,6.46582-4.14746,10.30176-1.36816,3.83496-2.61719,7.71484-3.74609,11.63965,.9502-.71387,2.03613-1.84277,3.25586-3.38965,1.21777-1.5459,2.45312-3.28516,3.70117-5.21777,1.24902-1.93164,2.45312-3.9834,3.6123-6.1543,1.15918-2.16992,2.19922-4.25098,3.12207-6.24316,.9209-1.99219,1.66406-3.82031,2.22949-5.48535,.56445-1.66406,.84766-2.94336,.84766-3.83594Z"/><path class="e" d="M187.9248,271.41746c-1.30859,2.08203-2.94336,3.9248-4.90527,5.53027-1.66504,1.36816-3.73242,2.61719-6.19922,3.74609-2.46777,1.12891-5.39551,1.69434-8.78516,1.69434-2.25977,0-4.34082-.32715-6.24316-.98047-1.90332-.6543-3.53809-1.56152-4.90527-2.7207-1.36914-1.15918-2.43945-2.54199-3.21094-4.14746-.77246-1.60547-1.16016-3.3584-1.16016-5.2627,0-3.38867,.625-6.47949,1.87305-9.27539,1.24902-2.79395,2.82422-5.1875,4.72754-7.17969,1.90234-1.99219,3.96875-3.52344,6.19922-4.59375,2.22949-1.07031,4.3252-1.60547,6.28809-1.60547,1.36621,0,2.64453,.26758,3.83496,.80273,1.18848,.53516,2.22949,1.23438,3.12109,2.0957,.89258,.86328,1.59082,1.85938,2.09668,2.98828,.50391,1.12988,.75781,2.29004,.75781,3.47852,0,1.07031-.23828,2.36328-.71387,3.87988-.47656,1.51562-1.26367,2.95898-2.36328,4.3252-1.10059,1.36914-2.58594,2.54199-4.45898,3.52344s-4.20801,1.47168-7.00195,1.47168c-.65527,0-1.33789-.08887-2.05176-.26758-.41602-.05859-.8623-.14746-1.33789-.26758,0,2.67578,.77246,4.72754,2.31934,6.1543,1.5459,1.42676,3.38965,2.14062,5.53027,2.14062,2.08008,0,3.98242-.43066,5.70801-1.29297,1.72363-.86133,3.17969-1.79785,4.37012-2.80957,1.42676-1.18945,2.64551-2.55664,3.65723-4.10352,.05859-.17773,.20703-.38574,.44531-.62402,.11914-.11816,.29688-.25195,.53516-.40137,.2373-.14746,.50488-.22266,.80273-.22266,.47559,0,.90625,.17773,1.29395,.53516,.38574,.35645,.5791,.77344,.5791,1.24805,0,.23828-.04395,.46191-.13379,.66895-.08887,.20898-.19336,.43262-.31152,.66895-.12012,.23828-.23828,.50586-.35742,.80273Zm-23.99219-6.42188c1.60547,0,3.12207-.44531,4.54883-1.33789,1.42676-.8916,2.66016-1.97559,3.70117-3.25488,1.04004-1.27832,1.85742-2.60059,2.45312-3.96875,.59375-1.36719,.8916-2.52734,.8916-3.47852,0-1.18945-.53516-1.78418-1.60547-1.78418-1.24805,0-2.46777,.50586-3.65625,1.5166-1.19043,1.01172-2.24512,2.22949-3.16699,3.65625-.92188,1.42773-1.68066,2.94336-2.27441,4.54883-.59473,1.60547-.8916,2.97461-.8916,4.10254Z"/><path class="e" d="M203.26562,276.59128c1.36719,0,2.57129-.17871,3.6123-.53516,1.03906-.35742,1.93164-.77246,2.67578-1.24902,.74219-.47559,1.38184-.96582,1.91699-1.47168,.53516-.50488,.95117-.90625,1.24902-1.2041l.62402-.62402c.17871-.11914,.38672-.25293,.625-.40137,.23633-.14844,.47461-.22363,.71289-.22363,.53516,0,.98145,.17871,1.33789,.53516,.35742,.35742,.53516,.77344,.53516,1.24902,0,.23828-.0752,.46094-.22266,.66895-.14941,.20898-.2832,.43164-.40137,.66895-.17871,.23828-.35645,.50586-.53516,.80273-1.24902,1.4873-2.64648,2.76465-4.19238,3.83496-1.36816,.95215-2.9873,1.81445-4.86035,2.58691s-4.0293,1.15918-6.4668,1.15918c-2.25977,0-4.34082-.32715-6.24316-.98047-1.90332-.6543-3.53809-1.56152-4.90527-2.7207-1.36914-1.15918-2.43945-2.54199-3.21094-4.14746-.77246-1.60547-1.16016-3.3584-1.16016-5.2627,0-3.38867,.625-6.47949,1.87305-9.27539,1.24902-2.79395,2.82422-5.1875,4.72754-7.17969,1.90234-1.99219,3.96875-3.52344,6.19922-4.59375,2.22949-1.07031,4.3252-1.60547,6.28809-1.60547,1.36621,0,2.64453,.26758,3.83496,.80273,1.18848,.53516,2.22949,1.23438,3.12109,2.0957,.89258,.86328,1.59082,1.85938,2.09668,2.98828,.50391,1.12988,.75781,2.29004,.75781,3.47852,0,1.07031-.23828,2.36328-.71387,3.87988-.47656,1.51562-1.26367,2.95898-2.36328,4.3252-1.10059,1.36914-2.58594,2.54199-4.45898,3.52344s-4.20801,1.47168-7.00195,1.47168c-.65527,0-1.33789-.08887-2.05176-.26758-.41602-.05859-.8623-.14746-1.33789-.26758,0,2.67578,.78809,4.66895,2.36426,5.97559,1.57422,1.30859,3.43359,1.96289,5.57422,1.96289Zm-7.49219-11.5957c1.60547,0,3.12207-.44531,4.54883-1.33789,1.42676-.8916,2.66016-1.97559,3.70117-3.25488,1.04004-1.27832,1.85742-2.60059,2.45312-3.96875,.59375-1.36719,.8916-2.52734,.8916-3.47852,0-1.18945-.53516-1.78418-1.60547-1.78418-1.24805,0-2.46777,.50586-3.65625,1.5166-1.19043,1.01172-2.24512,2.22949-3.16699,3.65625-.92188,1.42773-1.68066,2.94336-2.27441,4.54883-.59473,1.60547-.8916,2.97461-.8916,4.10254Z"/></g><g><path class="e" d="M430.09277,247.69187c1.5459-.8916,2.94336-1.99121,4.19238-3.2998,1.00977-1.12891,1.96191-2.49805,2.85352-4.10352,.89258-1.60547,1.33789-3.53711,1.33789-5.79688,0-2.02148-.44531-3.80469-1.33789-5.35156-.8916-1.5459-2.08203-2.85449-3.56738-3.9248-1.4873-1.07031-3.18164-1.87305-5.08398-2.4082-1.90332-.53516-3.86621-.80273-5.88672-.80273-4.10254,0-7.77539,.53516-11.01562,1.60547-3.24121,1.07031-5.97559,2.5127-8.20508,4.32617-2.23047,1.81445-3.9248,3.93945-5.08398,6.37695-1.15918,2.43848-1.73926,4.99512-1.73926,7.6709,0,1.36816,.22266,2.5127,.66895,3.43359,.44531,.92285,.9502,1.69434,1.51562,2.31934,.56445,.62402,1.07031,1.12988,1.5166,1.51562,.44629,.3877,.66895,.72949,.66895,1.02637,0,1.12988-.62402,1.69434-1.87305,1.69434-1.19043,0-2.60156-.26758-4.23633-.80273-1.63672-.53516-3.18164-1.29297-4.6377-2.27441-1.45801-.98145-2.70703-2.16992-3.74609-3.56738-1.04102-1.39648-1.56152-2.98828-1.56152-4.77246,0-3.3291,1.08496-6.43555,3.25586-9.32031,2.16992-2.88379,5.02344-5.38086,8.5625-7.49219,3.53711-2.10938,7.58105-3.77539,12.12988-4.99512,4.54883-1.21777,9.20117-1.82812,13.95898-1.82812,3.38867,0,6.64453,.35645,9.7666,1.07031,3.12109,.71387,5.88672,1.79883,8.29492,3.25586,2.40723,1.45801,4.33887,3.27051,5.79688,5.44043,1.45605,2.1709,2.18555,4.68262,2.18555,7.53711,0,1.72461-.3125,3.33008-.93652,4.81641-.625,1.48633-1.39844,2.83984-2.31934,4.05762-.92285,1.21973-1.91797,2.29004-2.9873,3.21094-1.07031,.92285-2.08301,1.70996-3.0332,2.36426-.95215,.6543-1.76953,1.15918-2.45215,1.51562-.68457,.35742-1.08594,.53516-1.2041,.53516,.05762,0,.62402,.2832,1.69434,.84766,1.07031,.56543,2.22949,1.42676,3.47852,2.58691,1.24902,1.15918,2.39258,2.66113,3.43359,4.50391,1.04004,1.84375,1.56055,4.10254,1.56055,6.77832,0,2.97363-.62402,5.53027-1.87305,7.6709-1.24805,2.14062-2.85352,3.89453-4.81543,5.26172-1.96289,1.36914-4.14746,2.37891-6.55566,3.0332-2.4082,.65332-4.77246,.98047-7.09082,.98047-4.04492,0-7.87988-.71289-11.50586-2.14062-3.62793-1.42676-7.07715-3.00195-10.34668-4.72656-2.02246,2.25977-4.22266,3.96875-6.60059,5.12793-2.37891,1.16016-5.17285,1.73926-8.38379,1.73926-1.84375,0-3.6123-.23828-5.30664-.71289-1.69434-.47559-3.21094-1.16016-4.54883-2.05176s-2.4082-1.96191-3.21094-3.21094-1.2041-2.64551-1.2041-4.19238c0-1.66406,.35645-3.15039,1.07031-4.45898,.71387-1.30762,1.61914-2.4082,2.7207-3.30078,1.09961-.8916,2.31836-1.57422,3.65625-2.05078,1.33789-.47559,2.66113-.71387,3.96973-.71387,2.31836,0,4.59277,.3877,6.82324,1.15918,2.22949,.77344,4.44336,1.72559,6.64453,2.85449l.98047-1.69434c.83203-1.48535,1.69531-3.31445,2.58691-5.48535,.8916-2.16992,1.79785-4.45996,2.7207-6.86816,.9209-2.4082,1.82812-4.8457,2.71973-7.31348,.89258-2.4668,1.75391-4.72754,2.58691-6.77832,.83203-2.05176,1.63477-3.80469,2.4082-5.2627,.77246-1.45605,1.45605-2.36328,2.05176-2.7207,2.14062-1.42676,4.23633-2.39258,6.28809-2.89844,2.05078-.50488,3.58105-.75781,4.59277-.75781,.6543,0,1.07031,.11914,1.24902,.35645,.17871,.23828,.26758,.53516,.26758,.8916,0,.35742-.59473,1.21973-1.78418,2.58691-1.18945,1.36816-2.31836,3.24121-3.38867,5.61914-.29883,.65527-.84766,2.15625-1.65039,4.50391-.80273,2.34961-1.79883,5.07031-2.98828,8.16113-1.18945,3.09277-2.49707,6.31934-3.92383,9.67773-1.42773,3.36035-2.88477,6.34766-4.37109,8.96387-.35645,.65527-.71289,1.2793-1.07031,1.87305-.35645,.59473-.71289,1.18945-1.07031,1.7832,2.49805,1.36914,4.93555,2.55762,7.31445,3.56836,2.37695,1.01172,4.81641,1.51562,7.31348,1.51562,1.66406,0,3.24023-.28125,4.72754-.84668,1.48535-.56445,2.80957-1.38281,3.96875-2.45312s2.08105-2.36328,2.76465-3.87988c.68262-1.5166,1.02637-3.22461,1.02637-5.12891,0-2.91211-.61133-5.2168-1.8291-6.91211-1.21875-1.69434-2.45215-2.60059-3.70117-2.71973-.47656,.17773-.98145,.35645-1.5166,.53516-.47656,.11914-.98047,.23828-1.51562,.35645-.53516,.12012-1.04102,.17871-1.5166,.17871-1.30859,0-2.42383-.3418-3.34473-1.02637-.92285-.68262-1.38281-1.61914-1.38281-2.80957,0-1.30664,.45996-2.30371,1.38281-2.9873,.9209-.68359,1.97656-1.02637,3.16602-1.02637,.6543,0,1.29395,.06055,1.91797,.17871,.62402,.12012,1.2041,.23828,1.73926,.35645,.65332,.17871,1.27832,.32812,1.87305,.44629Zm-43.43652,20.78125c-1.36816,0-2.49707,.44629-3.38965,1.33789-.8916,.89258-1.33789,1.93359-1.33789,3.12207,0,1.19043,.52051,2.15625,1.56152,2.89844,1.03906,.74414,2.27441,1.11523,3.70117,1.11523,1.8418,0,3.43359-.45996,4.77148-1.38281,1.33789-.9209,2.68945-2.33301,4.05859-4.23633-1.72559-.83203-3.36035-1.5166-4.90527-2.05176-1.54785-.53516-3.0332-.80273-4.45996-.80273Z"/><path class="e" d="M472.81445,273.28953c0,1.01172,.26758,1.78418,.80273,2.31934s1.24902,.80273,2.14062,.80273c1.18848,0,2.36328-.38574,3.52344-1.15918,1.15918-.77246,2.18457-1.66406,3.07715-2.67578,1.07031-1.07031,2.05078-2.34863,2.94336-3.83594,.05859-.17773,.20703-.38574,.44531-.62402,.11914-.11816,.29688-.25195,.53516-.40137,.2373-.14746,.50488-.22266,.80273-.22266,.47559,0,.90625,.17773,1.29395,.53516,.38574,.35645,.5791,.77344,.5791,1.24805,0,.23828-.04395,.46191-.13379,.66895-.08887,.20898-.19336,.43262-.31152,.66895-.12012,.23828-.23828,.50586-.35742,.80273-1.30859,2.08203-2.76465,3.9248-4.37012,5.53027-1.36816,1.36816-2.98828,2.61719-4.86133,3.74609s-3.91016,1.69434-6.10938,1.69434c-1.72559,0-3.27051-.23828-4.6377-.71289-1.36914-.47559-2.55762-1.11523-3.56738-1.91797-1.01172-.80273-1.78418-1.73926-2.31934-2.80957s-.80273-2.22949-.80273-3.47852c0-1.96191,.29688-3.80469,.8916-5.53027,.59375-1.72363,1.2334-3.2998,1.91797-4.72656,.68262-1.42773,1.32227-2.68945,1.91797-3.79102,.59277-1.09961,.8916-2.00684,.8916-2.71973,0-.47559-.2832-.83203-.84766-1.07031-.56543-.2373-1.1748-.44629-1.82812-.625-.77344-.17773-1.66504-.32617-2.67578-.44531-1.72559,4.34082-3.36035,7.89258-4.90527,10.6582-1.54688,2.76465-2.7959,4.83105-3.74609,6.19824-.12012,.17871-.34277,.44629-.66895,.80273-.32812,.35742-.75879,.53516-1.29395,.53516-.47656,0-.90527-.19238-1.29297-.5791-.38574-.38672-.58008-.81738-.58008-1.29395,0-.41504,.13379-.81641,.40137-1.2041,.26758-.38574,.46191-.69824,.58008-.93652,.83203-1.18848,2.00684-3.07715,3.52344-5.66309,1.51562-2.58691,2.92773-5.99023,4.23633-10.21289-.59473-.41504-1.10059-.9502-1.5166-1.60547-.35645-.53516-.68359-1.21777-.98047-2.05078-.29883-.83203-.44629-1.81348-.44629-2.94336,0-.89258,.16309-1.73926,.49023-2.54199,.32617-.80273,.75879-1.50098,1.29395-2.09668,.53516-.59375,1.09961-1.07031,1.69434-1.42676,.59375-.35645,1.15918-.53516,1.69434-.53516,.59375,0,1.21875,.16406,1.87305,.49023,.6543,.32812,1.24902,.71387,1.78418,1.16016,.53516,.44531,.98145,.95117,1.33789,1.51562,.35645,.56641,.53516,1.05664,.53516,1.47168,0,1.19043-.19336,2.17188-.58008,2.94336-.3877,.77344-.5791,1.5166-.5791,2.23047,0,.6543,.35645,1.12988,1.07031,1.42676,.71289,.29785,1.60547,.44629,2.67578,.44629,1.00977,0,1.85742-.05859,2.54199-.17871,.68262-.11816,1.29297-.25195,1.82812-.40137,.53516-.14746,1.03906-.28125,1.51562-.40137,.47559-.11816,.98145-.17871,1.5166-.17871,1.07031,0,1.94727,.41699,2.63086,1.24902,.68359,.83301,1.02637,1.84375,1.02637,3.03223,0,1.01172-.34277,2.21582-1.02637,3.6123-.68359,1.39844-1.44238,2.92969-2.27441,4.59375-.83301,1.66504-1.59082,3.4043-2.27441,5.21777-.68359,1.81445-1.02539,3.6123-1.02539,5.39551Z"/><path class="e" d="M519.99609,271.41648c-1.30859,2.08203-2.94336,3.9248-4.90527,5.53027-1.66504,1.36816-3.73242,2.61719-6.19922,3.74609-2.46777,1.12891-5.39551,1.69434-8.78516,1.69434-2.25977,0-4.34082-.32715-6.24316-.98047-1.90332-.6543-3.53809-1.56152-4.90527-2.7207-1.36914-1.15918-2.43945-2.54199-3.21094-4.14746-.77246-1.60547-1.16016-3.3584-1.16016-5.2627,0-3.38867,.625-6.47949,1.87305-9.27539,1.24902-2.79395,2.82422-5.1875,4.72754-7.17969,1.90234-1.99219,3.96875-3.52344,6.19922-4.59375,2.22949-1.07031,4.3252-1.60547,6.28809-1.60547,1.36621,0,2.64453,.26758,3.83496,.80273,1.18848,.53516,2.22949,1.23438,3.12109,2.0957,.89258,.86328,1.59082,1.85938,2.09668,2.98828,.50391,1.12988,.75781,2.29004,.75781,3.47852,0,1.07031-.23828,2.36328-.71387,3.87988-.47656,1.51562-1.26367,2.95898-2.36328,4.3252-1.10059,1.36914-2.58594,2.54199-4.45898,3.52344s-4.20801,1.47168-7.00195,1.47168c-.65527,0-1.33789-.08887-2.05176-.26758-.41602-.05859-.8623-.14746-1.33789-.26758,0,2.67578,.77246,4.72754,2.31934,6.1543,1.5459,1.42676,3.38965,2.14062,5.53027,2.14062,2.08008,0,3.98242-.43066,5.70801-1.29297,1.72363-.86133,3.17969-1.79785,4.37012-2.80957,1.42676-1.18945,2.64551-2.55664,3.65723-4.10352,.05859-.17773,.20703-.38574,.44531-.62402,.11914-.11816,.29688-.25195,.53516-.40137,.2373-.14746,.50488-.22266,.80273-.22266,.47559,0,.90625,.17773,1.29395,.53516,.38574,.35645,.5791,.77344,.5791,1.24805,0,.23828-.04395,.46191-.13379,.66895-.08887,.20898-.19336,.43262-.31152,.66895-.12012,.23828-.23828,.50586-.35742,.80273Zm-23.99219-6.42188c1.60547,0,3.12207-.44531,4.54883-1.33789,1.42676-.8916,2.66016-1.97559,3.70117-3.25488,1.04004-1.27832,1.85742-2.60059,2.45312-3.96875,.59375-1.36719,.8916-2.52734,.8916-3.47852,0-1.18945-.53516-1.78418-1.60547-1.78418-1.24805,0-2.46777,.50586-3.65625,1.5166-1.19043,1.01172-2.24512,2.22949-3.16699,3.65625-.92188,1.42773-1.68066,2.94336-2.27441,4.54883-.59473,1.60547-.8916,2.97461-.8916,4.10254Z"/><path class="e" d="M562.3623,271.41648c-1.30859,2.08203-2.76562,3.9248-4.37109,5.53027-1.36816,1.36816-2.9873,2.61719-4.86035,3.74609s-3.91113,1.69434-6.11035,1.69434c-2.49707,0-4.6084-.63965-6.33203-1.91699-1.72559-1.27832-2.73633-3.16699-3.03223-5.66406-1.19043,1.4873-2.46875,2.76465-3.83594,3.83496-1.19043,.95215-2.52832,1.81445-4.01367,2.58691-1.48633,.77246-3.0918,1.15918-4.81641,1.15918-1.18945,0-2.33398-.22266-3.43359-.66895-1.10059-.44531-2.05176-1.08398-2.85449-1.91699-.80273-.83203-1.44238-1.81348-1.91699-2.94336-.47559-1.12891-.71387-2.37793-.71387-3.74609,0-3.21094,.61035-6.3916,1.82812-9.54395,1.21875-3.15039,2.80957-5.98926,4.77246-8.51758,1.96191-2.52637,4.16113-4.5625,6.59961-6.10938,2.4375-1.5459,4.875-2.31934,7.31445-2.31934,1.7832,0,3.2998,.22266,4.54785,.66895,1.24902,.44629,2.25977,.93652,3.0332,1.47168,.8916,.65527,1.60547,1.33789,2.14062,2.05176,.65332,0,1.35156,.0752,2.0957,.22266,.74316,.14941,1.42676,.3877,2.05176,.71387,.62402,.32715,1.14355,.75781,1.56055,1.29297,.41504,.53516,.62402,1.19043,.62402,1.96191,0,.65527-.26758,1.72559-.80273,3.21094-.53516,1.4873-1.12988,3.1377-1.7832,4.9502-.65527,1.81445-1.24902,3.6875-1.78418,5.61914-.53516,1.93262-.80273,3.64258-.80273,5.12891,0,.71289,.22266,1.30859,.66895,1.7832,.44629,.47656,1.05469,.71387,1.82812,.71387,1.18945,0,2.36426-.38574,3.52344-1.15918,1.15918-.77246,2.18555-1.66406,3.07715-2.67578,1.07031-1.07031,2.05176-2.34863,2.94336-3.83594,.05859-.17773,.20801-.38574,.44629-.62402,.11816-.11816,.29688-.25195,.53516-.40137,.23633-.14746,.50391-.22266,.80273-.22266,.47461,0,.90527,.17773,1.29297,.53516,.38574,.35645,.58008,.77344,.58008,1.24805,0,.23828-.04492,.46191-.13379,.66895-.08984,.20898-.19434,.43262-.3125,.66895-.12012,.23828-.23828,.50586-.35645,.80273Zm-20.69336-15.78613c0-1.30762-.31152-2.27441-.93652-2.89941-.62402-.62402-1.38184-.93652-2.27344-.93652-1.30957,0-2.64746,.68457-4.01367,2.05176-1.36914,1.36816-2.60254,3.04785-3.70215,5.03906-1.10059,1.99316-2.00684,4.14746-2.71973,6.4668-.71387,2.31836-1.07031,4.40039-1.07031,6.24316,0,2.67578,.86133,4.01367,2.58594,4.01367,1.07031,0,2.30371-.71387,3.70215-2.14062,1.39551-1.42676,2.71973-3.18066,3.96875-5.2627,1.24902-2.08008,2.30371-4.26562,3.16602-6.55566,.86133-2.28809,1.29297-4.29492,1.29297-6.01953Z"/><path class="e" d="M599.01953,274.895c-1.18945,1.42773-2.49707,2.67578-3.92383,3.74609-1.19043,.95215-2.57324,1.81445-4.14746,2.58691-1.57617,.77246-3.25586,1.15918-5.04004,1.15918-1.60547,0-3.22559-.50586-4.86035-1.51562-1.63672-1.01074-3.09277-2.24414-4.37012-3.70215-1.28027-1.45605-2.33496-2.97266-3.16699-4.54883-.83301-1.57422-1.24805-2.92773-1.24805-4.05762,0-.59375,.66895-1.29395,2.00684-2.09668s2.79395-1.73926,4.37012-2.80957c1.57422-1.07031,3.03223-2.28809,4.37012-3.65625,1.33789-1.36719,2.00684-2.94336,2.00684-4.72754,0-1.66406-.68457-2.49707-2.05176-2.49707-1.60449,0-3.25488,.65527-4.94922,1.96191-1.69531,1.30859-3.25586,3.16699-4.68262,5.57422-1.42773,2.4082-2.58691,5.32227-3.47852,8.74121-.89258,3.41992-1.33789,7.26953-1.33789,11.55078,0,.53516-.10449,.96582-.3125,1.29297-.20898,.32617-.63965,.49023-1.29297,.49023-.5957,0-1.38281-.0752-2.36426-.22266-.98047-.14941-1.94824-.40137-2.89844-.75781-.95215-.35742-1.76953-.83203-2.45312-1.42773-.68262-.59375-1.02539-1.36719-1.02539-2.31836,0-2.61621,.32715-5.88672,.98145-9.81152,.65332-3.9248,1.60547-8.04102,2.85352-12.35254,1.24902-4.31055,2.75-8.62109,4.50488-12.93359,1.75293-4.31055,3.70117-8.1748,5.8418-11.59473,2.14062-3.41895,4.45996-6.19922,6.95703-8.33984s5.14258-3.21094,7.9375-3.21094c.95117,0,1.90234,.25391,2.85449,.75879,.9502,.50586,1.81348,1.15918,2.58691,1.96191,.77148,.80273,1.38184,1.66504,1.82812,2.58691s.66895,1.76953,.66895,2.54199c0,1.24805-.3125,2.63086-.93652,4.14746-.62402,1.51562-1.39746,3.0625-2.31934,4.6377-.92188,1.57617-1.91699,3.10742-2.9873,4.59375s-2.08203,2.80957-3.0332,3.96875-1.75391,2.11133-2.4082,2.85449c-.6543,.74414-1.01172,1.14551-1.07031,1.2041,.05859-.05859,.32617-.19238,.80273-.40137,.47559-.20801,1.05566-.43066,1.73926-.66895,.68359-.2373,1.47168-.45996,2.36426-.66895,.8916-.20801,1.8125-.3125,2.76465-.3125,1.5459,0,2.92773,.68457,4.14746,2.05176,1.21777,1.36816,1.82812,2.97363,1.82812,4.81641,0,1.72461-.74414,3.33008-2.22949,4.81641-1.4873,1.48633-3.12207,2.82422-4.90527,4.0127-2.08203,1.36914-4.43066,2.64648-7.04688,3.83594,0,.47656,.25293,1.15918,.75879,2.05078,.50391,.89258,1.14355,1.81445,1.91699,2.76562,.77246,.95117,1.63477,1.76953,2.58691,2.45215,.9502,.68457,1.90234,1.02637,2.85449,1.02637,1.7832,0,3.0459-.20801,3.79004-.625,.74316-.41504,1.53027-.9502,2.36426-1.60547,.41504-.29688,.74219-.54883,.98047-.75781,.2373-.20801,.56445-.3125,.98145-.3125,.47559,0,.90625,.17871,1.29297,.53516,.38672,.35742,.58008,.77344,.58008,1.24902,0,.35645-.17871,.77344-.53516,1.24902-.17871,.23828-.32715,.47656-.44629,.71289Zm-8.20508-47.71777c0-1.18848-.53516-1.7832-1.60547-1.7832-.83398,0-1.8291,.6543-2.98828,1.96191-1.15918,1.30859-2.4082,3.15234-3.74609,5.53027-1.33789,2.37891-2.73535,5.21777-4.19141,8.51758-1.45801,3.2998-2.89941,6.91211-4.32617,10.83691,.9502-.8916,2.03613-1.99121,3.25586-3.2998,1.21777-1.30762,2.45215-2.75,3.70117-4.32617,1.24805-1.5752,2.4668-3.19531,3.65625-4.86133,1.18945-1.66406,2.24414-3.26953,3.16699-4.81641,.9209-1.54492,1.66406-3.00195,2.22949-4.37012,.56445-1.36719,.84766-2.49707,.84766-3.38965Z"/></g></g><g><g><path class="c" d="M542.26073,20.9914c-3.99518,2.95818-6.61683,8.13398-8.26865,12.74886,6.5463,3.25683,15.69504-.73711,20.84014-9.26457,5.08838-8.43345,4.42853-18.24793-1.30654-22.60133-1.76604,5.44935-5.49379,14.83875-11.26495,19.11704Z"/><path class="c" d="M539.77357,19.49076c5.65772-4.19094,9.34966-13.29421,11.15768-18.78479-6.317-1.72421-14.25444,2.27692-18.916,10.00296-4.55033,7.54169-4.50278,16.19466-.33444,21.05344,1.66467-4.49418,4.23779-9.41546,8.09276-12.2716Z"/></g><g><path class="c" d="M581.48198,65.74548c4.80065,3.55457,7.95083,9.77386,9.93568,15.31913-7.86609,3.91343-18.85929-.88571-25.04168-11.13238-6.11423-10.1337-5.32136-21.92687,1.56995-27.15794,2.12209,6.54798,6.60138,17.83036,13.53606,22.9712Z"/><path class="c" d="M584.47056,63.9423c-6.79837-5.03587-11.23462-15.97443-13.40717-22.57196,7.59056-2.07183,17.12826,2.73597,22.72962,12.01964,5.46771,9.06216,5.41058,19.45964,.40187,25.29798-2.00028-5.40025-5.09217-11.31369-9.72432-14.74566Z"/></g></g><g><g><path class="c" d="M57.77315,20.9914c3.99518,2.95818,6.61683,8.13398,8.26865,12.74886-6.5463,3.25683-15.69504-.73711-20.84014-9.26457-5.08838-8.43345-4.42853-18.24793,1.30654-22.60133,1.76604,5.44935,5.49379,14.83875,11.26495,19.11704Z"/><path class="c" d="M60.2603,19.49076c-5.65772-4.19094-9.34966-13.29421-11.15768-18.78479,6.317-1.72421,14.25444,2.27692,18.916,10.00296,4.55033,7.54169,4.50278,16.19466,.33444,21.05344-1.66467-4.49418-4.23779-9.41546-8.09276-12.2716Z"/></g><g><path class="c" d="M18.5519,65.74548c-4.80065,3.55457-7.95083,9.77386-9.93568,15.31913,7.86609,3.91343,18.85929-.88571,25.04168-11.13238,6.11423-10.1337,5.32136-21.92687-1.56995-27.15794-2.12209,6.54798-6.60138,17.83036-13.53606,22.9712Z"/><path class="c" d="M15.56331,63.9423c6.79837-5.03587,11.23462-15.97443,13.40717-22.57196-7.59056-2.07183-17.12826,2.73597-22.72962,12.01964-5.46771,9.06216-5.41058,19.45964-.40187,25.29798,2.00028-5.40025,5.09217-11.31369,9.72432-14.74566Z"/></g></g></svg>