<?xml version="1.0" encoding="UTF-8"?><svg id="a" xmlns="http://www.w3.org/2000/svg" viewBox="0 0 501.20148 205.62586"><defs><style>.b{fill:#019a4a;}.c{fill:#fffcf0;}</style></defs><g><rect class="b" x="2.99514" y="71.64811" width="494.51251" height="55.85286"/><g><path d="M16.03519,90.29978v-5.12402h24.14258v5.12402h-9v24.27246h-6.14258v-24.27246h-9Z"/><path d="M44.168,114.57224v-29.39648h6.21582v12.12891h12.61621v-12.12891h6.20117v29.39648h-6.20117v-12.14355h-12.61621v12.14355h-6.21582Z"/><path d="M80.54105,85.17575v29.39648h-6.21582v-29.39648h6.21582Z"/><path d="M85.66409,114.57224v-29.39648h11.59766c2.2207,0,4.11719,.39453,5.69141,1.18457,1.57422,.78906,2.77539,1.9043,3.60352,3.34375,.82715,1.44043,1.24121,3.13184,1.24121,5.07422,0,1.95215-.4209,3.62891-1.2627,5.03125-.84277,1.40137-2.06055,2.47559-3.65332,3.22266-1.59375,.74609-3.51953,1.11914-5.77734,1.11914h-7.76562v-4.99512h6.76074c1.18652,0,2.17188-.16211,2.95703-.48828,.78418-.3252,1.37012-.8125,1.75781-1.46387,.3877-.65039,.58203-1.45898,.58203-2.42578,0-.97559-.19434-1.79883-.58203-2.46875s-.97559-1.17969-1.76562-1.52832c-.78906-.34961-1.78223-.52441-2.97754-.52441h-4.19141v24.31543h-6.21582Zm15.87598-13.37793l7.30566,13.37793h-6.86133l-7.14844-13.37793h6.7041Z"/><path d="M122.61136,114.57224h-10.4209v-29.39648h10.50684c2.95703,0,5.50293,.58594,7.63672,1.75879,2.13379,1.17188,3.77734,2.85352,4.93066,5.04492,1.15234,2.19141,1.72949,4.81348,1.72949,7.86621,0,3.06152-.57715,5.69336-1.72949,7.89453-1.15332,2.20117-2.80469,3.88965-4.95215,5.06641-2.14844,1.17676-4.71582,1.76562-7.70117,1.76562Zm-4.20508-5.3252h3.94727c1.83691,0,3.38477-.32812,4.64355-.9834,1.25781-.65527,2.20508-1.6748,2.8418-3.05762,.63574-1.38184,.9541-3.16895,.9541-5.36035,0-2.17285-.31836-3.94727-.9541-5.3252-.63672-1.37793-1.58203-2.39258-2.83496-3.04297-1.25391-.65137-2.79883-.97656-4.63672-.97656h-3.96094v18.74609Z"/><path d="M150.95901,85.17575h7.66504l8.0957,19.75098h.34473l8.0957-19.75098h7.66406v29.39648h-6.02832v-19.13379h-.24414l-7.60742,18.99023h-4.10547l-7.60742-19.06152h-.24316v19.20508h-6.0293v-29.39648Z"/><path d="M193.00101,114.57224h-6.66016l10.14746-29.39648h8.00977l10.13379,29.39648h-6.66016l-7.36328-22.67871h-.22949l-7.37793,22.67871Zm-.41602-11.55469h15.73145v4.85156h-15.73145v-4.85156Z"/><path d="M229.93362,85.17575h6.14355v20.49707c0,1.89453-.42383,3.54102-1.27051,4.9375-.84668,1.39746-2.02148,2.47363-3.52441,3.22949-1.50195,.75586-3.24805,1.13477-5.23828,1.13477-1.77051,0-3.37598-.31445-4.81641-.94043-1.44043-.62695-2.58105-1.58398-3.42285-2.87109-.84277-1.28711-1.25879-2.90625-1.24902-4.8584h6.18652c.01953,.77539,.17969,1.4375,.48047,1.98828,.30176,.5498,.71777,.9707,1.24902,1.2627s1.16016,.4375,1.8877,.4375c.76562,0,1.41406-.16504,1.94531-.49512,.53027-.33008,.93457-.81543,1.21289-1.45703,.27734-.64062,.41602-1.42969,.41602-2.36816v-20.49707Z"/><path d="M268.2139,99.874c0,3.20605-.60449,5.93262-1.81543,8.18164s-2.85645,3.96387-4.9375,5.14551c-2.08105,1.18262-4.41895,1.77344-7.01172,1.77344-2.6123,0-4.95703-.59375-7.0332-1.78027-2.07715-1.18652-3.71777-2.9043-4.92383-5.15332-1.20605-2.24805-1.80859-4.9707-1.80859-8.16699,0-3.20605,.60254-5.93262,1.80859-8.18164s2.84668-3.96387,4.92383-5.14551c2.07617-1.18164,4.4209-1.77344,7.0332-1.77344,2.59277,0,4.93066,.5918,7.01172,1.77344s3.72656,2.89648,4.9375,5.14551,1.81543,4.97559,1.81543,8.18164Zm-6.30078,0c0-2.07617-.30859-3.82715-.92578-5.25391-.61719-1.4248-1.48535-2.50684-2.60547-3.24316-1.11914-.7373-2.43066-1.10547-3.93262-1.10547-1.50293,0-2.81348,.36816-3.93359,1.10547-1.11914,.73633-1.9873,1.81836-2.60449,3.24316-.61719,1.42676-.92578,3.17773-.92578,5.25391s.30859,3.82812,.92578,5.25391,1.48535,2.50684,2.60449,3.24316c1.12012,.7373,2.43066,1.10547,3.93359,1.10547,1.50195,0,2.81348-.36816,3.93262-1.10547,1.12012-.73633,1.98828-1.81738,2.60547-3.24316s.92578-3.17773,.92578-5.25391Z"/><path d="M272.80667,114.57224v-29.39648h11.59766c2.2207,0,4.11719,.39453,5.69141,1.18457,1.57422,.78906,2.77539,1.9043,3.60352,3.34375,.82715,1.44043,1.24121,3.13184,1.24121,5.07422,0,1.95215-.4209,3.62891-1.2627,5.03125-.84277,1.40137-2.06055,2.47559-3.65332,3.22266-1.59375,.74609-3.51953,1.11914-5.77734,1.11914h-7.76562v-4.99512h6.76074c1.18652,0,2.17188-.16211,2.95703-.48828,.78418-.3252,1.37012-.8125,1.75781-1.46387,.3877-.65039,.58203-1.45898,.58203-2.42578,0-.97559-.19434-1.79883-.58203-2.46875s-.97559-1.17969-1.76562-1.52832c-.78906-.34961-1.78223-.52441-2.97754-.52441h-4.19141v24.31543h-6.21582Zm15.87598-13.37793l7.30566,13.37793h-6.86133l-7.14844-13.37793h6.7041Z"/><path d="M308.70511,114.57224v-29.39648h11.59766c2.2207,0,4.11719,.39453,5.69141,1.18457,1.57422,.78906,2.77539,1.9043,3.60352,3.34375,.82715,1.44043,1.24121,3.13184,1.24121,5.07422,0,1.95215-.4209,3.62891-1.2627,5.03125-.84277,1.40137-2.06055,2.47559-3.65332,3.22266-1.59375,.74609-3.51953,1.11914-5.77734,1.11914h-7.76562v-4.99512h6.76074c1.18652,0,2.17188-.16211,2.95703-.48828,.78418-.3252,1.37012-.8125,1.75781-1.46387,.3877-.65039,.58203-1.45898,.58203-2.42578,0-.97559-.19434-1.79883-.58203-2.46875s-.97559-1.17969-1.76562-1.52832c-.78906-.34961-1.78223-.52441-2.97754-.52441h-4.19141v24.31543h-6.21582Zm15.87598-13.37793l7.30566,13.37793h-6.86133l-7.14844-13.37793h6.7041Z"/><path d="M335.2305,114.57224v-29.39648h19.80859v5.12402h-13.59277v7.00488h12.57324v5.12402h-12.57324v7.01953h13.65039v5.12402h-19.86621Z"/><path d="M359.99124,114.57224v-29.39648h6.21582v24.27246h12.60254v5.12402h-18.81836Z"/><path d="M382.92776,114.57224v-29.39648h19.80859v5.12402h-13.59277v7.00488h12.57324v5.12402h-12.57324v7.01953h13.65039v5.12402h-19.86621Z"/><path d="M412.75491,114.57224h-6.66016l10.14746-29.39648h8.00977l10.13379,29.39648h-6.66016l-7.36328-22.67871h-.22949l-7.37793,22.67871Zm-.41602-11.55469h15.73145v4.85156h-15.73145v-4.85156Z"/><path d="M453.17483,93.62986c-.11523-1.15723-.60742-2.05664-1.47852-2.69824-.87109-.64062-2.05273-.96191-3.54492-.96191-1.01465,0-1.87109,.1416-2.56934,.42383-.69922,.28223-1.23242,.67188-1.60059,1.16992-.36914,.49707-.55273,1.06152-.55273,1.69336-.01953,.52637,.09277,.98535,.33691,1.37793s.58203,.72949,1.0127,1.01172c.43066,.2832,.92773,.52637,1.49219,.73242s1.16797,.37988,1.80859,.52344l2.6416,.63184c1.28223,.28711,2.45898,.66992,3.53027,1.14844,1.07227,.47852,2,1.06738,2.78516,1.76562,.78418,.69824,1.39453,1.52148,1.83008,2.46875s.65723,2.0332,.66699,3.25879c-.00977,1.79883-.46582,3.35645-1.37012,4.67188s-2.20605,2.33496-3.9043,3.05762c-1.69922,.72168-3.74414,1.08301-6.13672,1.08301-2.37305,0-4.4375-.36328-6.19336-1.09082-1.75586-.72656-3.12402-1.80566-4.10547-3.23633-.98047-1.43066-1.49512-3.20312-1.54297-5.31836h6.01465c.06641,.98535,.35156,1.80664,.85352,2.46191,.50293,.65527,1.17773,1.14844,2.02441,1.47852s1.80566,.49512,2.87793,.49512c1.05273,0,1.96875-.15332,2.74805-.45996,.78027-.30566,1.38574-.73145,1.81641-1.27734,.43066-.54492,.64551-1.17188,.64551-1.87988,0-.66016-.19336-1.21484-.58105-1.66504s-.95215-.83301-1.69336-1.14844c-.74219-.31543-1.64844-.60254-2.7207-.86133l-3.2002-.80371c-2.47852-.60254-4.43555-1.54492-5.87109-2.82812-1.43555-1.28223-2.14844-3.00879-2.13867-5.18164-.00977-1.7793,.4668-3.33398,1.42773-4.66504,.96191-1.3291,2.28516-2.36816,3.96875-3.11426,1.68457-.74609,3.59863-1.12012,5.74219-1.12012,2.18164,0,4.08789,.37402,5.71973,1.12012s2.90137,1.78516,3.81055,3.11426c.90918,1.33105,1.37793,2.87109,1.40723,4.62207h-5.95703Z"/><path d="M463.69534,114.57224v-29.39648h19.80859v5.12402h-13.59277v7.00488h12.57324v5.12402h-12.57324v7.01953h13.65039v5.12402h-19.86621Z"/></g></g><g><g><path class="c" d="M35.33401,4.70212h11.02637V38.57224c0,3.80273-.9043,7.12988-2.71191,9.98242-1.80859,2.85156-4.33398,5.07227-7.57617,6.65918-3.24316,1.58789-7.02051,2.38086-11.33301,2.38086-4.3291,0-8.11523-.79297-11.35742-2.38086-3.24316-1.58691-5.76465-3.80762-7.56348-6.65918-1.7998-2.85254-2.69922-6.17969-2.69922-9.98242V4.70212H14.14554V37.62986c0,1.98633,.4375,3.75195,1.31152,5.29688s2.10938,2.75879,3.70508,3.6416,3.45508,1.32422,5.57715,1.32422c2.13965,0,4.00293-.44141,5.58984-1.32422,1.58789-.88281,2.81836-2.09668,3.69336-3.6416,.87402-1.54492,1.31152-3.31055,1.31152-5.29688V4.70212Z"/><path class="c" d="M99.04983,4.70212V56.85642h-9.52441l-22.69043-32.82617h-.38184V56.85642h-11.02637V4.70212h9.67676l22.51172,32.7998h.45898V4.70212h10.97559Z"/><path class="c" d="M108.14065,56.85642V4.70212h20.88184c3.83691,0,7.03711,.56836,9.60059,1.70605s4.49023,2.71191,5.78125,4.72363c1.29004,2.01172,1.93555,4.3252,1.93555,6.93945,0,2.03711-.4082,3.82422-1.22266,5.36133-.81543,1.53613-1.93164,2.79297-3.34863,3.76855-1.41797,.97656-3.03516,1.66797-4.85156,2.0752v.50977c1.98633,.08496,3.84961,.64551,5.58984,1.68066,1.74023,1.03613,3.15332,2.48242,4.24023,4.3418,1.08594,1.85938,1.62988,4.07031,1.62988,6.63379,0,2.76758-.68359,5.2334-2.0498,7.39844-1.36719,2.16406-3.38379,3.875-6.04883,5.13086-2.66504,1.25684-5.9502,1.88477-9.85547,1.88477h-22.28223Zm11.02637-30.33008h8.1748c1.51074,0,2.85645-.26758,4.03613-.80176,1.17969-.53516,2.11426-1.29492,2.80176-2.2793s1.03125-2.16504,1.03125-3.54004c0-1.88477-.66699-3.4043-1.99902-4.55859-1.33301-1.1543-3.22168-1.73145-5.66602-1.73145h-8.37891v12.91113Zm0,21.31543h8.98926c3.07324,0,5.31445-.58984,6.72363-1.77051,1.40918-1.17969,2.11328-2.75391,2.11328-4.72363,0-1.44238-.34766-2.71582-1.04395-3.82031-.69629-1.10352-1.68457-1.96875-2.9668-2.59766-1.28223-.62793-2.80566-.94141-4.57129-.94141h-9.24414v13.85352Z"/><path class="c" d="M203.45901,30.77927c0,5.6875-1.07422,10.52637-3.22168,14.51562s-5.06738,7.0332-8.75977,9.12988-7.83984,3.14453-12.44043,3.14453c-4.63477,0-8.79492-1.05273-12.47852-3.15723-3.68359-2.10547-6.5957-5.15332-8.73438-9.14258-2.13965-3.98926-3.20898-8.81934-3.20898-14.49023,0-5.6875,1.06934-10.52637,3.20898-14.51562,2.13867-3.98926,5.05078-7.0332,8.73438-9.12988s7.84375-3.14453,12.47852-3.14453c4.60059,0,8.74805,1.04785,12.44043,3.14453s6.6123,5.14062,8.75977,9.12988,3.22168,8.82812,3.22168,14.51562Zm-11.17969,0c0-3.68359-.54688-6.79102-1.64258-9.32031-1.09473-2.53027-2.63574-4.44824-4.62207-5.75586-1.98633-1.30664-4.3125-1.96094-6.97754-1.96094s-4.99121,.6543-6.97754,1.96094c-1.98633,1.30762-3.52734,3.22559-4.62207,5.75586-1.09473,2.5293-1.64258,5.63672-1.64258,9.32031,0,3.68457,.54785,6.79102,1.64258,9.32031,1.09473,2.53027,2.63574,4.44824,4.62207,5.75586s4.3125,1.96094,6.97754,1.96094,4.99121-.65332,6.97754-1.96094,3.52734-3.22559,4.62207-5.75586c1.0957-2.5293,1.64258-5.63574,1.64258-9.32031Z"/><path class="c" d="M219.55374,4.70212l10.51758,17.77539h.40723l10.56836-17.77539h12.45312l-15.91602,26.07715,16.27246,26.07715h-12.68164l-10.69629-17.80078h-.40723l-10.69531,17.80078h-12.63184l16.32422-26.07715-16.01855-26.07715h12.50391Z"/><path class="c" d="M271.47855,4.70212V56.85642h-11.02637V4.70212h11.02637Z"/><path class="c" d="M324.19241,4.70212V56.85642h-9.52441l-22.69043-32.82617h-.38184V56.85642h-11.02637V4.70212h9.67676l22.51172,32.7998h.45898V4.70212h10.97559Z"/><path class="c" d="M367.86722,21.56052c-.35645-1.23926-.85742-2.33887-1.50293-3.29785s-1.43066-1.77441-2.35547-2.44531c-.92578-.66992-1.97754-1.18359-3.1582-1.54004-1.17969-.35645-2.48242-.53516-3.9082-.53516-2.66602,0-5.00488,.66211-7.0166,1.98633s-3.57812,3.24707-4.69824,5.76855c-1.12012,2.52051-1.68066,5.59863-1.68066,9.23145s.55176,6.72266,1.65527,9.26953,2.66504,4.48633,4.68555,5.81934c2.02051,1.33203,4.40625,1.99902,7.15625,1.99902,2.49512,0,4.62988-.44629,6.4043-1.33691,1.77441-.8916,3.13281-2.15234,4.0752-3.78223s1.41309-3.55664,1.41309-5.78125l2.24121,.33105h-13.44629v-8.30176h21.82422v6.57031c0,4.58398-.96777,8.51855-2.90332,11.80371s-4.60059,5.81543-7.99609,7.58887c-3.39551,1.77441-7.2832,2.66113-11.66309,2.66113-4.88965,0-9.18555-1.08203-12.88574-3.24707-3.70215-2.16406-6.58301-5.24609-8.64648-9.24414-2.0625-3.99805-3.09375-8.74707-3.09375-14.24805,0-4.22754,.61523-8,1.84668-11.31934,1.23047-3.31934,2.95801-6.13281,5.18164-8.44238,2.22461-2.30859,4.81348-4.06543,7.76758-5.27148,2.9541-1.20508,6.1543-1.80762,9.60059-1.80762,2.9541,0,5.7041,.42871,8.25098,1.28516,2.54688,.8584,4.80859,2.06738,6.78711,3.62891,1.97754,1.5625,3.59473,3.41699,4.85059,5.56445,1.25684,2.14844,2.06348,4.5127,2.41992,7.09277h-11.20508Z"/></g><g><g><path class="c" d="M419.23831,17.45115v-.92773h20.04883v.92773h-9.56055v28.74121h-.92773V17.45115h-9.56055Z"/><path class="c" d="M446.41507,46.19236V16.52341h.92676v14.37109h18.89062v-14.37109h.92773v29.66895h-.92773v-14.37109h-18.89062v14.37109h-.92676Z"/><path class="c" d="M476.43069,46.19236V16.52341h15.81934v.92773h-14.89258v13.44336h14.02344v.92676h-14.02344v13.44434h15.29883v.92676h-16.22559Z"/></g><rect class="c" x="414.62101" y="4.03372" width="83.11753" height=".6805"/><rect class="c" x="414.62101" y="56.98506" width="83.11753" height=".6805"/></g></g><g><g><path class="c" d="M103.9346,201.2656v-59.02344h22.45703c4.12598,0,7.56738,.64453,10.32422,1.93164s4.8291,3.06934,6.2168,5.3457c1.3877,2.27734,2.08203,4.89453,2.08203,7.85352,0,2.30566-.43848,4.32812-1.31445,6.06641-.87695,1.73926-2.07715,3.16113-3.60156,4.26562s-3.26367,1.8877-5.21777,2.34863v.57617c2.13672,.09668,4.13965,.73047,6.01172,1.90234,1.87109,1.17188,3.3916,2.80957,4.55957,4.91406,1.16895,2.10352,1.75293,4.60645,1.75293,7.50684,0,3.13281-.73535,5.92285-2.2041,8.37305-1.4707,2.44922-3.63867,4.38477-6.50488,5.80664s-6.39941,2.13281-10.59863,2.13281h-23.96289Zm11.8584-34.32422h8.79102c1.625,0,3.07129-.30273,4.34082-.9082,1.26855-.60547,2.27344-1.46484,3.0127-2.5791s1.1084-2.4502,1.1084-4.00586c0-2.13281-.71582-3.85254-2.14941-5.15918-1.43359-1.30566-3.46484-1.95996-6.09375-1.95996h-9.00977v14.6123Zm0,24.12207h9.66699c3.30469,0,5.71484-.66699,7.23047-2.00293,1.51562-1.33496,2.27344-3.11719,2.27344-5.34668,0-1.63281-.375-3.07324-1.12305-4.32227-.74902-1.24902-1.8125-2.22852-3.19043-2.93945-1.37891-.71094-3.01758-1.06641-4.91602-1.06641h-9.94141v15.67773Z"/><path class="c" d="M173.68753,202.12986c-4.25488,0-7.92871-.95508-11.02344-2.86719-3.09473-1.91113-5.48145-4.58203-7.16113-8.01172-1.68066-3.42969-2.51953-7.41113-2.51953-11.94629,0-4.57227,.83887-8.57324,2.51953-12.00293,1.67969-3.42969,4.06641-6.10059,7.16113-8.0127,3.09473-1.91113,6.76855-2.86719,11.02344-2.86719,4.25391,0,7.92871,.95605,11.02344,2.86719,3.09473,1.91211,5.48145,4.58301,7.16113,8.0127s2.51953,7.43066,2.51953,12.00293c0,4.53516-.83984,8.5166-2.51953,11.94629s-4.06641,6.10059-7.16113,8.01172c-3.09473,1.91211-6.76953,2.86719-11.02344,2.86719Zm.05469-9.50977c1.93457,0,3.55078-.58105,4.84766-1.74414,1.2959-1.16211,2.27734-2.75195,2.94336-4.76953,.66699-2.01758,1-4.31348,1-6.8877,0-2.5752-.33301-4.87109-1-6.88867-.66602-2.0166-1.64746-3.61133-2.94336-4.7832-1.29688-1.17188-2.91309-1.75879-4.84766-1.75879-1.9541,0-3.59277,.58691-4.91602,1.75879-1.32422,1.17188-2.31836,2.7666-2.98535,4.7832-.66602,2.01758-.99902,4.31348-.99902,6.88867,0,2.57422,.33301,4.87012,.99902,6.8877,.66699,2.01758,1.66113,3.60742,2.98535,4.76953,1.32324,1.16309,2.96191,1.74414,4.91602,1.74414Z"/><path class="c" d="M210.19437,156.99802l7.72266,15.47656,7.91504-15.47656h11.96777l-12.18652,22.13379,12.51562,22.13379h-11.91309l-8.29883-15.30371-8.16113,15.30371h-12.0498l12.48828-22.13379-12.0498-22.13379h12.0498Z"/><path class="c" d="M279.7012,169.62107l-10.68164,.69238c-.18262-.96094-.57422-1.83008-1.17676-2.6084s-1.39258-1.40234-2.36914-1.87305c-.97754-.4707-2.14062-.70605-3.49219-.70605-1.80762,0-3.33203,.39844-4.57324,1.19531-1.24219,.79785-1.8623,1.85938-1.8623,3.18457,0,1.05762,.40137,1.9502,1.20508,2.68066,.80273,.73047,2.18164,1.31641,4.13477,1.75781l7.61426,1.61426c4.08887,.88379,7.1377,2.30566,9.14648,4.26465,2.00879,1.95996,3.0127,4.53516,3.0127,7.72461,0,2.90137-.80762,5.44629-2.42383,7.63672-1.61523,2.19043-3.8252,3.89551-6.62695,5.11523-2.80371,1.2207-6.03027,1.83008-9.68164,1.83008-5.56836,0-10.00098-1.22461-13.2959-3.67383-3.2959-2.4502-5.22656-5.78809-5.79297-10.01562l11.47559-.63379c.34668,1.78711,1.18652,3.14648,2.51953,4.07812,1.33203,.93262,3.04004,1.39746,5.12109,1.39746,2.04492,0,3.69238-.41797,4.94336-1.25293,1.25-.83594,1.88477-1.91699,1.90332-3.24219-.01855-1.11426-.46582-2.03223-1.3418-2.75293s-2.22754-1.27246-4.05371-1.65723l-7.28418-1.52734c-4.1084-.86426-7.16211-2.36328-9.16113-4.49609-1.99902-2.13184-2.99902-4.85059-2.99902-8.15527,0-2.84375,.73535-5.29297,2.20508-7.34961,1.46973-2.05566,3.54199-3.64062,6.2168-4.75488,2.67383-1.11426,5.80957-1.67188,9.40723-1.67188,5.3125,0,9.49805,1.18164,12.55664,3.54492,3.05762,2.36328,4.84277,5.58203,5.35449,9.6543Z"/><path class="c" d="M310.40042,156.99802v9.22266h-25.33203v-9.22266h25.33203Zm-19.58105-10.60547h11.66699v41.27051c0,1.13379,.16406,2.0127,.49219,2.63672,.3291,.62402,.79004,1.06152,1.38379,1.31152,.59277,.25,1.28223,.37402,2.06738,.37402,.54785,0,1.0957-.05273,1.64355-.1582,.54688-.10547,.9668-.1875,1.25977-.24512l1.83496,9.13574c-.58496,.19238-1.40625,.41797-2.46484,.67773-1.05957,.25879-2.34668,.41797-3.8623,.47559-2.81152,.11523-5.27148-.2793-7.37988-1.18164-2.10938-.90332-3.74805-2.30566-4.91602-4.20801-1.16895-1.90234-1.74414-4.30371-1.72559-7.20508v-42.88379Z"/><path class="c" d="M329.98148,202.10154c-2.68457,0-5.07617-.49512-7.17578-1.48438s-3.75684-2.45898-4.9707-4.40918-1.82129-4.38574-1.82129-7.30566c0-2.45996,.42871-4.52539,1.28711-6.19629,.8584-1.67188,2.02734-3.0166,3.50586-4.03516s3.16309-1.78711,5.05273-2.30566,3.875-.88379,5.95703-1.09473c2.44629-.26953,4.41797-.52344,5.91504-.76367s2.58301-.60059,3.25879-1.08105,1.01367-1.19141,1.01367-2.13281v-.17285c0-1.8252-.54395-3.2373-1.62988-4.23633s-2.62402-1.49902-4.61426-1.49902c-2.09961,0-3.77051,.48535-5.01172,1.45605-1.24219,.96973-2.06348,2.18555-2.46484,3.64551l-10.79004-.92285c.54785-2.68945,1.62402-5.01855,3.23145-6.98828,1.60645-1.96973,3.68359-3.4873,6.23047-4.55371s5.5-1.59961,8.85938-1.59961c2.33691,0,4.57812,.28809,6.72363,.86426,2.14453,.57715,4.05273,1.4707,5.72363,2.68066,1.6709,1.21094,2.98926,2.7627,3.95703,4.6543,.96777,1.89258,1.45215,4.15527,1.45215,6.78711v29.85742h-11.06445v-6.13867h-.3291c-.67578,1.38379-1.5791,2.59863-2.71094,3.64551-1.13184,1.04785-2.49219,1.86426-4.08008,2.4502-1.58887,.58594-3.42383,.87891-5.50488,.87891Zm3.34082-8.47363c1.71582,0,3.23145-.35938,4.5459-1.08008s2.3457-1.69531,3.09473-2.92578c.74902-1.22852,1.12305-2.62207,1.12305-4.17871v-4.69727c-.36523,.25-.8623,.47559-1.49219,.67676-.62988,.20215-1.33789,.38477-2.12305,.54785s-1.57031,.30762-2.35449,.43262c-.78613,.125-1.49805,.23535-2.13672,.33105-1.36914,.21191-2.56543,.54785-3.58789,1.00879s-1.81641,1.08105-2.38184,1.8584c-.56641,.77832-.84961,1.74414-.84961,2.89648,0,1.67188,.5791,2.94531,1.73926,3.81934,1.15918,.87402,2.63379,1.31055,4.42285,1.31055Z"/><path class="c" d="M362.7344,201.2656v-44.26758h11.31152v7.72363h.4375c.76758-2.74707,2.05469-4.82715,3.86133-6.23926,1.80762-1.41211,3.88965-2.11816,6.24414-2.11816,.58496,0,1.21484,.03906,1.89062,.11523,.6748,.07715,1.26855,.18262,1.7793,.31738v10.89355c-.54785-.17285-1.30566-.32617-2.27246-.46094-.96777-.13379-1.85352-.20215-2.65723-.20215-1.71582,0-3.24512,.38965-4.58691,1.16797-1.3418,.77734-2.40137,1.8584-3.17676,3.24219-.77637,1.38281-1.16406,2.97754-1.16406,4.78418v25.04395h-11.66699Z"/><path class="c" d="M418.73929,156.99802v9.22266h-25.33203v-9.22266h25.33203Zm-19.58105-10.60547h11.66699v41.27051c0,1.13379,.16406,2.0127,.49219,2.63672,.3291,.62402,.79004,1.06152,1.38379,1.31152,.59277,.25,1.28223,.37402,2.06738,.37402,.54785,0,1.0957-.05273,1.64355-.1582,.54688-.10547,.9668-.1875,1.25977-.24512l1.83496,9.13574c-.58496,.19238-1.40625,.41797-2.46484,.67773-1.05957,.25879-2.34668,.41797-3.8623,.47559-2.81152,.11523-5.27148-.2793-7.37988-1.18164-2.10938-.90332-3.74805-2.30566-4.91602-4.20801-1.16895-1.90234-1.74414-4.30371-1.72559-7.20508v-42.88379Z"/><path class="c" d="M445.05765,202.12986c-4.32715,0-8.04688-.92676-11.16016-2.78125-3.11328-1.85352-5.50879-4.48535-7.18848-7.89648-1.68066-3.41016-2.51953-7.44922-2.51953-12.11816,0-4.55371,.83887-8.5498,2.51953-11.98926,1.67969-3.43945,4.04785-6.11914,7.10645-8.04102,3.05762-1.9209,6.65039-2.88184,10.77637-2.88184,2.77539,0,5.36328,.46582,7.76465,1.39746,2.40039,.93262,4.5,2.33008,6.29883,4.19336,1.79785,1.86426,3.19922,4.20312,4.2041,7.01758,1.00391,2.81543,1.50586,6.10547,1.50586,9.87109v3.37207h-35.52051v-7.6084h24.53906c0-1.76758-.36621-3.33301-1.0957-4.69727-.73047-1.36426-1.73926-2.43555-3.02637-3.21387s-2.78027-1.16699-4.47754-1.16699c-1.77148,0-3.33691,.42773-4.69727,1.28223-1.36035,.85547-2.42383,1.99805-3.19043,3.42969s-1.15918,3.02148-1.17773,4.76953v7.2334c0,2.19043,.3877,4.08301,1.16406,5.67773s1.87598,2.82422,3.2998,3.68945c1.4248,.86426,3.11328,1.29688,5.06641,1.29688,1.29688,0,2.4834-.19238,3.56055-.57715,1.07715-.38379,1.99902-.95996,2.7666-1.72852,.7666-.76855,1.35059-1.70996,1.75195-2.82422l10.79102,.74902c-.54785,2.72852-1.66699,5.10645-3.35547,7.13281-1.68848,2.02734-3.86133,3.60254-6.51758,4.72656s-5.71973,1.68555-9.18848,1.68555Z"/><path class="c" d="M471.97855,201.2656v-44.26758h11.31152v7.72363h.4375c.76758-2.74707,2.05469-4.82715,3.86133-6.23926,1.80762-1.41211,3.88965-2.11816,6.24414-2.11816,.58496,0,1.21484,.03906,1.89062,.11523,.6748,.07715,1.26855,.18262,1.7793,.31738v10.89355c-.54785-.17285-1.30566-.32617-2.27246-.46094-.96777-.13379-1.85352-.20215-2.65723-.20215-1.71582,0-3.24512,.38965-4.58691,1.16797-1.3418,.77734-2.40137,1.8584-3.17676,3.24219-.77637,1.38281-1.16406,2.97754-1.16406,4.78418v25.04395h-11.66699Z"/></g><g><g><path class="c" d="M36.04105,172.39841c0,3.22168-.52344,6.05176-1.56934,8.49121-1.04688,2.43848-2.50391,4.34082-4.37207,5.7041-1.86816,1.36426-4.03418,2.0459-6.49902,2.0459-2.47461,0-4.64551-.68457-6.51367-2.05371-1.86816-1.36816-3.32324-3.27246-4.36426-5.71191-1.04199-2.43945-1.5625-5.26465-1.5625-8.47559,0-3.22168,.52246-6.0498,1.56934-8.4834,1.04688-2.43457,2.50391-4.33594,4.37207-5.70508,1.86816-1.36816,4.03418-2.05273,6.49902-2.05273s4.63086,.68164,6.49902,2.0459c1.86816,1.36328,3.3252,3.26465,4.37207,5.7041,1.0459,2.43945,1.56934,5.26953,1.56934,8.49121Zm-.93848,0c0-3.02637-.48438-5.68359-1.45312-7.97461-.96777-2.28906-2.31543-4.0752-4.04102-5.35645-1.72656-1.28125-3.72949-1.92188-6.00781-1.92188-2.26953,0-4.2666,.63477-5.99316,1.90625s-3.07617,3.05176-4.04883,5.3418c-.97363,2.29004-1.45996,4.95801-1.45996,8.00488,0,3.00488,.47949,5.65234,1.4375,7.94238,.95898,2.29102,2.30078,4.08105,4.02734,5.37305s3.73828,1.9375,6.03711,1.9375c2.27832,0,4.2832-.64062,6.01465-1.92188s3.08105-3.06738,4.04883-5.35742c.96875-2.29004,1.44727-4.94824,1.43848-7.97363Z"/><path class="c" d="M43.72757,188.207v-31.61816h16.1377v.98828h-15.19824v14.32715h13.79004v.98828h-13.79004v15.31445h-.93945Z"/></g><rect class="c" x="2.9232" y="143.27889" width="65.53438" height=".7252"/><rect class="c" x="2.9232" y="199.7086" width="65.53438" height=".7252"/></g></g></svg>