<svg id="e60d8939-4eca-4c59-8a4d-8a6d625cb850" data-name="Layer 1" xmlns="http://www.w3.org/2000/svg" viewBox="0 0 808.46163 190.09662"><defs><style>.e0557e4b-4f72-4795-8ca7-ee95dfc1f01c{fill:#5c9fd8;}.aa54fffe-e1d7-4a24-9cef-8bf948344e65{fill:#12202b;}</style></defs><path class="e0557e4b-4f72-4795-8ca7-ee95dfc1f01c" d="M14.71862,122.81967v65.17748H.01968V122.81967Z"/><path class="e0557e4b-4f72-4795-8ca7-ee95dfc1f01c" d="M27.48355,187.99715V122.81967H44.69693L58.235,146.70536a205.5588,205.5588,0,0,1,10.63744,22.33787h.19348a268.93389,268.93389,0,0,1-1.16086-27.27039V122.81967H81.44391v65.17748H65.97106L52.046,162.85424a220.864,220.864,0,0,1-11.31423-23.01541h-.38695c.48332,8.70343.67679,17.89017.67679,28.52761v19.63071Z"/><path class="e0557e4b-4f72-4795-8ca7-ee95dfc1f01c" d="M106.87889,135.19765H89.27931v-12.378h50.09233v12.378H121.57783v52.7995H106.87889Z"/><path class="e0557e4b-4f72-4795-8ca7-ee95dfc1f01c" d="M161.90449,122.81967v37.42377c0,11.31423,4.35134,17.0199,11.79755,17.0199,7.736,0,11.991-5.41583,11.991-17.0199V122.81967H200.392v36.5535c0,20.114-10.15337,29.68772-27.17328,29.68772-16.43947,0-26.01317-9.18674-26.01317-29.88119v-36.36Z"/><path class="e0557e4b-4f72-4795-8ca7-ee95dfc1f01c" d="M213.15917,187.99715V122.81967h17.21338l13.53809,23.88569a205.56253,205.56253,0,0,1,10.63744,22.33787h.19348a268.93389,268.93389,0,0,1-1.16086-27.27039V122.81967h13.53883v65.17748H251.64669l-13.925-25.14291a220.864,220.864,0,0,1-11.31423-23.01541h-.387c.48331,8.70343.67679,17.89017.67679,28.52761v19.63071Z"/><path class="e0557e4b-4f72-4795-8ca7-ee95dfc1f01c" d="M318.66406,160.43692h-23.9828V175.909h26.78708v12.08814h-41.486V122.81967H320.114v12.08739H294.68126v13.53883h23.9828Z"/><path class="aa54fffe-e1d7-4a24-9cef-8bf948344e65" d="M417.1736,155.30308c0,22.15038-13.42753,34.79354-31.55973,34.79354-18.71936,0-30.48105-14.309-30.48105-33.617,0-20.38668,12.83963-34.69568,31.46187-34.69568C405.80409,121.78394,417.1736,136.38726,417.1736,155.30308Zm-49.299.88222c0,13.52539,6.76269,24.2084,18.32792,24.2084,11.66309,0,18.22932-10.87873,18.22932-24.69844,0-12.44745-6.174-24.20839-18.22932-24.20839C374.2451,131.48687,367.87459,142.56206,367.87459,156.1853Z"/><path class="aa54fffe-e1d7-4a24-9cef-8bf948344e65" d="M442.35983,189.01869l-21.36676-66.059h13.134l9.01643,30.08887c2.5488,8.33142,4.80253,15.97633,6.46911,24.01268h.19572c1.76444-7.84063,4.21464-15.87773,6.76269-23.91407l9.60507-30.18748h12.83963l-22.83688,66.059Z"/><path class="aa54fffe-e1d7-4a24-9cef-8bf948344e65" d="M523.11773,159.71344h-24.8949v19.40585H526.058v9.8994h-39.8904v-66.059h38.42028v9.8994h-26.365v17.05352h24.8949Z"/><path class="aa54fffe-e1d7-4a24-9cef-8bf948344e65" d="M536.64087,123.93981a103.65866,103.65866,0,0,1,18.23006-1.47011c9.50722,0,15.87773,1.568,20.38594,5.29257,3.62674,3.03809,5.68476,7.64491,5.68476,13.32967,0,8.52639-5.78262,14.309-12.05527,16.46562v.29358c4.80253,1.76444,7.64491,6.37126,9.21289,12.74177,2.15662,8.23281,3.92031,15.87772,5.19472,18.42578H570.94512c-.98082-1.96016-2.64666-7.35059-4.4111-15.5834-1.96016-8.625-4.99825-11.36952-11.8588-11.56523h-6.07694v27.14863H536.64087Zm11.95741,29.10879h7.15487c8.135,0,13.13321-4.31175,13.13321-10.87872,0-7.15488-4.99825-10.58515-12.83888-10.58515a34.711,34.711,0,0,0-7.4492.58789Z"/><path class="aa54fffe-e1d7-4a24-9cef-8bf948344e65" d="M607.8908,189.01869l-21.36676-66.059h13.134l9.01643,30.08887c2.5488,8.33142,4.80254,15.97633,6.46912,24.01268h.19571c1.76444-7.84063,4.21464-15.87773,6.7627-23.91407l9.60507-30.18748h12.83963l-22.83688,66.059Z"/><path class="aa54fffe-e1d7-4a24-9cef-8bf948344e65" d="M663.75305,122.95973v66.059H651.69779v-66.059Z"/><path class="aa54fffe-e1d7-4a24-9cef-8bf948344e65" d="M714.52143,159.71344H689.62654v19.40585h27.83513v9.8994h-39.8904v-66.059h38.42028v9.8994h-26.365v17.05352h24.89489Z"/><path class="aa54fffe-e1d7-4a24-9cef-8bf948344e65" d="M739.5112,189.01869l-16.17205-66.059h12.83963l6.27266,29.991c1.66583,8.0371,3.23381,16.46563,4.31249,23.0326h.19572c1.07794-6.95841,2.94024-14.79979,4.80254-23.13046l7.15487-29.89315h12.64317l6.567,30.38319c1.568,7.84063,3.0381,15.192,4.01818,22.3461h.19571c1.17655-7.25273,2.74452-14.799,4.509-22.934l6.86055-29.7953h12.251l-17.83788,66.059H775.28482l-6.86129-31.06895c-1.66584-7.547-2.84164-13.81971-3.72386-20.97458h-.19646a199.71446,199.71446,0,0,1-4.3125,20.97458l-7.64416,31.069Z"/><rect class="e0557e4b-4f72-4795-8ca7-ee95dfc1f01c" y="0.00002" width="594.26858" height="109.46235"/><path class="aa54fffe-e1d7-4a24-9cef-8bf948344e65" d="M62.58414,86.472c-2.56543,1.23536-8.64551,2.75489-16.34082,2.75489-22.13477,0-33.53516-13.87012-33.53516-32.11035,0-21.85059,15.58008-33.915,34.96094-33.915,7.50488,0,13.20508,1.4248,15.76953,2.84961l-3.04,11.40039a30.50892,30.50892,0,0,0-12.16016-2.375c-11.39941,0-20.33007,6.93554-20.33007,21.18554,0,12.82422,7.60058,20.90039,20.42578,20.90039a34.474,34.474,0,0,0,12.16015-2.09082Z"/><path class="aa54fffe-e1d7-4a24-9cef-8bf948344e65" d="M86.71207,24.15069V48.75615h23.84472V24.15069h14.44043V88.18194H110.55679v-26.791H86.71207v26.791H72.27164V24.15069Z"/><path class="aa54fffe-e1d7-4a24-9cef-8bf948344e65" d="M196.24722,55.50225c0,21.08984-12.63574,33.72461-31.44531,33.72461-18.90527,0-30.11523-14.34571-30.11523-32.67969,0-19.19141,12.34961-33.53613,31.16015-33.53613C185.51187,23.011,196.24722,37.73662,196.24722,55.50225ZM149.9816,56.262c0,12.63477,5.88965,21.46973,15.58008,21.46973,9.78515,0,15.39062-9.30957,15.39062-21.75488,0-11.58985-5.415-21.47071-15.39062-21.47071C155.68179,34.50615,149.9816,43.8167,149.9816,56.262Z"/><path class="aa54fffe-e1d7-4a24-9cef-8bf948344e65" d="M252.67691,86.472c-2.56543,1.23536-8.64551,2.75489-16.34082,2.75489-22.13477,0-33.53516-13.87012-33.53516-32.11035,0-21.85059,15.58008-33.915,34.96094-33.915,7.50488,0,13.20508,1.4248,15.76953,2.84961l-3.04,11.40039a30.5089,30.5089,0,0,0-12.16015-2.375c-11.39942,0-20.33008,6.93554-20.33008,21.18554,0,12.82422,7.60059,20.90039,20.42578,20.90039a34.47415,34.47415,0,0,0,12.16016-2.09082Z"/><path class="aa54fffe-e1d7-4a24-9cef-8bf948344e65" d="M318.03531,55.50225c0,21.08984-12.63477,33.72461-31.44531,33.72461-18.90528,0-30.11524-14.34571-30.11524-32.67969,0-19.19141,12.35059-33.53613,31.16016-33.53613C307.30093,23.011,318.03531,37.73662,318.03531,55.50225Zm-46.26563.75976c0,12.63477,5.89063,21.46973,15.58008,21.46973,9.78516,0,15.39063-9.30957,15.39063-21.75488,0-11.58985-5.415-21.47071-15.39063-21.47071C277.46988,34.50615,271.76968,43.8167,271.76968,56.262Z"/><path class="aa54fffe-e1d7-4a24-9cef-8bf948344e65" d="M327.62906,24.15069h14.44043V76.02178h25.46V88.18194H327.62906Z"/><path class="aa54fffe-e1d7-4a24-9cef-8bf948344e65" d="M391.56265,71.74639l-4.55957,16.43555H372.088l19.47461-64.03125h19.001l19.95019,64.03125H414.838l-4.93945-16.43555Zm16.2461-10.83008-3.99024-13.585c-1.14062-3.79981-2.28027-8.54981-3.23047-12.35059h-.18945c-.95019,3.80078-1.90039,8.64551-2.94531,12.35059l-3.79981,13.585Z"/><path class="aa54fffe-e1d7-4a24-9cef-8bf948344e65" d="M443.5275,36.31084h-17.29V24.15069H475.4484V36.31084H457.96793v51.8711H443.5275Z"/><path class="aa54fffe-e1d7-4a24-9cef-8bf948344e65" d="M521.23746,61.10674H497.67691v15.2002h26.31543v11.875H483.23648V24.15069h39.42578v11.875H497.67691V49.32647h23.56055Z"/><path class="aa54fffe-e1d7-4a24-9cef-8bf948344e65" d="M548.69156,88.18194V61.96123L528.45621,24.15069h16.625l6.46,15.39062c1.99512,4.65527,3.41992,8.0752,4.94043,12.25586h.18945c1.42578-3.99023,2.94531-7.69531,4.8457-12.25586l6.46-15.39062h16.24511L563.131,61.48662V88.18194Z"/><path class="aa54fffe-e1d7-4a24-9cef-8bf948344e65" d="M652.276,65.08128l-7.00907,19.92733h-4.13766L661.73192,28.098h3.8844l20.43383,56.91057h-4.13766l-7.17667-19.92733Zm21.27677-3.37668-6.92342-18.99874a84.049,84.049,0,0,1-2.9546-10.04808h-.25325a91.48892,91.48892,0,0,1-2.95582,9.87925L653.54224,61.7046Z"/><path class="aa54fffe-e1d7-4a24-9cef-8bf948344e65" d="M694.9115,85.00861V28.098h3.8L720.83366,61.7046a187.32621,187.32621,0,0,1,10.72342,17.90009l.16883-.08442c-.59092-7.68317-.67533-14.18574-.67533-23.13517V28.098h3.8844V85.00861h-3.71557L709.51933,51.90977c-4.22208-6.58575-8.10649-12.58059-11.06109-18.40782l-.16883.08442c.42208,7.00907.5065,13.17274.5065,22.6299V85.00861Z"/><path class="aa54fffe-e1d7-4a24-9cef-8bf948344e65" d="M748.6913,28.94343A84.70262,84.70262,0,0,1,763.29912,27.676c10.38575,0,18.23776,2.787,22.96634,7.76882,4.55975,4.72858,7.09349,11.1455,7.09349,19.75727,0,8.35974-2.28049,15.87408-7.43115,21.53125-4.98183,5.48833-13.5936,8.6974-24.57027,8.6974a124.08272,124.08272,0,0,1-12.66623-.5065Zm4.05324,52.68727a70.11459,70.11459,0,0,0,9.20391.42209c18.23776,0,27.27284-10.21569,27.27284-26.68069.16883-14.439-7.85324-24.31824-26.17542-24.31824a51.67306,51.67306,0,0,0-10.30133.92859Z"/><rect class="e0557e4b-4f72-4795-8ca7-ee95dfc1f01c" x="631.62386" width="176.83777" height="2.26715"/><rect class="e0557e4b-4f72-4795-8ca7-ee95dfc1f01c" x="631.62386" y="107.19525" width="176.83777" height="2.26715"/></svg>