<?xml version="1.0" encoding="UTF-8"?><svg id="uuid-c3dfaf25-fb0d-48a3-8c0a-b631ca7eb4e5" xmlns="http://www.w3.org/2000/svg" xmlns:xlink="http://www.w3.org/1999/xlink" viewBox="0 0 1200 630"><defs><style>.uuid-01a2b70e-10f8-423c-8db6-dad5eb729792{fill:url(#uuid-69f8165b-a762-42a5-8d6e-7230f06304c0);}.uuid-c995a63c-2415-43bc-89f6-8d39e35bac06{fill:#fff;}.uuid-a5bdb853-baa3-424b-bfdd-6080350794d2{fill:#5c9fd8;}.uuid-aded28c7-eb3d-4725-92f9-2f415f7c8fa5{fill:url(#uuid-1a612ff7-07ba-47a6-a52f-1c919c65adac);}.uuid-040e5244-b722-47bd-bc5c-a7fafdd92296{fill:url(#uuid-18d0e4cf-337f-409f-9aa1-c9cf2345b911);}.uuid-4bf8dd14-31da-4588-bf04-9ad0ae862fad{fill:url(#uuid-05042db7-6597-45a4-8025-ef18415c8dc9);}.uuid-7c4af111-b662-4aca-ac31-5473a744704a{fill:url(#uuid-f2022baf-c8f8-456f-9d90-c01d635054f9);}.uuid-b71a7594-a83e-498e-bff0-127623a734d8{fill:url(#uuid-02c7bf70-a01a-4ded-a7cb-84ec3d13e43b);}.uuid-b127d03b-4c94-4f05-8dbf-e4597200b1e4{fill:url(#uuid-8afa3389-f92a-4e95-b18d-5f4e63536b14);}.uuid-4c9df67f-8514-43f0-8b79-d0544e47e935{fill:url(#uuid-0d9c5556-9d3f-4981-8eb4-c432af5dcf26);}.uuid-e75700dc-b238-4c68-873c-1e3b509b7d03{fill:url(#uuid-0d7cbc52-cc6b-4449-974e-7598118261d8);}.uuid-20ff0707-a847-4a5e-bfa7-5a6c8c7f74e0{fill:url(#uuid-1c7bbba7-ff50-4381-8721-9b79b2d044e0);}.uuid-f6ddec73-c1ab-415b-af44-ccf63d704db5{fill:url(#uuid-4fa172aa-11f8-4ff3-9f3a-b0d9c2cc43bd);}.uuid-6ae71be2-4e0d-42e5-b129-93087bbd7d91{fill:url(#uuid-6ba1faa8-bcd5-40ca-9498-2e0697b07717);}.uuid-1364c7e4-8e8c-46ff-8953-d26198213a49{fill:url(#uuid-39979ac3-06c1-4626-9bc6-fe20f8047e5d);}.uuid-119854b9-913a-48ee-bc26-0d4251e76309{fill:url(#uuid-1fd19268-b1a6-417c-8f19-cc4377bfd6eb);}.uuid-effda51c-f1f7-426c-8e93-b8148f7d41ac{fill:url(#uuid-0e79a424-bc05-4f30-8012-259ec9ef6bbe);}</style><linearGradient id="uuid-0d7cbc52-cc6b-4449-974e-7598118261d8" x1="-2.57216" y1="639.88513" x2="-2.57216" y2="-.5605" gradientUnits="userSpaceOnUse"><stop offset="0" stop-color="#f3f8fb"/><stop offset=".28004" stop-color="#edf5fa"/><stop offset=".62676" stop-color="#deedf7"/><stop offset="1" stop-color="#c6e2f3"/></linearGradient><linearGradient id="uuid-1c7bbba7-ff50-4381-8721-9b79b2d044e0" x1="82.38057" x2="82.38057" xlink:href="#uuid-0d7cbc52-cc6b-4449-974e-7598118261d8"/><linearGradient id="uuid-05042db7-6597-45a4-8025-ef18415c8dc9" x1="168.39677" x2="168.39677" xlink:href="#uuid-0d7cbc52-cc6b-4449-974e-7598118261d8"/><linearGradient id="uuid-1a612ff7-07ba-47a6-a52f-1c919c65adac" x1="254.52808" x2="254.52808" xlink:href="#uuid-0d7cbc52-cc6b-4449-974e-7598118261d8"/><linearGradient id="uuid-4fa172aa-11f8-4ff3-9f3a-b0d9c2cc43bd" x1="340.54431" x2="340.54431" xlink:href="#uuid-0d7cbc52-cc6b-4449-974e-7598118261d8"/><linearGradient id="uuid-6ba1faa8-bcd5-40ca-9498-2e0697b07717" x1="426.85838" x2="426.85838" xlink:href="#uuid-0d7cbc52-cc6b-4449-974e-7598118261d8"/><linearGradient id="uuid-8afa3389-f92a-4e95-b18d-5f4e63536b14" x1="512.93061" x2="512.93061" xlink:href="#uuid-0d7cbc52-cc6b-4449-974e-7598118261d8"/><linearGradient id="uuid-69f8165b-a762-42a5-8d6e-7230f06304c0" x1="597.93865" x2="597.93865" xlink:href="#uuid-0d7cbc52-cc6b-4449-974e-7598118261d8"/><linearGradient id="uuid-39979ac3-06c1-4626-9bc6-fe20f8047e5d" x1="684.01089" x2="684.01089" xlink:href="#uuid-0d7cbc52-cc6b-4449-974e-7598118261d8"/><linearGradient id="uuid-18d0e4cf-337f-409f-9aa1-c9cf2345b911" x1="770.19835" x2="770.19835" xlink:href="#uuid-0d7cbc52-cc6b-4449-974e-7598118261d8"/><linearGradient id="uuid-1fd19268-b1a6-417c-8f19-cc4377bfd6eb" x1="856.27063" x2="856.27063" xlink:href="#uuid-0d7cbc52-cc6b-4449-974e-7598118261d8"/><linearGradient id="uuid-f2022baf-c8f8-456f-9d90-c01d635054f9" x1="942.59868" x2="942.59868" xlink:href="#uuid-0d7cbc52-cc6b-4449-974e-7598118261d8"/><linearGradient id="uuid-0e79a424-bc05-4f30-8012-259ec9ef6bbe" x1="1028.92673" x2="1028.92673" xlink:href="#uuid-0d7cbc52-cc6b-4449-974e-7598118261d8"/><linearGradient id="uuid-02c7bf70-a01a-4ded-a7cb-84ec3d13e43b" x1="1115.25481" x2="1115.25481" xlink:href="#uuid-0d7cbc52-cc6b-4449-974e-7598118261d8"/><linearGradient id="uuid-0d9c5556-9d3f-4981-8eb4-c432af5dcf26" x1="1201.5829" x2="1201.5829" xlink:href="#uuid-0d7cbc52-cc6b-4449-974e-7598118261d8"/></defs><rect class="uuid-e75700dc-b238-4c68-873c-1e3b509b7d03" x="-24.07621" y="-.5605" width="43.0081" height="640.44562"/><rect class="uuid-20ff0707-a847-4a5e-bfa7-5a6c8c7f74e0" x="60.87653" y="-.5605" width="43.0081" height="640.44562"/><rect class="uuid-4bf8dd14-31da-4588-bf04-9ad0ae862fad" x="146.89272" y="-.5605" width="43.0081" height="640.44562"/><rect class="uuid-aded28c7-eb3d-4725-92f9-2f415f7c8fa5" x="233.02403" y="-.5605" width="43.0081" height="640.44562"/><rect class="uuid-f6ddec73-c1ab-415b-af44-ccf63d704db5" x="319.04022" y="-.5605" width="43.00817" height="640.44562"/><rect class="uuid-6ae71be2-4e0d-42e5-b129-93087bbd7d91" x="405.34032" y="-.5605" width="43.03613" height="640.44562"/><rect class="uuid-b127d03b-4c94-4f05-8dbf-e4597200b1e4" x="491.41255" y="-.5605" width="43.03612" height="640.44562"/><rect class="uuid-01a2b70e-10f8-423c-8db6-dad5eb729792" x="576.42059" y="-.5605" width="43.03612" height="640.44562"/><rect class="uuid-1364c7e4-8e8c-46ff-8953-d26198213a49" x="662.49283" y="-.5605" width="43.03612" height="640.44562"/><rect class="uuid-040e5244-b722-47bd-bc5c-a7fafdd92296" x="748.68025" y="-.5605" width="43.03619" height="640.44562"/><rect class="uuid-119854b9-913a-48ee-bc26-0d4251e76309" x="834.75256" y="-.5605" width="43.03614" height="640.44562"/><rect class="uuid-7c4af111-b662-4aca-ac31-5473a744704a" x="921.08062" y="-.5605" width="43.03612" height="640.44562"/><rect class="uuid-effda51c-f1f7-426c-8e93-b8148f7d41ac" x="1007.40867" y="-.5605" width="43.03612" height="640.44562"/><rect class="uuid-b71a7594-a83e-498e-bff0-127623a734d8" x="1093.73672" y="-.5605" width="43.03619" height="640.44562"/><rect class="uuid-4c9df67f-8514-43f0-8b79-d0544e47e935" x="1180.06484" y="-.5605" width="43.03612" height="640.44562"/><path class="uuid-a5bdb853-baa3-424b-bfdd-6080350794d2" d="m1309.429-12.03034V56.55029c-1.17562.15526-2.42502.24398-3.7485.24398-22.06897,0-22.06897-23.34078-44.13078-23.34078-22.06912,0-22.06912,23.34078-44.13824,23.34078s-22.0692-23.34078-44.13817-23.34078-22.0692,23.34078-44.13832,23.34078c-22.06173,0-22.06173-23.34078-44.13085-23.34078s-22.06912,23.34078-44.13824,23.34078-22.06912-23.34078-44.13824-23.34078-22.06912,23.34078-44.13085,23.34078c-22.06912,0-22.06912-23.34078-44.13832-23.34078s-22.06897,23.34078-44.1308,23.34078c-22.06912,0-22.06912-23.34078-44.13824-23.34078s-22.06912,23.34078-44.13824,23.34078-22.06912-23.34078-44.13824-23.34078-22.06912,23.34078-44.13824,23.34078c-22.07651,0-22.07651-23.34078-44.14564-23.34078-22.00997,0-22.07651,23.2077-43.9608,23.33338v-.23659c-1.17554.15526-2.42502.24398-3.74842.24398-22.06912,0-22.06912-23.34078-44.13085-23.34078-22.06912,0-22.06912,23.34078-44.13824,23.34078s-22.06912-23.34078-44.13824-23.34078-22.06912,23.34078-44.13824,23.34078c-22.06173,0-22.06173-23.34078-44.13085-23.34078s-22.06912,23.34078-44.13824,23.34078-22.06912-23.34078-44.13824-23.34078-22.06912,23.34078-44.13085,23.34078c-22.06912,0-22.06912-23.34078-44.13824-23.34078s-22.06912,23.34078-44.13085,23.34078c-22.06911,0-22.06911-23.34078-44.13824-23.34078s-22.06912,23.34078-44.13085,23.34078c-22.07652,0-22.07652-23.34078-44.14564-23.34078S.08316,56.79427-21.98597,56.79427c-22.07652,0-22.07652-23.34078-44.14564-23.34078-22.00998,0-22.07652,23.2077-43.9608,23.33338V-12.03034h1419.52141Z"/><path class="uuid-c995a63c-2415-43bc-89f6-8d39e35bac06" d="m1305.6802,57.29404c-11.25,0-16.93457-6.0127-22.43164-11.82812-5.59766-5.92041-10.88379-11.51221-21.69922-11.51221-10.81836,0-16.10645,5.59277-21.70508,11.51367-5.49805,5.81396-11.18262,11.82666-22.43262,11.82666s-16.93457-6.01221-22.43262-11.82666c-5.59863-5.9209-10.88672-11.51367-21.70605-11.51367s-16.10742,5.59277-21.70605,11.51367c-5.49707,5.81445-11.18262,11.82666-22.43164,11.82666-11.24609,0-16.92871-6.01172-22.42578-11.82568-5.59766-5.92139-10.88574-11.51465-21.70508-11.51465s-16.10742,5.59277-21.70605,11.51367c-5.49805,5.81445-11.18262,11.82666-22.43262,11.82666s-16.93555-6.0127-22.43262-11.82666c-5.59863-5.9209-10.88672-11.51367-21.70508-11.51367-10.82031,0-16.1084,5.59326-21.70605,11.51514-5.49609,5.81348-11.17969,11.8252-22.4248,11.8252-11.25,0-16.93457-6.01221-22.43262-11.82666-5.59863-5.9209-10.88672-11.51367-21.70605-11.51367-10.82031,0-16.1084,5.59326-21.70605,11.51514-5.49609,5.81348-11.17969,11.8252-22.4248,11.8252-11.25,0-16.93457-6.01221-22.43262-11.82666-5.59863-5.9209-10.88672-11.51367-21.70605-11.51367-10.81836,0-16.10645,5.59277-21.70508,11.51367-5.49805,5.81396-11.18262,11.82666-22.43262,11.82666s-16.93457-6.01221-22.43262-11.82666c-5.59863-5.9209-10.88672-11.51367-21.70605-11.51367-10.81836,0-16.10645,5.59277-21.70508,11.51367-5.49805,5.81396-11.18262,11.82666-22.43262,11.82666-11.25488,0-16.94141-6.01318-22.44141-11.82812-5.59766-5.92041-10.88672-11.51221-21.7041-11.51221-10.82129,0-16.11035,5.5918-21.71094,11.51221-5.46777,5.77979-11.12207,11.75684-22.24707,11.8208l-.50293.00293v-.1748c-1.06738.11914-2.15723.1792-3.24902.1792-11.25,0-16.93457-6.0127-22.43164-11.82812-5.59766-5.92041-10.88379-11.51221-21.69922-11.51221-10.81836,0-16.10645,5.59277-21.70508,11.51367-5.49805,5.81396-11.18262,11.82666-22.43262,11.82666s-16.93457-6.01221-22.43262-11.82666c-5.59863-5.9209-10.88672-11.51367-21.70605-11.51367-10.81836,0-16.10645,5.59277-21.70508,11.51367-5.49805,5.81396-11.18262,11.82666-22.43262,11.82666-11.24512,0-16.92871-6.01172-22.4248-11.8252-5.59766-5.92188-10.88574-11.51514-21.70605-11.51514-10.81934,0-16.10742,5.59277-21.70605,11.51367-5.49805,5.81445-11.18262,11.82666-22.43262,11.82666s-16.93555-6.0127-22.43262-11.82666c-5.59863-5.9209-10.88672-11.51367-21.70508-11.51367-10.82031,0-16.1084,5.59326-21.70605,11.51514-5.49609,5.81348-11.17969,11.8252-22.4248,11.8252-11.25,0-16.93457-6.01221-22.43262-11.82666-5.59863-5.9209-10.88672-11.51367-21.70605-11.51367-10.82031,0-16.1084,5.59326-21.70703,11.51514-5.49512,5.81348-11.17871,11.8252-22.42383,11.8252-11.25,0-16.93457-6.0127-22.43262-11.82666-5.59863-5.9209-10.88672-11.51367-21.70508-11.51367-10.82031,0-16.1084,5.59326-21.70703,11.51514-5.49512,5.81348-11.17871,11.8252-22.42383,11.8252-11.25488,0-16.94141-6.01318-22.44141-11.82812-5.59863-5.92041-10.88672-11.51221-21.70508-11.51221S6.04544,39.54648.44681,45.46738c-5.49805,5.81396-11.18262,11.82666-22.43262,11.82666-11.25488,0-16.94141-6.01318-22.44141-11.82812-5.59863-5.92041-10.88672-11.51221-21.7041-11.51221-10.82129,0-16.11035,5.5918-21.71094,11.51221-5.46777,5.77979-11.12207,11.75684-22.24707,11.8208l-.50293.00293V-12.53018h1420.52148V56.98886l-.43457.05713c-1.24609.16455-2.5293.24805-3.81445.24805Zm-44.13086-24.34033c11.24609,0,16.92969,6.01172,22.42578,11.82568,5.59766,5.92139,10.88574,11.51465,21.70508,11.51465,1.09277,0,2.18359-.0625,3.24902-.18555V-11.53018H-109.59226V56.27988c10.36035-.23047,15.54297-5.70752,21.02344-11.50146,5.49902-5.81348,11.18555-11.82471,22.4375-11.82471,11.24805,0,16.93359,6.01123,22.43066,11.82471,5.60059,5.92188,10.89062,11.51562,21.71484,11.51562,10.81934,0,16.10742-5.59277,21.70605-11.51416,5.49707-5.81396,11.18262-11.82617,22.43164-11.82617s16.93457,6.01172,22.43164,11.8252c5.60059,5.92188,10.89062,11.51514,21.71484,11.51514,10.81445,0,16.10059-5.5918,21.69727-11.51221,5.49805-5.81494,11.18262-11.82812,22.43359-11.82812,11.24902,0,16.93457,6.01221,22.43164,11.82617,5.59863,5.92139,10.88672,11.51416,21.70605,11.51416,10.81445,0,16.10059-5.5918,21.69727-11.51221,5.49805-5.81494,11.18262-11.82812,22.43359-11.82812,11.25,0,16.93457,6.01221,22.43262,11.82666,5.59863,5.9209,10.88672,11.51367,21.70605,11.51367,10.81445,0,16.10059-5.5918,21.69727-11.51221,5.49805-5.81494,11.18262-11.82812,22.43359-11.82812,11.24902,0,16.93359,6.01221,22.43164,11.82617,5.59863,5.92139,10.88672,11.51416,21.70605,11.51416s16.10742-5.59277,21.70605-11.51367c5.49805-5.81445,11.18262-11.82666,22.43262-11.82666,11.25098,0,16.93555,6.01318,22.43359,11.82812,5.59668,5.92041,10.88281,11.51221,21.69727,11.51221,10.81934,0,16.10742-5.59277,21.70605-11.51416,5.49707-5.81396,11.18262-11.82617,22.43164-11.82617,11.25,0,16.93457,6.01221,22.43262,11.82666,5.59863,5.9209,10.88672,11.51367,21.70605,11.51367s16.10742-5.59277,21.70605-11.51416c5.49707-5.81396,11.18262-11.82617,22.43164-11.82617,11.24609,0,16.92871,6.01172,22.42578,11.82568,5.59766,5.92139,10.88574,11.51465,21.70508,11.51465,1.24121,0,2.48047-.08057,3.68359-.23926l.56543-.07471v.2998c10.36035-.23047,15.54297-5.70752,21.02344-11.50146,5.49902-5.81348,11.18555-11.82471,22.4375-11.82471,11.24805,0,16.93359,6.01123,22.43066,11.82471,5.60059,5.92188,10.89062,11.51562,21.71484,11.51562,10.81934,0,16.10742-5.59277,21.70605-11.51416,5.49707-5.81396,11.18262-11.82617,22.43164-11.82617,11.25,0,16.93457,6.01221,22.43262,11.82666,5.59863,5.9209,10.88672,11.51367,21.70605,11.51367s16.10742-5.59277,21.70605-11.51416c5.49707-5.81396,11.18262-11.82617,22.43164-11.82617,11.25,0,16.93457,6.01221,22.43262,11.82666,5.59863,5.9209,10.88672,11.51367,21.70605,11.51367,10.81445,0,16.10059-5.5918,21.69727-11.51221,5.49805-5.81494,11.18262-11.82812,22.43359-11.82812,11.25,0,16.93457,6.01221,22.43262,11.82666,5.59863,5.9209,10.88672,11.51367,21.70605,11.51367,10.81445,0,16.10059-5.5918,21.69727-11.51221,5.49805-5.81494,11.18262-11.82812,22.43359-11.82812,11.24902,0,16.93359,6.01221,22.43164,11.82617,5.59863,5.92139,10.88672,11.51416,21.70605,11.51416s16.10742-5.59277,21.70605-11.51367c5.49805-5.81445,11.18262-11.82666,22.43262-11.82666s16.93457,6.01318,22.43164,11.82764c5.59766,5.92041,10.88379,11.5127,21.69922,11.5127,10.81836,0,16.10645-5.59229,21.70508-11.51367,5.49805-5.81445,11.18262-11.82666,22.43262-11.82666s16.93457,6.01221,22.43262,11.82666c5.59863,5.9209,10.88672,11.51367,21.70605,11.51367s16.10742-5.59277,21.70605-11.51416c5.49707-5.81396,11.18262-11.82617,22.43164-11.82617Z"/><path class="uuid-c995a63c-2415-43bc-89f6-8d39e35bac06" d="m808.44822,497.88721l-1.26865.80909c-.19486.12445-.49836.04234-.69077-.18696-.19232-.2292-.22044-.54233-.06414-.71281l1.01698-1.10895c.16722-.18236.40136-.28391.64225-.27859.22566.00484.43053.10375.57672.27801.14624.17421.20794.39302.17358.6161-.03659.23825-.17723.45122-.38598.58409Z"/><path class="uuid-c995a63c-2415-43bc-89f6-8d39e35bac06" d="m655.43929,497.88721l1.26865.80909c.19486.12445.49836.04234.69077-.18696.19232-.2292.22044-.54233.06414-.71281l-1.01698-1.10895c-.16722-.18236-.40136-.28391-.64225-.27859-.22566.00484-.43053.10375-.57672.27801-.14624.17421-.20794.39302-.17358.6161.03659.23825.17723.45122.38598.58409Z"/></svg>