<?xml version="1.0" encoding="UTF-8"?><svg id="uuid-d55e1f05-a2d2-4902-af80-67211076a305" xmlns="http://www.w3.org/2000/svg" viewBox="0 0 413.08014 97.48584"><defs><style>.uuid-cfe05fdd-f0a5-42f1-943b-85aaf03f128d{fill:#091016;}</style></defs><g><path class="uuid-cfe05fdd-f0a5-42f1-943b-85aaf03f128d" d="M21.65375,27.16284c-1.31104,.65552-3.93311,1.31104-7.29266,1.31104C6.57684,28.47388,.71814,23.55762,.71814,14.50317,.71814,5.85864,6.57684,0,15.13953,0c3.44147,0,5.61285,.7373,6.55518,1.229l-.86035,2.90869c-1.35199-.65527-3.27759-1.14697-5.5719-1.14697-6.47327,0-10.77509,4.13794-10.77509,11.38965,0,6.76001,3.89215,11.10278,10.61121,11.10278,2.17139,0,4.38379-.45068,5.81769-1.14722l.73749,2.8269Z"/><path class="uuid-cfe05fdd-f0a5-42f1-943b-85aaf03f128d" d="M29.68121,.45068V12.00391h13.35614V.45068h3.60535V28.06421h-3.60535V15.11768h-13.35614v12.94653h-3.56439V.45068h3.56439Z"/><path class="uuid-cfe05fdd-f0a5-42f1-943b-85aaf03f128d" d="M76.42523,13.9707c0,9.50488-5.77673,14.54419-12.82355,14.54419-7.29266,0-12.41388-5.65381-12.41388-14.01172,0-8.76758,5.44897-14.50317,12.82355-14.50317,7.53845,0,12.41388,5.77661,12.41388,13.9707Zm-21.42725,.45044c0,5.89966,3.19568,11.18481,8.80853,11.18481,5.65387,0,8.84949-5.20312,8.84949-11.47144,0-5.48999-2.86786-11.22583-8.80853-11.22583-5.89966,0-8.84949,5.44897-8.84949,11.51245Z"/><path class="uuid-cfe05fdd-f0a5-42f1-943b-85aaf03f128d" d="M100.34906,27.16284c-1.31104,.65552-3.93311,1.31104-7.29266,1.31104-7.78424,0-13.64294-4.91626-13.64294-13.9707,0-8.64453,5.8587-14.50317,14.42139-14.50317,3.44147,0,5.61285,.7373,6.55518,1.229l-.86035,2.90869c-1.35199-.65527-3.27759-1.14697-5.5719-1.14697-6.47327,0-10.77509,4.13794-10.77509,11.38965,0,6.76001,3.89215,11.10278,10.61121,11.10278,2.17139,0,4.38379-.45068,5.81769-1.14722l.73749,2.8269Z"/><path class="uuid-cfe05fdd-f0a5-42f1-943b-85aaf03f128d" d="M127.55066,13.9707c0,9.50488-5.77673,14.54419-12.82355,14.54419-7.29266,0-12.41388-5.65381-12.41388-14.01172,0-8.76758,5.44897-14.50317,12.82355-14.50317,7.53845,0,12.41388,5.77661,12.41388,13.9707Zm-21.42725,.45044c0,5.89966,3.19568,11.18481,8.80853,11.18481,5.65381,0,8.84949-5.20312,8.84949-11.47144,0-5.48999-2.86792-11.22583-8.80853-11.22583-5.89966,0-8.84949,5.44897-8.84949,11.51245Z"/><path class="uuid-cfe05fdd-f0a5-42f1-943b-85aaf03f128d" d="M132.17761,.45068h3.56439V25.07349h11.79932v2.99072h-15.36371V.45068Z"/><path class="uuid-cfe05fdd-f0a5-42f1-943b-85aaf03f128d" d="M155.97882,19.37866l-2.86786,8.68555h-3.68732L158.80573,.45068h4.30188l9.42303,27.61353h-3.81018l-2.94983-8.68555h-9.79181Zm9.05432-2.78589l-2.70398-7.94824c-.61456-1.80273-1.02423-3.44141-1.43396-5.03931h-.08191c-.40973,1.63867-.86035,3.3186-1.39301,4.99829l-2.70398,7.98926h8.31683Z"/><path class="uuid-cfe05fdd-f0a5-42f1-943b-85aaf03f128d" d="M178.67438,3.48242h-8.3988V.45068h20.44397V3.48242h-8.43982V28.06421h-3.60535V3.48242Z"/><path class="uuid-cfe05fdd-f0a5-42f1-943b-85aaf03f128d" d="M208.08875,15.11768h-10.73407v9.95581h11.9632v2.99072h-15.52759V.45068h14.91302V3.44141h-11.34863V12.16797h10.73407v2.94971Z"/><path class="uuid-cfe05fdd-f0a5-42f1-943b-85aaf03f128d" d="M220.2132,28.06421v-11.71729L211.48663,.45068h4.05603l3.89215,7.62012c1.06519,2.0896,1.88458,3.76929,2.74493,5.69482h.08197c.77844-1.80249,1.72076-3.60522,2.78595-5.69482l3.97406-7.62012h4.05603l-9.25922,15.85522v11.7583h-3.60535Z"/><path class="uuid-cfe05fdd-f0a5-42f1-943b-85aaf03f128d" d="M244.91437,.77832c1.7207-.28687,3.97406-.53247,6.84198-.53247,3.52338,0,6.10449,.81934,7.74329,2.29419,1.51587,1.31104,2.41724,3.3186,2.41724,5.77661,0,2.49927-.73749,4.46582-2.13043,5.89966-1.88464,2.00757-4.9574,3.03174-8.43982,3.03174-1.06519,0-2.04846-.04077-2.86786-.24561v11.06177h-3.56439V.77832Zm3.56439,13.31519c.77838,.20483,1.76166,.28687,2.94983,.28687,4.30182,0,6.92389-2.0896,6.92389-5.89966,0-3.64648-2.58112-5.4082-6.51422-5.4082-1.55682,0-2.74493,.12305-3.3595,.28687V14.09351Z"/><path class="uuid-cfe05fdd-f0a5-42f1-943b-85aaf03f128d" d="M266.70837,.81934c1.80267-.36865,4.38379-.57349,6.84198-.57349,3.81018,0,6.26837,.69629,7.98914,2.25317,1.39294,1.229,2.17139,3.11377,2.17139,5.24414,0,3.64624-2.29431,6.06348-5.20319,7.04688v.1228c2.13043,.73755,3.40051,2.7041,4.05603,5.57202,.90131,3.85107,1.55682,6.51416,2.13043,7.57935h-3.68732c-.45062-.77832-1.06519-3.15479-1.84363-6.59619-.8194-3.81006-2.29431-5.24414-5.53094-5.36694h-3.3595v11.96313h-3.56439V.81934Zm3.56439,12.57764h3.6463c3.81018,0,6.22742-2.08936,6.22742-5.24414,0-3.56445-2.58112-5.12109-6.35034-5.16211-1.7207,0-2.94983,.16382-3.52338,.32764V13.39697Z"/><path class="uuid-cfe05fdd-f0a5-42f1-943b-85aaf03f128d" d="M312.46918,13.9707c0,9.50488-5.77673,14.54419-12.82355,14.54419-7.29266,0-12.41388-5.65381-12.41388-14.01172,0-8.76758,5.44897-14.50317,12.82355-14.50317,7.53845,0,12.41388,5.77661,12.41388,13.9707Zm-21.42725,.45044c0,5.89966,3.19568,11.18481,8.80853,11.18481,5.65387,0,8.84949-5.20312,8.84949-11.47144,0-5.48999-2.86786-11.22583-8.80853-11.22583-5.89966,0-8.84949,5.44897-8.84949,11.51245Z"/><path class="uuid-cfe05fdd-f0a5-42f1-943b-85aaf03f128d" d="M317.09619,.81934c2.17139-.32788,4.7525-.57349,7.57941-.57349,5.12122,0,8.76758,1.18799,11.18481,3.44141,2.45813,2.25317,3.89209,5.44897,3.89209,9.91455,0,4.50684-1.39294,8.19409-3.97406,10.73413-2.58112,2.58105-6.84198,3.97412-12.20905,3.97412-2.5401,0-4.67053-.12305-6.47321-.32788V.81934Zm3.56439,24.41797c.90131,.16382,2.21234,.20483,3.60535,.20483,7.62036,0,11.7583-4.26099,11.7583-11.71729,.04102-6.5144-3.6463-10.65234-11.18475-10.65234-1.84363,0-3.23663,.16406-4.17889,.3689V25.2373Z"/><path class="uuid-cfe05fdd-f0a5-42f1-943b-85aaf03f128d" d="M347.94354,.45068V16.79761c0,6.18628,2.745,8.80835,6.43225,8.80835,4.09698,0,6.71906-2.70386,6.71906-8.80835V.45068h3.60535V16.55176c0,8.48071-4.4657,11.96313-10.44733,11.96313-5.65381,0-9.91467-3.23657-9.91467-11.79932V.45068h3.60535Z"/><path class="uuid-cfe05fdd-f0a5-42f1-943b-85aaf03f128d" d="M390.18066,27.16284c-1.31104,.65552-3.93311,1.31104-7.29266,1.31104-7.78424,0-13.64294-4.91626-13.64294-13.9707,0-8.64453,5.8587-14.50317,14.42139-14.50317,3.44147,0,5.61285,.7373,6.55518,1.229l-.86035,2.90869c-1.35205-.65527-3.27759-1.14697-5.5719-1.14697-6.47327,0-10.77509,4.13794-10.77509,11.38965,0,6.76001,3.89215,11.10278,10.61121,11.10278,2.17139,0,4.38373-.45068,5.81769-1.14722l.73749,2.8269Z"/><path class="uuid-cfe05fdd-f0a5-42f1-943b-85aaf03f128d" d="M401.03497,3.48242h-8.3988V.45068h20.44397V3.48242h-8.43982V28.06421h-3.60535V3.48242Z"/></g><g><path class="uuid-cfe05fdd-f0a5-42f1-943b-85aaf03f128d" d="M2.52875,83.78149c3.26294,1.71313,8.48364,3.42627,13.78595,3.42627,5.71014,0,8.72833-2.36572,8.72833-5.95483,0-3.42627-2.61035-5.38403-9.21777-7.66797C6.68903,70.32202,.65259,65.2644,.65259,57.27026c0-9.3811,7.91266-16.47778,20.80121-16.47778,6.28119,0,10.7677,1.22339,14.03064,2.77344l-2.77344,9.9519c-2.12097-1.06055-6.11804-2.61035-11.42029-2.61035-5.38391,0-7.99426,2.52881-7.99426,5.30225,0,3.50757,3.01825,5.05762,10.19672,7.74951,9.70721,3.58911,14.19379,8.64673,14.19379,16.39624,0,9.21777-7.01532,17.04883-22.10645,17.04883-6.28113,0-12.48071-1.71289-15.58051-3.42603l2.52875-10.19678Z"/><path class="uuid-cfe05fdd-f0a5-42f1-943b-85aaf03f128d" d="M46.172,42.34229c3.83392-.65259,9.21783-1.14209,16.80414-1.14209,7.66791,0,13.1333,1.46826,16.80414,4.40503,3.58923,2.77344,5.87329,7.34155,5.87329,12.72534s-1.71307,10.03369-5.05756,13.05176c-4.24182,3.91553-10.52295,5.79175-17.86462,5.79175-1.63147,0-3.09973-.08154-4.24182-.32617v19.74072h-12.31757V42.34229Zm12.31757,24.96143c1.06049,.24463,2.28406,.32642,4.16028,.32642,6.60742,0,10.68616-3.34448,10.68616-8.8916,0-5.05762-3.50769-8.07568-9.78882-8.07568-2.44727,0-4.16028,.16309-5.05762,.40771v16.23315Z"/><path class="uuid-cfe05fdd-f0a5-42f1-943b-85aaf03f128d" d="M143.89862,68.52734c0,18.10938-10.84924,28.9585-27.00079,28.9585-16.23309,0-25.85883-12.31738-25.85883-28.06128,0-16.47778,10.60461-28.79541,26.7561-28.79541,16.88574,0,26.10352,12.64404,26.10352,27.89819Zm-39.72626,.65259c0,10.84937,5.05756,18.43555,13.37805,18.43555,8.40204,0,13.2149-7.99414,13.2149-18.68018,0-9.95215-4.64966-18.43579-13.2149-18.43579-8.48364,0-13.37805,7.99438-13.37805,18.68042Z"/><path class="uuid-cfe05fdd-f0a5-42f1-943b-85aaf03f128d" d="M160.46014,52.04956h-14.84631v-10.44141h42.255v10.44141h-15.00952v44.53906h-12.39917V52.04956Z"/><path class="uuid-cfe05fdd-f0a5-42f1-943b-85aaf03f128d" d="M194.55902,41.60815h12.39917v44.53906h21.86169v10.44141h-34.26086V41.60815Z"/><path class="uuid-cfe05fdd-f0a5-42f1-943b-85aaf03f128d" d="M248.64301,41.60815v54.98047h-12.39917V41.60815h12.39917Z"/><path class="uuid-cfe05fdd-f0a5-42f1-943b-85aaf03f128d" d="M305.33661,94.05981c-3.83392,1.30518-11.09399,3.09985-18.354,3.09985-10.03357,0-17.29358-2.52881-22.35114-7.34155-4.97601-4.81299-7.74945-11.99146-7.74945-20.06714,.08154-18.27246,13.37805-28.71387,31.40576-28.71387,7.09692,0,12.56232,1.38672,15.25427,2.61035l-2.61035,10.03345c-3.01825-1.38672-6.68909-2.36548-12.72546-2.36548-10.35986,0-18.27246,5.7915-18.27246,17.78296,0,11.42017,7.17847,18.02759,17.37512,18.02759,2.7735,0,5.05756-.32617,6.03644-.73413v-11.58325h-8.48364v-9.70728h20.47491v28.9585Z"/><path class="uuid-cfe05fdd-f0a5-42f1-943b-85aaf03f128d" d="M327.52643,41.60815v21.12744h20.47498v-21.12744h12.39917v54.98047h-12.39917v-23.00366h-20.47498v23.00366h-12.39917V41.60815h12.39917Z"/><path class="uuid-cfe05fdd-f0a5-42f1-943b-85aaf03f128d" d="M381.93805,52.04956h-14.84631v-10.44141h42.255v10.44141h-15.00952v44.53906h-12.39917V52.04956Z"/></g></svg>