<?xml version="1.0" encoding="UTF-8"?><svg id="uuid-cbbffe57-108d-40e2-ba1e-15fbc891d921" xmlns="http://www.w3.org/2000/svg" viewBox="0 0 472.85938 139.62207"><defs><style>.uuid-678b237c-7894-4047-96e3-1075e390e08e{fill:#12202b;}</style></defs><path class="uuid-678b237c-7894-4047-96e3-1075e390e08e" d="m14.42383.89551v34.65723c0,10.47803,4.03027,15.76172,10.92578,15.76172,7.16406,0,11.10449-5.01514,11.10449-15.76172V.89551h13.6123v33.85156c0,18.62695-9.40332,27.49268-25.16406,27.49268C9.67773,62.23975.81152,53.73242.81152,34.56787V.89551h13.6123Z"/><path class="uuid-678b237c-7894-4047-96e3-1075e390e08e" d="m61.88867,61.25488V.89551h15.94141l12.53711,22.12012c3.58203,6.35791,7.0752,13.88086,9.85059,20.68652h.17969c-.80664-7.97021-1.0752-16.11963-1.0752-25.25391V.89551h12.53809v60.35938h-14.3291l-12.89551-23.28418c-3.58203-6.44775-7.6123-14.23877-10.47754-21.31348h-.3584c.44727,8.05957.62695,16.56738.62695,26.41846v18.1792h-12.53809Z"/><path class="uuid-678b237c-7894-4047-96e3-1075e390e08e" d="m123.68164,1.70166c4.20898-.71631,10.12012-1.25391,18.44824-1.25391,8.41797,0,14.41797,1.61182,18.44824,4.83594,3.94043,3.04492,6.44824,8.06006,6.44824,13.97021,0,5.91064-1.88086,11.01514-5.55273,14.32861-4.65625,4.29883-11.55273,6.3584-19.6123,6.3584-1.79102,0-3.40332-.08936-4.65625-.35791v21.67188h-13.52344V1.70166Zm13.52344,27.40332c1.16406.26855,2.50684.3584,4.56641.3584,7.25391,0,11.73242-3.67188,11.73242-9.76123,0-5.55273-3.85156-8.86621-10.74707-8.86621-2.68652,0-4.56738.1792-5.55176.44775v17.82129Z"/><path class="uuid-678b237c-7894-4047-96e3-1075e390e08e" d="m184.40137,45.76221l-4.29883,15.49268h-14.05957L184.40137.89551h17.91016l18.80664,60.35938h-14.77637l-4.65625-15.49268h-17.28418Zm15.31348-10.20947l-3.76172-12.80615c-1.07422-3.58203-2.14844-8.05957-3.04395-11.64209h-.17969c-.89551,3.58252-1.79102,8.14941-2.77637,11.64209l-3.58203,12.80615h13.34375Z"/><path class="uuid-678b237c-7894-4047-96e3-1075e390e08e" d="m271.09082,59.64307c-2.41797,1.16406-8.14941,2.59668-15.40332,2.59668-20.86621,0-31.6123-13.07471-31.6123-30.26904,0-20.59717,14.68652-31.9707,32.95508-31.9707,7.0752,0,12.44824,1.34326,14.86621,2.68652l-2.86523,10.74658c-2.6875-1.16406-6.53809-2.23877-11.46289-2.23877-10.74707,0-19.16504,6.5376-19.16504,19.9707,0,12.08936,7.16406,19.70166,19.25391,19.70166,4.20898,0,8.68652-.80615,11.46289-1.97021l1.9707,10.74658Z"/><path class="uuid-678b237c-7894-4047-96e3-1075e390e08e" d="m280.13672.89551h13.52344v26.68701h.17871c1.34375-2.32812,2.77637-4.47754,4.20898-6.62695l13.6123-20.06006h16.83594l-19.9707,25.70215,20.95605,34.65723h-15.85156l-14.86523-26.06006-5.10449,6.3584v19.70166h-13.52344V.89551Z"/><path class="uuid-678b237c-7894-4047-96e3-1075e390e08e" d="m348.82617.89551v60.35938h-13.6123V.89551h13.6123Z"/><path class="uuid-678b237c-7894-4047-96e3-1075e390e08e" d="m360.64648,61.25488V.89551h15.94141l12.53711,22.12012c3.58203,6.35791,7.0752,13.88086,9.85059,20.68652h.17969c-.80664-7.97021-1.0752-16.11963-1.0752-25.25391V.89551h12.53809v60.35938h-14.3291l-12.89551-23.28418c-3.58203-6.44775-7.6123-14.23877-10.47754-21.31348h-.3584c.44727,8.05957.62695,16.56738.62695,26.41846v18.1792h-12.53809Z"/><path class="uuid-678b237c-7894-4047-96e3-1075e390e08e" d="m472.85938,58.47852c-4.20898,1.43311-12.17871,3.40332-20.14941,3.40332-11.01465,0-18.98535-2.77637-24.53809-8.06006-5.46191-5.28369-8.50684-13.16406-8.50684-22.03027.08887-20.06006,14.68652-31.52295,34.47754-31.52295,7.79102,0,13.79199,1.52246,16.74707,2.86572l-2.86621,11.01514c-3.31348-1.52246-7.34277-2.59668-13.96973-2.59668-11.37402,0-20.06055,6.35791-20.06055,19.52246,0,12.5376,7.88086,19.7915,19.0752,19.7915,3.04492,0,5.55176-.3584,6.62695-.80615v-12.71631h-9.31348v-10.65723h22.47754v31.7915Z"/><path class="uuid-678b237c-7894-4047-96e3-1075e390e08e" d="m2.99121,123.41016c3.85938,2.02734,10.03516,4.05371,16.30762,4.05371,6.75488,0,10.3252-2.79883,10.3252-7.04492,0-4.05273-3.08789-6.36816-10.9043-9.07031C7.91211,107.48828.77148,101.50586.77148,92.04883c0-11.09668,9.36035-19.49219,24.60645-19.49219,7.43066,0,12.7373,1.44727,16.59766,3.28125l-3.28125,11.77246c-2.50879-1.25488-7.2373-3.08789-13.50879-3.08789-6.36914,0-9.45703,2.99121-9.45703,6.27246,0,4.14941,3.57031,5.98242,12.0625,9.16699,11.48242,4.24609,16.79004,10.22852,16.79004,19.39551,0,10.9043-8.29883,20.16797-26.15039,20.16797-7.43066,0-14.76465-2.02637-18.43066-4.05273l2.99121-12.0625Z"/><path class="uuid-678b237c-7894-4047-96e3-1075e390e08e" d="m114.15137,105.36523c0,21.42285-12.83398,34.25684-31.94043,34.25684-19.20312,0-30.58984-14.57129-30.58984-33.19531,0-19.49219,12.54492-34.0625,31.65137-34.0625,19.97461,0,30.87891,14.95703,30.87891,33.00098Zm-46.99414.77246c0,12.83398,5.9834,21.80859,15.8252,21.80859,9.93945,0,15.63281-9.45703,15.63281-22.09766,0-11.77344-5.5-21.80859-15.63281-21.80859-10.03516,0-15.8252,9.45703-15.8252,22.09766Z"/><path class="uuid-678b237c-7894-4047-96e3-1075e390e08e" d="m123.89258,73.52148h39.66016v12.0625h-24.99219v14.86035h23.35254v11.96582h-23.35254v26.15039h-14.66797v-65.03906Z"/><path class="uuid-678b237c-7894-4047-96e3-1075e390e08e" d="m187.28711,85.87305h-17.5625v-12.35156h49.98535v12.35156h-17.75488v52.6875h-14.66797v-52.6875Z"/><path class="uuid-678b237c-7894-4047-96e3-1075e390e08e" d="m240.74121,138.56055l-15.43945-65.03906h15.72949l4.9209,26.72949c1.44727,7.81641,2.79883,16.21191,3.86035,22.77344h.19238c1.06152-7.04395,2.60547-14.86035,4.24609-22.96582l5.5-26.53711h15.63281l5.21094,27.40527c1.44727,7.62305,2.50879,14.57129,3.47363,21.80859h.19336c.96484-7.2373,2.41211-14.86035,3.7627-22.67676l5.30762-26.53711h14.95703l-16.79004,65.03906h-15.92285l-5.5-27.98438c-1.25391-6.56152-2.31543-12.64062-3.08789-20.07129h-.19238c-1.1582,7.33398-2.21973,13.50977-3.76367,20.07129l-6.17578,27.98438h-16.11523Z"/><path class="uuid-678b237c-7894-4047-96e3-1075e390e08e" d="m325.84668,121.86621l-4.63184,16.69434h-15.14941l19.78125-65.03906h19.2998l20.26367,65.03906h-15.92188l-5.01758-16.69434h-18.62402Zm16.50098-11l-4.05273-13.79883c-1.1582-3.86035-2.31641-8.68457-3.28125-12.54492h-.19238c-.96484,3.86035-1.93066,8.78125-2.99121,12.54492l-3.86035,13.79883h14.37793Z"/><path class="uuid-678b237c-7894-4047-96e3-1075e390e08e" d="m373.99414,74.39062c4.72754-.77246,11.67578-1.35156,19.58887-1.35156,9.64941,0,16.4043,1.44727,21.03613,5.11426,3.95605,3.08789,6.0791,7.71973,6.0791,13.70312,0,8.20215-5.88672,13.89551-11.4834,15.92188v.28906c4.53516,1.83398,7.04492,6.0791,8.68457,12.0625,2.02637,7.42969,3.95703,15.92188,5.21094,18.43066h-15.05371c-.96484-1.92969-2.60547-7.14062-4.43848-15.15039-1.83301-8.20215-4.63184-10.32422-10.71094-10.4209h-4.34277v25.57129h-14.57031v-64.16992Zm14.57031,27.9834h5.79004c7.33398,0,11.67578-3.66699,11.67578-9.36035,0-5.88574-4.05273-8.97363-10.80762-8.97363-3.57031,0-5.59668.19336-6.6582.48242v17.85156Z"/><path class="uuid-678b237c-7894-4047-96e3-1075e390e08e" d="m469.90625,111.05859h-23.93066v15.43945h26.72949v12.0625h-41.39746v-65.03906h40.04688v12.0625h-25.37891v13.50977h23.93066v11.96484Z"/></svg>