<?xml version="1.0" encoding="UTF-8"?><svg id="uuid-bc2c4d3c-8e68-4932-9ab5-bb3b3194c181" xmlns="http://www.w3.org/2000/svg" viewBox="0 0 572.24268 38.11719"><defs><style>.uuid-07ce778d-8a83-4ea1-9274-f80bb9b72796{fill:#fff;}</style></defs><path class="uuid-07ce778d-8a83-4ea1-9274-f80bb9b72796" d="m8.3125.65625v21.16406c0,6.39844,2.46094,9.625,6.67188,9.625,4.375,0,6.78125-3.0625,6.78125-9.625V.65625h8.3125v20.67188c0,11.375-5.74219,16.78906-15.36719,16.78906-9.29688,0-14.71094-5.19531-14.71094-16.89844V.65625h8.3125Z"/><path class="uuid-07ce778d-8a83-4ea1-9274-f80bb9b72796" d="m37.29248,37.51562V.65625h9.73438l7.65625,13.50781c2.1875,3.88281,4.32031,8.47656,6.01562,12.63281h.10938c-.49219-4.86719-.65625-9.84375-.65625-15.42188V.65625h7.65625v36.85938h-8.75l-7.875-14.21875c-2.1875-3.9375-4.64844-8.69531-6.39844-13.01562h-.21875c.27344,4.92188.38281,10.11719.38281,16.13281v11.10156h-7.65625Z"/><path class="uuid-07ce778d-8a83-4ea1-9274-f80bb9b72796" d="m75.02246,1.14844c2.57031-.4375,6.17969-.76562,11.26562-.76562,5.14062,0,8.80469.98438,11.26562,2.95312,2.40625,1.85938,3.9375,4.92188,3.9375,8.53125s-1.14844,6.72656-3.39062,8.75c-2.84375,2.625-7.05469,3.88281-11.97656,3.88281-1.09375,0-2.07812-.05469-2.84375-.21875v13.23438h-8.25781V1.14844Zm8.25781,16.73438c.71094.16406,1.53125.21875,2.78906.21875,4.42969,0,7.16406-2.24219,7.16406-5.96094,0-3.39062-2.35156-5.41406-6.5625-5.41406-1.64062,0-2.78906.10938-3.39062.27344v10.88281Z"/><path class="uuid-07ce778d-8a83-4ea1-9274-f80bb9b72796" d="m112.09766,28.05469l-2.625,9.46094h-8.58594L112.09766.65625h10.9375l11.48438,36.85938h-9.02344l-2.84375-9.46094h-10.55469Zm9.35156-6.23438l-2.29688-7.82031c-.65625-2.1875-1.3125-4.92188-1.85938-7.10938h-.10938c-.54688,2.1875-1.09375,4.97656-1.69531,7.10938l-2.1875,7.82031h8.14844Z"/><path class="uuid-07ce778d-8a83-4ea1-9274-f80bb9b72796" d="m165.03125,36.53125c-1.47656.71094-4.97656,1.58594-9.40625,1.58594-12.74219,0-19.30469-7.98438-19.30469-18.48438C136.32031,7.05469,145.28906.10938,156.44531.10938c4.32031,0,7.60156.82031,9.07812,1.64062l-1.75,6.5625c-1.64062-.71094-3.99219-1.36719-7-1.36719-6.5625,0-11.70312,3.99219-11.70312,12.19531,0,7.38281,4.375,12.03125,11.75781,12.03125,2.57031,0,5.30469-.49219,7-1.20312l1.20312,6.5625Z"/><path class="uuid-07ce778d-8a83-4ea1-9274-f80bb9b72796" d="m170.55078.65625h8.25781v16.29688h.10938c.82031-1.42188,1.69531-2.73438,2.57031-4.04688l8.3125-12.25h10.28125l-12.19531,15.69531,12.79688,21.16406h-9.67969l-9.07812-15.91406-3.11719,3.88281v12.03125h-8.25781V.65625Z"/><path class="uuid-07ce778d-8a83-4ea1-9274-f80bb9b72796" d="m212.49268.65625v36.85938h-8.3125V.65625h8.3125Z"/><path class="uuid-07ce778d-8a83-4ea1-9274-f80bb9b72796" d="m219.70947,37.51562V.65625h9.73438l7.65625,13.50781c2.1875,3.88281,4.32031,8.47656,6.01562,12.63281h.10938c-.49219-4.86719-.65625-9.84375-.65625-15.42188V.65625h7.65625v36.85938h-8.75l-7.875-14.21875c-2.1875-3.9375-4.64844-8.69531-6.39844-13.01562h-.21875c.27344,4.92188.38281,10.11719.38281,16.13281v11.10156h-7.65625Z"/><path class="uuid-07ce778d-8a83-4ea1-9274-f80bb9b72796" d="m288.22803,35.82031c-2.57031.875-7.4375,2.07812-12.30469,2.07812-6.72656,0-11.59375-1.69531-14.98438-4.92188-3.33594-3.22656-5.19531-8.03906-5.19531-13.45312.05469-12.25,8.96875-19.25,21.05469-19.25,4.75781,0,8.42188.92969,10.22656,1.75l-1.75,6.72656c-2.02344-.92969-4.48438-1.58594-8.53125-1.58594-6.94531,0-12.25,3.88281-12.25,11.92188,0,7.65625,4.8125,12.08594,11.64844,12.08594,1.85938,0,3.39062-.21875,4.04688-.49219v-7.76562h-5.6875v-6.50781h13.72656v19.41406Z"/><path class="uuid-07ce778d-8a83-4ea1-9274-f80bb9b72796" d="m306.05127,28.92969c2.1875,1.14844,5.6875,2.29688,9.24219,2.29688,3.82812,0,5.85156-1.58594,5.85156-3.99219,0-2.29688-1.75-3.60938-6.17969-5.14062-6.125-2.1875-10.17188-5.57812-10.17188-10.9375,0-6.28906,5.30469-11.04688,13.94531-11.04688,4.21094,0,7.21875.82031,9.40625,1.85938l-1.85938,6.67188c-1.42188-.71094-4.10156-1.75-7.65625-1.75-3.60938,0-5.35938,1.69531-5.35938,3.55469,0,2.35156,2.02344,3.39062,6.83594,5.19531,6.50781,2.40625,9.51562,5.79688,9.51562,10.99219,0,6.17969-4.70312,11.42969-14.82031,11.42969-4.21094,0-8.36719-1.14844-10.44531-2.29688l1.69531-6.83594Z"/><path class="uuid-07ce778d-8a83-4ea1-9274-f80bb9b72796" d="m369.04736,18.70312c0,12.14062-7.27344,19.41406-18.10156,19.41406-10.88281,0-17.33594-8.25781-17.33594-18.8125,0-11.04688,7.10938-19.30469,17.9375-19.30469,11.32031,0,17.5,8.47656,17.5,18.70312Zm-26.63281.4375c0,7.27344,3.39062,12.35938,8.96875,12.35938,5.63281,0,8.85938-5.35938,8.85938-12.52344,0-6.67188-3.11719-12.35938-8.85938-12.35938-5.6875,0-8.96875,5.35938-8.96875,12.52344Z"/><path class="uuid-07ce778d-8a83-4ea1-9274-f80bb9b72796" d="m374.56689.65625h22.47656v6.83594h-14.16406v8.42188h13.23438v6.78125h-13.23438v14.82031h-8.3125V.65625Z"/><path class="uuid-07ce778d-8a83-4ea1-9274-f80bb9b72796" d="m410.49268,7.65625h-9.95312V.65625h28.32812v7h-10.0625v29.85938h-8.3125V7.65625Z"/><path class="uuid-07ce778d-8a83-4ea1-9274-f80bb9b72796" d="m440.78662,37.51562L432.03662.65625h8.91406l2.78906,15.14844c.82031,4.42969,1.58594,9.1875,2.1875,12.90625h.10938c.60156-3.99219,1.47656-8.42188,2.40625-13.01562l3.11719-15.03906h8.85938l2.95312,15.53125c.82031,4.32031,1.42188,8.25781,1.96875,12.35938h.10938c.54688-4.10156,1.36719-8.42188,2.13281-12.85156l3.00781-15.03906h8.47656l-9.51562,36.85938h-9.02344l-3.11719-15.85938c-.71094-3.71875-1.3125-7.16406-1.75-11.375h-.10938c-.65625,4.15625-1.25781,7.65625-2.13281,11.375l-3.5,15.85938h-9.13281Z"/><path class="uuid-07ce778d-8a83-4ea1-9274-f80bb9b72796" d="m489.01611,28.05469l-2.625,9.46094h-8.58594L489.01611.65625h10.9375l11.48438,36.85938h-9.02344l-2.84375-9.46094h-10.55469Zm9.35156-6.23438l-2.29688-7.82031c-.65625-2.1875-1.3125-4.92188-1.85938-7.10938h-.10938c-.54688,2.1875-1.09375,4.97656-1.69531,7.10938l-2.1875,7.82031h8.14844Z"/><path class="uuid-07ce778d-8a83-4ea1-9274-f80bb9b72796" d="m516.30127,1.14844c2.67969-.4375,6.61719-.76562,11.10156-.76562,5.46875,0,9.29688.82031,11.92188,2.89844,2.24219,1.75,3.44531,4.375,3.44531,7.76562,0,4.64844-3.33594,7.875-6.50781,9.02344v.16406c2.57031,1.03906,3.99219,3.44531,4.92188,6.83594,1.14844,4.21094,2.24219,9.02344,2.95312,10.44531h-8.53125c-.54688-1.09375-1.47656-4.04688-2.51562-8.58594-1.03906-4.64844-2.625-5.85156-6.07031-5.90625h-2.46094v14.49219h-8.25781V1.14844Zm8.25781,15.85938h3.28125c4.15625,0,6.61719-2.07812,6.61719-5.30469,0-3.33594-2.29688-5.08594-6.125-5.08594-2.02344,0-3.17188.10938-3.77344.27344v10.11719Z"/><path class="uuid-07ce778d-8a83-4ea1-9274-f80bb9b72796" d="m570.65674,21.92969h-13.5625v8.75h15.14844v6.83594h-23.46094V.65625h22.69531v6.83594h-14.38281v7.65625h13.5625v6.78125Z"/></svg>