<?xml version="1.0" encoding="UTF-8"?><svg id="uuid-130f053c-e351-4d2a-a555-044020b418ad" xmlns="http://www.w3.org/2000/svg" viewBox="0 0 398.63333 172.62106"><defs><style>.uuid-409fde73-9705-494c-8735-66f5d61707c9{fill:#fff;}.uuid-3ba9b200-6212-44b4-b675-03dc73c0a5df{fill:#5c9fd8;}.uuid-adc8d6e2-1749-419a-8bb8-38d2c9f77b5a{fill:#4d87b2;}</style></defs><g><g><path class="uuid-409fde73-9705-494c-8735-66f5d61707c9" d="M77.83625,34.68585c-1.67414,.83707-5.02242,1.67414-9.31294,1.67414-9.94109,0-17.42004-6.27803-17.42004-17.83998C51.10327,7.48106,58.58222,0,69.51883,0c4.39427,0,7.16768,.94153,8.37071,1.56968l-1.09927,3.71424c-1.72742-.83707-4.18676-1.46522-7.1144-1.46522-8.26695,0-13.76049,5.28462-13.76049,14.54428,0,8.6322,4.96914,14.17832,13.55017,14.17832,2.77341,0,5.5973-.57557,7.42848-1.46522l.94223,3.60978Z"/><path class="uuid-409fde73-9705-494c-8735-66f5d61707c9" d="M88.08581,.57557V15.32877h17.05549V.57557h4.60459V35.837h-4.60459V19.30521h-17.05549v16.5318h-4.55131V.57557h4.55131Z"/><path class="uuid-409fde73-9705-494c-8735-66f5d61707c9" d="M147.77723,17.83998c0,12.13753-7.378,18.57259-16.37686,18.57259-9.31013,0-15.84966-7.21956-15.84966-17.89256,0-11.196,6.95736-18.52001,16.37406-18.52001,9.62701,0,15.85246,7.3766,15.85246,17.83998Zm-27.36114,.57557c0,7.53364,4.08019,14.28278,11.24787,14.28278,7.21816,0,11.30116-6.64469,11.30116-14.64944,0-7.00994-3.66236-14.33466-11.25068-14.33466-7.53223,0-11.29835,6.95806-11.29835,14.70132Z"/><path class="uuid-409fde73-9705-494c-8735-66f5d61707c9" d="M178.324,34.68585c-1.67414,.83707-5.02242,1.67414-9.31294,1.67414-9.94109,0-17.42004-6.27803-17.42004-17.83998,0-11.03896,7.47895-18.52001,18.41556-18.52001,4.39427,0,7.16768,.94153,8.37071,1.56968l-1.09927,3.71424c-1.72742-.83707-4.18676-1.46522-7.1144-1.46522-8.26695,0-13.76049,5.28462-13.76049,14.54428,0,8.6322,4.96914,14.17832,13.55017,14.17832,2.77341,0,5.5973-.57557,7.42848-1.46522l.94223,3.60978Z"/><path class="uuid-409fde73-9705-494c-8735-66f5d61707c9" d="M213.06033,17.83998c0,12.13753-7.378,18.57259-16.37686,18.57259-9.31013,0-15.84966-7.21956-15.84966-17.89256,0-11.196,6.95736-18.52001,16.37406-18.52001,9.62701,0,15.85246,7.3766,15.85246,17.83998Zm-27.36114,.57557c0,7.53364,4.08019,14.28278,11.24787,14.28278,7.21816,0,11.30116-6.64469,11.30116-14.64944,0-7.00994-3.66236-14.33466-11.25068-14.33466-7.53223,0-11.29835,6.95806-11.29835,14.70132Z"/><path class="uuid-409fde73-9705-494c-8735-66f5d61707c9" d="M218.9689,.57557h4.55131v31.44203h15.06727v3.8194h-19.61858V.57557Z"/><path class="uuid-409fde73-9705-494c-8735-66f5d61707c9" d="M249.35863,24.74546l-3.66236,11.09154h-4.70835L252.97052,.57557h5.49354l12.03307,35.26143h-4.86819l-3.76612-11.09154h-12.50418Zm11.56195-3.5572l-3.45204-10.14931c-.78519-2.3023-1.30678-4.39497-1.83118-6.43507h-.10376c-.5244,2.09268-1.09927,4.23723-1.7779,6.38249l-3.45484,10.20189h10.61972Z"/><path class="uuid-409fde73-9705-494c-8735-66f5d61707c9" d="M278.34063,4.44685h-10.72628V.57557h26.10763v3.87128h-10.77676v31.39015h-4.60459V4.44685Z"/><path class="uuid-409fde73-9705-494c-8735-66f5d61707c9" d="M315.90085,19.30521h-13.70721v12.7124h15.27759v3.8194h-19.8289V.57557h19.04371v3.8187h-14.4924V15.53769h13.70721v3.76752Z"/><path class="uuid-409fde73-9705-494c-8735-66f5d61707c9" d="M331.38315,35.837v-14.96281L320.24184,.57557h5.17946l4.96914,9.73077c1.36006,2.66825,2.40605,4.81351,3.50532,7.27214h.10376c.99551-2.3023,2.19854-4.60389,3.5586-7.27214l5.0729-9.73077h5.17946l-11.82275,20.24674v15.01469h-4.60459Z"/></g><g><rect class="uuid-3ba9b200-6212-44b4-b675-03dc73c0a5df" x="50.1358" y="116.06063" width="298.64215" height="56.56043"/><g><path d="M61.68408,125.79126h4.75882v32.86449h15.74871v3.99186h-20.50753v-36.85635Z"/><path d="M92.24207,125.79126v36.85635h-4.75882v-36.85635h4.75882Z"/><path d="M108.64137,162.64761l-12.03026-36.85635h5.1402l5.74031,18.15476c1.58721,4.97615,2.95569,9.46016,3.93718,13.78012h.11217c1.03758-4.26527,2.5687-8.91333,4.20919-13.72544l6.23386-18.20944h5.08692l-13.18001,36.85635h-5.24957Z"/><path d="M150.13315,145.36778h-14.32414v13.28797h15.96744v3.99186h-20.72626v-36.85635h19.90462v3.99186h-15.14579v11.64748h14.32414v3.93718Z"/><path d="M157.28681,156.85121c2.13404,1.31239,5.24957,2.40605,8.53055,2.40605,4.86539,0,7.7089-2.5701,7.7089-6.28855,0-3.44503-1.96859-5.41362-6.94334-7.32752-6.01513-2.13264-9.73358-5.24957-9.73358-10.44446,0-5.74172,4.75882-10.00699,11.9209-10.00699,3.77453,0,6.50588,.87493,8.14917,1.80454l-1.31239,3.88249c-1.20583-.6562-3.66516-1.74986-6.99943-1.74986-5.03084,0-6.94614,3.00757-6.94614,5.52298,0,3.44503,2.2406,5.1402,7.32752,7.10879,6.23386,2.40605,9.40548,5.41362,9.40548,10.82724,0,5.68703-4.21199,10.6085-12.90519,10.6085-3.5558,0-7.43689-1.03898-9.40548-2.35137l1.20303-3.99186Z"/><path d="M191.88854,129.8378h-11.21142v-4.04654h27.28822v4.04654h-11.2647v32.80981h-4.81211v-32.80981Z"/><path d="M212.05676,126.2834c2.40605-.49215,5.84968-.76556,9.13066-.76556,5.08692,0,8.3679,.92961,10.66459,3.00757,1.85922,1.64049,2.8968,4.15591,2.8968,6.99943,0,4.86679-3.06225,8.09309-6.94334,9.40548v.16405c2.84352,.98429,4.53729,3.60908,5.41222,7.43689,1.20583,5.1402,2.08076,8.6946,2.84352,10.11636h-4.91867c-.60292-1.03898-1.42456-4.21059-2.46214-8.80396-1.09366-5.08552-3.06225-6.99943-7.3808-7.16347h-4.48681v15.96744h-4.75602v-36.3642Zm4.75602,16.78768h4.86819c5.08692,0,8.31182-2.78883,8.31182-6.99943,0-4.75742-3.44363-6.83538-8.47446-6.89006-2.29949,0-3.93718,.21873-4.70554,.43746v13.45202Z"/><path d="M260.54797,145.36778h-14.32414v13.28797h15.96744v3.99186h-20.72626v-36.85635h19.90462v3.99186h-15.14579v11.64748h14.32414v3.93718Z"/><path d="M274.31687,151.05481l-3.82501,11.5928h-4.92428l12.52381-36.85635h5.74312l12.57429,36.85635h-5.08412l-3.93718-11.5928h-13.07064Zm12.08635-3.71844l-3.60908-10.6085c-.82165-2.40605-1.36567-4.59337-1.91531-6.72601h-.10656c-.54963,2.18732-1.14975,4.42932-1.86203,6.67133l-3.60627,10.66319h11.09925Z"/><path d="M332.65102,146.46144c-.27482-5.1402-.60011-11.31938-.54683-15.91276h-.16545c-1.25631,4.31996-2.78743,8.91333-4.64665,13.99885l-6.50868,17.88134h-3.60627l-5.96185-17.55325c-1.74986-5.19489-3.2249-9.95231-4.26527-14.32695h-.10937c-.10937,4.59337-.38138,10.77255-.71228,16.29554l-.98149,15.80339h-4.54009l2.5715-36.85635h6.06841l6.28714,17.82666c1.53112,4.53869,2.79024,8.58523,3.71844,12.41304h.16545c.92821-3.71844,2.2406-7.76499,3.8839-12.41304l6.56196-17.82666h6.06841l2.29669,36.85635h-4.64665l-.93101-16.18617Z"/></g></g><g><path class="uuid-409fde73-9705-494c-8735-66f5d61707c9" d="M93.92988,103.15039c-2.26584,1.09156-7.6388,2.4348-14.43912,2.4348-19.5625,0-29.63539-12.25671-29.63539-28.37558,0-19.30941,13.7689-29.9712,30.8945-29.9712,6.63207,0,11.66851,1.25911,13.93435,2.51892l-2.68648,10.07429c-2.51822-1.09156-6.1273-2.09899-10.74591-2.09899-10.07289,0-17.96407,6.1287-17.96407,18.72122,0,11.3334,6.7162,18.46954,18.0482,18.46954,3.94559,0,8.14356-.75575,10.74591-1.8473l1.84801,10.07429Z"/><path class="uuid-409fde73-9705-494c-8735-66f5d61707c9" d="M151.67795,75.78224c0,18.63709-11.16375,29.80294-27.78738,29.80294-16.70776,0-26.6124-12.67664-26.6124-28.87964,0-16.95804,10.91417-29.63469,27.535-29.63469,17.37798,0,26.86478,13.01245,26.86478,28.71139Zm-40.88326,.67162c0,11.16585,5.2047,18.9736,13.7661,18.9736,8.64833,0,13.60065-8.22769,13.60065-19.22528,0-10.24255-4.78406-18.9736-13.60065-18.9736-8.72965,0-13.7661,8.22769-13.7661,19.22528Z"/><path class="uuid-409fde73-9705-494c-8735-66f5d61707c9" d="M160.05987,48.91746c4.69993-.75575,10.83004-1.25911,17.20973-1.25911,10.83004,0,17.88275,2.01486,23.2557,6.04458,5.87492,4.36553,9.57093,11.3334,9.57093,21.32357,0,10.83004-3.94559,18.30198-9.31855,22.91919-5.96185,4.95302-15.11214,7.30369-26.19456,7.30369-6.63207,0-11.41613-.41924-14.52325-.83917V48.91746Zm12.75937,46.09007c1.09366,.25168,2.93886,.25168,4.45036,.25168,11.66851,.08413,19.31011-6.29626,19.31011-19.81278,0-11.75334-6.88445-17.96617-17.96687-17.96617-2.77061,0-4.69993,.25238-5.79359,.50407v37.0232Z"/><path class="uuid-409fde73-9705-494c-8735-66f5d61707c9" d="M231.32165,48.07758v56.5843h-12.75937V48.07758h12.75937Z"/><path class="uuid-409fde73-9705-494c-8735-66f5d61707c9" d="M242.39847,104.66188V48.07758h14.94389l11.75264,20.73678c3.3567,5.96045,6.63207,13.01245,9.23442,19.39284h.16826c-.75435-7.47194-1.00673-15.11144-1.00673-23.67424v-16.45538h11.75264v56.5843h-13.43239l-12.08915-21.82764c-3.3567-6.04458-7.13683-13.34826-9.82331-19.98103h-.33371c.41783,7.55607,.58609,15.53138,.58609,24.7665v17.04217h-11.75264Z"/><path class="uuid-409fde73-9705-494c-8735-66f5d61707c9" d="M347.57773,102.05953c-3.94559,1.34324-11.41893,3.18984-18.88948,3.18984-10.32808,0-17.79862-2.60235-23.00332-7.55537-5.12057-4.95302-7.97531-12.34083-7.97531-20.65265,.08413-18.80535,13.7689-29.55126,32.32187-29.55126,7.30229,0,12.92762,1.42737,15.69823,2.68648l-2.68648,10.32668c-3.10712-1.42737-6.88445-2.4348-13.09588-2.4348-10.66179,0-18.80535,5.96045-18.80535,18.30128,0,11.75334,7.38641,18.55367,17.88275,18.55367,2.85193,0,5.2047-.33581,6.21143-.75575v-11.9209h-8.73246v-9.99087h21.07399v29.80364Z"/></g></g><g><g><polygon class="uuid-3ba9b200-6212-44b4-b675-03dc73c0a5df" points="398.63333 76.89767 376.45252 99.07849 358.39855 99.07849 380.57934 76.89767 398.63333 76.89767"/><polygon class="uuid-adc8d6e2-1749-419a-8bb8-38d2c9f77b5a" points="398.63333 76.89767 376.45252 54.71686 358.39855 54.71686 380.57934 76.89767 398.63333 76.89767"/></g><g><polygon class="uuid-3ba9b200-6212-44b4-b675-03dc73c0a5df" points="0 76.89767 22.18081 54.71686 40.23478 54.71686 18.05399 76.89767 0 76.89767"/><polygon class="uuid-adc8d6e2-1749-419a-8bb8-38d2c9f77b5a" points="0 76.89767 22.18081 99.07849 40.23478 99.07849 18.05399 76.89767 0 76.89767"/></g></g></svg>