<?xml version="1.0" encoding="UTF-8"?><svg id="uuid-351ce44d-6647-46be-aeab-a2d2f52a9de0" xmlns="http://www.w3.org/2000/svg" viewBox="0 0 478.0632 64.56713"><defs><style>.uuid-29cee68a-eedd-4ba4-8f62-f72ec9573f74{fill:#fff;}.uuid-f7bc3b60-a538-4df2-abe1-027358672a7f{fill:#faf1ea;}.uuid-f721ada2-1677-4778-baf5-00e981f522d6{fill:#12202b;}.uuid-f5501863-3a3c-499d-9ecf-3498f76ebd62,.uuid-194fecae-84e3-4a36-97b1-215909c22129{fill:#5c9fd8;}.uuid-194fecae-84e3-4a36-97b1-215909c22129,.uuid-7c105ac4-cfcc-46a2-a5a6-8651079fc603,.uuid-67676a89-bf34-4d61-9b80-e032944c261b,.uuid-7e227307-99a7-4fb4-aa09-07b38f2eb427{fill-rule:evenodd;}.uuid-7c105ac4-cfcc-46a2-a5a6-8651079fc603{fill:#091016;}.uuid-67676a89-bf34-4d61-9b80-e032944c261b{fill:#cee2f3;}.uuid-7e227307-99a7-4fb4-aa09-07b38f2eb427{fill:#f0f6fb;}</style></defs><rect class="uuid-f7bc3b60-a538-4df2-abe1-027358672a7f" x="30.34431" y="13.70295" width="417.1635" height="37.16125"/><rect class="uuid-f5501863-3a3c-499d-9ecf-3498f76ebd62" x="30.34431" y="15.35242" width="417.1635" height="33.86232"/><rect class="uuid-f721ada2-1677-4778-baf5-00e981f522d6" x="30.34431" y="17.03117" width="417.1635" height="30.50481"/><path class="uuid-7c105ac4-cfcc-46a2-a5a6-8651079fc603" d="m402.23236,43.38735v2.21493H75.62009v-2.21493h326.61226Zm0-6.20314v2.21659H75.62009v-2.21659h326.61226Zm0-6.20147v2.21493H75.62009v-2.21493h326.61226Zm0-6.20147v2.21493H75.62009v-2.21493h326.61226Zm0-6.20147v2.21526H75.62009v-2.21526h326.61226Z"/><polygon class="uuid-67676a89-bf34-4d61-9b80-e032944c261b" points="452.15567 10.14665 378.34339 10.14665 385.69543 17.78458 372.02509 32.26101 385.69543 46.73578 378.34339 54.37404 452.15567 54.37404 478.0632 32.26101 452.15567 10.14665"/><polygon class="uuid-7e227307-99a7-4fb4-aa09-07b38f2eb427" points="461.26933 22.49901 463.33017 24.25895 384.36913 24.25895 386.03025 22.49901 461.26933 22.49901"/><polygon class="uuid-7e227307-99a7-4fb4-aa09-07b38f2eb427" points="457.148 18.98075 459.20883 20.74071 387.69103 20.74071 389.35514 18.98075 457.148 18.98075"/><polygon class="uuid-7e227307-99a7-4fb4-aa09-07b38f2eb427" points="453.02367 15.46247 455.08417 17.22078 389.98251 17.22078 388.28911 15.46247 453.02367 15.46247"/><polygon class="uuid-7e227307-99a7-4fb4-aa09-07b38f2eb427" points="469.51833 29.54052 471.57916 31.30049 377.71935 31.30049 379.38013 29.54052 469.51833 29.54052"/><polygon class="uuid-7e227307-99a7-4fb4-aa09-07b38f2eb427" points="465.39699 26.0206 467.45784 27.78056 381.04091 27.78056 382.70203 26.0206 465.39699 26.0206"/><polygon class="uuid-7e227307-99a7-4fb4-aa09-07b38f2eb427" points="463.33316 40.25972 461.27266 42.01969 386.02692 42.01969 384.36614 40.25972 463.33316 40.25972"/><polygon class="uuid-7e227307-99a7-4fb4-aa09-07b38f2eb427" points="467.45784 36.73978 465.394 38.49976 382.70502 38.49976 381.04091 36.73978 467.45784 36.73978"/><polygon class="uuid-7e227307-99a7-4fb4-aa09-07b38f2eb427" points="471.57916 33.22154 469.515 34.9815 379.38013 34.9815 377.71935 33.22154 471.57916 33.22154"/><polygon class="uuid-7e227307-99a7-4fb4-aa09-07b38f2eb427" points="455.08417 47.29991 453.02367 49.05987 388.28911 49.05987 389.98251 47.29991 455.08417 47.29991"/><polygon class="uuid-7e227307-99a7-4fb4-aa09-07b38f2eb427" points="459.20883 43.78131 457.145 45.54161 389.35514 45.54161 387.69103 43.78131 459.20883 43.78131"/><polygon class="uuid-67676a89-bf34-4d61-9b80-e032944c261b" points="457.50878 22.49268 468.95286 32.26101 457.50878 42.02801 389.38777 42.02801 380.16026 32.26101 389.38777 22.49268 457.50878 22.49268"/><polygon class="uuid-194fecae-84e3-4a36-97b1-215909c22129" points="457.51876 22.49901 459.57926 24.25895 387.717 24.25895 389.38111 22.49901 457.51876 22.49901"/><polygon class="uuid-194fecae-84e3-4a36-97b1-215909c22129" points="465.76776 29.54052 467.82826 31.30049 381.06722 31.30049 382.728 29.54052 465.76776 29.54052"/><polygon class="uuid-194fecae-84e3-4a36-97b1-215909c22129" points="461.64309 26.0206 463.70694 27.78056 384.39211 27.78056 386.05289 26.0206 461.64309 26.0206"/><polygon class="uuid-194fecae-84e3-4a36-97b1-215909c22129" points="459.58259 40.25972 457.51876 42.01969 389.37778 42.01969 387.717 40.25972 459.58259 40.25972"/><polygon class="uuid-194fecae-84e3-4a36-97b1-215909c22129" points="463.70393 36.73978 461.64309 38.49976 386.05289 38.49976 384.39211 36.73978 463.70393 36.73978"/><polygon class="uuid-194fecae-84e3-4a36-97b1-215909c22129" points="467.82826 33.22154 465.76443 34.9815 382.73133 34.9815 381.06722 33.22154 467.82826 33.22154"/><path class="uuid-29cee68a-eedd-4ba4-8f62-f72ec9573f74" d="m450.87197,51.5577h-1.17352v-1.33262h.92656l.9522-.80776.86134,1.01411-1.32297,1.12627h-.24363Zm-5.1614,0v-1.33262h2.65858v1.33262h-2.65858Zm-3.99453,0v-1.33262h2.66191v1.33262h-2.66191Zm-3.99786,0v-1.33262h2.66524v1.33262h-2.66524Zm-3.98787,0v-1.33262h2.6586v1.33262h-2.6586Zm-3.99452,0v-1.33262h2.6619v1.33262h-2.6619Zm-3.99455,0v-1.33262h2.66191v1.33262h-2.66191Zm-3.99786,0v-1.33262h2.66524v1.33262h-2.66524Zm-3.98787,0v-1.33262h2.65525v1.33262h-2.65525Zm-3.99453,0v-1.33262h2.66193v1.33262h-2.66193Zm-3.99784,0v-1.33262h2.66522v1.33262h-2.66522Zm-3.98789,0v-1.33262h2.65858v1.33262h-2.65858Zm-3.99453,0v-1.33262h2.66191v1.33262h-2.66191Zm-3.99786,0v-1.33262h2.66524v1.33262h-2.66524Zm-3.98787,0v-1.33262h2.6586v1.33262h-2.6586Zm-3.99452,0v-1.33262h2.6619v1.33262h-2.6619Zm-4.85255,0l1.09198-1.12627.49724-.51687.32184.31052h1.60886v1.33262h-3.51991Zm2.51246-2.602l1.84284-1.91905.95853.92458-1.84284,1.91938-.95853-.92491h0Zm65.12429-.40138l2.02822-1.73067.86134,1.01411-2.0282,1.72435-.86136-1.00779h0Zm-64.6011-3.49863l.96851-.91027,1.82653,1.93236-.96518.91826-1.82986-1.94035h0Zm67.64342.90494l2.02156-1.7257.86467,1.00747-2.03155,1.73234-.85469-1.01411h0Zm3.03567-2.59535l2.02489-1.72402.86134,1.00579-2.02822,1.73234-.85802-1.01411h0Zm-73.41589-1.20748l.95886-.91792,1.82653,1.93869-.96518.9116-1.8202-1.93236h0Zm76.45489-1.38755l2.02156-1.72433.86134,1.01411-2.02156,1.72568-.86134-1.01546h0Zm-79.20133-1.51798l.96552-.91827,1.82653,1.94035-.96552.91661-1.82653-1.93869h0Zm82.237-1.06936l2.02158-1.73234.86133,1.01411-2.02156,1.73234-.86134-1.01411h0Zm-84.97679-1.83485l.96518-.9116,1.82986,1.93235-.96851.91827-1.82653-1.93902h0Zm88.01246-.7605l2.02822-1.72402.85802,1.00745-2.02489,1.73232-.86134-1.01576h0Zm-90.75891-2.13871l.96518-.91792,1.82654,1.93869-.96518.9116-1.82654-1.93236h0Zm93.79458-.45497l1.05005-.89032.70525-.83538,1.16355.9865-.59808.51188-1.4561,1.24143-.86467-1.01411h0Zm-94.25953-1.42847l1.82986-1.94035.96552.91826-1.82686,1.94035-.96851-.91826h0Zm92.1145-1.87678l.86134-1.01577,2.02156,1.73234-.86134,1.00745-2.02156-1.72402h0Zm-89.37437-1.02875l1.82986-1.93236.96518.9116-1.82986,1.93902-.96518-.91826h0Zm86.3387-1.56659l.86136-1.01411,2.02155,1.73234-.86134,1.01411-2.02156-1.73234h0Zm-83.59224-1.33262l1.82319-1.93869.96552.91826-1.82019,1.93203-.96851-.9116h0Zm80.55657-1.26273l.85469-1.00745,2.02822,1.72568-.86134,1.01411-2.02156-1.73234h0Zm-77.81679-1.64148l1.82987-1.94035.9655.91826-1.82986,1.93236-.96552-.91027h0Zm74.77781-.94555l.858-1.01411,2.02822,1.73234-.86467,1.00743-2.02155-1.72566h0Zm-3.04234-2.59535l.86134-1.01413,2.02156,1.73236-.85469,1.00745-2.02822-1.72568h0Zm-68.99534.63536l1.82986-1.93869.96518.91792-1.82986,1.93236-.96518-.9116h0Zm65.95967-3.22904l.86134-1.01577,2.02823,1.73234-.86136,1.01577-2.02822-1.73234h0Zm-65.54698-.66964l.96186-.92458,1.84949,1.91739-.95886.92491-1.85249-1.91772h0Zm62.69669-1.75996h-1.60254v-1.33264h2.09312l.18538.15944,2.02822,1.72568-.868,1.01411-1.83618-1.56659h0Zm-65.6608-1.33264h2.821v1.01579l.18538.19171-.95886.92624-2.04752-2.13374h0Zm60.06373,1.33264v-1.33264h2.66524v1.33264h-2.66524Zm-3.99453,0v-1.33264h2.66191v1.33264h-2.66191Zm-3.9912,0v-1.33264h2.65858v1.33264h-2.65858Zm-3.99453,0v-1.33264h2.6556v1.33264h-2.6556Zm-3.99453,0v-1.33264h2.66191v1.33264h-2.66191Zm-3.9912,0v-1.33264h2.65858v1.33264h-2.65858Zm-3.99453,0v-1.33264h2.65858v1.33264h-2.65858Zm-3.99453,0v-1.33264h2.66191v1.33264h-2.66191Zm-3.99786,0v-1.33264h2.66524v1.33264h-2.66524Zm-3.98787,0v-1.33264h2.65858v1.33264h-2.65858Zm-3.99453,0v-1.33264h2.66191v1.33264h-2.66191Zm-3.99453,0v-1.33264h2.66191v1.33264h-2.66191Zm-3.9912,0v-1.33264h2.65858v1.33264h-2.65858Zm-3.99453,0v-1.33264h2.65525v1.33264h-2.65525Zm-3.99453,0v-1.33264h2.66191v1.33264h-2.66191Z"/><polygon class="uuid-67676a89-bf34-4d61-9b80-e032944c261b" points="25.90754 54.37404 99.71981 54.37404 92.36777 46.73611 106.03811 32.25968 92.36777 17.78492 99.71981 10.14665 25.90754 10.14665 0 32.25968 25.90754 54.37404"/><polygon class="uuid-7e227307-99a7-4fb4-aa09-07b38f2eb427" points="16.79387 42.02168 14.73303 40.26174 93.69407 40.26174 92.03296 42.02168 16.79387 42.02168"/><polygon class="uuid-7e227307-99a7-4fb4-aa09-07b38f2eb427" points="20.9152 45.53995 18.85437 43.77998 90.37217 43.77998 88.70806 45.53995 20.9152 45.53995"/><polygon class="uuid-7e227307-99a7-4fb4-aa09-07b38f2eb427" points="25.03954 49.05823 22.97903 47.29991 88.08069 47.29991 89.77409 49.05823 25.03954 49.05823"/><polygon class="uuid-7e227307-99a7-4fb4-aa09-07b38f2eb427" points="8.54487 34.98017 6.48404 33.2202 100.34386 33.2202 98.68307 34.98017 8.54487 34.98017"/><polygon class="uuid-7e227307-99a7-4fb4-aa09-07b38f2eb427" points="12.66621 38.50009 10.60536 36.74013 97.02229 36.74013 95.36118 38.50009 12.66621 38.50009"/><polygon class="uuid-7e227307-99a7-4fb4-aa09-07b38f2eb427" points="14.73004 24.26097 16.79054 22.501 92.03628 22.501 93.69707 24.26097 14.73004 24.26097"/><polygon class="uuid-7e227307-99a7-4fb4-aa09-07b38f2eb427" points="10.60536 27.78091 12.6692 26.02093 95.35818 26.02093 97.02229 27.78091 10.60536 27.78091"/><polygon class="uuid-7e227307-99a7-4fb4-aa09-07b38f2eb427" points="6.48404 31.29916 8.5482 29.53919 98.68307 29.53919 100.34386 31.29916 6.48404 31.29916"/><polygon class="uuid-7e227307-99a7-4fb4-aa09-07b38f2eb427" points="22.97903 17.22078 25.03954 15.46082 89.77409 15.46082 88.08069 17.22078 22.97903 17.22078"/><polygon class="uuid-7e227307-99a7-4fb4-aa09-07b38f2eb427" points="18.85437 20.73938 20.9182 18.97908 88.70806 18.97908 90.37217 20.73938 18.85437 20.73938"/><polygon class="uuid-67676a89-bf34-4d61-9b80-e032944c261b" points="20.55442 42.02801 9.11034 32.25968 20.55442 22.49268 88.67543 22.49268 97.90294 32.25968 88.67543 42.02801 20.55442 42.02801"/><polygon class="uuid-194fecae-84e3-4a36-97b1-215909c22129" points="20.54444 42.02168 18.48394 40.26174 90.3462 40.26174 88.68209 42.02168 20.54444 42.02168"/><polygon class="uuid-194fecae-84e3-4a36-97b1-215909c22129" points="12.29545 34.98017 10.23494 33.2202 96.99598 33.2202 95.3352 34.98017 12.29545 34.98017"/><polygon class="uuid-194fecae-84e3-4a36-97b1-215909c22129" points="16.42011 38.50009 14.35626 36.74013 93.67109 36.74013 92.01031 38.50009 16.42011 38.50009"/><polygon class="uuid-194fecae-84e3-4a36-97b1-215909c22129" points="18.48061 24.26097 20.54444 22.501 88.68542 22.501 90.3462 24.26097 18.48061 24.26097"/><polygon class="uuid-194fecae-84e3-4a36-97b1-215909c22129" points="14.35928 27.78091 16.42011 26.02093 92.01031 26.02093 93.67109 27.78091 14.35928 27.78091"/><polygon class="uuid-194fecae-84e3-4a36-97b1-215909c22129" points="10.23494 31.29916 12.29877 29.53919 95.33187 29.53919 96.99598 31.29916 10.23494 31.29916"/><path class="uuid-29cee68a-eedd-4ba4-8f62-f72ec9573f74" d="m27.19123,12.96299h1.17352v1.33262h-.92656l-.9522.80776-.86134-1.01411,1.32297-1.12627h.24363Zm5.1614,0v1.33262h-2.65858v-1.33262h2.65858Zm3.99453,0v1.33262h-2.66191v-1.33262h2.66191Zm3.99786,0v1.33262h-2.66524v-1.33262h2.66524Zm3.98787,0v1.33262h-2.6586v-1.33262h2.6586Zm3.99452,0v1.33262h-2.6619v-1.33262h2.6619Zm3.99455,0v1.33262h-2.66191v-1.33262h2.66191Zm3.99786,0v1.33262h-2.66524v-1.33262h2.66524Zm3.98787,0v1.33262h-2.65525v-1.33262h2.65525Zm3.99453,0v1.33262h-2.66193v-1.33262h2.66193Zm3.99784,0v1.33262h-2.66522v-1.33262h2.66522Zm3.98789,0v1.33262h-2.65858v-1.33262h2.65858Zm3.99453,0v1.33262h-2.66191v-1.33262h2.66191Zm3.99786,0v1.33262h-2.66524v-1.33262h2.66524Zm3.98787,0v1.33262h-2.6586v-1.33262h2.6586Zm3.99452,0v1.33262h-2.6619v-1.33262h2.6619Zm4.85255,0l-1.09198,1.12627-.49724.51687-.32184-.31052h-1.60886v-1.33262h3.51991Zm-2.51246,2.602l-1.84284,1.91905-.95853-.92458,1.84284-1.91938.95853.92491h0Zm-65.12429.40138l-2.02822,1.73067-.86134-1.01411,2.0282-1.72435.86136,1.00779h0Zm64.6011,3.49863l-.96851.91027-1.82653-1.93236.96518-.91826,1.82986,1.94035h0Zm-67.64342-.90494l-2.02156,1.7257-.86467-1.00747,2.03155-1.73234.85469,1.01411h0Zm-3.03567,2.59535l-2.02489,1.72402-.86134-1.00579,2.02822-1.73234.85802,1.01411h0Zm73.41589,1.20748l-.95886.91792-1.82653-1.93869.96518-.9116,1.8202,1.93236h0Zm-76.45489,1.38755l-2.02156,1.72433-.86134-1.01411,2.02156-1.72568.86134,1.01546h0Zm79.20133,1.51798l-.96552.91827-1.82653-1.94035.96552-.91661,1.82653,1.93869h0Zm-82.237,1.06936l-2.02158,1.73234-.86133-1.01411,2.02156-1.73234.86134,1.01411h0Zm84.97679,1.83485l-.96518.9116-1.82986-1.93235.96851-.91827,1.82653,1.93902h0Zm-88.01246.7605l-2.02822,1.72402-.85802-1.00745,2.02489-1.73232.86134,1.01576h0Zm90.75891,2.13871l-.96518.91792-1.82654-1.93869.96518-.9116,1.82654,1.93236h0Zm-93.79458.45497l-1.05005.89032-.70525.83538-1.16355-.9865.59808-.51188,1.4561-1.24143.86467,1.01411h0Zm94.25953,1.42847l-1.82986,1.94035-.96552-.91826,1.82686-1.94035.96851.91826h0Zm-92.1145,1.87678l-.86134,1.01577-2.02156-1.73234.86134-1.00745,2.02156,1.72402h0Zm89.37437,1.02875l-1.82986,1.93236-.96518-.9116,1.82986-1.93902.96518.91826h0Zm-86.3387,1.56659l-.86136,1.01411-2.02155-1.73234.86134-1.01411,2.02156,1.73234h0Zm83.59224,1.33262l-1.82319,1.93869-.96552-.91826,1.82019-1.93203.96851.9116h0Zm-80.55657,1.26273l-.85469,1.00745-2.02822-1.72568.86134-1.01411,2.02156,1.73234h0Zm77.81679,1.64148l-1.82987,1.94035-.9655-.91826,1.82986-1.93236.96552.91027h0Zm-74.77781.94555l-.858,1.01411-2.02822-1.73234.86467-1.00743,2.02155,1.72566h0Zm3.04234,2.59535l-.86134,1.01413-2.02156-1.73236.85469-1.00745,2.02822,1.72568h0Zm68.99534-.63536l-1.82986,1.93869-.96518-.91792,1.82986-1.93236.96518.9116h0Zm-65.95967,3.22904l-.86134,1.01577-2.02823-1.73234.86136-1.01577,2.02822,1.73234h0Zm65.54698.66964l-.96186.92458-1.84949-1.91739.95886-.92491,1.85249,1.91772h0Zm-62.69669,1.75996h1.60254v1.33264h-2.09312l-.18538-.15944-2.02822-1.72568.868-1.01411,1.83618,1.56659h0Zm65.6608,1.33264h-2.821v-1.01579l-.18538-.19171.95886-.92624,2.04752,2.13374h0Zm-60.06373-1.33264v1.33264h-2.66524v-1.33264h2.66524Zm3.99453,0v1.33264h-2.66191v-1.33264h2.66191Zm3.9912,0v1.33264h-2.65858v-1.33264h2.65858Zm3.99453,0v1.33264h-2.6556v-1.33264h2.6556Zm3.99453,0v1.33264h-2.66191v-1.33264h2.66191Zm3.9912,0v1.33264h-2.65858v-1.33264h2.65858Zm3.99453,0v1.33264h-2.65858v-1.33264h2.65858Zm3.99453,0v1.33264h-2.66191v-1.33264h2.66191Zm3.99786,0v1.33264h-2.66524v-1.33264h2.66524Zm3.98787,0v1.33264h-2.65858v-1.33264h2.65858Zm3.99453,0v1.33264h-2.66191v-1.33264h2.66191Zm3.99453,0v1.33264h-2.66191v-1.33264h2.66191Zm3.9912,0v1.33264h-2.65858v-1.33264h2.65858Zm3.99453,0v1.33264h-2.65525v-1.33264h2.65525Zm3.99453,0v1.33264h-2.66191v-1.33264h2.66191Z"/><path class="uuid-194fecae-84e3-4a36-97b1-215909c22129" d="m107.30475,58.1287c1.77794,0,3.21939,1.44145,3.21939,3.21905,0,1.77794-1.44145,3.21937-3.21939,3.21937s-3.21939-1.44144-3.21939-3.21937c0-1.7776,1.44145-3.21905,3.21939-3.21905Z"/><path class="uuid-194fecae-84e3-4a36-97b1-215909c22129" d="m123.5508,58.1287c1.77794,0,3.21939,1.44145,3.21939,3.21905,0,1.77794-1.44145,3.21937-3.21939,3.21937-1.77627,0-3.21772-1.44144-3.21772-3.21937,0-1.7776,1.44145-3.21905,3.21772-3.21905Z"/><path class="uuid-194fecae-84e3-4a36-97b1-215909c22129" d="m139.79884,58.1287c1.7776,0,3.21906,1.44145,3.21906,3.21905,0,1.77794-1.44145,3.21937-3.21906,3.21937-1.77627,0-3.21772-1.44144-3.21772-3.21937,0-1.7776,1.44145-3.21905,3.21772-3.21905Z"/><path class="uuid-194fecae-84e3-4a36-97b1-215909c22129" d="m156.04655,58.1287c1.77627,0,3.21772,1.44145,3.21772,3.21905,0,1.77794-1.44145,3.21937-3.21772,3.21937-1.77794,0-3.21939-1.44144-3.21939-3.21937,0-1.7776,1.44145-3.21905,3.21939-3.21905Z"/><path class="uuid-194fecae-84e3-4a36-97b1-215909c22129" d="m172.29259,58.1287c1.77794,0,3.21939,1.44145,3.21939,3.21905,0,1.77794-1.44145,3.21937-3.21939,3.21937-1.7776,0-3.21772-1.44144-3.21772-3.21937,0-1.7776,1.44012-3.21905,3.21772-3.21905Z"/><path class="uuid-194fecae-84e3-4a36-97b1-215909c22129" d="m188.54062,58.1287c1.77628,0,3.21772,1.44145,3.21772,3.21905,0,1.77794-1.44144,3.21937-3.21772,3.21937-1.77794,0-3.21938-1.44144-3.21938-3.21937,0-1.7776,1.44144-3.21905,3.21938-3.21905Z"/><path class="uuid-194fecae-84e3-4a36-97b1-215909c22129" d="m204.78667,58.1287c1.77794,0,3.21939,1.44145,3.21939,3.21905,0,1.77794-1.44145,3.21937-3.21939,3.21937-1.77627,0-3.21772-1.44144-3.21772-3.21937,0-1.7776,1.44145-3.21905,3.21772-3.21905Z"/><path class="uuid-194fecae-84e3-4a36-97b1-215909c22129" d="m221.03471,58.1287c1.7776,0,3.21772,1.44145,3.21772,3.21905,0,1.77794-1.44012,3.21937-3.21772,3.21937-1.77794,0-3.21939-1.44144-3.21939-3.21937,0-1.7776,1.44145-3.21905,3.21939-3.21905Z"/><path class="uuid-194fecae-84e3-4a36-97b1-215909c22129" d="m237.28075,58.1287c1.77795,0,3.22105,1.44145,3.22105,3.21905,0,1.77794-1.44311,3.21937-3.22105,3.21937-1.77627,0-3.21771-1.44144-3.21771-3.21937,0-1.7776,1.44144-3.21905,3.21771-3.21905Z"/><path class="uuid-194fecae-84e3-4a36-97b1-215909c22129" d="m253.52846,58.1287c1.77794,0,3.21772,1.44145,3.21772,3.21905,0,1.77794-1.43979,3.21937-3.21772,3.21937-1.7776,0-3.21772-1.44144-3.21772-3.21937,0-1.7776,1.44012-3.21905,3.21772-3.21905Z"/><path class="uuid-194fecae-84e3-4a36-97b1-215909c22129" d="m269.7765,58.1287c1.77461,0,3.21772,1.44145,3.21772,3.21905,0,1.77794-1.44312,3.21937-3.21772,3.21937-1.77794,0-3.21772-1.44144-3.21772-3.21937,0-1.7776,1.43979-3.21905,3.21772-3.21905Z"/><path class="uuid-194fecae-84e3-4a36-97b1-215909c22129" d="m286.02421,58.1287c1.77461,0,3.21772,1.44145,3.21772,3.21905,0,1.77794-1.44312,3.21937-3.21772,3.21937-1.77794,0-3.22105-1.44144-3.22105-3.21937,0-1.7776,1.44312-3.21905,3.22105-3.21905Z"/><path class="uuid-194fecae-84e3-4a36-97b1-215909c22129" d="m302.26892,58.1287c1.77794,0,3.22072,1.44145,3.22072,3.21905,0,1.77794-1.44278,3.21937-3.22072,3.21937s-3.21772-1.44144-3.21772-3.21937c0-1.7776,1.4398-3.21905,3.21772-3.21905Z"/><path class="uuid-194fecae-84e3-4a36-97b1-215909c22129" d="m318.51664,58.1287c1.77792,0,3.21771,1.44145,3.21771,3.21905,0,1.77794-1.43979,3.21937-3.21771,3.21937s-3.21774-1.44144-3.21774-3.21937c0-1.7776,1.43979-3.21905,3.21774-3.21905Z"/><path class="uuid-194fecae-84e3-4a36-97b1-215909c22129" d="m334.76433,58.1287c1.77795,0,3.21772,1.44145,3.21772,3.21905,0,1.77794-1.43978,3.21937-3.21772,3.21937-1.7776,0-3.21771-1.44144-3.21771-3.21937,0-1.7776,1.44011-3.21905,3.21771-3.21905Z"/><path class="uuid-194fecae-84e3-4a36-97b1-215909c22129" d="m351.01237,58.1287c1.77794,0,3.21772,1.44145,3.21772,3.21905,0,1.77794-1.43979,3.21937-3.21772,3.21937s-3.22105-1.44144-3.22105-3.21937c0-1.7776,1.44312-3.21905,3.22105-3.21905Z"/><path class="uuid-194fecae-84e3-4a36-97b1-215909c22129" d="m367.25675,58.1287c1.77794,0,3.22105,1.44145,3.22105,3.21905,0,1.77794-1.44312,3.21937-3.22105,3.21937-1.77461,0-3.21772-1.44144-3.21772-3.21937,0-1.7776,1.44312-3.21905,3.21772-3.21905Z"/><circle class="uuid-f5501863-3a3c-499d-9ecf-3498f76ebd62" cx="107.30475" cy="3.21939" r="3.21939"/><path class="uuid-194fecae-84e3-4a36-97b1-215909c22129" d="m123.5508,0c1.77794,0,3.21939,1.44145,3.21939,3.21939s-1.44145,3.21939-3.21939,3.21939c-1.77627,0-3.21772-1.44145-3.21772-3.21939s1.44145-3.21939,3.21772-3.21939Z"/><path class="uuid-194fecae-84e3-4a36-97b1-215909c22129" d="m139.79884,0c1.7776,0,3.21906,1.44145,3.21906,3.21939s-1.44145,3.21939-3.21906,3.21939c-1.77627,0-3.21772-1.44145-3.21772-3.21939s1.44145-3.21939,3.21772-3.21939Z"/><path class="uuid-194fecae-84e3-4a36-97b1-215909c22129" d="m156.04655,0c1.77627,0,3.21772,1.44145,3.21772,3.21939s-1.44145,3.21939-3.21772,3.21939c-1.77794,0-3.21939-1.44145-3.21939-3.21939s1.44145-3.21939,3.21939-3.21939Z"/><path class="uuid-194fecae-84e3-4a36-97b1-215909c22129" d="m172.29259,0c1.77794,0,3.21939,1.44145,3.21939,3.21939s-1.44145,3.21939-3.21939,3.21939c-1.7776,0-3.21772-1.44145-3.21772-3.21939s1.44012-3.21939,3.21772-3.21939Z"/><path class="uuid-194fecae-84e3-4a36-97b1-215909c22129" d="m188.54062,0c1.77628,0,3.21772,1.44145,3.21772,3.21939s-1.44144,3.21939-3.21772,3.21939c-1.77794,0-3.21938-1.44145-3.21938-3.21939s1.44144-3.21939,3.21938-3.21939Z"/><path class="uuid-194fecae-84e3-4a36-97b1-215909c22129" d="m204.78667,0c1.77794,0,3.21939,1.44145,3.21939,3.21939s-1.44145,3.21939-3.21939,3.21939c-1.77627,0-3.21772-1.44145-3.21772-3.21939s1.44145-3.21939,3.21772-3.21939Z"/><path class="uuid-194fecae-84e3-4a36-97b1-215909c22129" d="m221.03471,0c1.7776,0,3.21772,1.44145,3.21772,3.21939s-1.44012,3.21939-3.21772,3.21939c-1.77794,0-3.21939-1.44145-3.21939-3.21939s1.44145-3.21939,3.21939-3.21939Z"/><path class="uuid-194fecae-84e3-4a36-97b1-215909c22129" d="m237.28075,0c1.77795,0,3.22105,1.44145,3.22105,3.21939s-1.44311,3.21939-3.22105,3.21939c-1.77627,0-3.21771-1.44145-3.21771-3.21939s1.44144-3.21939,3.21771-3.21939Z"/><circle class="uuid-f5501863-3a3c-499d-9ecf-3498f76ebd62" cx="253.52846" cy="3.21939" r="3.21856"/><circle class="uuid-f5501863-3a3c-499d-9ecf-3498f76ebd62" cx="269.7765" cy="3.21939" r="3.21856"/><path class="uuid-194fecae-84e3-4a36-97b1-215909c22129" d="m286.02421,0c1.77461,0,3.21772,1.44145,3.21772,3.21939s-1.44312,3.21939-3.21772,3.21939c-1.77794,0-3.22105-1.44145-3.22105-3.21939s1.44312-3.21939,3.22105-3.21939Z"/><path class="uuid-194fecae-84e3-4a36-97b1-215909c22129" d="m302.26892,0c1.77794,0,3.22072,1.44145,3.22072,3.21939s-1.44278,3.21939-3.22072,3.21939-3.21772-1.44145-3.21772-3.21939,1.4398-3.21939,3.21772-3.21939Z"/><circle class="uuid-f5501863-3a3c-499d-9ecf-3498f76ebd62" cx="318.51663" cy="3.21939" r="3.21939" transform="translate(314.72502 321.72972) rotate(-89.89707)"/><circle class="uuid-f5501863-3a3c-499d-9ecf-3498f76ebd62" cx="334.76434" cy="3.21939" r="3.21855"/><path class="uuid-194fecae-84e3-4a36-97b1-215909c22129" d="m351.01237,0c1.77794,0,3.21772,1.44145,3.21772,3.21939s-1.43979,3.21939-3.21772,3.21939-3.22105-1.44145-3.22105-3.21939,1.44312-3.21939,3.22105-3.21939Z"/><path class="uuid-194fecae-84e3-4a36-97b1-215909c22129" d="m367.25675,0c1.77794,0,3.22105,1.44145,3.22105,3.21939s-1.44312,3.21939-3.22105,3.21939c-1.77461,0-3.21772-1.44145-3.21772-3.21939s1.44312-3.21939,3.21772-3.21939Z"/><path class="uuid-29cee68a-eedd-4ba4-8f62-f72ec9573f74" d="m120.8839,37.9516c-.53271.25684-1.79541.57227-3.39355.57227-4.59717,0-6.96484-2.88086-6.96484-6.66895,0-4.53711,3.23584-7.04297,7.26074-7.04297,1.55859,0,2.74219.2959,3.2749.5918l-.63135,2.36719c-.5918-.25586-1.44043-.49316-2.52539-.49316-2.36768,0-4.22217,1.44043-4.22217,4.39941,0,2.66406,1.57861,4.34082,4.24219,4.34082.92725,0,1.91357-.17773,2.52539-.43359l.43408,2.36719Z"/><path class="uuid-29cee68a-eedd-4ba4-8f62-f72ec9573f74" d="m126.17394,34.89398l-.94727,3.41309h-3.09766l4.04492-13.29785h3.9458l4.14307,13.29785h-3.25537l-1.02588-3.41309h-3.80762Zm3.37354-2.25l-.82861-2.82129c-.23682-.78906-.47363-1.77539-.6709-2.56445h-.03955c-.19727.78906-.39453,1.79492-.61133,2.56445l-.78906,2.82129h2.93945Z"/><path class="uuid-29cee68a-eedd-4ba4-8f62-f72ec9573f74" d="m136.04162,25.00921h2.99902v10.77246h5.2876v2.52539h-8.28662v-13.29785Z"/><path class="uuid-29cee68a-eedd-4ba4-8f62-f72ec9573f74" d="m146.1256,25.00921h2.99902v10.77246h5.2876v2.52539h-8.28662v-13.29785Z"/><path class="uuid-29cee68a-eedd-4ba4-8f62-f72ec9573f74" d="m159.20861,25.00921v13.29785h-2.99902v-13.29785h2.99902Z"/><path class="uuid-29cee68a-eedd-4ba4-8f62-f72ec9573f74" d="m161.81408,38.30706v-13.29785h3.51172l2.76221,4.87305c.78906,1.40039,1.55859,3.05762,2.17041,4.55762h.03955c-.17773-1.75586-.23682-3.55176-.23682-5.56348v-3.86719h2.76221v13.29785h-3.15723l-2.84082-5.12988c-.78906-1.4209-1.67725-3.13672-2.30859-4.69531h-.07861c.09863,1.77539.13818,3.64941.13818,5.82031v4.00488h-2.76221Z"/><path class="uuid-29cee68a-eedd-4ba4-8f62-f72ec9573f74" d="m186.53869,37.69476c-.92773.31641-2.68359.75-4.43945.75-2.42676,0-4.18262-.61133-5.40576-1.77539-1.20361-1.16406-1.87451-2.90039-1.87451-4.85352.02002-4.41992,3.23584-6.94531,7.59619-6.94531,1.71631,0,3.03809.33594,3.68945.63184l-.63135,2.42676c-.72998-.33594-1.61816-.57227-3.07812-.57227-2.50537,0-4.41943,1.40039-4.41943,4.30078,0,2.7627,1.73633,4.36035,4.20264,4.36035.6709,0,1.22314-.0791,1.45996-.17773v-2.80078h-2.05176v-2.34863h4.95215v7.00391Z"/><path class="uuid-29cee68a-eedd-4ba4-8f62-f72ec9573f74" d="m195.97375,34.89398l-.94727,3.41309h-3.09766l4.04492-13.29785h3.9458l4.14307,13.29785h-3.25537l-1.02588-3.41309h-3.80762Zm3.37354-2.25l-.82861-2.82129c-.23682-.78906-.47363-1.77539-.6709-2.56445h-.03955c-.19727.78906-.39453,1.79492-.61133,2.56445l-.78906,2.82129h2.93945Z"/><path class="uuid-29cee68a-eedd-4ba4-8f62-f72ec9573f74" d="m205.84142,25.00921h2.99902v10.77246h5.2876v2.52539h-8.28662v-13.29785Z"/><path class="uuid-29cee68a-eedd-4ba4-8f62-f72ec9573f74" d="m215.92541,25.00921h2.99902v10.77246h5.2876v2.52539h-8.28662v-13.29785Z"/><path class="uuid-29cee68a-eedd-4ba4-8f62-f72ec9573f74" d="m239.72277,37.9516c-.5332.25684-1.7959.57227-3.39355.57227-4.59717,0-6.96484-2.88086-6.96484-6.66895,0-4.53711,3.23584-7.04297,7.26074-7.04297,1.55859,0,2.74219.2959,3.27539.5918l-.63184,2.36719c-.5918-.25586-1.44043-.49316-2.52539-.49316-2.36719,0-4.22217,1.44043-4.22217,4.39941,0,2.66406,1.57861,4.34082,4.2417,4.34082.92773,0,1.91406-.17773,2.52539-.43359l.43457,2.36719Z"/><path class="uuid-29cee68a-eedd-4ba4-8f62-f72ec9573f74" d="m244.73547,25.00921v5.10938h4.95215v-5.10938h2.99902v13.29785h-2.99902v-5.56445h-4.95215v5.56445h-2.99805v-13.29785h2.99805Z"/><path class="uuid-29cee68a-eedd-4ba4-8f62-f72ec9573f74" d="m267.4884,31.51996c0,4.37988-2.62402,7.00391-6.53027,7.00391-3.92676,0-6.25488-2.97949-6.25488-6.78711,0-3.98535,2.56543-6.96484,6.47168-6.96484,4.08398,0,6.31348,3.05859,6.31348,6.74805Zm-9.6084.15723c0,2.625,1.22266,4.45898,3.23535,4.45898,2.03223,0,3.19629-1.93359,3.19629-4.51758,0-2.40723-1.125-4.45898-3.19629-4.45898-2.05176,0-3.23535,1.93359-3.23535,4.51758Z"/><path class="uuid-29cee68a-eedd-4ba4-8f62-f72ec9573f74" d="m279.21105,37.9516c-.5332.25684-1.7959.57227-3.39355.57227-4.59766,0-6.96484-2.88086-6.96484-6.66895,0-4.53711,3.23535-7.04297,7.26074-7.04297,1.55859,0,2.74219.2959,3.27539.5918l-.63184,2.36719c-.5918-.25586-1.44043-.49316-2.52539-.49316-2.36719,0-4.22168,1.44043-4.22168,4.39941,0,2.66406,1.57812,4.34082,4.24121,4.34082.92773,0,1.91406-.17773,2.52539-.43359l.43457,2.36719Z"/><path class="uuid-29cee68a-eedd-4ba4-8f62-f72ec9573f74" d="m292.78722,31.51996c0,4.37988-2.62402,7.00391-6.53027,7.00391-3.92676,0-6.25488-2.97949-6.25488-6.78711,0-3.98535,2.56543-6.96484,6.47168-6.96484,4.08398,0,6.31348,3.05859,6.31348,6.74805Zm-9.6084.15723c0,2.625,1.22266,4.45898,3.23535,4.45898,2.03223,0,3.19629-1.93359,3.19629-4.51758,0-2.40723-1.125-4.45898-3.19629-4.45898-2.05176,0-3.23535,1.93359-3.23535,4.51758Z"/><path class="uuid-29cee68a-eedd-4ba4-8f62-f72ec9573f74" d="m294.7843,25.00921h2.99805v10.77246h5.28809v2.52539h-8.28613v-13.29785Z"/><path class="uuid-29cee68a-eedd-4ba4-8f62-f72ec9573f74" d="m308.06359,34.89398l-.94629,3.41309h-3.09766l4.04395-13.29785h3.94629l4.14355,13.29785h-3.25586l-1.02539-3.41309h-3.80859Zm3.37402-2.25l-.8291-2.82129c-.23633-.78906-.47266-1.77539-.66992-2.56445h-.04004c-.19727.78906-.39453,1.79492-.61133,2.56445l-.78906,2.82129h2.93945Z"/><path class="uuid-29cee68a-eedd-4ba4-8f62-f72ec9573f74" d="m318.85851,27.5346h-3.59082v-2.52539h10.21973v2.52539h-3.62988v10.77246h-2.99902v-10.77246Z"/><path class="uuid-29cee68a-eedd-4ba4-8f62-f72ec9573f74" d="m330.10656,25.00921v13.29785h-2.99805v-13.29785h2.99805Z"/><path class="uuid-29cee68a-eedd-4ba4-8f62-f72ec9573f74" d="m340.62414,32.68402h-4.89355v3.15625h5.46582v2.4668h-8.46387v-13.29785h8.1875v2.46582h-5.18945v2.7627h4.89355v2.44629Z"/><path class="uuid-29cee68a-eedd-4ba4-8f62-f72ec9573f74" d="m343.25012,25.18695c.9668-.1582,2.3877-.27637,4.00586-.27637,1.97266,0,3.35352.2959,4.30078,1.0459.80859.63086,1.24316,1.57812,1.24316,2.80078,0,1.67773-1.2041,2.8418-2.34766,3.25586v.05957c.92676.37402,1.43945,1.24219,1.77539,2.46582.41406,1.51953.80859,3.25488,1.06543,3.76855h-3.07812c-.19727-.39453-.53223-1.45996-.90723-3.09766-.375-1.67676-.94727-2.11133-2.19043-2.13086h-.8877v5.22852h-2.97949v-13.12012Zm2.97949,5.72168h1.18359c1.5,0,2.3877-.75,2.3877-1.91406,0-1.2041-.8291-1.83496-2.20996-1.83496-.72949,0-1.14453.03906-1.36133.09863v3.65039Z"/><path class="uuid-29cee68a-eedd-4ba4-8f62-f72ec9573f74" d="m355.0509,35.20941c.79004.41406,2.05273.82812,3.33496.82812,1.38086,0,2.11035-.57227,2.11035-1.43945,0-.8291-.63086-1.30273-2.22852-1.85547-2.20996-.78906-3.66992-2.01172-3.66992-3.94531,0-2.26953,1.91309-3.98535,5.03125-3.98535,1.51855,0,2.60352.2959,3.39258.6709l-.66992,2.40625c-.51367-.25586-1.48047-.63086-2.7627-.63086-1.30176,0-1.93359.61133-1.93359,1.28223,0,.84863.73047,1.22363,2.4668,1.87402,2.34766.86816,3.43262,2.0918,3.43262,3.96582,0,2.22949-1.69629,4.12402-5.34668,4.12402-1.51953,0-3.01855-.41406-3.76855-.8291l.61133-2.46582Z"/><path class="uuid-29cee68a-eedd-4ba4-8f62-f72ec9573f74" d="m366.91222,38.52386c-1.02637,0-1.73633-.76953-1.73633-1.7959,0-1.06445.72949-1.79492,1.77539-1.79492s1.73633.73047,1.75586,1.79492c0,1.02637-.69043,1.7959-1.75586,1.7959h-.03906Zm-1.08496-4.57715l-.43457-8.9375h3.11719l-.43359,8.9375h-2.24902Z"/></svg>