<svg id="ac1ebe08-b731-40d3-a1a9-cc2f739b6ad3" data-name="Layer 1" xmlns="http://www.w3.org/2000/svg" xmlns:xlink="http://www.w3.org/1999/xlink" viewBox="0 0 211.34531 128.78493"><defs><style>.f756d008-fd82-4836-9b4c-edf37ce2afa6{fill:none;}.bc8eed20-308b-44f4-9357-d70488911169{fill:#24c2e9;}.ff320f83-08ea-4634-b76c-aa4581632308{fill:#ed5698;}.af2ee25c-7e60-4cab-ba09-45f39954a9e8{fill:#f9ca70;}.f71d7990-bda6-462c-8446-7e5b18be19ee{clip-path:url(#f48fd12a-c65b-47e7-b76b-68cdbeaa9324);}.e1669a5e-5c05-4596-992b-b03d01abca40{fill:#fff;}</style><clipPath id="f48fd12a-c65b-47e7-b76b-68cdbeaa9324"><rect class="f756d008-fd82-4836-9b4c-edf37ce2afa6" width="211.34531" height="128.78493" transform="translate(211.34531 128.78493) rotate(-180)"/></clipPath></defs><polygon class="bc8eed20-308b-44f4-9357-d70488911169" points="77.51 127.273 66.76 99.803 50.646 115.087 77.51 127.273"/><polygon class="ff320f83-08ea-4634-b76c-aa4581632308" points="105.888 98.43 92.747 72.02 78.05 88.671 105.888 98.43"/><polygon class="ff320f83-08ea-4634-b76c-aa4581632308" points="134.985 61.694 137.089 32.27 115.969 39.142 134.985 61.694"/><polygon class="af2ee25c-7e60-4cab-ba09-45f39954a9e8" points="174.157 47.09 173.154 17.608 152.874 26.664 174.157 47.09"/><polygon class="bc8eed20-308b-44f4-9357-d70488911169" points="210.511 29.325 206.9 0.048 187.502 10.864 210.511 29.325"/><polygon class="bc8eed20-308b-44f4-9357-d70488911169" points="94.719 72.937 78.181 48.51 99.907 43.898 94.719 72.937"/><polygon class="ff320f83-08ea-4634-b76c-aa4581632308" points="54.872 79.966 40.563 54.17 62.612 51.501 54.872 79.966"/><polygon class="af2ee25c-7e60-4cab-ba09-45f39954a9e8" points="15.44 83.163 3.646 56.125 25.848 55.562 15.44 83.163"/><g class="f71d7990-bda6-462c-8446-7e5b18be19ee"><polygon class="af2ee25c-7e60-4cab-ba09-45f39954a9e8" points="130.873 67.757 115.283 42.714 102.234 60.686 130.873 67.757"/><path class="e1669a5e-5c05-4596-992b-b03d01abca40" d="M53.83269,113.41333c-37.0171,34.2085-79.4617,62.1551-118.5174,75.6873a.86738.86738,0,0,1-1.1056-.5361.86753.86753,0,0,1,.536-1.1056c77.7088-26.9285,168.9496-111.2466,203.3898-187.9626a.86933.86933,0,0,1,1.1482-.4371.86909.86909,0,0,1,.437,1.1494C122.41939,38.75073,90.84069,79.21323,53.83269,113.41333Z"/><path class="e1669a5e-5c05-4596-992b-b03d01abca40" d="M124.62189,37.16313c-47.9299,15.5954-98.1716,23.233-139.3073,19.1941a.86737.86737,0,0,1-.7802-.9493.8676.8676,0,0,1,.9492-.7802c81.8491,8.0331,199.988-30.4068,263.3517-85.6925a.86922.86922,0,0,1,1.2258.0831.869.869,0,0,1-.0836,1.2268C218.14479-1.97877,172.53989,21.57163,124.62189,37.16313Z"/><rect class="f756d008-fd82-4836-9b4c-edf37ce2afa6" x="31.93559" y="-12.60577" width="447.874" height="598.3258"/></g></svg>