<svg id="a6f87869-a623-45de-8786-a1af4a79df7e" data-name="Layer 1" xmlns="http://www.w3.org/2000/svg" xmlns:xlink="http://www.w3.org/1999/xlink" viewBox="0 0 211.34531 128.78493"><defs><style>.a0a5a05e-ceba-43d8-8262-fe88093bdcb4{fill:none;}.bb60e7f7-dbc6-4f7f-a674-41f9ed7d10a0{fill:#24c2e9;}.b0ef5f18-b884-4110-a7b4-6a34e3511889{fill:#ed5698;}.bb77e59c-25e1-4fc5-96d5-e161055473c2{fill:#f9ca70;}.a96d88aa-8459-417f-ab97-29456b26f48e{clip-path:url(#f0d367a3-f893-420d-a074-b87e2df90213);}.a93bb56a-ff55-4ca6-872a-a24411a31d77{fill:#fff;}</style><clipPath id="f0d367a3-f893-420d-a074-b87e2df90213"><rect class="a0a5a05e-ceba-43d8-8262-fe88093bdcb4" width="211.34531" height="128.78493"/></clipPath></defs><polygon class="bb60e7f7-dbc6-4f7f-a674-41f9ed7d10a0" points="133.836 127.273 144.585 99.803 160.7 115.087 133.836 127.273"/><polygon class="b0ef5f18-b884-4110-a7b4-6a34e3511889" points="105.458 98.43 118.598 72.02 133.296 88.671 105.458 98.43"/><polygon class="b0ef5f18-b884-4110-a7b4-6a34e3511889" points="76.361 61.694 74.256 32.27 95.377 39.142 76.361 61.694"/><polygon class="bb77e59c-25e1-4fc5-96d5-e161055473c2" points="37.188 47.09 38.192 17.608 58.471 26.664 37.188 47.09"/><polygon class="bb60e7f7-dbc6-4f7f-a674-41f9ed7d10a0" points="0.834 29.325 4.445 0.048 23.843 10.864 0.834 29.325"/><polygon class="bb60e7f7-dbc6-4f7f-a674-41f9ed7d10a0" points="116.626 72.937 133.164 48.51 111.438 43.898 116.626 72.937"/><polygon class="b0ef5f18-b884-4110-a7b4-6a34e3511889" points="156.473 79.966 170.782 54.17 148.734 51.501 156.473 79.966"/><polygon class="bb77e59c-25e1-4fc5-96d5-e161055473c2" points="195.905 83.163 207.7 56.125 185.497 55.562 195.905 83.163"/><g class="a96d88aa-8459-417f-ab97-29456b26f48e"><polygon class="bb77e59c-25e1-4fc5-96d5-e161055473c2" points="80.472 67.757 96.062 42.714 109.111 60.686 80.472 67.757"/><path class="a93bb56a-ff55-4ca6-872a-a24411a31d77" d="M157.51262,113.41333c37.0171,34.2085,79.4617,62.1551,118.5174,75.6873a.86885.86885,0,0,0,.5696-1.6417C198.89082,160.53043,107.65,76.21233,73.20982-.50367a.86933.86933,0,0,0-1.1482-.4371.86909.86909,0,0,0-.437,1.1494C88.92592,38.75073,120.50462,79.21323,157.51262,113.41333Z"/><path class="a93bb56a-ff55-4ca6-872a-a24411a31d77" d="M86.72342,37.16313c47.9299,15.5954,98.1716,23.233,139.3073,19.1941a.86887.86887,0,0,0-.169-1.7295c-81.8491,8.0331-199.988-30.4068-263.3517-85.6925a.86922.86922,0,0,0-1.2258.0831.869.869,0,0,0,.0836,1.2268C-6.79948-1.97877,38.80542,21.57163,86.72342,37.16313Z"/><rect class="a0a5a05e-ceba-43d8-8262-fe88093bdcb4" x="-268.46428" y="-12.60577" width="447.874" height="598.3258"/></g></svg>